**ABCDEFGHIJKLMNOPQRSTUVWXYZabcdefghijklmnopqrstuvwxyz**************************
**PARASOLID !"#$%&'()*+,-./:;<=>?@[\]^_`{|}~0123456789**************************
**PART1;
MC=AMD64;
MC_MODEL=Intel64 Family 6 Model 142 Stepping 10, GenuineIntel;
MC_ID=unknown;
OS=Windows_NT;
OS_RELEASE=unknown;
FRU=Parasolid Version 31.0, build 282,  2-25-2019;
APPL=SOLIDWORKS 2019-2019115;
SITE=;
USER=unknown;
FORMAT=text;
GUISE=transmit;
KEY=Drag Chain Y Carriage Mount;
FILE=Drag Chain Y Carriage Mount.x_t;
DATE=Wed Feb 12 08:08:06 2020;
**PART2;
SCH=SCH_3100282_31001;
USFLD_SIZE=0;
**PART3;
**END_OF_HEADER*****************************************************************
T51 : TRANSMIT FILE created by modeller version 310028223 SCH_3100282_31001_1300
6215 0 12 34 CCCCCCI4 mesh1006 0 I8 polyline1008 0 CCCCCCCDI5 owner1040 0 CCCCCC
I13 boundary_mesh1006 0 I17 boundary_polyline1008 0 CCCA16 index_map_offset0 0 1
 dA9 index_map82 0 A17 node_id_index_map82 0 A20 schema_embedding_map82 0 A5 chi
ld12 0 A14 lowest_node_id0 0 1 dA16 mesh_offset_data206 0 Z1 2912 2 3 0 0 0 0 0
 0 1e3 1e-8 0 4 0 1 0 1 1 5 6 7 8 0 0 9 10 11 0 0 0 0 0 0 0 81 255 2 2 2858 12 1
 13 0 0 0 0 14 70 11 CI9 list_type0 0 1 uI10 notransmit0 0 1 lCCCDCCDI12 finger_
index0 0 1 dI12 finger_block1012 0 CZ3 0 4 T1 0 0 8 20 1 15 15 13 255 5 162 0 1
 0 16 0 0 17 0 50 255 6 1062 0 18 19 0 0 --.033 .0175 .065 .70710678118655 .7071
06781186545 0 0 0 -1 30 255 7 1911 0 10 20 0 0 +-.024898270660147 .0139366995228
742 .0220917488071854 -.472455591261537 .32732683535399 .818317088384969 29 255
 8 1884 0 11 21 0 -.0277320508075689 .0175 .033 19 8 CCCCCCCA5 owner12 0 Z9 54 0
 1 17 0 22 V0 16 255 10 1909 0 ?23 0 24 7 0 0 1 18 255 11 1882 0 25 0 26 8 ?1 17
 255 25 0 27 28 29 11 30 31 0 32 -18 26 1855 0 33 11 34 21 ?1 17 33 0 35 36 37 2
6 38 39 0 40 -18 34 1825 0 41 26 42 43 ?1 29 21 1857 0 26 43 8 -.014267949192431
14 .0175 .0395 29 43 1827 0 34 44 21 -.02426794919243115 .0175 .052 29 44 955 0
 42 45 43 -.037 .0175 .031 18 42 953 0 46 34 47 44 ?1 29 45 916 0 47 48 44 -.007
 .0215 .02984358189938445 18 47 914 0 49 42 50 45 ?1 29 48 913 0 50 51 45 -.011
 .0175 .03063974027418585 18 50 911 0 52 47 53 48 ?1 29 51 897 0 53 54 48 -.037
 .0215 .061 18 53 895 0 55 50 56 51 ?1 29 54 894 0 56 57 51 -.037 .0215 .041 18
 56 892 0 58 53 59 54 ?1 29 57 877 0 59 60 54 -.037 .0325 .061 18 59 875 0 61 56
 62 57 ?1 29 60 868 0 62 63 57 -.011 .0215 .065 18 62 866 0 64 59 65 60 ?1 29 63
 864 0 65 66 60 -.033 .0215 .065 18 65 862 0 67 62 68 63 ?1 29 66 861 0 68 69 63
 -.033 .0325 .065 18 68 859 0 70 65 71 66 ?1 29 69 858 0 71 72 66 -.011 .0325 .0
65 18 71 856 0 73 68 74 69 ?1 29 72 848 0 74 75 69 -.011 .0175 .061 18 74 846 0
 76 71 77 72 ?1 29 75 844 0 77 78 72 -.033 .0175 .061 18 77 842 0 79 74 80 75 ?1
 29 78 835 0 80 81 75 -.007 .0215 .061 18 80 833 0 82 77 83 78 ?1 29 81 832 0 83
 84 78 -.007 .0325 .061 18 83 830 0 85 80 86 81 ?1 29 84 824 0 86 87 81 -.001266
954013312592 .0075 .006 18 86 822 0 88 83 89 84 ?1 29 87 818 0 89 90 84 -.011266
95401331258 .0175 .031 18 89 816 0 91 86 92 87 ?1 29 90 815 0 92 93 87 -.033 .01
75 .031 18 92 813 0 94 89 95 90 ?1 29 93 807 0 95 96 90 -.007 .02250516123393455
 .031 18 95 805 0 97 92 98 93 ?1 29 96 801 0 98 99 93 .003 .01250516123393456 .0
06 18 98 799 0 100 95 101 96 ?1 29 99 649 0 101 102 96 -.033 .0075 .003 18 101 6
47 0 103 98 104 99 ?1 29 102 506 0 104 105 99 .003 .0325 .006 18 104 504 0 106 1
01 107 102 ?1 29 105 492 0 107 108 102 -.007 .0325 .031 18 107 490 0 109 104 110
 105 ?1 29 108 120 0 111 112 105 .029 .0325 0 18 111 105 0 113 114 115 108 ?1 29
 112 121 0 115 116 108 .033 .0285 0 18 115 106 0 117 111 118 112 ?1 29 116 122 0
 118 119 112 .033 -.0285 0 18 118 107 0 120 115 121 116 ?1 29 119 123 0 121 122
 116 .029 -.0325 0 18 121 108 0 123 118 124 119 ?1 29 122 124 0 124 125 119 -.02
9 -.0325 0 18 124 109 0 126 121 127 122 ?1 29 125 125 0 127 128 122 -.033 -.0285
 0 18 127 110 0 129 124 130 125 ?1 29 128 126 0 130 131 125 -.033 .0325 0 18 130
 111 0 132 127 133 128 ?1 29 131 53 0 110 134 128 .029 .0325 .006 18 110 51 0 13
5 107 136 131 ?1 29 134 50 0 136 137 131 .033 .0285 .006 18 136 48 0 138 110 139
 134 ?1 29 137 47 0 139 140 134 .033 -.0285 .006 18 139 45 0 141 136 142 137 ?1
 29 140 44 0 142 143 137 .029 -.0325 .006 18 142 42 0 144 139 145 140 ?1 29 143
 41 0 145 146 140 -.029 -.0325 .006 18 145 39 0 147 142 114 143 ?1 29 146 38 0 1
14 148 143 -.033 -.0285 .006 18 114 36 0 149 145 111 146 ?1 29 148 458 0 133 150
 146 -.037 .0175 .003 18 133 410 0 151 130 152 148 ?1 29 150 460 0 152 153 148 -
.033 .0325 .003 18 152 408 0 154 133 155 150 ?1 29 153 461 0 155 156 150 -.037 .
0325 .003 18 155 405 0 157 152 158 153 ?1 29 156 1701 0 158 159 153 -.0335845796
2687915 .00896144906719784 .00965362266799458 18 158 1664 0 160 155 161 156 ?1 2
9 159 1702 0 161 162 156 -.033 .0075 .006 18 161 1662 0 163 158 164 159 ?1 29 16
2 1706 0 164 165 159 -.03358457962687915 .00896144906719784 .006 18 164 1665 0 1
66 161 167 162 ?1 29 165 1707 0 167 168 162 -.01906696562634075 .0075 .006 18 16
7 1659 0 169 164 170 165 ?1 29 168 2404 0 170 171 165 -.02773205080756885 .0159
 .027 18 170 1990 0 172 167 173 168 ?1 29 171 2405 0 173 174 168 -.0242679491924
311 .0159 .027 18 173 1992 0 175 170 176 171 ?1 29 174 2406 0 176 177 171 -.0231
1324865405175 .0175 .031 18 176 1984 0 178 173 179 174 ?1 29 177 2407 0 179 180
 174 -.02253589838486225 .0171 .03 18 179 1994 0 181 176 182 177 ?1 29 180 2408
 0 182 183 177 -.02426794919243115 .0175 .033 18 182 1985 0 184 179 185 180 ?1 2
9 183 2409 0 185 186 180 -.02888675134594825 .0175 .031 18 185 1982 0 28 182 187
 183 ?1 29 186 2411 0 187 188 183 -.02946410161513775 .0171 .03 18 187 1976 0 18
9 185 190 186 ?1 29 188 2412 0 190 191 186 -.0142679491924311 .0175 .0455 18 190
 2117 0 192 187 193 188 ?1 29 191 2413 0 193 194 188 -.0177320508075689 .0175 .0
455 18 193 2119 0 195 190 196 191 ?1 29 194 2414 0 196 197 191 -.019464101615137
8 .0175 .0425 18 196 2121 0 198 193 199 194 ?1 29 197 2415 0 199 200 194 -.01773
20508075689 .0175 .0395 18 199 2123 0 201 196 202 197 ?1 29 200 2417 0 202 203 1
97 -.01253589838486224 .0175 .0425 18 202 2110 0 36 199 204 200 ?1 29 203 2418 0
 204 205 200 -.0242679491924311 .0175 .058 18 204 2249 0 206 202 207 203 ?1 29 2
05 2419 0 207 208 203 -.0277320508075689 .0175 .058 18 207 2251 0 209 204 210 20
5 ?1 29 208 2420 0 210 211 205 -.02946410161513775 .0175 .055 18 210 2253 0 212
 207 213 208 ?1 29 211 2421 0 213 214 208 -.0277320508075689 .0175 .052 18 213 2
255 0 215 210 216 211 ?1 29 214 2423 0 216 217 211 -.02253589838486225 .0175 .05
5 18 216 2242 0 218 213 219 214 ?1 29 217 2424 0 220 221 214 -.0242679491924311
 .0235 .058 18 220 2244 0 222 223 224 217 ?1 29 221 2425 0 224 225 217 -.0277320
508075689 .0235 .058 18 224 2245 0 226 220 227 221 ?1 29 225 2426 0 227 228 221
 -.02946410161513775 .0235 .055 18 227 2246 0 229 224 230 225 ?1 29 228 2427 0 2
30 231 225 -.0277320508075689 .0235 .052 18 230 2247 0 232 227 233 228 ?1 29 231
 2428 0 233 234 228 -.02426794919243115 .0235 .052 18 233 2248 0 235 230 236 231
 ?1 29 234 2429 0 236 237 231 -.02253589838486225 .0235 .055 18 236 2243 0 238 2
33 0 234 ?1 29 237 2436 0 239 240 234 -.0142679491924311 .0235 .0455 18 239 2112
 0 241 242 243 237 ?1 29 240 2437 0 243 244 237 -.0177320508075689 .0235 .0455 1
8 243 2113 0 245 239 246 240 ?1 29 244 2438 0 246 247 240 -.0194641016151378 .02
35 .0425 18 246 2114 0 248 243 249 244 ?1 29 247 2439 0 249 250 244 -.0177320508
075689 .0235 .0395 18 249 2115 0 251 246 252 247 ?1 29 250 2440 0 252 253 247 -.
01426794919243114 .0235 .0395 18 252 2116 0 38 249 223 250 ?1 29 253 2441 0 223
 254 250 -.01253589838486224 .0235 .0425 18 223 2111 0 255 252 220 253 ?1 29 254
 2448 0 219 256 253 -.02426794919243115 .0235 .033 18 219 1981 0 257 216 258 254
 ?1 29 256 2449 0 258 259 254 -.0277320508075689 .0235 .033 18 258 1983 0 30 219
 260 256 ?1 29 259 2450 0 260 261 256 -.02946410161513775 .0235 .03 18 260 1977
 0 262 258 263 259 ?1 29 261 2451 0 263 264 259 -.02773205080756885 .0235 .027 1
8 263 1978 0 265 260 266 261 ?1 29 264 2452 0 266 267 261 -.0242679491924311 .02
35 .027 18 266 1979 0 268 263 242 264 ?1 29 267 2453 0 242 0 264 -.0225358983848
6225 .0235 .03 18 242 1980 0 269 266 239 267 ?1 17 269 0 270 271 181 242 272 273
 0 274 +15 255 270 2007 0 269 275 0 17 271 0 270 276 269 266 274 277 0 0 +17 181
 0 270 269 276 179 278 279 0 272 -17 272 0 280 178 281 179 269 273 0 282 -16 273
 1927 0 ?269 283 284 285 0 0 1 17 274 0 286 287 288 242 271 277 0 281 -15 286 20
22 0 287 289 290 17 287 0 286 291 274 219 281 292 0 293 -17 288 0 286 274 294 26
6 295 296 0 271 -16 277 1936 0 ?271 296 292 297 0 0 1 17 281 0 280 272 257 242 2
87 292 0 0 +15 280 2011 0 184 298 0 17 257 0 280 281 184 219 299 300 0 287 +16 2
92 1933 0 ?281 277 301 302 0 0 1 16 301 2058 0 ?241 292 303 304 0 0 1 30 302 239
7 0 292 0 297 0 +-.02426794919243115 .0235 .033 .5 0 -.866025403784438 30 297 23
96 0 277 302 305 0 +-.02253589838486225 .0235 .03 -.5 0 -.866025403784439 30 305
 2395 0 296 297 306 0 +-.0242679491924311 .0235 .027 -1 0 -300462919747433e-29 1
6 296 1939 0 ?295 307 277 305 0 0 1 30 306 2394 0 307 305 308 0 +-.0277320508075
6885 .0235 .027 -.5 0 .866025403784437 16 307 1942 0 ?309 310 296 306 0 0 1 30 3
08 2393 0 310 306 311 0 +-.02946410161513775 .0235 .03 .5 0 .86602540378444 16 3
10 1945 0 ?29 284 307 308 0 0 1 30 311 2392 0 284 308 312 0 +-.0277320508075689
 .0235 .033 1 0 40061722632991e-28 16 284 1948 0 ?293 273 310 311 0 0 1 30 312 2
391 0 300 311 313 0 +-.02426794919243115 .0135 .033 0 1 0 16 300 1929 0 ?257 314
 31 312 0 0 1 30 313 2390 0 31 312 315 0 +-.0277320508075689 .0135 .033 0 1 0 16
 31 1932 0 ?30 300 316 313 0 0 1 30 315 2389 0 316 313 317 0 +-.0294641016151377
5 .0135 .03 0 1 0 16 316 1920 0 ?262 31 318 315 0 0 1 30 317 2388 0 318 315 319
 0 +-.02773205080756885 .0135 .027 0 1 0 16 318 1922 0 ?265 316 283 317 0 0 1 30
 319 2387 0 283 317 285 0 +-.0242679491924311 .0135 .027 0 1 0 16 283 1924 0 ?26
8 318 273 319 0 0 1 30 285 2386 0 273 319 320 0 +-.02253589838486225 .0135 .03 0
 1 0 30 320 2379 0 321 285 322 0 +-.0142679491924311 .0235 .0455 .49999999999999
4 0 -.866025403784442 16 321 2067 0 ?323 324 325 320 0 0 1 30 322 2378 0 324 320
 326 0 +-.01253589838486224 .0235 .0425 -.5 0 -.866025403784438 16 324 2070 0 ?3
7 327 321 322 0 0 1 30 326 2377 0 327 322 328 0 +-.01426794919243114 .0235 .0395
 -1 0 4006172263299085e-30 16 327 2073 0 ?329 330 324 326 0 0 1 30 328 2376 0 33
0 326 331 0 +-.0177320508075689 .0235 .0395 -.5 0 .866025403784441 16 330 2076 0
 ?332 333 327 328 0 0 1 30 331 2375 0 333 328 334 0 +-.0194641016151378 .0235 .0
425 .5 0 .866025403784437 16 333 2079 0 ?335 336 330 331 0 0 1 30 334 2374 0 336
 331 304 0 +-.0177320508075689 .0235 .0455 1 0 -4006172263299075e-30 16 336 2082
 0 ?337 338 333 334 0 0 1 30 304 2373 0 301 334 339 0 +-.0142679491924311 .0135
 .0455 0 1 0 30 339 2372 0 303 304 340 0 +-.0177320508075689 .0135 .0455 0 1 0 1
6 303 2060 0 ?245 301 341 339 0 0 1 30 340 2371 0 341 339 342 0 +-.0194641016151
378 .0135 .0425 0 1 0 16 341 2062 0 ?248 303 343 340 0 0 1 30 342 2370 0 343 340
 344 0 +-.0177320508075689 .0135 .0395 0 1 0 16 343 2064 0 ?251 341 39 342 0 0 1
 30 344 2369 0 39 342 345 0 +-.01426794919243114 .0135 .0395 0 1 0 16 39 2066 0
 ?38 343 338 344 0 0 1 30 345 2368 0 338 344 346 0 +-.01253589838486224 .0135 .0
425 0 1 0 16 338 2056 0 ?255 39 336 345 0 0 1 30 346 2361 0 347 345 348 0 +-.024
2679491924311 .0235 .058 .5 0 -.86602540378444 16 347 2199 0 ?349 350 0 346 0 0
 1 30 348 2360 0 350 346 351 0 +-.02253589838486225 .0235 .055 -.5 0 -.866025403
784439 16 350 2202 0 ?352 353 347 348 0 0 1 30 351 2359 0 353 348 354 0 +-.02426
794919243115 .0235 .052 -1 0 0 16 353 2205 0 ?355 356 350 351 0 0 1 30 354 2358
 0 356 351 357 0 +-.0277320508075689 .0235 .052 -.5 0 .866025403784438 16 356 22
08 0 ?358 359 353 354 0 0 1 30 357 2357 0 359 354 360 0 +-.02946410161513775 .02
35 .055 .5 0 .866025403784439 16 359 2211 0 ?361 362 356 357 0 0 1 30 360 2356 0
 362 357 363 0 +-.0277320508075689 .0235 .058 1 0 0 16 362 2214 0 ?364 365 359 3
60 0 0 1 30 363 2355 0 325 360 366 0 +-.0242679491924311 .0135 .058 0 1 0 16 325
 2190 0 ?222 321 367 363 0 0 1 30 366 2354 0 367 363 368 0 +-.0277320508075689 .
0135 .058 0 1 0 16 367 2192 0 ?226 325 369 366 0 0 1 30 368 2353 0 369 366 370 0
 +-.02946410161513775 .0135 .055 0 1 0 16 369 2194 0 ?229 367 371 368 0 0 1 30 3
70 2352 0 371 368 372 0 +-.0277320508075689 .0135 .052 0 1 0 16 371 2196 0 ?232
 369 373 370 0 0 1 30 372 2351 0 373 370 374 0 +-.02426794919243115 .0135 .052 0
 1 0 16 373 2198 0 ?235 371 365 372 0 0 1 30 374 2350 0 365 372 375 0 +-.0225358
9838486225 .0135 .055 0 1 0 16 365 2188 0 ?238 373 362 374 0 0 1 30 375 2349 0 3
76 374 377 0 +-.0240013157776563 .02088472904855435 .03946182262138565 .47245559
1261532 .3273268353539915 .818317088384972 16 376 1930 0 ?378 379 380 375 0 0 1
 30 377 2348 0 379 375 381 0 +-.0195165413652009 .0150081280943028 .024770320235
7568 .472455591261535 -.3273268353539905 -.81831708838497 16 379 1926 0 ?282 382
 376 377 0 0 1 31 255 381 1699 0 382 377 383 0 +-.0265 .0065 .006 0 0 1 1 0 0 .0
075 16 382 1639 0 ?384 385 379 381 0 0 1 30 383 1696 0 385 381 386 0 --.037 .017
5 .006 -.371390676354104 .928476690885259 0 16 385 1644 0 ?163 387 382 383 0 0 1
 32 255 386 1695 0 387 383 388 0 --.0265 .0065 .0035 -1073766875050612e-31 .9284
76690885258 -.371390676354106 4295067500202485e-32 -.371390676354106 -.928476690
885258 .02019436802675425 .0075 16 387 1649 0 ?160 389 385 386 0 0 1 31 388 1577
 0 389 386 390 0 +.0265 .0065 1530808498934205e-34 0 0 -1 -1 0 0 .0035 16 389 15
51 0 ?391 392 387 388 0 0 1 31 390 1575 0 392 388 393 0 +.0265 .0065 .006 0 0 1
 1 0 0 .0035 16 392 1550 0 ?394 395 389 390 0 0 1 31 393 1525 0 395 390 396 0 +.
0265 -.026 1530808498934205e-34 0 0 -1 -1 0 0 .0035 16 395 1499 0 ?397 398 392 3
93 0 0 1 31 396 1523 0 398 393 399 0 +.0265 -.026 .006 0 0 1 1 0 0 .0035 16 398
 1498 0 ?400 401 395 396 0 0 1 31 399 1473 0 401 396 402 0 +-.0265 -.026 1530808
498934205e-34 0 0 -1 -1 0 0 .0035 16 401 1447 0 ?403 404 398 399 0 0 1 31 402 14
71 0 404 399 405 0 +-.0265 -.026 .006 0 0 1 1 0 0 .0035 16 404 1446 0 ?406 407 4
01 402 0 0 1 31 405 1418 0 407 402 408 0 +-.0265 .0065 1530808498934205e-34 0 0
 -1 -1 0 0 .0035 16 407 1389 0 ?409 410 404 405 0 0 1 31 408 1416 0 410 405 411
 0 +-.0265 .0065 .006 0 0 1 1 0 0 .0035 16 410 1388 0 ?412 413 407 408 0 0 1 31
 411 1316 0 413 408 414 0 +-.026 .0325 .03 0 1 0 0 0 1 .00225 16 413 1287 0 ?415
 416 410 411 0 0 1 31 414 1247 0 416 411 417 0 +-.026 .0325 .055 0 1 0 0 0 1 .00
225 16 416 1220 0 ?418 419 413 414 0 0 1 31 417 1194 0 419 414 420 0 +-.016 .032
5 .0425 0 1 0 0 0 1 .00225 16 419 1167 0 ?421 422 416 417 0 0 1 30 420 453 0 423
 417 424 0 +-.037 .0325 .003 0 1 0 16 423 392 0 ?425 426 427 420 0 0 1 30 424 45
2 0 426 420 428 0 +-.037 .0325 .003 1 0 0 16 426 395 0 ?154 429 423 424 0 0 1 30
 428 451 0 429 424 430 0 +-.033 .0325 .003 0 -1 0 16 429 398 0 ?103 431 426 428
 0 0 1 30 430 324 0 431 428 432 0 +-.007 .0325 .065 -1 0 0 16 431 857 0 ?433 434
 429 430 0 0 1 30 432 316 0 434 430 435 0 +-.037 .0175 .065 0 0 -1 16 434 639 0
 ?436 437 431 432 0 0 1 30 435 315 0 437 432 438 0 +-.037 .0325 .065 0 0 -1 16 4
37 876 0 ?157 439 434 435 0 0 1 30 438 314 0 439 435 440 0 +-.007 .0325 .065 0 0
 -1 16 439 831 0 ?109 441 437 438 0 0 1 30 440 7 0 442 438 443 0 +-.033 .0325 .0
06 -1 0 0 16 442 5 0 ?444 445 446 440 0 0 1 30 443 11 0 445 440 447 0 +-.033 -.0
285 .006 0 -1 0 16 445 502 0 ?149 448 442 443 0 0 1 30 447 15 0 448 443 449 0 +-
.033 -.0285 .006 .707106781186548 -.707106781186548 0 16 448 13 0 ?147 450 445 4
47 0 0 1 30 449 19 0 450 447 451 0 +-.029 -.0325 .006 1 0 0 16 450 17 0 ?144 452
 448 449 0 0 1 30 451 23 0 452 449 453 0 +.029 -.0325 .006 .707106781186548 .707
106781186548 0 16 452 21 0 ?141 454 450 451 0 0 1 30 453 27 0 454 451 455 0 +.03
3 -.0285 .006 0 1 0 16 454 25 0 ?138 456 452 453 0 0 1 30 455 31 0 456 453 457 0
 +.029 .0325 .006 -.707106781186548 .707106781186548 0 16 456 29 0 ?135 458 454
 455 0 0 1 30 457 119 0 441 455 459 0 +-.033 .0325 0 -1 0 0 16 441 101 0 ?460 46
1 439 457 0 0 1 30 459 118 0 461 457 462 0 +-.033 -.0285 0 0 -1 0 16 461 97 0 ?1
29 463 441 459 0 0 1 30 462 117 0 463 459 464 0 +-.033 -.0285 0 .707106781186548
 -.707106781186548 0 16 463 93 0 ?126 465 461 462 0 0 1 30 464 116 0 465 462 466
 0 +-.029 -.0325 0 1 0 0 16 465 89 0 ?123 467 463 464 0 0 1 30 466 115 0 467 464
 468 0 +.029 -.0325 0 .707106781186548 .707106781186548 0 16 467 85 0 ?120 469 4
65 466 0 0 1 30 468 114 0 469 466 470 0 +.033 -.0285 0 0 1 0 16 469 81 0 ?117 44
6 467 468 0 0 1 30 470 113 0 446 468 471 0 +.029 .0325 0 -.707106781186548 .7071
06781186548 0 16 446 77 0 ?113 442 469 470 0 0 1 30 471 155 0 458 470 472 0 +.02
9 .0325 .006 0 0 -1 16 458 127 0 ?473 474 456 471 0 0 1 30 472 156 0 474 471 475
 0 +.033 .0285 .006 0 0 -1 16 474 128 0 ?476 477 458 472 0 0 1 30 475 157 0 477
 472 478 0 +.033 -.0285 .006 0 0 -1 16 477 129 0 ?479 480 474 475 0 0 1 30 478 1
58 0 480 475 481 0 +.029 -.0325 .006 0 0 -1 16 480 130 0 ?482 483 477 478 0 0 1
 30 481 159 0 483 478 484 0 +-.029 -.0325 .006 0 0 -1 16 483 131 0 ?485 486 480
 481 0 0 1 30 484 160 0 486 481 487 0 +-.033 -.0285 .006 0 0 -1 16 486 132 0 ?48
8 489 483 484 0 0 1 30 487 161 0 489 484 490 0 +-.033 .0325 .006 0 0 -1 16 489 3
64 0 ?132 491 486 487 0 0 1 30 490 498 0 491 487 492 0 +-.007 .0325 .031 -115648
2317317872e-31 1 0 16 491 806 0 ?493 494 489 490 0 0 1 30 492 510 0 494 490 495
 0 +-867361737988405e-33 .0075 .006 -1 -1156482317317872e-31 0 16 494 823 0 ?496
 497 491 492 0 0 1 30 495 513 0 497 492 498 0 +.003 34694469519536e-32 .006 1156
482317317872e-31 -1 0 16 497 511 0 ?499 500 494 495 0 0 1 30 498 522 0 501 495 5
02 0 +-.007 .0175 .031 1 1156482317317872e-31 0 16 501 814 0 ?503 504 500 498 50
0 500 1 30 502 582 0 504 498 505 0 +-.001965517241379385 .0325 .0184137931034483
5 .371390676354106 0 -.928476690885258 16 504 526 0 ?106 506 501 502 0 0 1 30 50
5 653 0 506 502 507 0 +-.033 .0075 .003 0 0 -1 16 506 651 0 ?508 509 504 505 0 0
 1 30 507 756 0 509 505 510 0 --.03635222672064775 .0158805668016194 .0269514170
0404835 -.14694367167413 .367359179185325 .918397947963305 16 509 656 0 ?511 512
 506 507 0 0 1 30 510 757 0 512 507 513 0 --.02586206896551725 -.010344827586206
9 .003 .371390676354104 -.928476690885259 0 16 512 660 0 ?151 514 509 510 0 0 1
 30 513 810 0 514 510 515 0 +-.00821149560800795 .0237166568419425 .034028739020
01965 .3481553119113975 -.3481553119113975 -.870388279778488 16 514 808 0 ?516 5
17 512 513 0 0 1 30 515 827 0 517 513 518 0 +-.0107497474662444 .016982793452931
8 .0297069836323293 -.3481553119113975 .3481553119113975 .870388279778488 16 517
 825 0 ?519 520 514 515 0 0 1 30 518 836 0 520 515 521 0 +-.007 .0325 .061 11564
82317317872e-31 -1 0 16 520 834 0 ?82 522 517 518 0 0 1 30 521 839 0 522 518 523
 0 +-.007 .0215 .065 0 0 -1 16 522 837 0 ?49 524 520 521 0 0 1 30 523 845 0 524
 521 525 0 +-.033 .0175 .065 0 0 -1 16 524 843 0 ?94 526 522 523 0 0 1 30 525 84
9 0 526 523 527 0 +-.007 .0175 .061 -1 -1156482317317872e-31 0 16 526 847 0 ?79
 528 524 525 0 0 1 30 527 852 0 528 525 529 0 +-.011 .0175 .065 0 0 1 16 528 850
 0 ?76 530 526 527 0 0 1 30 529 865 0 530 527 531 0 +-.033 0 .065 0 -1 0 16 530
 863 0 ?67 532 528 529 0 0 1 30 531 869 0 532 529 533 0 +-2486436982233425e-33 .
0215 .065 1 1156482317317872e-31 0 16 532 867 0 ?64 534 530 531 0 0 1 30 533 872
 0 534 531 535 0 +-.011 -1272130549049658e-33 .065 -1156482317317872e-31 1 0 16
 534 870 0 ?73 536 532 533 0 0 1 30 535 880 0 536 533 537 0 --.033 .0325 .065 -.
707106781186545 0 -.70710678118655 16 536 878 0 ?70 538 534 535 0 0 1 30 537 887
 0 538 535 539 0 --.011 .0325 .065 -.707106781186545 0 .70710678118655 16 538 88
5 0 ?85 540 536 537 0 0 1 30 539 898 0 540 537 541 0 +-.037 .0215 .065 0 0 1 16
 540 896 0 ?55 542 538 539 0 0 1 30 541 900 0 542 539 543 0 +-.037 .031293103448
27605 .0654827586206896 0 .371390676354106 .928476690885258 16 542 899 0 ?544 54
5 540 541 0 0 1 30 543 903 0 545 541 546 0 +-.037 .0325 .061 0 1 0 16 545 901 0
 ?61 547 542 543 0 0 1 30 546 976 0 547 543 548 0 -.003816371790737445 .01346276
996998576 .006 .648756998602412 .760995635180906 0 16 547 907 0 ?88 549 545 546
 0 0 1 30 548 977 0 549 546 550 0 --.026018359359826 .0175 .050907313546481 -.59
5364285793611 -688528268882895e-31 .803455890016038 16 549 912 0 ?551 552 547 54
8 0 0 1 30 550 978 0 552 548 553 0 --.007 .04364092745046025 .0553162806105152 7
58678669390246e-31 -.656022714769892 -.754741146159358 16 552 915 0 ?97 554 549
 550 0 0 1 30 553 981 0 554 550 555 0 --.02984848484848485 .01434848484848482 .0
231212121212119 .3481553119113955 -.348155311911398 -.870388279778488 16 554 926
 0 ?58 556 552 553 0 0 1 30 555 1076 0 422 553 557 0 --.00691559725118017 .02158
440274881985 .0298267824105522 .70020581642065 .700205816420655 -.13936868120698
4 16 422 1038 0 ?558 559 419 555 0 0 1 30 557 1075 0 559 555 560 0 +-.011 .0175
 .061 -.707106781186545 -.70710678118655 505398101123384e-29 16 559 1033 0 ?561
 562 422 557 0 0 1 30 560 1074 0 562 557 563 0 --.009 .0215 .063 .70710678118654
5 3161999785731655e-31 -.70710678118655 16 562 1030 0 ?564 565 559 560 0 0 1 30
 563 1073 0 565 560 566 0 --.011 .0175 .061 -164540693022726e-30 .70710678118655
 .707106781186545 16 565 1029 0 ?567 568 562 563 0 0 1 30 566 1072 0 568 563 569
 0 +-.033 .0175 .061 -164540693022726e-30 -.70710678118655 -.707106781186545 16
 568 1024 0 ?570 571 565 566 0 0 1 30 569 1071 0 571 566 572 0 --.035 .0215 .063
 .707106781186545 -2200518442539865e-31 .70710678118655 16 571 1022 0 ?573 427 5
68 569 0 0 1 30 572 1070 0 427 569 574 0 --.033 .0175 .061 -.707106781186545 .70
710678118655 -509032419183099e-29 16 427 1021 0 ?575 423 571 572 0 0 1 30 574 16
20 0 556 572 576 0 +-.03358457962687915 .00896144906719784 .065 0 0 -1 16 556 16
18 0 ?166 577 554 574 0 0 1 31 576 1798 0 314 574 578 0 --.026 .0235 .03 0 1 0 0
 0 1 .00225 16 314 1951 0 ?579 580 300 576 0 0 1 31 578 1805 0 580 576 581 0 --.
026 .0235 .055 0 1 0 0 0 1 .00225 16 580 2217 0 ?582 380 314 578 0 0 1 31 581 18
12 0 380 578 583 0 --.016 .0235 .0425 0 1 0 0 0 1 .00225 16 380 2085 0 ?584 376
 580 581 0 0 1 30 583 1828 0 577 581 585 0 +-.01432179676972452 .0175 .069227241
3359522 -.5 -578241158658935e-31 -.866025403784439 16 577 1826 0 ?586 587 556 58
3 0 0 1 30 585 1832 0 587 583 588 0 +-.007 .0175 .052 -1 -1156482317317872e-31 0
 16 587 1830 0 ?589 590 577 585 0 0 1 30 588 1836 0 590 585 591 0 +-.02817820323
02755 .0175 .0527727586640478 -.5 -578241158658937e-31 .866025403784438 16 590 1
834 0 ?592 593 587 588 0 0 1 30 591 1840 0 593 588 594 0 +-.0195179491924311 .01
75 .0722272413359522 .5 578241158658936e-31 .866025403784439 16 593 1838 0 ?595
 596 590 591 0 0 1 30 594 1844 0 596 591 597 0 +-.007 .0175 .058 1 1156482317317
872e-31 0 16 596 1842 0 ?598 599 593 594 0 0 1 30 597 1847 0 599 594 600 0 +-.02
29820508075689 .0175 .0557727586640479 .5 578241158658934e-31 -.86602540378444 1
6 599 1845 0 ?601 602 596 597 0 0 1 30 600 1858 0 602 597 603 0 +-.0014091379960
7172 .0175 .0617721143170299 -.5 -578241158658938e-31 -.866025403784438 16 602 1
856 0 ?604 605 599 600 0 0 1 30 603 1862 0 605 600 606 0 +-.00700000000000011 .0
175 .0395 -1 -1156482317317872e-31 4006172263299085e-30 16 605 1860 0 ?607 608 6
02 603 0 0 1 30 606 1866 0 608 603 609 0 +-.02609086200392825 .0175 .05397788568
29701 -.5 -578241158658932e-31 .866025403784441 16 608 1864 0 ?610 611 605 606 0
 0 1 30 609 1870 0 611 606 612 0 +-.00660529041877833 .0175 .06477211431703 .5 5
78241158658939e-31 .866025403784437 16 611 1868 0 ?613 614 608 609 0 0 1 30 612
 1874 0 614 609 615 0 +-.00700000000000008 .0175 .0455 1 1156482317317872e-31 -4
006172263299075e-30 16 614 1872 0 ?616 617 611 612 0 0 1 30 615 1877 0 617 612 6
18 0 +-.0208947095812216 .0175 .0569778856829702 .5 578241158658929e-31 -.866025
403784442 16 617 1875 0 ?619 620 614 615 0 0 1 30 618 1885 0 620 615 621 0 +-.00
869263164512572 .0175 .0659772413359522 .5 578241158658933e-31 .86602540378444 1
6 620 1883 0 ?622 623 617 618 0 0 1 30 621 1889 0 623 618 624 0 +-.0069999999999
9988 .0175 .033 1 1156482317317872e-31 40061722632991e-28 16 623 1887 0 ?625 626
 620 621 0 0 1 30 624 1892 0 626 621 627 0 +-.0338073683548744 .0175 .0495227586
640478 .5 578241158658938e-31 -.866025403784438 16 626 1890 0 ?628 279 623 624 0
 0 1 30 627 1903 0 279 624 20 0 +-.0186195864827101 .0198133004771258 .036783251
19281425 -.472455591261533 -.327326835353991 -.818317088384971 16 279 1901 0 ?27
8 24 626 627 0 0 1 30 20 1907 0 24 627 7 0 +-.007 .0159 .027 -1 -131749991072152
6e-30 -300462919747433e-29 16 24 1905 0 ?629 10 279 20 0 0 1 17 629 0 630 23 278
 170 175 24 0 0 +15 630 1898 0 631 16 0 17 23 0 630 378 629 187 172 10 0 0 +17 2
78 0 630 629 282 173 181 279 0 0 +17 175 0 632 268 633 173 629 24 0 276 -15 632
 2003 0 268 634 0 17 268 0 632 295 175 266 276 283 0 288 +17 633 0 632 175 295 1
70 265 318 0 629 -17 276 0 270 181 271 173 268 283 0 278 -17 295 0 632 633 268 2
63 288 296 0 0 +17 265 0 635 309 172 263 633 318 0 294 +15 635 1999 0 265 636 0
 17 309 0 635 637 265 260 294 307 0 0 +17 172 0 635 265 637 170 23 10 0 633 -17
 294 0 286 288 638 263 309 307 0 295 -17 638 0 286 294 291 260 29 310 0 309 -17
 291 0 286 638 287 258 293 284 0 0 -17 29 0 27 25 262 258 638 310 0 291 +15 27 2
019 0 262 639 0 17 262 0 27 29 189 260 637 316 0 638 +17 189 0 27 262 28 187 378
 376 0 637 -17 637 0 635 172 309 187 262 316 0 23 -17 28 0 27 189 25 185 622 620
 0 378 -17 378 0 630 640 23 185 189 376 0 503 +17 640 0 630 58 378 92 503 501 0
 641 -17 503 0 642 622 94 185 640 501 0 0 +15 642 299 0 625 643 0 17 622 0 642 6
25 503 11 28 620 0 0 +17 94 0 642 503 79 92 644 524 0 640 +17 79 0 642 94 76 77
 645 526 0 644 +17 644 0 646 647 641 77 94 524 0 575 -15 646 998 0 641 18 0 17 6
47 0 646 648 644 53 575 427 0 573 -17 641 0 646 644 648 92 58 554 0 0 -17 575 0
 649 650 573 77 647 427 0 570 +15 649 1002 0 573 651 0 17 650 0 649 573 575 65 5
70 568 0 652 -17 573 0 649 575 650 53 653 571 0 0 +17 570 0 654 645 652 77 650 5
68 0 0 +15 654 1004 0 570 655 0 17 645 0 654 656 570 74 79 526 0 567 -17 652 0 6
54 570 656 65 64 532 0 0 -17 656 0 654 652 645 62 567 565 0 564 -17 64 0 657 73
 67 62 652 532 0 658 +15 657 302 0 64 659 0 17 73 0 657 433 64 71 658 534 0 660
 +17 67 0 657 64 433 65 661 530 0 653 +17 658 0 662 663 664 62 73 534 0 656 -15
 662 1006 0 664 665 0 17 663 0 662 666 658 80 564 562 0 667 -17 664 0 662 658 66
6 71 85 538 0 0 -17 666 0 662 664 663 83 82 520 0 0 -17 85 0 668 109 660 83 664
 538 0 669 +15 668 472 0 660 670 0 17 109 0 668 106 85 107 669 439 0 493 +17 660
 0 668 85 70 71 433 431 0 664 -17 669 0 671 82 493 83 109 439 0 666 -15 671 287
 0 82 672 0 17 82 0 671 49 669 80 666 520 0 663 +17 493 0 671 669 97 107 673 491
 0 674 +17 97 0 671 493 49 95 675 552 0 673 +17 673 0 676 516 674 95 493 491 0 6
77 -17 674 0 676 673 678 107 106 504 0 0 -15 676 598 0 673 679 0 17 678 0 676 67
4 516 104 499 497 0 0 -17 106 0 668 680 109 104 674 504 0 444 +17 680 0 668 473
 106 110 444 442 0 0 -17 444 0 681 499 135 104 680 442 0 678 +15 681 1378 0 496
 682 683 17 499 0 681 88 444 98 678 497 0 0 +17 135 0 681 444 138 110 684 456 0
 685 +17 138 0 681 135 141 136 686 454 0 687 +17 684 0 688 476 685 136 135 456 0
 0 -17 685 0 688 684 113 110 473 458 0 680 -15 688 134 0 113 689 0 17 113 0 688
 685 476 111 690 446 0 473 +17 473 0 668 460 680 111 685 458 0 691 +17 460 0 668
 692 473 130 691 441 0 0 +17 691 0 693 690 694 111 460 441 0 0 -15 693 76 0 691
 695 0 17 690 0 693 696 691 115 113 446 0 0 -17 694 0 693 691 697 130 129 461 0
 460 -17 697 0 693 694 698 127 126 463 0 0 -17 129 0 699 700 132 127 694 461 0 4
88 +15 699 371 0 701 702 0 17 700 0 699 701 129 114 488 486 0 703 -17 132 0 699
 129 704 130 692 489 0 694 +17 488 0 705 126 703 127 700 486 0 697 +15 705 142 0
 126 706 0 17 126 0 705 707 488 124 697 463 0 485 +17 703 0 705 488 707 114 147
 448 0 0 -17 707 0 705 703 126 145 485 483 0 708 -17 147 0 681 144 149 145 703 4
48 0 707 +17 144 0 681 141 147 142 708 450 0 709 +17 149 0 681 147 163 114 701 4
45 0 700 +17 163 0 681 149 384 161 710 385 0 701 +17 701 0 699 508 700 161 149 4
45 0 711 -17 508 0 699 704 701 101 711 506 0 712 +17 711 0 713 710 712 161 508 5
06 0 0 -15 713 1619 0 714 715 0 17 710 0 713 714 711 164 163 385 0 0 -17 712 0 7
13 711 436 101 151 512 0 0 -17 436 0 713 712 716 133 717 434 0 0 +17 151 0 718 4
25 103 133 712 512 0 719 +15 718 430 0 425 720 0 17 425 0 718 154 151 155 719 42
3 0 0 +17 103 0 718 151 154 101 704 429 0 508 +17 719 0 721 717 157 133 425 423
 0 436 -15 721 295 0 55 722 0 17 717 0 721 544 719 42 436 434 0 716 -17 157 0 72
1 719 61 155 723 437 0 724 +17 61 0 721 157 55 59 725 545 0 723 +17 723 0 668 70
 724 59 157 437 0 726 -17 724 0 668 723 692 155 154 426 0 425 -17 692 0 668 724
 460 152 132 489 0 0 -17 154 0 718 103 425 152 724 426 0 704 +17 704 0 699 132 5
08 152 103 429 0 692 -17 70 0 668 660 723 68 726 536 0 433 +17 726 0 727 725 661
 59 70 536 0 0 -15 727 1000 0 726 728 0 17 725 0 727 653 726 53 61 545 0 647 -17
 661 0 727 726 653 68 67 530 0 0 -17 653 0 727 661 725 65 573 571 0 650 -14 255
 728 999 729 ?651 18 727 5 19 +0 0 651 18 22 81 1 729 2859 730 728 731 0 0 732 7
33 14 651 1001 732 ?655 728 649 5 734 +0 0 655 728 22 14 18 997 735 ?728 679 646
 5 6 +0 0 728 679 22 50 19 1063 0 728 734 6 0 --.033 0 .065 .70710678118655 0 -.
707106781186545 0 -1 0 13 22 55 0 0 0 0 0 0 9 16 14 16 1628 736 ?715 0 630 5 737
 -0 0 715 0 22 81 1 736 2862 730 16 738 0 735 739 740 14 715 1621 739 ?741 16 71
3 5 742 -0 0 741 16 22 50 737 614 0 16 743 742 0 +-.007 .0175 .031 -107376687505
0612e-31 .928476690885258 -.371390676354106 1 1156482317317872e-31 0 50 743 615
 0 679 744 737 0 +-.007 .0325 .031 -.928476690885258 -1073766875050612e-31 -.371
390676354106 -1156482317317872e-31 1 0 50 742 776 0 715 737 745 0 --.037 .0175 .
065 -.928476690885259 -.371390676354104 0 0 0 -1 50 745 1069 0 746 742 747 0 --.
00821149560800795 .0237166568419425 .03402873902001965 -.662867965279616 .565102
100122113 -.491188026160695 .3481553119113975 -.3481553119113975 -.8703882797784
88 14 746 1011 748 ?749 750 751 5 745 +0 0 749 750 22 50 747 1068 0 750 745 752
 0 --.007 .0215 .065 -.70710678118655 .707106781186545 0 0 0 -1 14 750 1009 753
 ?746 754 755 5 747 +0 0 746 754 22 50 752 1067 0 754 747 756 0 +-.011 .0175 .06
1 .57735026918963 -.577350269189622 .577350269189626 .707106781186545 0 -.707106
78118655 14 754 1007 757 ?750 665 758 5 752 +0 0 750 665 22 50 756 1066 0 665 75
2 759 0 --.011 -1272130549049658e-33 .065 -.70710678118655 -817756488897802e-31
 -.707106781186545 -1156482317317872e-31 1 0 14 665 1005 760 ?754 655 662 5 756
 +0 0 754 655 22 50 759 1065 0 655 756 734 0 --2486436982233425e-33 .0215 .065 -
817756488897797e-31 .707106781186545 -.70710678118655 1 1156482317317872e-31 0 1
4 655 1003 761 ?665 651 654 5 759 +0 0 665 651 22 50 734 1064 0 651 759 19 0 +-.
033 .0175 .061 -.57735026918963 -.577350269189622 .577350269189626 .707106781186
545 0 .70710678118655 81 1 761 2868 730 655 762 0 760 763 764 80 255 1 730 765 7
66 9000 1 1 1 1 1 1 1 1 0 FFFFTFTFFFFFFF1 81 1 762 2711 767 655 0 761 768 769 77
0 81 1 760 2867 730 665 769 0 757 761 771 81 1 763 2869 730 749 772 0 761 773 77
4 82 255 1 764 1506082934 14 749 1169 763 ?775 746 776 5 777 -0 0 775 746 22 81
 1 772 2716 767 749 0 763 778 779 780 81 1 773 2870 730 775 779 0 763 781 782 82
 1 774 -1986133880 14 775 1222 773 ?783 749 784 5 785 -0 0 783 749 22 81 1 779 2
717 767 775 0 773 772 786 787 81 1 781 2871 730 783 786 0 773 788 789 82 1 782 -
1985937272 14 783 1291 781 ?790 775 791 5 792 -0 0 790 775 22 81 1 786 2718 767
 783 0 781 779 793 794 81 1 788 2872 730 790 793 0 781 795 796 82 1 789 -1985740
664 14 790 1461 788 ?797 783 798 5 799 -0 0 797 783 22 81 1 793 2719 767 790 0 7
88 786 800 801 81 1 795 2873 730 797 800 0 788 802 803 82 1 796 -443678594 14 79
7 1513 795 ?804 790 805 5 806 -0 0 804 790 22 81 1 800 2720 767 797 0 795 793 80
7 808 81 1 802 2874 730 804 807 0 795 809 810 82 1 803 -459734914 14 804 1565 80
2 ?811 797 812 5 813 -0 0 811 797 22 81 1 807 2721 767 804 0 802 800 814 815 81
 1 809 2875 730 811 814 0 802 816 817 82 1 810 -475856770 14 811 1666 809 ?636 8
04 818 5 819 +0 0 636 804 22 81 1 814 2722 767 811 0 809 807 820 821 81 1 816 28
76 730 636 820 0 809 822 823 82 1 817 430243969 14 636 1996 816 ?634 811 635 5 8
24 -0 0 634 811 22 81 1 820 2723 767 636 0 816 814 825 826 81 1 822 2877 730 634
 825 0 816 827 828 82 1 823 1672085640 14 634 2000 822 ?275 636 632 5 829 -0 0 2
75 636 22 81 1 825 2724 767 634 0 822 820 830 831 81 1 827 2878 730 275 830 0 82
2 832 833 82 1 828 1671626888 14 275 2004 827 ?298 634 270 5 834 -0 0 298 634 22
 81 1 830 2725 767 275 0 827 825 835 836 81 1 832 2879 730 298 835 0 827 837 838
 82 1 833 1670840456 14 298 2008 832 ?839 275 280 5 840 -0 0 839 275 22 81 1 835
 2726 767 298 0 832 830 841 842 81 1 837 2880 730 839 841 0 832 843 844 82 1 838
 1668022408 14 839 2012 837 ?639 298 845 5 846 -0 0 639 298 22 81 1 841 2727 767
 839 0 837 835 847 848 81 1 843 2881 730 639 847 0 837 849 850 82 1 844 16668427
60 14 639 2016 843 ?289 839 27 5 851 -0 0 289 839 22 81 1 847 2728 767 639 0 843
 841 852 853 81 1 849 2882 730 289 852 0 843 854 855 82 1 850 1666056328 14 289
 2020 849 ?856 639 286 5 857 -0 0 856 639 22 81 1 852 2729 767 289 0 849 847 858
 859 81 1 854 2883 730 856 858 0 849 860 861 82 1 855 1645543560 14 856 2260 854
 ?862 289 863 5 864 -0 0 862 289 22 81 1 858 2730 767 856 0 854 852 865 866 81 1
 860 2884 730 862 865 0 854 867 868 82 1 861 1659830408 14 862 2264 860 ?869 856
 870 5 871 -0 0 869 856 22 81 1 865 2731 767 862 0 860 858 872 873 81 1 867 2885
 730 869 872 0 860 874 875 82 1 868 1659371656 14 869 2268 867 ?876 862 877 5 87
8 -0 0 876 862 22 81 1 872 2732 767 869 0 867 865 879 880 81 1 874 2886 730 876
 879 0 867 881 882 82 1 875 1658585224 14 876 2272 874 ?883 869 884 5 885 -0 0 8
83 869 22 81 1 879 2733 767 876 0 874 872 886 887 81 1 881 2887 730 883 886 0 87
4 888 889 82 1 882 1657798792 14 883 2276 881 ?890 876 891 5 892 -0 0 890 876 22
 81 1 886 2734 767 883 0 881 879 893 894 81 1 888 2888 730 890 893 0 881 895 896
 82 1 889 1657012360 14 890 2280 888 ?897 883 898 5 899 -0 0 897 883 22 81 1 893
 2735 767 890 0 888 886 900 901 81 1 895 2889 730 897 900 0 888 902 903 82 1 896
 1656225928 14 897 2284 895 ?904 890 905 5 906 -0 0 904 890 22 81 1 900 2736 767
 897 0 895 893 907 908 81 1 902 2890 730 904 907 0 895 909 910 82 1 903 16465921
36 14 904 2128 902 ?911 897 912 5 913 -0 0 911 897 22 81 1 907 2737 767 904 0 90
2 900 914 915 81 1 909 2891 730 911 914 0 902 916 917 82 1 910 1664549000 14 911
 2132 909 ?918 904 919 5 920 -0 0 918 904 22 81 1 914 2738 767 911 0 909 907 921
 922 81 1 916 2892 730 918 921 0 909 923 924 82 1 917 1664090248 14 918 2136 916
 ?925 911 926 5 927 -0 0 925 911 22 81 1 921 2739 767 918 0 916 914 928 929 81 1
 923 2893 730 925 928 0 916 930 931 82 1 924 1663303816 14 925 2140 923 ?932 918
 933 5 934 -0 0 932 918 22 81 1 928 2740 767 925 0 923 921 935 936 81 1 930 2894
 730 932 935 0 923 937 938 82 1 931 1662517384 14 932 2144 930 ?939 925 940 5 94
1 -0 0 939 925 22 81 1 935 2741 767 932 0 930 928 942 943 81 1 937 2895 730 939
 942 0 930 944 945 82 1 938 1661730952 14 939 2148 937 ?946 932 35 5 947 -0 0 94
6 932 22 81 1 942 2742 767 939 0 937 935 948 949 81 1 944 2896 730 946 948 0 937
 950 951 82 1 945 1660944520 14 946 2152 944 ?0 939 952 5 953 -0 0 0 939 22 81 1
 948 2743 767 946 0 944 942 0 954 81 1 950 2897 730 682 955 0 944 956 957 82 1 9
51 1647640712 14 682 1 950 ?695 689 958 5 959 +0 0 695 689 22 81 1 955 2700 767
 682 0 950 960 961 962 81 1 956 2898 730 741 963 0 950 964 965 82 1 957 80753472
1 14 741 1610 956 ?702 715 966 5 967 -0 0 702 715 22 81 1 963 2692 767 741 0 956
 968 969 970 81 1 964 2899 730 679 971 0 956 972 973 82 1 965 424870017 14 679 5
97 964 ?18 720 676 5 743 -0 0 18 720 22 81 1 971 2707 767 679 0 964 974 975 976
 81 1 972 2900 730 720 974 0 964 977 978 82 1 973 -326369162 14 720 428 972 ?679
 659 718 5 979 -0 0 679 659 22 81 1 974 2706 767 720 0 972 980 971 981 81 1 977
 2901 730 643 982 0 972 983 984 82 1 978 -826343311 14 643 296 977 ?659 722 985
 5 986 -0 0 659 722 22 81 1 982 2704 767 643 0 977 987 980 988 81 1 983 2902 730
 722 987 0 977 989 990 82 1 984 -1982070648 14 722 292 983 ?643 672 721 5 991 -0
 0 643 672 22 81 1 987 2703 767 722 0 983 992 982 993 81 1 989 2903 730 670 994
 0 983 995 996 82 1 990 -1921187722 14 670 147 989 ?706 702 997 5 744 -0 0 706 7
02 22 81 1 994 2694 767 670 0 989 969 998 999 81 1 995 2904 730 702 969 0 989 10
00 1001 82 1 996 819789946 14 702 373 995 ?670 741 699 5 1002 -0 0 670 741 22 81
 1 969 2693 767 702 0 995 963 994 1003 81 1 1000 2905 730 659 980 0 995 1004 100
5 82 1 1001 -814808959 14 659 300 1000 ?720 643 657 5 1006 -0 0 720 643 22 81 1
 980 2705 767 659 0 1000 982 974 1007 81 1 1004 2906 730 672 992 0 1000 1008 100
9 82 1 1005 -1928003466 14 672 284 1004 ?722 695 671 5 1010 -0 0 722 695 22 81 1
 992 2702 767 672 0 1004 961 987 1011 81 1 1008 2907 730 695 961 0 1004 1012 101
3 82 1 1009 -1920663434 14 695 75 1008 ?672 682 1014 5 1015 -0 0 672 682 22 81 1
 961 2701 767 695 0 1008 955 992 1016 81 1 1012 2908 730 689 960 0 1008 1017 101
8 82 1 1013 816709758 14 689 135 1012 ?682 1019 688 5 1020 -0 0 682 1019 22 81 1
 960 2699 767 689 0 1012 1021 955 1022 81 1 1017 2909 730 1019 1021 0 1012 1023
 1024 82 1 1018 818217063 14 1019 137 1017 ?689 1025 1026 5 1027 -0 0 689 1025 2
2 81 1 1021 2698 767 1019 0 1017 1028 960 1029 81 1 1023 2910 730 1025 1028 0 10
17 1030 1031 82 1 1024 818479207 14 1025 139 1023 ?1019 1032 1033 5 1034 -0 0 10
19 1032 22 81 1 1028 2697 767 1025 0 1023 1035 1021 1036 81 1 1030 2911 730 1032
 1035 0 1023 1037 1038 82 1 1031 818741351 14 1032 141 1030 ?1025 706 1039 5 104
0 -0 0 1025 706 22 81 1 1035 2696 767 1032 0 1030 998 1028 1041 81 1 1037 2912 7
30 706 998 0 1030 0 1042 82 1 1038 819003495 14 706 143 1037 ?1032 670 705 5 104
3 -0 0 1032 670 22 81 1 998 2695 767 706 0 1037 994 1035 1044 82 1 1042 81926563
9 80 1 767 0 1045 8001 0 0 0 0 3 5 0 0 0 FFFFTFTFFFFFFF2 83 255 3 1044 .79215686
2745098 .819607843137255 .933333333333333 79 255 15 1045 SDL/TYSA_COLOUR50 1043
 152 0 706 1040 1002 0 +-.033 -.0285 .006 .707106781186548 .707106781186548 0 -.
707106781186548 .707106781186548 0 50 1040 151 0 1032 1034 1043 0 +-.029 -.0325
 .006 0 1 0 0 0 1 50 1002 153 0 702 1043 744 0 +-.033 -.0285 .006 1 0 0 0 0 -1 5
0 744 154 0 670 1002 743 0 +-.033 .0325 .006 0 -1 0 0 0 -1 50 1034 150 0 1025 10
27 1040 0 +.029 -.0325 .006 -.707106781186548 .707106781186548 0 -.7071067811865
48 -.707106781186548 0 50 1027 149 0 1019 1020 1034 0 +.033 -.0285 .006 -1 0 0 0
 0 1 50 1020 148 0 689 1015 1027 0 +.029 .0325 .006 -.707106781186548 -.70710678
1186548 0 .707106781186548 -.707106781186548 0 50 1015 112 0 695 959 1020 0 +0 0
 0 0 0 1 1 0 0 50 959 3 0 682 1010 1015 0 +0 0 .006 0 0 1 1 0 0 50 1010 308 0 67
2 991 959 0 +-.007 .0325 .065 -1 -1156482317317872e-31 0 1156482317317872e-31 -1
 0 50 991 310 0 722 986 1010 0 +-.037 .0325 .065 1 0 0 0 0 -1 50 986 311 0 643 1
006 991 0 +-.007 .0175 .065 -1156482317317872e-31 1 0 -1 -1156482317317872e-31 0
 50 1006 313 0 659 979 986 0 +0 0 .065 0 0 -1 -1 0 0 50 979 441 0 720 777 1006 0
 +0 0 .003 0 0 1 1 0 0 51 255 777 1191 0 749 785 979 0 +-.016 .0325 .0425 0 1 0
 .00225 0 0 1 51 785 1244 0 775 792 777 0 +-.026 .0325 .055 0 1 0 .00225 0 0 1 5
1 792 1313 0 783 967 785 0 +-.026 .0325 .03 0 1 0 .00225 0 0 1 51 967 1415 0 741
 799 792 0 +-.0265 .0065 0 0 0 -1 .0035 -1 0 0 51 799 1470 0 790 806 967 0 +-.02
65 -.026 0 0 0 -1 .0035 -1 0 0 51 806 1522 0 797 813 799 0 +.0265 -.026 0 0 0 -1
 .0035 -1 0 0 51 813 1574 0 804 819 806 0 +.0265 .0065 0 0 0 -1 .0035 -1 0 0 51
 819 1692 0 811 864 813 0 --.0265 .0065 .065 0 0 -1 .0075 -1 0 0 50 864 2324 0 8
56 899 819 0 +-.0242679491924311 .0135 .058 .86602540378444 0 .5 .5 0 -.86602540
378444 50 899 2325 0 890 892 864 0 +-.02253589838486225 .0135 .055 .866025403784
439 0 -.5 -.5 0 -.866025403784439 50 892 2326 0 883 885 899 0 +-.024267949192431
15 .0135 .052 0 0 -1 -1 0 0 50 885 2327 0 876 878 892 0 +-.0277320508075689 .013
5 .052 -.866025403784438 0 -.5 -.5 0 .866025403784438 50 878 2328 0 869 871 885
 0 +-.02946410161513775 .0135 .055 -.866025403784439 0 .5 .5 0 .866025403784439
 50 871 2329 0 862 906 878 0 +-.0277320508075689 .0135 .058 0 0 1 1 0 0 50 906 2
330 0 897 913 871 0 +0 .0235 0 0 1 0 0 0 1 50 913 2332 0 904 947 906 0 +-.014267
9491924311 .0135 .0455 .866025403784442 0 .5 .5 0 -.866025403784442 50 947 2333
 0 939 941 913 0 +-.01253589838486224 .0135 .0425 .866025403784438 0 -.5 -.5 0 -
.866025403784438 50 941 2334 0 932 934 947 0 +-.01426794919243114 .0135 .0395 -4
006172263299085e-30 0 -1 -1 0 4006172263299085e-30 50 934 2335 0 925 927 941 0 +
-.0177320508075689 .0135 .0395 -.866025403784441 0 -.5 -.5 0 .866025403784441 50
 927 2336 0 918 920 934 0 +-.0194641016151378 .0135 .0425 -.866025403784437 0 .5
 .5 0 .866025403784437 50 920 2337 0 911 953 927 0 +-.0177320508075689 .0135 .04
55 4006172263299075e-30 0 1 1 0 -4006172263299075e-30 50 953 2338 0 946 840 920
 0 +0 .0235 0 0 1 0 0 0 1 50 840 2340 0 298 834 953 0 +-.02426794919243115 .0135
 .033 .866025403784438 0 .5 .5 0 -.866025403784438 50 834 2341 0 275 829 840 0 +
-.02253589838486225 .0135 .03 .866025403784439 0 -.5 -.5 0 -.866025403784439 50
 829 2342 0 634 824 834 0 +-.0242679491924311 .0135 .027 300462919747433e-29 0 -
1 -1 0 -300462919747433e-29 50 824 2343 0 636 851 829 0 +-.02773205080756885 .01
35 .027 -.866025403784437 0 -.5 -.5 0 .866025403784437 50 851 2344 0 639 846 824
 0 +-.02946410161513775 .0135 .03 -.86602540378444 0 .5 .5 0 .86602540378444 50
 846 2345 0 839 857 851 0 +-.0277320508075689 .0135 .033 -40061722632991e-28 0 1
 1 0 40061722632991e-28 50 857 2346 0 289 0 846 0 +0 .0235 0 0 1 0 0 0 1 83 3 10
41 .792156862745098 .819607843137255 .933333333333333 15 1039 140 0 123 1032 0 1
7 123 0 1039 709 485 121 698 465 0 482 +17 709 0 1039 708 123 142 482 480 0 1046
 -17 485 0 1039 123 708 124 707 483 0 698 +17 698 0 693 697 1047 124 123 465 0 0
 -17 482 0 1033 120 1046 121 709 480 0 1047 +15 1033 138 0 120 1025 0 17 120 0 1
033 1048 482 118 1047 467 0 479 +17 1046 0 1033 482 1048 142 141 452 0 0 -17 104
7 0 693 698 696 121 120 467 0 0 -17 696 0 693 1047 690 118 117 469 0 0 -17 117 0
 1026 687 479 115 696 469 0 476 +15 1026 136 0 117 1019 0 17 687 0 1026 686 117
 136 476 474 0 684 -17 479 0 1026 117 686 118 1048 477 0 696 +17 476 0 688 113 6
84 115 687 474 0 690 +17 686 0 1026 479 687 139 138 454 0 0 -17 1048 0 1033 1046
 120 139 479 477 0 686 -17 141 0 681 138 144 139 1046 452 0 1048 +17 708 0 1039
 485 709 145 144 450 0 0 -83 3 1036 .792156862745098 .819607843137255 .933333333
333333 83 3 1029 .792156862745098 .819607843137255 .933333333333333 83 3 1022 .7
92156862745098 .819607843137255 .933333333333333 83 3 1016 .792156862745098 .819
607843137255 .933333333333333 15 1014 1528 0 1049 695 1050 17 1049 0 1014 1049 1
049 0 391 389 0 0 -15 1050 1476 0 1051 695 1052 17 1051 0 1050 1051 1051 0 397 3
95 0 0 -15 1052 1424 0 1053 695 1054 17 1053 0 1052 1053 1053 0 403 401 0 0 -15
 1054 1367 0 1055 695 693 17 1055 0 1054 1055 1055 0 409 407 0 0 -17 409 0 966 4
09 409 0 1055 407 0 0 +15 966 1410 0 409 741 1056 15 1056 1608 0 412 741 0 17 41
2 0 1056 412 412 0 1057 410 0 0 +17 1057 0 683 1057 1057 0 412 410 0 0 -15 683 1
634 0 1057 682 0 17 403 0 1058 403 403 0 1053 401 0 0 +15 1058 1465 0 403 790 0
 17 397 0 1059 397 397 0 1051 395 0 0 +15 1059 1517 0 397 797 0 17 391 0 1060 39
1 391 0 1049 389 0 0 +15 1060 1569 0 391 804 0 83 3 1011 .792156862745098 .81960
7843137255 .933333333333333 83 3 1007 .792156862745098 .819607843137255 .9333333
33333333 83 3 1003 .792156862745098 .819607843137255 .933333333333333 83 3 999 .
792156862745098 .819607843137255 .933333333333333 15 997 1264 0 1061 670 1062 17
 1061 0 997 1061 1061 0 415 413 0 0 -15 1062 1197 0 1063 670 1064 17 1063 0 1062
 1063 1063 0 418 416 0 0 -15 1064 1144 0 1065 670 668 17 1065 0 1064 1065 1065 0
 421 419 0 0 -17 421 0 1066 421 421 0 1065 419 0 0 +15 1066 1172 0 421 749 0 17
 418 0 1067 418 418 0 1063 416 0 0 +15 1067 1225 0 418 775 0 17 415 0 1068 415 4
15 0 1061 413 0 0 +15 1068 1294 0 415 783 0 83 3 993 .792156862745098 .819607843
137255 .933333333333333 83 3 988 .792156862745098 .819607843137255 .933333333333
333 15 985 1853 0 616 643 1069 17 616 0 985 619 613 190 195 614 0 0 +15 1069 182
3 0 598 643 642 17 598 0 1069 601 595 204 209 596 0 0 +17 601 0 1069 586 598 216
 206 599 0 0 +17 595 0 1069 598 592 207 212 593 0 0 +17 209 0 870 226 1070 207 5
98 596 0 1071 -15 870 2267 0 226 862 0 17 226 0 870 364 209 224 1071 367 0 361 +
17 1070 0 870 209 364 204 222 325 0 598 -17 1071 0 877 212 361 207 226 367 0 595
 -15 877 2271 0 229 869 0 17 212 0 877 229 1071 210 595 593 0 1072 -17 361 0 877
 1071 229 224 1073 359 0 1074 +17 229 0 877 361 212 227 1072 369 0 1073 +17 1073
 0 905 1075 1074 227 361 359 0 358 -17 1074 0 905 1073 1076 224 364 362 0 0 -15
 905 2286 0 1076 897 1077 17 1076 0 905 1074 1078 220 349 347 0 364 -17 364 0 87
0 1070 226 220 1074 362 0 0 +17 1078 0 905 1076 1079 236 352 350 0 349 -17 349 0
 863 1080 222 236 1076 347 0 0 +15 863 2263 0 222 856 0 17 1080 0 863 206 349 21
6 238 365 0 601 -17 222 0 863 349 206 220 1070 325 0 1076 +17 206 0 863 222 1080
 204 601 599 0 1070 -17 238 0 898 352 218 236 1080 365 0 1078 +15 898 2283 0 238
 890 0 17 352 0 898 41 238 233 1078 350 0 0 +17 218 0 898 238 41 216 586 577 0 1
080 -17 41 0 898 218 352 34 235 373 0 1081 -17 586 0 1069 589 601 34 218 577 0 0
 +17 589 0 1069 592 586 213 1081 587 0 0 +17 592 0 1069 595 589 210 215 590 0 0
 +17 1081 0 891 235 1082 34 589 587 0 586 -15 891 2279 0 235 883 0 17 235 0 891
 355 1081 233 41 373 0 1079 +17 1082 0 891 1081 355 213 232 371 0 589 -17 355 0
 891 1082 235 230 1079 353 0 0 +17 232 0 884 358 215 230 1082 371 0 1075 +15 884
 2275 0 232 876 0 17 358 0 884 1072 232 227 1075 356 0 0 +17 215 0 884 232 1072
 213 592 590 0 1082 -17 1075 0 905 1079 1073 230 358 356 0 355 -17 1079 0 905 10
78 1075 233 355 353 0 352 -17 1072 0 884 215 358 210 229 369 0 592 -15 1077 2287
 0 1083 897 0 17 1083 0 1077 1083 1083 0 582 580 0 0 -17 582 0 784 582 582 0 108
3 580 0 0 +15 784 1803 0 582 775 1067 17 619 0 985 604 616 202 192 617 0 0 +17 6
13 0 985 616 610 193 198 611 0 0 +17 195 0 919 245 1084 193 616 614 0 1085 -15 9
19 2135 0 245 911 0 17 245 0 919 337 195 243 1085 303 0 335 +17 1084 0 919 195 3
37 190 241 301 0 616 -17 1085 0 926 198 335 193 245 303 0 613 -15 926 2139 0 248
 918 0 17 198 0 926 248 1085 196 613 611 0 1086 -17 335 0 926 1085 248 243 1087
 333 0 1088 +17 248 0 926 335 198 246 1086 341 0 1087 +17 1087 0 952 1089 1088 2
46 335 333 0 332 -17 1088 0 952 1087 1090 243 337 336 0 0 -15 952 2154 0 1090 94
6 1091 17 1090 0 952 1088 1092 239 323 321 0 337 -17 337 0 919 1084 245 239 1088
 336 0 0 +17 1092 0 952 1090 1093 223 37 324 0 323 -17 323 0 912 1094 241 223 10
90 321 0 0 +15 912 2131 0 241 904 0 17 1094 0 912 192 323 202 255 338 0 619 -17
 241 0 912 323 192 239 1084 301 0 1090 +17 192 0 912 241 1094 190 619 617 0 1084
 -17 255 0 35 37 36 223 1094 338 0 1092 +15 35 2151 0 255 939 0 17 37 0 35 33 25
5 252 1092 324 0 0 +17 36 0 35 255 33 202 604 602 0 1094 -17 604 0 985 607 619 2
6 36 602 0 0 +17 607 0 985 610 604 199 40 605 0 0 +17 610 0 985 613 607 196 201
 608 0 0 +17 40 0 940 38 1095 26 607 605 0 604 -15 940 2147 0 38 932 0 17 38 0 9
40 329 40 252 33 39 0 1093 +17 1095 0 940 40 329 199 251 343 0 607 -17 329 0 940
 1095 38 249 1093 327 0 0 +17 251 0 933 332 201 249 1095 343 0 1089 +15 933 2143
 0 251 925 0 17 332 0 933 1086 251 246 1089 330 0 0 +17 201 0 933 251 1086 199 6
10 608 0 1095 -17 1089 0 952 1093 1087 249 332 330 0 329 -17 1093 0 952 1092 108
9 252 329 327 0 37 -17 1086 0 933 201 332 196 248 341 0 610 -15 1091 2155 0 1096
 946 0 17 1096 0 1091 1096 1096 0 584 380 0 0 -17 584 0 776 584 584 0 1096 380 0
 0 +15 776 1810 0 584 749 1066 83 3 981 .792156862745098 .819607843137255 .93333
3333333333 81 1 975 2708 767 18 0 735 971 731 1097 83 3 976 .792156862745098 .81
9607843137255 .933333333333333 81 1 735 2861 730 18 975 0 732 736 1098 81 1 731
 2709 767 728 0 729 975 768 1099 83 3 1097 .792156862745098 .819607843137255 .93
3333333333333 81 1 768 2710 767 651 0 732 731 762 1100 83 3 1099 .79215686274509
8 .819607843137255 .933333333333333 81 1 732 2860 730 651 768 0 729 735 1101 83
 3 1100 .792156862745098 .819607843137255 .933333333333333 82 1 1101 1507197046
 82 1 1098 1509097590 81 1 968 2691 767 715 0 739 738 963 1102 83 3 970 .7921568
62745098 .819607843137255 .933333333333333 81 1 739 2863 730 715 968 0 736 748 1
103 81 1 738 2690 767 16 0 736 0 968 1104 83 3 1102 .792156862745098 .8196078431
37255 .933333333333333 83 3 1104 .792156862745098 .819607843137255 .933333333333
333 81 1 748 2864 730 746 778 0 739 753 1105 82 1 1103 429457537 81 1 778 2715 7
67 746 0 748 1106 772 1107 81 1 753 2865 730 750 1106 0 748 757 1108 82 1 1105 1
500184694 81 1 1106 2714 767 750 0 753 1109 778 1110 81 1 757 2866 730 754 1109
 0 753 760 1111 82 1 1108 1502347382 81 1 1109 2713 767 754 0 757 769 1106 1112
 82 1 1111 1504182390 81 1 769 2712 767 665 0 760 762 1109 1113 83 3 1112 .79215
6862745098 .819607843137255 .933333333333333 83 3 1113 .792156862745098 .8196078
43137255 .933333333333333 83 3 1110 .792156862745098 .819607843137255 .933333333
333333 83 3 1107 .792156862745098 .819607843137255 .933333333333333 83 3 962 .79
2156862745098 .819607843137255 .933333333333333 15 958 1540 0 1114 682 1115 17 1
114 0 958 1114 1114 0 394 392 0 0 -15 1115 1488 0 1116 682 1117 17 1116 0 1115 1
116 1116 0 400 398 0 0 -15 1117 1436 0 1118 682 681 17 1118 0 1117 1118 1118 0 4
06 404 0 0 -17 406 0 798 406 406 0 1118 404 0 0 +15 798 1464 0 406 790 1058 17 4
00 0 805 400 400 0 1116 398 0 0 +15 805 1516 0 400 797 1059 17 394 0 812 394 394
 0 1114 392 0 0 +15 812 1568 0 394 804 1060 83 3 954 .792156862745098 .819607843
137255 .933333333333333 83 3 949 .792156862745098 .819607843137255 .933333333333
333 83 3 943 .792156862745098 .819607843137255 .933333333333333 83 3 936 .792156
862745098 .819607843137255 .933333333333333 83 3 929 .792156862745098 .819607843
137255 .933333333333333 83 3 922 .792156862745098 .819607843137255 .933333333333
333 83 3 915 .792156862745098 .819607843137255 .933333333333333 83 3 908 .792156
862745098 .819607843137255 .933333333333333 83 3 901 .792156862745098 .819607843
137255 .933333333333333 83 3 894 .792156862745098 .819607843137255 .933333333333
333 83 3 887 .792156862745098 .819607843137255 .933333333333333 83 3 880 .792156
862745098 .819607843137255 .933333333333333 83 3 873 .792156862745098 .819607843
137255 .933333333333333 83 3 866 .792156862745098 .819607843137255 .933333333333
333 83 3 859 .792156862745098 .819607843137255 .933333333333333 83 3 853 .792156
862745098 .819607843137255 .933333333333333 83 3 848 .792156862745098 .819607843
137255 .933333333333333 15 845 2015 0 30 839 0 17 30 0 845 293 32 258 25 31 0 29
 +17 293 0 845 299 30 219 291 284 0 0 +17 32 0 845 30 299 11 625 623 0 622 -17 2
99 0 845 32 293 182 257 300 0 625 -17 625 0 642 628 622 182 32 623 0 0 +17 628 0
 642 91 625 176 184 626 0 631 +17 91 0 642 551 628 89 631 500 0 519 +17 184 0 28
0 257 178 182 628 626 0 299 -17 631 0 630 282 519 176 91 500 0 0 -17 282 0 630 2
78 631 179 178 379 0 0 +17 519 0 630 631 1119 89 1120 517 0 1121 +16 500 1820 0
 ?91 501 497 498 501 501 1 17 1119 0 630 519 1122 86 496 494 0 1120 -17 1120 0 7
51 100 1121 86 519 517 0 0 -17 1121 0 751 1120 558 89 551 549 0 0 -15 751 1012 0
 1121 746 0 17 558 0 751 1121 675 50 1123 422 0 0 +17 551 0 642 76 91 50 1121 54
9 0 558 +17 76 0 642 79 551 74 52 528 0 645 +17 52 0 755 1123 561 50 76 528 0 55
1 -15 755 1010 0 52 750 0 17 1123 0 755 1124 52 47 558 422 0 675 -17 561 0 755 5
2 1124 74 667 559 0 0 +17 1124 0 755 561 1123 80 49 522 0 0 -17 667 0 758 564 56
7 80 561 559 0 1124 -15 758 1008 0 564 754 0 17 564 0 758 567 667 62 663 562 0 0
 +17 567 0 758 667 564 74 656 565 0 561 +17 49 0 671 97 82 47 1124 522 0 1123 +1
7 675 0 751 558 677 47 97 552 0 0 -17 677 0 751 675 100 95 516 514 0 0 -17 100 0
 751 677 1120 98 88 547 0 516 -17 516 0 676 678 673 98 677 514 0 499 +17 88 0 68
1 496 499 86 100 547 0 1119 +17 496 0 681 384 88 167 1119 494 0 0 +17 384 0 681
 163 496 164 169 382 0 710 +17 169 0 818 160 166 167 384 382 0 1122 -15 818 1669
 0 160 811 0 17 160 0 818 166 169 158 1122 387 0 714 +17 166 0 818 169 160 164 7
14 556 0 384 +17 1122 0 630 1119 511 167 160 387 0 496 -17 511 0 630 1122 46 158
 716 509 0 0 +17 46 0 630 511 58 42 544 542 0 717 -17 716 0 713 436 714 42 511 5
09 0 0 -17 714 0 713 716 710 158 166 556 0 511 -17 58 0 630 46 640 56 641 554 0
 544 +17 544 0 721 55 717 56 46 542 0 648 +17 55 0 721 61 544 53 648 540 0 725 +
17 648 0 646 641 647 56 55 540 0 0 -17 178 0 280 184 272 176 282 379 0 628 -83 3
 842 .792156862745098 .819607843137255 .933333333333333 83 3 836 .79215686274509
8 .819607843137255 .933333333333333 83 3 831 .792156862745098 .819607843137255 .
933333333333333 83 3 826 .792156862745098 .819607843137255 .933333333333333 83 3
 821 .792156862745098 .819607843137255 .933333333333333 83 3 815 .79215686274509
8 .819607843137255 .933333333333333 83 3 808 .792156862745098 .819607843137255 .
933333333333333 83 3 801 .792156862745098 .819607843137255 .933333333333333 83 3
 794 .792156862745098 .819607843137255 .933333333333333 15 791 1796 0 579 783 10
68 17 579 0 791 579 579 0 1125 314 0 0 +17 1125 0 290 1125 1125 0 579 314 0 0 -1
5 290 2023 0 1125 289 0 83 3 787 .792156862745098 .819607843137255 .933333333333
333 83 3 780 .792156862745098 .819607843137255 .933333333333333 82 1 771 1504968
822 83 3 770 .792156862745098 .819607843137255 .933333333333333 79 14 766 SWEntU
nchanged82 1 740 -1988034424 82 1 733 1507983478 17 433 0 657 67 73 68 660 431 0
 661 +19 17 163 0 1 0 9 5 S0 74 4 CI16 index_map_offset0 0 1 dCCZ20 15 8 0 0 103
7 1126 1127 1128 1129 13 948 2 0 0 0 0 0 0 0 0 0 0 0 0 81 2 1126 473 1130 1 0 11
27 0 0 0 1131 81 2 1127 479 1132 1 1126 1128 0 0 0 1133 81 2 1128 1760 1134 1 11
27 1129 0 0 0 1135 81 2 1129 1794 1136 1 1128 13 0 0 0 0 81 1 13 2614 1137 1 112
9 2 0 0 1138 80 1 1137 1139 1140 9000 1 1 1 1 1 1 1 1 0 FFTFFFFFFFFFFF1 82 1 113
8 2459667 79 10 1140 BODY_MATCH80 2 1136 1141 1142 9000 0 0 0 0 3 5 0 0 0 FFTFFF
FFFFFFFF9 1 79 16 1142 BODY_RECIPE_200180 2 1134 1143 1144 9000 0 0 0 0 3 5 0 0
 0 FFTFFFFFFFFFFF9 1 82 1 1135 1 79 24 1144 BODY_IN_LIGHTWEIGHT_PERM80 2 1132 11
45 1146 9000 0 0 0 0 3 5 0 0 0 FFTFFFFFFFFFFF9 1 82 1 1133 152 79 30 1146 LAST_B
ODY_MODIFYING_FEATURE_ID80 2 1130 1147 1148 9000 0 0 0 0 3 5 0 0 0 FFTFFFFFFFFFF
F9 1 82 1 1131 129 79 19 1148 ENT_TIME_STAMP_200180 2 12 1149 1150 9000 0 0 0 0
 3 5 0 0 0 FFTFFFFFFFFFFF9 1 82 1 14 107 79 12 1150 ATOM_ID_20011 0 
