**ABCDEFGHIJKLMNOPQRSTUVWXYZabcdefghijklmnopqrstuvwxyz**************************
**PARASOLID !"#$%&'()*+,-./:;<=>?@[\]^_`{|}~0123456789**************************
**PART1;
MC=AMD64;
MC_MODEL=Intel64 Family 6 Model 142 Stepping 10, GenuineIntel;
MC_ID=unknown;
OS=Windows_NT;
OS_RELEASE=unknown;
FRU=Parasolid Version 31.0, build 282,  2-25-2019;
APPL=SOLIDWORKS 2019-2019115;
SITE=;
USER=unknown;
FORMAT=text;
GUISE=transmit;
KEY=NEMA17 50mm Spacer;
FILE=NEMA17 50mm Spacer.x_t;
DATE=Fri Feb 14 15:16:06 2020;
**PART2;
SCH=SCH_3100282_31001;
USFLD_SIZE=0;
**PART3;
**END_OF_HEADER*****************************************************************
T51 : TRANSMIT FILE created by modeller version 310028223 SCH_3100282_31001_1300
6215 0 12 34 CCCCCCI4 mesh1006 0 I8 polyline1008 0 CCCCCCCDI5 owner1040 0 CCCCCC
I13 boundary_mesh1006 0 I17 boundary_polyline1008 0 CCCA16 index_map_offset0 0 1
 dA9 index_map82 0 A17 node_id_index_map82 0 A20 schema_embedding_map82 0 A5 chi
ld12 0 A14 lowest_node_id0 0 1 dA16 mesh_offset_data206 0 Z1 1888 2 3 0 0 0 0 0
 0 1e3 1e-8 0 4 0 1 0 1 1 5 6 7 8 0 0 9 10 11 0 0 0 0 0 0 0 81 255 2 2 1842 12 1
 13 0 0 0 0 14 70 11 CI9 list_type0 0 1 uI10 notransmit0 0 1 lCCCDCCDI12 finger_
index0 0 1 dI12 finger_block1012 0 CZ3 0 4 T1 0 0 9 20 1 15 15 13 255 5 351 0 1
 0 16 0 0 17 0 51 255 6 334 0 18 19 0 0 -.0185 -.0145 .05 0 0 -1 .003 -1 0 0 31
 255 7 650 0 10 20 0 0 +100000000000071e-19 -.0215 .04001 -187537673078574e-30 1
 0 -1 -187537673078574e-30 0 .00499 29 255 8 1270 0 11 21 0 -.0167705098312484 .
005 .00999 19 8 CCCCCCCA5 owner12 0 Z9 117 0 1 17 0 22 V0 16 255 10 648 0 ?23 0
 24 7 0 0 1 18 255 11 1268 0 25 0 26 8 ?1 17 255 25 0 27 28 29 11 30 31 0 32 -18
 26 1232 0 33 11 34 21 ?1 17 33 0 35 36 37 26 38 39 0 40 +18 34 720 0 41 26 42 4
3 ?1 29 21 1234 0 26 43 8 -.0215 .005 .04001 29 43 722 0 34 44 21 .005 -.0167705
098312484 .04001 29 44 694 0 42 45 43 .005 .0167705098312484 .00999 18 42 692 0
 46 34 47 44 ?1 29 45 658 0 47 48 44 .005 .0215 .04001 18 47 656 0 49 42 50 45 ?
1 29 48 622 0 50 51 45 .005 -.0215 .00999 18 50 620 0 52 47 53 48 ?1 29 51 255 0
 54 55 48 .0215 -.0145 0 18 54 222 0 56 57 58 51 ?1 29 55 256 0 58 59 51 .0215 -
.0185 0 18 58 223 0 60 54 61 55 ?1 29 59 257 0 61 62 55 .0185 -.0215 0 18 61 224
 0 63 58 64 59 ?1 29 62 258 0 64 65 59 -.0185 -.0215 0 18 64 225 0 66 61 67 62 ?
1 29 65 259 0 67 68 62 -.0215 -.0185 0 18 67 226 0 69 64 70 65 ?1 29 68 260 0 70
 71 65 -.0215 .0185 0 18 70 227 0 72 67 73 68 ?1 29 71 261 0 73 74 68 -.0185 .02
15 0 18 73 228 0 75 70 76 71 ?1 29 74 262 0 76 77 71 .0185 .0215 0 18 76 229 0 7
8 73 79 74 ?1 29 77 263 0 79 80 74 .0215 .0185 0 18 79 230 0 81 76 82 77 ?1 29 8
0 264 0 82 83 77 .0215 .0145 0 18 82 231 0 84 79 85 80 ?1 29 83 265 0 85 86 80 .
0185 .0115 0 18 85 232 0 87 82 88 83 ?1 29 86 266 0 88 89 83 .01449137674618942
 .0115 0 18 88 233 0 90 85 91 86 ?1 29 89 267 0 91 92 86 .01237068746625928 .012
3780487804878 0 18 91 234 0 93 88 94 89 ?1 29 92 268 0 94 95 89 .012370687466259
28 -.0123780487804878 0 18 94 235 0 96 91 97 92 ?1 29 95 269 0 97 98 92 .0144913
7674618944 -.0115 0 18 97 236 0 99 94 100 95 ?1 29 98 270 0 100 101 95 .0185 -.0
115 0 18 100 237 0 102 97 103 98 ?1 29 101 116 0 53 104 98 .0215 -.0145 .05 18 5
3 114 0 105 50 106 101 ?1 29 104 113 0 106 107 101 .0215 -.0185 .05 18 106 111 0
 108 53 109 104 ?1 29 107 110 0 109 110 104 .0185 -.0215 .05 18 109 108 0 111 10
6 112 107 ?1 29 110 107 0 112 113 107 -.0185 -.0215 .05 18 112 105 0 114 109 115
 110 ?1 29 113 104 0 115 116 110 -.0215 -.0185 .05 18 115 102 0 117 112 118 113
 ?1 29 116 101 0 118 119 113 -.0215 .0185 .05 18 118 99 0 120 115 121 116 ?1 29
 119 98 0 121 122 116 -.0185 .0215 .05 18 121 96 0 123 118 124 119 ?1 29 122 95
 0 124 125 119 .0185 .0215 .05 18 124 93 0 126 121 127 122 ?1 29 125 92 0 127 12
8 122 .0215 .0185 .05 18 127 90 0 129 124 130 125 ?1 29 128 89 0 130 131 125 .02
15 .0145 .05 18 130 87 0 132 127 133 128 ?1 29 131 86 0 133 134 128 .0185 .0115
 .05 18 133 84 0 135 130 136 131 ?1 29 134 83 0 136 137 131 .01449137674618942 .
0115 .05 18 136 81 0 138 133 139 134 ?1 29 137 80 0 139 140 134 .012370687466259
28 .0123780487804878 .05 18 139 78 0 141 136 142 137 ?1 29 140 77 0 142 143 137
 .01237068746625928 -.0123780487804878 .05 18 142 75 0 144 139 145 140 ?1 29 143
 74 0 145 146 140 .01449137674618944 -.0115 .05 18 145 72 0 147 142 57 143 ?1 29
 146 71 0 57 148 143 .0185 -.0115 .05 18 57 69 0 149 145 54 146 ?1 29 148 1074 0
 103 150 146 999999999996335e-20 .0174999971428569 .045 18 103 855 0 151 100 152
 148 ?1 29 150 1075 0 152 153 148 999999999996991e-20 -.0174999971428569 .045 18
 152 850 0 154 103 155 150 ?1 29 153 1076 0 155 156 150 999999999997066e-20 -.02
15 .045 18 155 875 0 157 152 158 153 ?1 29 156 1077 0 158 159 153 -9999999999965
58e-20 .0174999971428569 .045 18 158 858 0 160 155 161 156 ?1 29 159 1078 0 161
 162 156 -999999999995901e-20 -.0174999971428569 .045 18 161 856 0 163 158 164 1
59 ?1 29 162 1079 0 164 165 159 -999999999995826e-20 -.0215 .045 18 164 877 0 16
6 161 167 162 ?1 29 165 1080 0 167 168 162 -.005 .0167705098312484 .04001 18 167
 861 0 169 164 170 165 ?1 29 168 1081 0 170 171 165 -.005 -.0167705098312484 .04
001 18 170 859 0 172 167 173 168 ?1 29 171 1082 0 173 174 168 -.005 -.0215 .0400
1 18 173 879 0 175 170 176 171 ?1 29 174 1083 0 176 177 171 -.005 .0167705098312
484 .00999 18 176 864 0 178 173 179 174 ?1 29 177 1084 0 179 180 174 -.005 -.016
7705098312484 .00999 18 179 863 0 181 176 182 177 ?1 29 180 1085 0 182 183 177 -
.005 -.0215 .00999 18 182 881 0 184 179 185 180 ?1 29 183 1086 0 185 186 180 -99
999999999666e-19 .0174999971428569 .005 18 185 867 0 187 182 188 183 ?1 29 186 1
087 0 188 189 183 -999999999996004e-20 -.0174999971428569 .005 18 188 865 0 190
 185 191 186 ?1 29 189 1088 0 191 192 186 -999999999995929e-20 -.0215 .005 18 19
1 883 0 193 188 194 189 ?1 29 192 1089 0 194 195 189 999999999996335e-20 .017499
9971428569 .005 18 194 870 0 196 191 197 192 ?1 29 195 1090 0 197 198 192 999999
999996991e-20 -.0174999971428569 .005 18 197 868 0 199 194 200 195 ?1 29 198 109
1 0 200 201 195 999999999997066e-20 -.0215 .005 18 200 885 0 202 197 203 198 ?1
 29 201 1093 0 203 204 198 .005 -.0167705098312484 .00999 18 203 871 0 205 200 2
06 201 ?1 29 204 1095 0 206 207 201 .005 .0167705098312484 .04001 18 206 852 0 2
08 203 209 204 ?1 29 207 1097 0 209 210 204 .005 -.0215 .04001 18 209 851 0 211
 206 212 207 ?1 29 210 1098 0 212 213 207 99999999999626e-19 .0215 .045 18 212 8
57 0 214 209 215 210 ?1 29 213 1099 0 215 216 210 -999999999996633e-20 .0215 .04
5 18 215 860 0 217 212 218 213 ?1 29 216 1100 0 218 219 213 -.005 .0215 .04001 1
8 218 862 0 220 215 221 216 ?1 29 219 1101 0 221 222 216 -.005 .0215 .00999 18 2
21 866 0 223 218 224 219 ?1 29 222 1102 0 224 225 219 -999999999996735e-20 .0215
 .005 18 224 869 0 226 221 227 222 ?1 29 225 1103 0 227 228 222 99999999999626e-
19 .0215 .005 18 227 872 0 229 224 230 225 ?1 29 228 1104 0 230 231 225 .005 .02
15 .00999 18 230 874 0 232 227 233 228 ?1 29 231 1504 0 233 234 228 -.0174999971
428569 99999999999649e-19 .045 18 233 1375 0 235 230 236 231 ?1 29 234 1505 0 23
6 237 231 -.0174999971428569 -999999999999959e-20 .045 18 236 1377 0 238 233 239
 234 ?1 29 237 1506 0 239 240 234 -.0167705098312484 -.005 .04001 18 239 1379 0
 241 236 242 237 ?1 29 240 1507 0 242 243 237 -.0167705098312484 -.005 .00999 18
 242 1381 0 244 239 245 240 ?1 29 243 1508 0 245 246 240 -.0174999971428569 -999
999999996316e-20 .005 18 245 1383 0 247 242 248 243 ?1 29 246 1509 0 248 249 243
 -.0174999971428569 999999999996587e-20 .005 18 248 1385 0 250 245 251 246 ?1 29
 249 1511 0 251 252 246 -.0167705098312484 .005 .04001 18 251 1366 0 28 248 253
 249 ?1 29 252 1512 0 253 254 249 -.0215 99999999999649e-19 .045 18 253 1368 0 3
7 251 255 252 ?1 29 254 1513 0 255 256 252 -.0215 -999999999999959e-20 .045 18 2
55 1369 0 257 253 258 254 ?1 29 256 1514 0 258 259 254 -.0215 -.005 .04001 18 25
8 1370 0 260 255 261 256 ?1 29 259 1515 0 261 262 256 -.0215 -.005 .00999 18 261
 1371 0 263 258 264 259 ?1 29 262 1516 0 264 265 259 -.0215 -999999999996316e-20
 .005 18 264 1372 0 266 261 267 262 ?1 29 265 1517 0 267 268 262 -.0215 99999999
9996587e-20 .005 18 267 1373 0 269 264 270 265 ?1 29 268 1518 0 270 0 265 -.0215
 .005 .00999 18 270 1374 0 30 267 0 268 ?1 17 30 0 271 272 32 270 25 31 0 29 +15
 255 271 1417 0 30 273 0 17 272 0 271 274 30 267 275 276 0 277 +17 32 0 271 30 2
74 11 278 279 0 280 -16 31 1309 0 ?30 281 282 283 0 0 1 17 29 0 27 25 40 270 284
 285 0 275 +15 27 1421 0 40 286 0 17 40 0 27 29 28 26 36 282 0 284 +17 284 0 287
 38 275 26 29 285 0 0 -16 285 1345 0 ?29 276 39 288 0 0 1 17 275 0 287 284 277 2
70 272 276 0 0 -15 287 1230 0 284 289 290 17 277 0 287 275 291 267 292 293 0 0 -
16 276 1348 0 ?272 293 285 294 0 0 1 16 293 1351 0 ?292 295 276 296 0 0 1 31 294
 1493 0 276 288 296 0 +-.0215 1000000000000132e-20 .00999 -1 0 0 0 0 -1 .00499 3
0 255 288 1494 0 285 297 294 0 +-.0215 .005 .00999 0 0 -1 30 296 1492 0 293 294
 298 0 +-.0215 -999999999996316e-20 .005 0 -1 0 31 298 1491 0 295 296 299 0 +-.0
215 -999999999999959e-20 .00999 -1 0 0 0 0 -1 .00499 16 295 1354 0 ?300 301 293
 298 0 0 1 30 299 1490 0 301 298 302 0 +-.0215 -.005 .00999 0 0 1 16 301 1357 0
 ?303 304 295 299 0 0 1 31 302 1489 0 304 299 305 0 +-.0215 -999999999999959e-20
 .04001 -1 0 0 0 0 1 .00499 16 304 1360 0 ?306 307 301 302 0 0 1 30 305 1488 0 3
07 302 308 0 +-.0215 -999999999996403e-20 .045 0 1 0 16 307 1363 0 ?309 282 304
 305 0 0 1 30 308 1487 0 310 305 311 0 +.0285 99999999999649e-19 .045 -1 0 0 16
 310 1297 0 ?37 312 313 308 0 0 1 30 311 1486 0 313 308 314 0 +.0285 -9999999999
99959e-20 .045 -1 0 0 16 313 1299 0 ?257 310 315 311 0 0 1 30 314 1485 0 315 311
 316 0 +.0285 -.005 .04001 -1 0 0 16 315 1301 0 ?260 313 317 314 0 0 1 30 316 14
84 0 317 314 318 0 +.0285 -.005 .00999 -1 0 0 16 317 1303 0 ?263 315 319 316 0 0
 1 30 318 1483 0 319 316 320 0 +.0285 -999999999996316e-20 .005 -1 0 0 16 319 13
05 0 ?266 317 281 318 0 0 1 30 320 1482 0 281 318 283 0 +.0285 999999999996587e-
20 .005 -1 0 0 16 281 1307 0 ?269 319 31 320 0 0 1 30 283 1481 0 31 320 321 0 +.
0285 .005 .00999 -1 0 0 30 321 1480 0 282 283 322 0 +.0285 .005 .04001 -1 0 0 16
 282 1295 0 ?40 31 307 321 0 0 1 30 322 1479 0 312 321 323 0 +-.0167705098312484
 .005 .05 0 0 -1 16 312 1308 0 ?280 279 310 322 0 0 1 38 12 CCCCCCCCCCCA17 inter
section_data204 0 Z323 1478 0 279 322 324 0 +325 326 327 328 329 330 16 279 1306
 0 ?278 331 312 323 0 0 1 31 324 1477 0 331 323 332 0 -0 0 .005 0 0 -1 -1 0 0 .0
175 51 325 331 0 333 334 335 336 +0 0 .05 0 0 -1 .0175 -1 0 0 51 326 1464 0 273
 337 338 339 +.0285 1000000000000132e-20 .00999 -1 0 0 .00499 0 0 1 40 255 6 327
 0 1 6 .000296753597488356 .3468838720422485 ??-.0167705098312484 .005 .00999 -.
01684806474346905 .00473209408189171 .00837695087434905 -.01704504374532635 .003
964402063352145 .00694651444535114 -.01728314105400595 .00274645868480392 .00581
724385251652 -.0174596694411357 .00118741020977273 .00514089645419662 -.01749999
71428569 999999999996657e-20 .005 41 3 CI8 term_use0 0 1 cCZ1 328 L?-.0167705098
312484 .005 .00999 41 1 329 L?-.0174999971428569 999999999996657e-20 .005 204 2
 17 INTERSECTION_DATA17 Intersection data7 uv_type0 0 1 u6 values0 1 1 fT24 330
 4 .2897517014360475 .04001 1.57079632679489 .0452705098312484 .2738140687067395
 .04162304912565095 1.89996488549581 .0453480647434691 .228521039676125 .0430534
8555464885 2.226752107419325 .0455450437453264 .1575919924681245 .04418275614748
35 2.56115673540803 .0457831410540059 .0679041840762567 .0448591035458034 2.9033
9253430586 .0459596694411357 .000571428602524819 .045 3.1415926535898 .045999997
1428569 14 255 273 1414 340 ?286 341 271 5 326 -0 0 286 341 22 50 255 337 1465 0
 341 342 326 0 +.0285 -999999999996316e-20 .005 0 0 -1 -1 0 0 50 338 1463 0 286
 326 343 0 +.0285 .005 .00999 0 1 0 0 0 1 141 255 339 323 339 339 326 14 286 141
8 344 ?0 273 27 5 338 -0 0 0 273 22 51 343 1462 0 345 338 346 347 +.0285 1000000
000000132e-20 .04001 -1 0 0 .00499 0 0 1 14 345 1390 348 ?349 350 35 5 343 -0 0
 349 350 22 50 346 1033 0 351 343 352 0 +-999999999995695e-20 -.0285 .045 0 0 1
 1 0 0 141 347 353 347 347 343 38 353 1472 0 354 355 356 0 +325 343 357 358 359
 360 16 354 1294 0 ?361 362 363 353 0 0 1 31 355 1473 0 363 364 353 0 -0 0 .045
 0 0 1 1 0 0 .0175 31 356 1065 0 362 353 365 0 +999999999999903e-20 .0215 .04001
 -187537673078574e-30 1 0 -1 -187537673078574e-30 0 .00499 40 6 357 0 1 6 .00029
69627167973945 .346846377023526 ??-.0174999971428569 999999999996587e-20 .045 -.
01742439697927235 .001624927662612945 .0447314519635942 -.0172309165029962 .0030
57043746296945 .0439616609682705 -.0169924109360246 .00418425269089616 .04274417
52819719 -.01681168619920325 .0048597538147028 .0411847288779866 -.0167705098312
484 .005 .04001 41 1 358 L?-.0174999971428569 999999999996587e-20 .045 41 1 359
 L?-.0167705098312484 .005 .04001 204 24 360 4 .000571428602524779 .005 6.283185
30717958 .0459999971428569 .0929869544632022 .00526854803640581 .329566404367817
5 .0459243969792723 .175589104388619 .00603833903172949 .656855897760758 .045730
9165029962 .241439019137906 .0072558247180281 .990907527424015 .0454924109360246
 .281399336995796 .00881527112201341 1.333149124544002 .0453116861992033 .289751
7014360475 .00999 1.570796326794905 .0452705098312484 16 362 826 0 ?49 366 354 3
56 0 0 1 30 365 1064 0 366 356 367 0 +.005 .0215 .04001 0 0 -1 16 366 829 0 ?368
 369 362 365 0 0 1 31 367 1063 0 369 365 370 0 +999999999999903e-20 .0215 .00999
 -187537673078574e-30 1 0 1 187537673078574e-30 0 .00499 16 369 832 0 ?371 372 3
66 367 0 0 1 30 370 1062 0 372 367 373 0 +-999999999996633e-20 .0215 .005 -1 0 0
 16 372 835 0 ?374 375 369 370 0 0 1 31 373 1061 0 375 370 376 0 +-1000000000000
19e-19 .0215 .00999 -187537673078574e-30 1 0 1 187537673078574e-30 0 .00499 16 3
75 838 0 ?377 378 372 373 0 0 1 30 376 1060 0 378 373 379 0 +-.005 .0215 .04001
 0 0 1 16 378 841 0 ?380 381 375 376 0 0 1 31 379 1059 0 381 376 382 0 +-1000000
00000019e-19 .0215 .04001 -187537673078574e-30 1 0 1 187537673078574e-30 0 .0049
9 16 381 844 0 ?383 384 378 379 0 0 1 30 382 1058 0 384 379 385 0 +-999999999996
633e-20 .0215 .045 1 0 0 16 384 847 0 ?386 387 381 382 0 0 1 30 385 1057 0 388 3
82 389 0 +999999999997198e-20 -.0285 .045 -187537673078574e-30 1 0 16 388 756 0
 ?214 390 391 385 390 390 1 30 389 1056 0 392 385 393 0 +-999999999995695e-20 -.
0285 .045 -187537673078574e-30 1 0 16 392 762 0 ?217 391 394 389 391 391 1 30 39
3 1055 0 395 389 396 0 +-.005 -.0285 .04001 -187537673078574e-30 1 0 16 395 765
 0 ?220 394 397 393 394 394 1 30 396 1054 0 398 393 399 0 +-.005 -.0285 .00999 -
187537673078574e-30 1 0 16 398 774 0 ?223 397 400 396 397 397 1 30 399 1053 0 40
1 396 402 0 +-999999999995797e-20 -.0285 .005 -187537673078574e-30 1 0 16 401 78
0 0 ?226 400 403 399 400 400 1 30 402 1052 0 404 399 405 0 +999999999997198e-20
 -.0285 .005 -187537673078574e-30 1 0 16 404 786 0 ?229 403 406 402 403 403 1 30
 405 1051 0 407 402 408 0 +.005 -.0285 .00999 -187537673078574e-30 1 0 16 407 79
2 0 ?232 406 409 405 406 406 1 30 408 1050 0 387 405 410 0 +.005 -.0285 .04001 -
187537673078574e-30 1 0 16 387 750 0 ?411 409 384 408 409 409 1 30 410 1049 0 41
2 408 413 0 +.005 .0167705098312484 .05 0 0 -1 16 412 791 0 ?414 415 390 410 0 0
 1 30 413 1048 0 415 410 416 0 -.005 -.0167705098312484 .05 0 0 -1 16 415 789 0
 ?417 418 412 413 0 0 1 38 416 1047 0 418 413 419 0 +325 420 421 422 423 424 16
 418 785 0 ?425 426 415 416 0 0 1 38 419 1046 0 426 416 427 0 +325 420 428 429 4
30 431 51 420 1028 0 432 433 434 435 +100000000000084e-19 -.0285 .00999 -1875376
73078574e-30 1 0 .00499 -1 -187537673078574e-30 0 40 6 421 0 1 6 .00029675359748
83565 .346883872042248 ??.005 .0167705098312484 .00999 .0047320940818917 .016848
06474346905 .00837695087434901 .00396440206335212 .01704504374532635 .0069465144
4535111 .002746458684803885 .01728314105400595 .00581724385251649 .0011874102097
72694 .0174596694411357 .00514089645419661 999999999996543e-20 .0174999971428569
 .005 41 1 422 L?.005 .0167705098312484 .00999 41 1 423 L?999999999996543e-20 .0
174999971428569 .005 204 24 424 4 1.860548028230945 .04001 3.141592653589795 .04
52705098312484 1.844610395501635 .041623049125651 3.47076121229071 .045348064743
4691 1.79931736647102 .0430534855546489 3.797548434214225 .0455450437453264 1.72
838831926302 .0441827561474835 4.13195306220293 .0457831410540059 1.638700510871
15 .0448591035458034 4.47418886110076 .0459596694411357 1.57136775539742 .045 4.
7123889803847 .0459999971428569 14 432 962 436 ?437 438 439 5 420 -440 440 437 4
38 22 50 433 1029 0 437 441 420 0 +-999999999995695e-20 -.0285 .005 0 0 -1 -1 0
 0 50 434 1027 0 438 420 442 0 +.005 -.0285 .04001 1 187537673078574e-30 0 -1875
37673078574e-30 1 0 141 435 416 443 443 420 141 443 419 435 435 420 14 438 974 4
44 ?432 445 446 5 434 -350 350 432 445 22 51 442 1026 0 447 434 448 449 +1000000
00000084e-19 -.0285 .04001 -187537673078574e-30 1 0 .00499 -1 -187537673078574e-
30 0 14 447 890 450 ?451 351 452 5 442 -451 451 451 351 22 51 448 534 0 445 442
 453 0 -.0155 .0155 .05 0 0 -1 .00175 -1 0 0 141 449 454 455 455 442 38 454 1037
 0 456 457 458 0 +325 442 459 460 461 462 141 455 458 449 449 442 38 458 1036 0
 463 454 464 0 +325 442 465 466 467 468 16 463 747 0 ?469 470 456 458 0 0 1 31 4
64 538 0 471 458 472 0 +.0155 .0155 .05 0 0 1 1 0 0 .00175 40 6 465 0 1 6 .00029
6753597488354 .3468838720422485 ??.005 -.0167705098312484 .04001 .00473209408189
172 -.01684806474346905 .04162304912565095 .00396440206335215 -.0170450437453263
5 .04305348555464885 .00274645868480392 -.01728314105400595 .0441827561474835 .0
0118741020977273 -.0174596694411357 .0448591035458034 999999999997078e-20 -.0174
999971428569 .045 41 1 466 L?.005 -.0167705098312484 .04001 41 1 467 L?999999999
997078e-20 -.0174999971428569 .045 204 24 468 4 4.42263727894864 .00999 3.141592
6535898 .01172949016875158 4.43857491167795 .00837695087434905 2.81242409488888
 .01165193525653092 4.483867940708565 .00694651444535115 2.48563687296537 .01145
495625467364 4.55479698791657 .00581724385251652 2.15123224497666 .0112168589459
9408 4.64448479630843 .00514089645419662 1.80899644607883 .0110403305588643 4.71
181755178217 .005 1.57079632679489 .0110000028571431 16 471 518 0 ?473 474 470 4
64 0 0 1 31 472 537 0 470 464 475 0 +.0155 .0155 0 0 0 1 1 0 0 .00175 16 470 515
 0 ?476 471 463 472 0 0 1 31 475 500 0 477 472 478 0 +.0155 -.0155 .05 0 0 1 1 0
 0 .00175 16 477 480 0 ?479 480 474 475 0 0 1 31 478 499 0 474 475 481 0 +.0155
 -.0155 0 0 0 1 1 0 0 .00175 16 474 477 0 ?482 477 471 478 0 0 1 31 481 462 0 48
3 478 484 0 +-.0155 -.0155 .05 0 0 1 1 0 0 .00175 16 483 442 0 ?485 486 480 481
 0 0 1 31 484 461 0 480 481 487 0 +-.0155 -.0155 0 0 0 1 1 0 0 .00175 16 480 439
 0 ?488 483 477 484 0 0 1 31 487 424 0 489 484 490 0 +-.0155 .0155 .05 0 0 1 1 0
 0 .00175 16 489 404 0 ?491 492 486 487 0 0 1 31 490 423 0 486 487 493 0 +-.0155
 .0155 0 0 0 1 1 0 0 .00175 16 486 401 0 ?494 489 483 490 0 0 1 31 493 7 0 495 4
90 496 0 +.0185 -.0145 .05 0 0 1 -1 0 0 .003 16 495 5 0 ?497 498 499 493 0 0 1 3
0 496 11 0 498 493 500 0 +.01449137674618944 -.0115 .05 -1 0 0 16 498 9 0 ?147 5
01 495 496 0 0 1 31 500 15 0 501 496 502 0 +.01449137674618944 -.0145 .05 0 0 1
 1 0 0 .003 16 501 13 0 ?144 503 498 500 0 0 1 31 502 19 0 503 500 504 0 +0 0 .0
5 0 0 -1 1 0 0 .0175 16 503 17 0 ?141 505 501 502 0 0 1 31 504 23 0 505 502 506
 0 +.01449137674618942 .0145 .05 0 0 1 -1 0 0 .003 16 505 21 0 ?138 507 503 504
 0 0 1 30 506 27 0 507 504 508 0 +.01449137674618942 .0115 .05 1 -43274794515244
2e-30 0 16 507 25 0 ?135 509 505 506 0 0 1 31 508 31 0 509 506 510 0 +.0185 .014
5 .05 0 0 1 -1 0 0 .003 16 509 29 0 ?132 511 507 508 0 0 1 30 510 35 0 511 508 5
12 0 +.0215 .0145 .05 0 1 0 16 511 33 0 ?129 513 509 510 0 0 1 31 512 39 0 513 5
10 514 0 +.0185 .0185 .05 0 0 1 1 0 0 .003 16 513 37 0 ?126 515 511 512 0 0 1 30
 514 43 0 515 512 516 0 +.0185 .0215 .05 -1 -187537673078574e-30 0 16 515 41 0 ?
123 517 513 514 0 0 1 31 516 47 0 517 514 518 0 +-.0185 .0185 .05 0 0 1 1 0 0 .0
03 16 517 45 0 ?120 519 515 516 0 0 1 30 518 51 0 519 516 520 0 +-.0215 -.0185 .
05 0 -1 0 16 519 49 0 ?117 521 517 518 0 0 1 31 520 55 0 521 518 522 0 +-.0185 -
.0185 .05 0 0 1 -1 0 0 .003 16 521 53 0 ?114 523 519 520 0 0 1 30 522 59 0 523 5
20 524 0 +.0185 -.0215 .05 1 187537673078574e-30 0 16 523 57 0 ?111 525 521 522
 0 0 1 31 524 63 0 525 522 526 0 +.0185 -.0185 .05 0 0 1 1 0 0 .003 16 525 61 0
 ?108 527 523 524 0 0 1 30 526 67 0 527 524 528 0 +.0215 -.0185 .05 0 1 0 16 527
 65 0 ?105 529 525 526 0 0 1 31 528 254 0 492 526 530 0 +.0185 -.0145 0 0 0 1 -1
 0 0 .003 16 492 218 0 ?531 532 489 528 0 0 1 30 530 253 0 532 528 533 0 +.01449
137674618944 -.0115 0 -1 0 0 16 532 214 0 ?99 534 492 530 0 0 1 31 533 252 0 534
 530 535 0 +.01449137674618944 -.0145 0 0 0 1 1 0 0 .003 16 534 210 0 ?96 536 53
2 533 0 0 1 31 535 251 0 536 533 537 0 +0 0 0 0 0 -1 1 0 0 .0175 16 536 206 0 ?9
3 538 534 535 0 0 1 31 537 250 0 538 535 539 0 +.01449137674618942 .0145 0 0 0 1
 -1 0 0 .003 16 538 202 0 ?90 540 536 537 0 0 1 30 539 249 0 540 537 541 0 +.014
49137674618942 .0115 0 1 -432747945152442e-30 0 16 540 198 0 ?87 542 538 539 0 0
 1 31 541 248 0 542 539 543 0 +.0185 .0145 0 0 0 1 -1 0 0 .003 16 542 194 0 ?84
 544 540 541 0 0 1 30 543 247 0 544 541 545 0 +.0215 .0145 0 0 1 0 16 544 190 0
 ?81 546 542 543 0 0 1 31 545 246 0 546 543 547 0 +.0185 .0185 0 0 0 1 1 0 0 .00
3 16 546 186 0 ?78 548 544 545 0 0 1 30 547 245 0 548 545 549 0 +.0185 .0215 0 -
1 -187537673078574e-30 0 16 548 182 0 ?75 550 546 547 0 0 1 31 549 244 0 550 547
 551 0 +-.0185 .0185 0 0 0 1 1 0 0 .003 16 550 178 0 ?72 552 548 549 0 0 1 30 55
1 243 0 552 549 553 0 +-.0215 -.0185 0 0 -1 0 16 552 174 0 ?69 554 550 551 0 0 1
 31 553 242 0 554 551 555 0 +-.0185 -.0185 0 0 0 1 -1 0 0 .003 16 554 170 0 ?66
 556 552 553 0 0 1 30 555 241 0 556 553 557 0 +.0185 -.0215 0 1 187537673078574e
-30 0 16 556 166 0 ?63 558 554 555 0 0 1 31 557 240 0 558 555 559 0 +.0185 -.018
5 0 0 0 1 1 0 0 .003 16 558 162 0 ?60 499 556 557 0 0 1 30 559 239 0 499 557 560
 0 +.0215 -.0185 0 0 1 0 16 499 158 0 ?56 495 558 559 0 0 1 30 560 335 0 529 559
 561 0 +.0215 -.0145 .05 0 0 -1 16 529 271 0 ?562 563 527 560 0 0 1 30 561 336 0
 563 560 564 0 +.0215 -.0185 .05 0 0 -1 16 563 272 0 ?565 566 529 561 0 0 1 30 5
64 337 0 566 561 567 0 +.0185 -.0215 .05 0 0 -1 16 566 273 0 ?568 569 563 564 0
 0 1 30 567 338 0 569 564 570 0 +-.0185 -.0215 .05 0 0 -1 16 569 274 0 ?571 572
 566 567 0 0 1 30 570 339 0 572 567 573 0 +-.0215 -.0185 .05 0 0 -1 16 572 275 0
 ?574 575 569 570 0 0 1 30 573 340 0 575 570 576 0 +-.0215 .0185 .05 0 0 -1 16 5
75 276 0 ?577 578 572 573 0 0 1 30 576 341 0 578 573 579 0 +-.0185 .0215 .05 0 0
 -1 16 578 277 0 ?580 581 575 576 0 0 1 30 579 342 0 581 576 582 0 +.0185 .0215
 .05 0 0 -1 16 581 278 0 ?583 584 578 579 0 0 1 30 582 343 0 584 579 585 0 +.021
5 .0185 .05 0 0 -1 16 584 279 0 ?586 587 581 582 0 0 1 30 585 344 0 587 582 588
 0 +.0215 .0145 .05 0 0 -1 16 587 280 0 ?589 590 584 585 0 0 1 30 588 345 0 590
 585 591 0 +.0185 .0115 .05 0 0 -1 16 590 281 0 ?592 593 587 588 0 0 1 30 591 34
6 0 593 588 594 0 +.01449137674618942 .0115 .05 0 0 -1 16 593 282 0 ?595 596 590
 591 0 0 1 30 594 347 0 596 591 597 0 +.01237068746625928 .0123780487804878 .05
 0 0 -1 16 596 283 0 ?598 599 593 594 0 0 1 30 597 348 0 599 594 600 0 +.0123706
8746625928 -.0123780487804878 .05 0 0 -1 16 599 284 0 ?601 602 596 597 0 0 1 30
 600 349 0 602 597 603 0 +.01449137674618944 -.0115 .05 0 0 -1 16 602 285 0 ?604
 605 599 600 0 0 1 30 603 350 0 605 600 606 0 +.0185 -.0115 .05 0 0 -1 16 605 28
6 0 ?607 608 602 603 0 0 1 30 606 623 0 608 603 609 0 +.005 -.0215 .05 0 0 -1 16
 608 621 0 ?610 611 605 606 0 0 1 31 609 627 0 611 606 612 0 +100000000000071e-1
9 -.0215 .00999 -187537673078574e-30 1 0 -1 -187537673078574e-30 0 .00499 16 611
 625 0 ?613 614 608 609 0 0 1 30 612 631 0 614 609 615 0 +.0185 -.0215 .005 -1 -
187537673078574e-30 0 16 614 629 0 ?616 617 611 612 0 0 1 31 615 635 0 617 612 6
18 0 +-999999999999383e-20 -.0215 .00999 -187537673078574e-30 1 0 -1 -1875376730
78574e-30 0 .00499 16 617 633 0 ?619 620 614 615 0 0 1 30 618 639 0 620 615 621
 0 +-.005 -.0215 .05 0 0 1 16 620 637 0 ?622 623 617 618 0 0 1 31 621 643 0 623
 618 20 0 +-999999999999383e-20 -.0215 .04001 -187537673078574e-30 1 0 -1 -18753
7673078574e-30 0 .00499 16 623 641 0 ?624 24 620 621 0 0 1 30 20 647 0 24 621 7
 0 +.0185 -.0215 .045 1 187537673078574e-30 0 16 24 645 0 ?625 10 623 20 0 0 1 1
7 625 0 626 23 624 155 166 24 0 0 +15 626 618 0 625 627 628 17 23 0 626 610 625
 209 157 10 0 0 +17 624 0 626 625 622 164 175 623 0 0 +17 166 0 629 630 631 164
 625 24 0 632 -15 629 905 0 631 351 0 17 630 0 629 154 166 161 632 391 0 633 +17
 631 0 629 166 154 155 634 390 0 625 -17 632 0 635 175 163 164 630 391 0 624 -15
 635 917 0 632 636 0 17 175 0 635 637 632 173 624 623 0 638 -17 163 0 635 632 63
7 161 639 640 0 630 -16 391 758 0 ?630 388 392 389 392 392 1 17 637 0 635 163 17
5 170 638 394 0 639 +17 639 0 641 642 633 170 163 640 0 0 +16 640 759 0 ?639 643
 644 645 0 0 1 16 643 755 0 ?646 647 640 457 647 647 1 16 644 761 0 ?648 640 649
 650 0 0 1 38 645 1039 0 640 650 457 0 +325 352 651 652 653 654 38 650 1040 0 64
4 655 645 0 +325 352 656 657 658 659 31 457 1038 0 643 645 454 0 -0 0 .045 0 0 1
 1 0 0 .0175 51 352 1032 0 636 346 660 661 +-999999999999251e-20 -.0285 .04001 -
187537673078574e-30 1 0 .00499 -1 -187537673078574e-30 0 40 6 651 0 1 6 .0002969
627167973955 .3468463770235255 ??-999999999995943e-20 -.0174999971428569 .045 -.
001624927662612935 -.01742439697927235 .0447314519635942 -.003057043746296935 -.
0172309165029962 .0439616609682705 -.004184252690896155 -.0169924109360246 .0427
441752819719 -.0048597538147028 -.01681168619920325 .0411847288779866 -.005 -.01
67705098312484 .04001 41 1 652 L?-999999999995943e-20 -.0174999971428569 .045 41
 1 653 L?-.005 -.0167705098312484 .04001 204 24 654 4 4.71296040898722 .005 1.57
0796326794905 .0110000028571431 4.80537593484789 .00526854803640581 1.2412299224
2708 .01107560302072766 4.88797808477331 .00603833903172948 .91394042903414 .011
2690834970038 4.9538279995226 .0072558247180281 .579888799370881 .01150758906397
54 4.99378831738049 .00881527112201341 .237647202250895 .01168831380079674 5.002
14068182074 .00999 6.28318530717958 .01172949016875158 14 636 914 662 ?351 663 6
35 5 352 -664 664 351 663 22 50 660 1031 0 665 352 441 0 +-.005 -.0285 .04001 -1
 -187537673078574e-30 0 187537673078574e-30 -1 0 141 661 650 666 666 352 141 666
 645 661 661 352 14 665 926 667 ?668 664 669 5 660 -663 663 668 664 22 51 441 10
30 0 670 660 433 671 +-999999999999251e-20 -.0285 .00999 -187537673078574e-30 1
 0 .00499 -1 -187537673078574e-30 0 14 670 938 672 ?663 437 673 5 441 -668 668 6
63 437 22 141 671 674 675 675 441 38 674 1044 0 676 427 677 0 +325 441 678 679 6
80 681 141 675 677 671 671 441 38 677 1043 0 682 674 683 0 +325 441 684 685 686
 687 16 682 771 0 ?688 689 676 677 0 0 1 30 683 1042 0 689 677 655 0 +-.005 -.01
67705098312484 .05 0 0 -1 40 6 684 0 1 6 .000296753597488356 .346883872042248 ??
-.005 -.0167705098312484 .00999 -.00473209408189171 -.01684806474346905 .0083769
5087434905 -.00396440206335214 -.01704504374532635 .00694651444535113 -.00274645
868480391 -.01728314105400595 .00581724385251651 -.001187410209772722 -.01745966
94411357 .00514089645419662 -999999999995856e-20 -.0174999971428569 .005 41 1 68
5 L?-.005 -.0167705098312484 .00999 41 1 686 L?-999999999995856e-20 -.0174999971
428569 .005 204 24 687 4 5.00214068182074 .04001 695279950291306e-29 .0117294901
6875158 4.98620304909143 .04162304912565095 5.95401674847868 .01165193525653092
 4.94091002006081 .04305348555464885 5.62722952655516 .01145495625467364 4.86998
097285281 .0441827561474835 5.29282489856646 .01121685894599408 4.78029316446095
 .0448591035458034 4.95058909966862 .0110403305588643 4.71296040898721 .045 4.71
238898038468 .0110000028571431 16 689 767 0 ?642 649 682 683 0 0 1 30 655 1041 0
 649 683 650 0 --.005 .0167705098312484 .05 0 0 -1 16 649 764 0 ?690 644 689 655
 0 0 1 17 690 0 691 648 692 167 178 649 0 0 +15 691 690 0 646 333 693 17 648 0 6
91 646 690 158 169 644 0 0 +17 692 0 691 690 694 176 187 676 0 0 +17 178 0 669 2
23 695 176 690 649 0 696 -15 669 929 0 223 665 0 17 223 0 669 380 178 221 696 39
8 0 377 +17 695 0 669 178 380 167 220 395 0 690 -17 696 0 697 187 377 176 223 39
8 0 692 -15 697 945 0 226 668 0 17 187 0 697 226 696 185 692 676 0 698 -17 377 0
 697 696 226 221 699 375 0 700 +17 226 0 697 377 187 224 698 401 0 374 +17 699 0
 701 702 700 224 377 375 0 0 -17 700 0 701 699 703 221 380 378 0 0 -15 701 654 0
 704 705 706 17 703 0 701 700 707 218 383 381 0 0 -17 380 0 669 695 223 218 700
 378 0 703 +17 707 0 701 703 708 215 386 384 0 0 -17 383 0 709 710 220 215 703 3
81 0 707 +15 709 921 0 220 664 0 17 710 0 709 169 383 158 217 392 0 648 -17 220
 0 709 383 169 218 695 395 0 380 +17 169 0 709 220 710 167 648 644 0 695 -17 217
 0 711 386 160 215 710 392 0 383 +15 711 909 0 217 712 0 17 386 0 711 713 217 21
2 707 384 0 708 +17 160 0 711 217 713 158 646 643 0 710 -17 713 0 711 160 386 10
3 214 388 0 646 -17 646 0 691 714 648 103 160 643 0 0 +17 714 0 691 414 646 206
 151 456 0 0 +17 414 0 691 425 714 42 208 412 0 0 +17 151 0 715 214 716 103 714
 456 0 713 -16 456 749 0 ?714 463 647 454 0 0 1 16 647 753 0 ?633 456 643 457 64
3 643 1 17 633 0 641 639 469 161 154 647 0 0 +15 641 718 0 417 333 691 17 469 0
 641 633 417 152 717 463 0 0 +17 154 0 629 631 630 152 633 647 0 634 -17 634 0 4
52 717 157 152 631 390 0 469 +15 452 893 0 718 447 0 17 717 0 452 718 634 34 469
 463 0 417 -17 157 0 452 634 718 155 23 10 0 631 -16 390 752 0 ?634 412 388 385
 388 388 1 17 718 0 452 157 717 209 41 409 0 23 -17 41 0 446 205 211 34 718 409
 0 717 +16 409 746 0 ?41 407 387 408 387 387 1 15 446 977 0 52 438 0 17 205 0 44
6 52 41 203 417 415 0 719 -17 211 0 446 41 52 209 610 608 0 718 -17 52 0 446 211
 205 50 719 406 0 720 -17 610 0 626 613 23 50 211 608 0 0 +17 613 0 626 616 610
 200 720 611 0 0 +17 616 0 626 619 613 191 202 614 0 0 +17 720 0 439 719 721 50
 613 611 0 610 -15 439 965 0 721 432 0 17 719 0 439 199 720 203 52 406 0 722 +17
 721 0 439 720 199 200 723 403 0 613 -17 199 0 439 721 719 197 722 426 0 723 -17
 723 0 724 190 202 197 721 403 0 725 +16 403 782 0 ?723 401 404 402 404 404 1 15
 724 953 0 726 437 0 17 190 0 724 726 723 188 725 727 0 728 -17 202 0 724 723 72
6 200 616 614 0 721 -17 725 0 641 722 688 197 190 727 0 0 +17 722 0 641 417 725
 203 199 426 0 0 +17 688 0 641 725 642 188 181 682 0 0 +16 727 777 0 ?725 676 72
9 427 729 729 1 16 676 773 0 ?692 682 727 674 0 0 1 16 729 779 0 ?694 727 426 42
7 727 727 1 31 427 1045 0 729 419 674 0 -0 0 .005 0 0 -1 -1 0 0 .0175 17 694 0 6
91 692 425 185 196 729 0 0 +16 426 783 0 ?722 729 418 419 0 0 1 17 425 0 691 694
 414 194 730 418 0 0 +17 196 0 731 229 698 194 694 729 0 732 -15 731 957 0 229 7
33 0 17 229 0 731 374 196 227 732 404 0 371 +17 698 0 731 196 374 185 226 401 0
 694 -17 732 0 734 730 371 194 229 404 0 425 -15 734 969 0 232 440 0 17 730 0 73
4 232 732 42 425 418 0 414 -17 371 0 734 732 232 227 735 369 0 702 +17 232 0 734
 371 730 230 46 407 0 368 +17 735 0 701 704 702 230 371 369 0 0 -17 702 0 701 73
5 699 227 374 372 0 0 -17 374 0 731 698 229 224 702 372 0 699 +17 704 0 701 708
 735 47 368 366 0 0 -17 708 0 701 707 704 212 49 362 0 0 -17 368 0 736 46 411 23
0 704 366 0 735 +15 736 981 0 411 350 0 17 46 0 736 208 368 42 232 407 0 730 -17
 411 0 736 368 208 47 716 387 0 704 +17 208 0 736 411 46 206 414 412 0 716 -17 7
16 0 715 151 49 206 411 387 0 714 -15 715 897 0 214 451 0 17 49 0 715 716 214 47
 708 362 0 411 +17 214 0 715 49 151 212 713 388 0 386 +14 451 894 737 ?712 447 7
15 5 442 -447 447 712 447 22 81 1 737 1852 738 451 739 0 672 740 741 14 712 906
 740 ?664 451 711 5 346 -351 351 664 451 22 13 22 118 0 0 0 0 0 0 9 16 14 16 512
 742 ?743 0 744 5 745 -0 0 743 0 22 81 1 742 1854 738 16 746 0 740 747 748 14 74
3 506 747 ?18 16 749 5 750 +0 0 18 16 22 15 744 4 0 497 16 751 50 745 3 0 16 752
 750 0 +.0185 -.0145 .05 0 0 -1 -1 0 0 51 752 420 0 753 754 745 0 --.0155 .0155
 .05 0 0 -1 .00175 -1 0 0 50 750 238 0 743 745 755 0 +.0185 -.0145 0 0 0 -1 -1 0
 0 50 755 319 0 756 750 757 0 +.0215 -.0185 .05 -1 0 0 0 0 1 14 756 288 758 ?753
 759 760 5 755 -0 0 753 759 22 51 757 320 0 759 755 761 0 -.0185 -.0185 .05 0 0
 -1 .003 -1 0 0 14 759 290 762 ?756 627 763 5 757 -0 0 756 627 22 50 761 321 0 6
27 757 764 0 +.0185 -.0215 .05 -187537673078574e-30 1 0 -1 -187537673078574e-30
 0 14 627 292 765 ?759 766 626 5 761 -0 0 759 766 22 51 764 322 0 766 761 767 0
 --.0185 -.0185 .05 0 0 -1 .003 -1 0 0 14 766 294 768 ?627 289 769 5 764 -0 0 62
7 289 22 50 767 323 0 289 764 770 0 +-.0215 -.0185 .05 1 0 0 0 0 -1 14 289 296 7
71 ?766 772 287 5 767 -0 0 766 772 22 51 770 324 0 772 767 773 0 --.0185 .0185 .
05 0 0 -1 .003 -1 0 0 14 772 298 774 ?289 705 775 5 770 -0 0 289 705 22 50 773 3
25 0 705 770 776 0 +.0185 .0215 .05 187537673078574e-30 -1 0 1 187537673078574e-
30 0 14 705 300 777 ?772 778 701 5 773 -0 0 772 778 22 51 776 326 0 778 773 779
 0 -.0185 .0185 .05 0 0 -1 .003 -1 0 0 14 778 302 780 ?705 781 782 5 776 -0 0 70
5 781 22 50 779 327 0 781 776 783 0 +.0215 .0145 .05 -1 0 0 0 0 1 14 781 304 784
 ?778 785 786 5 779 -0 0 778 785 22 51 783 328 0 785 779 787 0 -.0185 .0145 .05
 0 0 -1 .003 -1 0 0 14 785 306 788 ?781 789 790 5 783 -0 0 781 789 22 50 787 329
 0 789 783 334 0 +.01449137674618942 .0115 .05 432747945152442e-30 1 0 -1 432747
945152442e-30 0 14 789 308 791 ?785 792 793 5 787 -0 0 785 792 22 51 334 330 0 7
92 787 325 0 -.01449137674618942 .0145 .05 0 0 -1 .003 -1 0 0 14 792 310 794 ?78
9 333 795 5 334 -0 0 789 333 22 81 1 794 1867 738 792 796 0 791 797 798 14 333 3
12 797 ?792 799 800 5 325 -0 0 792 799 22 15 795 309 0 90 792 0 17 90 0 795 801
 598 88 802 538 0 595 +17 801 0 795 803 90 136 595 593 0 804 -17 598 0 795 90 80
3 91 805 596 0 802 +17 802 0 806 807 808 91 90 538 0 0 -17 595 0 793 87 804 88 8
01 593 0 808 +15 793 307 0 87 789 0 17 87 0 793 809 595 85 808 540 0 592 +17 804
 0 793 595 809 136 135 507 0 0 -17 808 0 806 802 810 88 87 540 0 0 -15 806 157 0
 811 743 812 17 810 0 806 808 813 85 84 542 0 0 -17 813 0 806 810 814 82 81 544
 0 0 -17 84 0 790 815 592 82 810 542 0 589 +15 790 305 0 84 785 0 17 815 0 790 8
16 84 130 589 587 0 817 -17 592 0 790 84 816 85 809 590 0 810 +17 589 0 786 81 8
17 82 815 587 0 813 +15 786 303 0 81 781 0 17 81 0 786 818 589 79 813 544 0 586
 +17 817 0 786 589 818 130 129 511 0 0 -17 818 0 786 817 81 127 586 584 0 819 -1
7 129 0 744 126 132 127 817 511 0 818 +17 126 0 744 123 129 124 819 513 0 820 +1
7 132 0 744 129 135 130 816 509 0 815 +17 135 0 744 132 138 133 804 507 0 809 +1
7 816 0 790 592 815 133 132 509 0 0 -17 138 0 744 135 141 136 803 505 0 801 +17
 809 0 793 804 87 133 592 590 0 816 -17 141 0 744 138 144 139 821 503 0 805 +17
 803 0 795 598 801 139 138 505 0 0 -17 144 0 744 141 147 142 822 501 0 823 +17 8
21 0 693 601 805 142 141 503 0 0 -17 805 0 693 821 93 139 598 596 0 803 -15 693
 311 0 93 333 0 17 93 0 693 805 601 91 807 536 0 598 +17 601 0 693 93 821 94 823
 599 0 807 +17 807 0 806 824 802 94 93 536 0 0 -17 824 0 806 102 807 97 96 534 0
 0 -17 102 0 806 811 824 100 99 532 0 607 -17 96 0 825 823 604 94 824 534 0 601
 +15 825 313 0 96 799 0 17 823 0 825 822 96 142 601 599 0 821 -17 604 0 825 96 8
22 97 826 602 0 824 +17 822 0 825 604 823 145 144 501 0 0 -17 826 0 827 149 99 1
45 604 602 0 822 -15 827 315 0 99 828 0 17 149 0 827 607 826 57 147 498 0 497 -1
7 99 0 827 826 607 97 102 532 0 604 +17 607 0 827 99 149 100 829 605 0 531 +17 8
29 0 830 831 531 57 607 605 0 0 -17 531 0 830 829 562 100 811 492 0 0 +15 830 31
7 0 531 18 0 17 562 0 830 531 831 54 832 529 0 811 +17 811 0 806 833 102 54 531
 492 0 0 -17 833 0 806 834 811 58 56 499 0 0 -17 834 0 806 835 833 61 60 558 0 0
 -17 56 0 760 832 565 54 833 499 0 562 +15 760 287 0 56 756 0 17 832 0 760 836 5
6 53 562 529 0 831 -17 565 0 760 56 836 58 837 563 0 833 +17 836 0 760 565 832 1
06 105 527 0 0 -17 837 0 763 838 60 106 565 563 0 836 -15 763 289 0 60 759 0 17
 838 0 763 568 837 109 108 525 0 0 -17 60 0 763 837 568 58 834 558 0 565 +17 568
 0 763 60 838 61 839 566 0 834 +17 839 0 628 840 63 109 568 566 0 838 -15 628 29
1 0 63 627 0 17 840 0 628 571 839 112 111 523 0 0 -17 63 0 628 839 571 61 835 55
6 0 568 +17 571 0 628 63 840 64 841 569 0 835 +17 835 0 806 842 834 64 63 556 0
 0 -17 842 0 806 843 835 67 66 554 0 0 -17 843 0 806 844 842 70 69 552 0 0 -17 6
6 0 769 841 574 64 842 554 0 571 +15 769 293 0 66 766 0 17 841 0 769 845 66 112
 571 569 0 840 -17 574 0 769 66 845 67 846 572 0 842 +17 845 0 769 574 841 115 1
14 521 0 0 -17 846 0 290 847 69 115 574 572 0 845 -15 290 295 0 69 289 0 17 847
 0 290 577 846 118 117 519 0 0 -17 69 0 290 846 577 67 843 552 0 574 +17 577 0 2
90 69 847 70 848 575 0 843 +17 848 0 775 849 72 118 577 575 0 847 -15 775 297 0
 72 772 0 17 849 0 775 580 848 121 120 517 0 0 -17 72 0 775 848 580 70 844 550 0
 577 +17 580 0 775 72 849 73 850 578 0 844 +17 844 0 806 851 843 73 72 550 0 0 -
17 851 0 806 814 844 76 75 548 0 0 -17 814 0 806 813 851 79 78 546 0 0 -17 75 0
 706 850 583 73 851 548 0 580 +15 706 299 0 75 705 0 17 850 0 706 852 75 121 580
 578 0 849 -17 583 0 706 75 852 76 820 581 0 851 +17 852 0 706 583 850 124 123 5
15 0 0 -17 820 0 782 819 78 124 583 581 0 852 -15 782 301 0 78 778 0 17 819 0 78
2 586 820 127 126 513 0 0 -17 78 0 782 820 586 76 814 546 0 583 +17 586 0 782 78
 819 79 818 584 0 814 +17 123 0 744 120 126 121 852 515 0 850 +17 120 0 744 117
 123 118 849 517 0 848 +17 117 0 744 114 120 115 847 519 0 846 +17 114 0 744 111
 117 112 845 521 0 841 +17 111 0 744 108 114 109 840 523 0 839 +17 108 0 744 105
 111 106 838 525 0 837 +17 105 0 744 497 108 53 836 527 0 832 +17 497 0 744 147
 105 57 831 495 0 829 +17 147 0 744 144 497 145 149 498 0 826 +17 831 0 830 562
 829 53 497 495 0 0 -14 18 318 853 ?828 743 830 5 6 -0 0 828 743 22 81 1 853 186
9 738 18 854 0 797 855 856 14 828 316 855 ?799 18 827 5 19 -0 0 799 18 22 81 1 8
55 1870 738 828 857 0 853 858 859 14 799 314 858 ?333 828 825 5 335 -0 0 333 828
 22 50 19 333 0 828 335 6 0 +.01449137674618944 -.0115 .05 0 -1 0 0 0 -1 51 335
 332 0 799 325 19 0 -.01449137674618944 -.0145 .05 0 0 -1 .003 -1 0 0 81 1 858 1
871 738 799 860 0 855 861 862 80 255 1 738 863 864 9000 1 1 1 1 1 1 1 1 0 FFFFTF
TFFFFFFF1 81 1 860 1706 865 799 0 858 857 866 867 81 1 861 1872 738 349 868 0 85
8 869 870 82 255 1 862 -486670233 14 349 1394 861 ?871 345 872 5 873 -0 0 871 34
5 22 81 1 868 1741 865 349 0 861 874 875 876 81 1 869 1873 738 871 875 0 861 877
 878 82 1 870 1016594541 14 871 1398 869 ?879 349 880 5 881 -0 0 879 349 22 81 1
 875 1742 865 871 0 869 868 882 883 81 1 877 1874 738 879 882 0 869 884 885 82 1
 878 1015742573 14 879 1402 877 ?886 871 887 5 888 -0 0 886 871 22 81 1 882 1743
 865 879 0 877 875 889 890 81 1 884 1875 738 886 889 0 877 891 892 82 1 885 1014
890605 14 886 1406 884 ?341 879 893 5 342 -0 0 341 879 22 81 1 889 1744 865 886
 0 884 882 894 895 81 1 891 1876 738 341 894 0 884 896 897 82 1 892 1014038637 1
4 341 1410 891 ?273 886 898 5 337 -0 0 273 886 22 81 1 894 1745 865 341 0 891 88
9 899 900 81 1 896 1877 738 350 901 0 891 902 903 82 1 897 1013186669 14 350 978
 896 ?345 440 736 5 434 -438 438 345 440 22 81 1 901 1739 865 350 0 896 904 874
 905 81 1 902 1878 738 440 904 0 896 906 907 82 1 903 -488636310 14 440 966 902
 ?350 733 734 5 420 -432 432 350 733 22 81 1 904 1738 865 440 0 902 908 901 909
 81 1 906 1879 738 733 908 0 902 910 911 82 1 907 -486145942 14 733 954 906 ?440
 668 731 5 433 -437 437 440 668 22 81 1 908 1737 865 733 0 906 912 904 913 81 1
 910 1880 738 668 912 0 906 914 915 82 1 911 -483655574 14 668 942 910 ?733 665
 697 5 441 -670 670 733 665 22 81 1 912 1736 865 668 0 910 916 908 917 81 1 914
 1881 738 664 918 0 910 919 920 82 1 915 -481230742 14 664 918 914 ?665 712 709
 5 352 -636 636 665 712 22 81 1 918 1734 865 664 0 914 921 916 922 81 1 919 1882
 738 351 923 0 914 924 925 82 1 920 -476250006 14 351 902 919 ?447 636 629 5 346
 -712 712 447 636 22 81 1 923 1730 865 351 0 919 926 927 928 81 1 924 1883 738 6
63 929 0 919 930 931 82 1 925 -473300886 14 663 930 924 ?636 670 932 5 660 -665
 665 636 670 22 81 1 929 1728 865 663 0 924 933 926 934 81 1 930 1884 738 437 93
5 0 924 936 937 82 1 931 -478740374 14 437 950 930 ?670 432 724 5 433 -733 733 6
70 432 22 81 1 935 1726 865 437 0 930 938 933 939 81 1 936 1885 738 445 940 0 93
0 941 942 82 1 937 -483196822 14 445 521 936 ?438 943 944 5 448 +0 0 438 943 22
 81 1 940 1723 865 445 0 936 945 946 947 81 1 941 1886 738 943 945 0 936 948 949
 82 1 942 -465960857 14 943 483 941 ?445 950 951 5 453 +0 0 445 950 22 81 1 945
 1722 865 943 0 941 952 940 953 81 1 948 1887 738 950 952 0 941 954 955 82 1 949
 -470024089 14 950 445 948 ?943 753 956 5 754 +0 0 943 753 22 81 1 952 1721 865
 950 0 948 957 945 958 81 1 954 1888 738 753 957 0 948 0 959 82 1 955 -474087321
 14 753 407 954 ?950 756 960 5 752 +0 0 950 756 22 81 1 957 1720 865 753 0 954 9
61 952 962 82 1 959 -478150553 80 1 865 0 963 8001 0 0 0 0 3 5 0 0 0 FFFFTFTFFFF
FFF2 81 1 961 1719 865 756 0 758 964 957 965 83 255 3 962 .694117647058824 .0980
392156862745 .0980392156862745 81 1 758 1856 738 756 961 0 747 762 966 81 1 964
 1718 865 759 0 762 967 961 968 83 3 965 .694117647058824 .0980392156862745 .098
0392156862745 81 1 762 1857 738 759 964 0 758 765 969 81 1 967 1717 865 627 0 76
5 970 964 971 83 3 968 .694117647058824 .0980392156862745 .0980392156862745 81 1
 765 1858 738 627 967 0 762 768 972 81 1 970 1716 865 766 0 768 973 967 974 83 3
 971 .694117647058824 .0980392156862745 .0980392156862745 81 1 768 1859 738 766
 970 0 765 771 975 81 1 973 1715 865 289 0 771 976 970 977 83 3 974 .69411764705
8824 .0980392156862745 .0980392156862745 81 1 771 1860 738 289 973 0 768 774 978
 81 1 976 1714 865 772 0 774 979 973 980 83 3 977 .694117647058824 .098039215686
2745 .0980392156862745 81 1 774 1861 738 772 976 0 771 777 981 81 1 979 1713 865
 705 0 777 982 976 983 83 3 980 .694117647058824 .0980392156862745 .098039215686
2745 81 1 777 1862 738 705 979 0 774 780 984 81 1 982 1712 865 778 0 780 985 979
 986 83 3 983 .694117647058824 .0980392156862745 .0980392156862745 81 1 780 1863
 738 778 982 0 777 784 987 81 1 985 1711 865 781 0 784 988 982 989 83 3 986 .694
117647058824 .0980392156862745 .0980392156862745 81 1 784 1864 738 781 985 0 780
 788 990 81 1 988 1710 865 785 0 788 991 985 992 83 3 989 .694117647058824 .0980
392156862745 .0980392156862745 81 1 788 1865 738 785 988 0 784 791 993 81 1 991
 1709 865 789 0 791 796 988 994 83 3 992 .694117647058824 .0980392156862745 .098
0392156862745 81 1 791 1866 738 789 991 0 788 794 995 81 1 796 1708 865 792 0 79
4 866 991 996 83 3 994 .694117647058824 .0980392156862745 .0980392156862745 81 1
 866 1707 865 333 0 797 860 796 997 83 3 996 .694117647058824 .0980392156862745
 .0980392156862745 81 1 797 1868 738 333 866 0 794 853 998 83 3 997 .69411764705
8824 .0980392156862745 .0980392156862745 82 1 998 -486932371 82 1 995 -487456665
 82 1 993 -487718809 82 1 990 -487980953 82 1 987 -488243097 82 1 984 -488505238
 82 1 981 -488767385 82 1 978 -489029523 82 1 975 -489291673 82 1 972 -489553814
 82 1 969 -489815961 81 1 747 1855 738 743 999 0 742 758 1000 82 1 966 -49007810
5 81 1 999 1703 865 743 0 747 746 854 1001 82 1 1000 -460324761 81 1 746 1702 86
5 16 0 742 0 999 1002 81 1 854 1704 865 18 0 853 999 857 1003 83 3 1001 .6941176
47058824 .0980392156862745 .0980392156862745 81 1 857 1705 865 828 0 855 854 860
 1004 83 3 1003 .694117647058824 .0980392156862745 .0980392156862745 83 3 1004 .
694117647058824 .0980392156862745 .0980392156862745 83 3 1002 .694117647058824 .
0980392156862745 .0980392156862745 79 255 15 963 SDL/TYSA_COLOUR15 960 410 0 491
 753 1005 17 491 0 960 491 491 0 1006 489 0 0 +15 1005 411 0 1007 753 0 17 1007
 0 1005 1007 1007 0 494 486 0 0 -17 494 0 1008 494 494 0 1007 486 0 0 +15 1008 3
89 0 494 743 806 17 1006 0 751 1006 1006 0 491 489 0 0 -15 751 396 0 1006 16 100
9 15 1009 434 0 1010 16 1011 17 1010 0 1009 1010 1010 0 485 483 0 0 -15 1011 472
 0 1012 16 1013 17 1012 0 1011 1012 1012 0 479 477 0 0 -15 1013 510 0 1014 16 0
 17 1014 0 1013 1014 1014 0 473 471 0 0 -17 473 0 944 473 473 0 1014 471 0 0 +15
 944 524 0 473 445 1015 15 1015 525 0 1016 445 0 17 1016 0 1015 1016 1016 0 476
 470 0 0 -17 476 0 1017 476 476 0 1016 470 0 0 +15 1017 503 0 476 743 0 17 479 0
 951 479 479 0 1012 477 0 0 +15 951 486 0 479 943 1018 15 1018 487 0 1019 943 0
 17 1019 0 1018 1019 1019 0 482 474 0 0 -17 482 0 749 482 482 0 1019 474 0 0 +15
 749 465 0 482 743 1008 17 485 0 956 485 485 0 1010 483 0 0 +15 956 448 0 485 95
0 1020 15 1020 449 0 1021 950 0 17 1021 0 1020 1021 1021 0 488 480 0 0 -17 488 0
 812 488 488 0 1021 480 0 0 +15 812 427 0 488 743 1017 83 3 958 .694117647058824
 .0980392156862745 .0980392156862745 51 754 458 0 950 453 752 0 --.0155 -.0155 .
05 0 0 -1 .00175 -1 0 0 51 453 496 0 943 448 754 0 -.0155 -.0155 .05 0 0 -1 .001
75 -1 0 0 83 3 953 .694117647058824 .0980392156862745 .0980392156862745 81 1 946
 1724 865 438 0 444 940 938 1022 83 3 947 .694117647058824 .0980392156862745 .09
80392156862745 81 1 444 1847 738 438 946 0 436 450 1023 81 1 938 1725 865 432 0
 436 946 935 1024 83 3 1022 .694117647058824 .0980392156862745 .0980392156862745
 81 1 436 1846 738 432 938 0 348 444 1025 83 3 1024 .694117647058824 .0980392156
862745 .0980392156862745 81 1 348 1845 738 345 874 0 344 436 1026 82 1 1025 -485
621654 81 1 874 1740 865 345 0 348 901 868 1027 81 1 344 1844 738 286 1028 0 340
 348 1029 82 1 1026 1017118829 81 1 1028 1747 865 286 0 344 899 0 1030 81 1 340
 1843 738 273 899 0 0 344 1031 82 1 1029 1011482733 81 1 899 1746 865 273 0 340
 894 1028 1032 82 1 1031 1012334701 83 3 1032 .694117647058824 .0980392156862745
 .0980392156862745 83 3 1030 .694117647058824 .0980392156862745 .098039215686274
5 83 3 1027 .694117647058824 .0980392156862745 .0980392156862745 81 1 450 1848 7
38 447 927 0 444 662 1033 82 1 1023 -488112022 81 1 927 1731 865 447 0 450 923 7
39 1034 81 1 662 1849 738 636 926 0 450 667 1035 82 1 1033 -471793558 81 1 926 1
729 865 636 0 662 929 923 1036 81 1 667 1850 738 665 916 0 662 672 1037 82 1 103
5 -475725718 81 1 916 1735 865 665 0 667 918 912 1038 81 1 672 1851 738 670 933
 0 667 737 1039 82 1 1037 -478216086 81 1 933 1727 865 670 0 672 935 929 1040 82
 1 1039 -480706454 83 3 1040 .694117647058824 .0980392156862745 .098039215686274
5 83 3 1038 .694117647058824 .0980392156862745 .0980392156862745 83 3 1036 .6941
17647058824 .0980392156862745 .0980392156862745 81 1 739 1732 865 451 0 737 927
 921 1041 83 3 1034 .694117647058824 .0980392156862745 .0980392156862745 81 1 92
1 1733 865 712 0 740 739 918 1042 83 3 1041 .694117647058824 .0980392156862745 .
0980392156862745 81 1 740 1853 738 712 921 0 737 742 1043 83 3 1042 .69411764705
8824 .0980392156862745 .0980392156862745 82 1 1043 -473759638 83 3 939 .69411764
7058824 .0980392156862745 .0980392156862745 83 3 934 .694117647058824 .098039215
6862745 .0980392156862745 15 932 933 0 638 663 0 17 638 0 932 184 172 173 637 39
4 0 622 -17 184 0 932 1044 638 182 622 620 0 1045 -17 172 0 932 638 1044 170 642
 689 0 637 -16 394 766 0 ?637 392 395 393 395 395 1 17 622 0 626 624 619 173 184
 620 0 0 +17 619 0 626 622 616 182 193 617 0 0 +17 193 0 673 728 1045 191 619 61
7 0 726 -15 673 941 0 1045 670 0 17 728 0 673 181 193 188 726 400 0 688 +17 1045
 0 673 193 181 182 1044 397 0 619 -17 726 0 724 202 190 191 728 400 0 616 -16 40
0 776 0 ?728 398 401 399 401 401 1 17 181 0 673 1045 728 179 688 682 0 1044 -17
 1044 0 932 172 184 179 1045 397 0 642 +16 397 770 0 ?1044 395 398 396 398 398 1
 17 642 0 641 688 639 179 172 689 0 0 +83 3 928 .694117647058824 .09803921568627
45 .0980392156862745 83 3 922 .694117647058824 .0980392156862745 .09803921568627
45 83 3 917 .694117647058824 .0980392156862745 .0980392156862745 83 3 913 .69411
7647058824 .0980392156862745 .0980392156862745 83 3 909 .694117647058824 .098039
2156862745 .0980392156862745 83 3 905 .694117647058824 .0980392156862745 .098039
2156862745 83 3 900 .694117647058824 .0980392156862745 .0980392156862745 15 898
 1413 0 269 341 0 17 269 0 898 292 250 267 274 281 0 272 +17 292 0 898 1046 269
 264 277 293 0 291 +17 250 0 898 269 1046 248 1047 331 0 274 -17 274 0 271 32 27
2 248 269 281 0 278 -17 278 0 800 1047 280 248 32 279 0 0 +15 800 1266 0 1048 33
3 641 17 1047 0 800 1049 278 245 250 331 0 0 +17 280 0 800 278 361 11 28 312 0 0
 +17 361 0 800 280 1048 251 235 354 0 0 +17 28 0 27 40 25 251 280 312 0 36 -17 3
6 0 35 235 33 251 40 282 0 361 -15 35 1393 0 37 345 0 17 235 0 35 37 36 233 361
 354 0 1050 -17 37 0 35 33 235 253 1050 310 0 309 +17 1050 0 872 238 309 233 37
 310 0 1048 -15 872 1397 0 257 349 0 17 238 0 872 257 1050 236 1048 363 0 1051 -
17 309 0 872 1050 257 253 1052 307 0 38 +17 1048 0 800 361 1053 233 238 363 0 0
 +17 1053 0 800 1048 1054 236 241 1055 0 0 +16 363 1296 0 ?1048 354 1055 355 0 0
 1 16 1055 1298 0 ?1053 363 1056 364 0 0 1 16 1056 1300 0 ?1054 1055 1057 1058 0
 0 1 38 364 1474 0 1055 1058 355 0 +325 881 1059 1060 1061 1062 30 1058 1475 0 1
056 332 364 0 --.0167705098312484 -.005 .05 0 0 -1 51 881 1468 0 871 873 888 106
3 +.0285 -999999999999959e-20 .04001 -1 0 0 .00499 0 0 1 40 6 1059 0 1 6 .000296
7535974883545 .3468838720422485 ??-.0167705098312484 -.005 .04001 -.016848064743
46905 -.00473209408189171 .04162304912565095 -.01704504374532635 -.0039644020633
52145 .04305348555464885 -.01728314105400595 -.00274645868480391 .04418275614748
35 -.0174596694411357 -.001187410209772722 .0448591035458034 -.0174999971428569
 -1000000000000074e-20 .045 41 1 1060 L?-.0167705098312484 -.005 .04001 41 1 106
1 L?-.0174999971428569 -1000000000000074e-20 .045 204 24 1062 4 5.99343360574354
 .00999 4.71238898038468 .0452705098312484 6.00937123847285 .00837695087434905 5
.0415575390856 .0453480647434691 6.05466426750346 .00694651444535115 5.368344761
00912 .0455450437453264 6.12559331471146 .00581724385251652 5.70274938899782 .04
57831410540059 6.21528112310333 .00514089645419662 6.04498518789565 .04595966944
11357 6.28261387857706 .005 0 .0459999971428569 50 873 1469 0 349 0 881 0 +.0285
 -999999999996403e-20 .045 0 0 1 1 0 0 50 888 1467 0 879 881 342 0 +.0285 -.005
 .00999 0 -1 0 0 0 -1 141 1063 364 1063 1063 881 51 342 1466 0 886 888 337 1064
 +.0285 -999999999999959e-20 .00999 -1 0 0 .00499 0 0 1 141 1064 332 1064 1064 3
42 38 332 1476 0 1057 324 1058 0 +325 342 1065 1066 1067 1068 16 1057 1302 0 ?10
49 1056 331 332 0 0 1 40 6 1065 0 1 6 .000296962716797397 .3468463770235275 ??-.
0174999971428569 -999999999996353e-20 .005 -.01742439697927235 -.001624927662612
94 .0052685480364058 -.0172309165029962 -.003057043746296945 .00603833903172948
 -.0169924109360246 -.00418425269089616 .00725582471802809 -.01681168619920325 -
.0048597538147028 .00881527112201342 -.0167705098312484 -.005 .00999 41 1 1066 L
?-.0174999971428569 -999999999996353e-20 .005 41 1 1067 L?-.0167705098312484 -.0
05 .00999 204 24 1068 4 6.28261387857706 .045 3.141592653589785 .045999997142856
9 6.19019835271638 .0447314519635942 3.47115905795761 .0459243969792723 6.107596
20279097 .0439616609682705 3.79844855135055 .0457309165029962 6.04174628804168 .
0427441752819719 4.13250018101381 .0454924109360246 6.00178597018379 .0411847288
779866 4.474741778133795 .0453116861992033 5.99343360574354 .04001 4.71238898038
47 .0452705098312484 17 1049 0 800 1054 1047 242 247 1057 0 0 +16 331 1304 0 ?10
47 1057 279 324 0 0 1 17 1054 0 800 1053 1049 239 244 1056 0 0 +17 247 0 893 266
 1069 245 1049 1057 0 1046 -15 893 1409 0 266 886 0 17 266 0 893 300 247 264 104
6 319 0 292 +17 1069 0 893 247 300 242 263 317 0 1049 -17 1046 0 898 250 292 245
 266 319 0 1047 -17 300 0 893 1069 266 261 291 295 0 1070 +17 263 0 887 303 244
 261 1069 317 0 300 +15 887 1405 0 263 879 0 17 303 0 887 1071 263 258 1070 301
 0 1072 +17 244 0 887 263 1071 242 1054 1056 0 1069 -17 1071 0 887 244 303 239 2
60 315 0 1054 -17 260 0 880 306 241 258 1071 315 0 303 +15 880 1401 0 260 871 0
 17 306 0 880 1051 260 255 1072 304 0 1052 +17 241 0 880 260 1051 239 1053 1055
 0 1071 -17 1051 0 880 241 306 236 257 313 0 1053 -17 257 0 872 309 238 255 1051
 313 0 306 +17 1072 0 287 1070 1052 258 306 304 0 0 -17 1052 0 287 1072 38 255 3
09 307 0 0 -17 38 0 287 1052 284 253 33 39 0 0 -16 39 1342 0 ?33 285 0 297 0 0 1
 31 297 1495 0 39 0 288 0 +-.0215 1000000000000132e-20 .04001 -1 0 0 0 0 -1 .004
99 17 1070 0 287 291 1072 261 303 301 0 0 -17 291 0 287 277 1070 264 300 295 0 0
 -83 3 895 .694117647058824 .0980392156862745 .0980392156862745 83 3 890 .694117
647058824 .0980392156862745 .0980392156862745 83 3 883 .694117647058824 .0980392
156862745 .0980392156862745 83 3 876 .694117647058824 .0980392156862745 .0980392
156862745 83 3 867 .694117647058824 .0980392156862745 .0980392156862745 79 14 86
4 SWEntUnchanged82 1 859 -486408089 82 1 856 -486145945 82 1 798 -487194521 82 1
 748 -459800473 82 1 741 -472317846 17 417 0 641 469 722 34 205 415 0 0 +16 406
 788 0 ?719 404 407 405 407 407 1 40 6 678 0 1 6 .000296962716797397 .3468463770
235265 ??-999999999996477e-20 .0174999971428569 .005 -.001624927662612945 .01742
439697927235 .0052685480364058 -.003057043746296945 .0172309165029962 .006038339
03172948 -.00418425269089616 .0169924109360246 .00725582471802809 -.004859753814
7028 .01681168619920325 .00881527112201341 -.005 .0167705098312484 .00999 41 1 6
79 L?-999999999996477e-20 .0174999971428569 .005 41 1 680 L?-.005 .0167705098312
484 .00999 204 24 681 4 1.57022489819237 .045 4.71238898038468 .0459999971428569
 1.477809372331694 .0447314519635942 5.04195538475251 .0459243969792723 1.395207
222406278 .0439616609682705 5.36924487814545 .0457309165029962 1.32935730765699
 .0427441752819719 5.70329650780871 .0454924109360246 1.2893969897991 .041184728
8779866 6.04553810492869 .0453116861992033 1.28104462535885 .04001 6605159527767
4e-28 .0452705098312484 40 6 656 0 1 6 .0002967535974883545 .346883872042248 ??-
.005 .0167705098312484 .04001 -.00473209408189171 .01684806474346905 .0416230491
2565095 -.003964402063352145 .01704504374532635 .04305348555464885 -.00274645868
4803915 .01728314105400595 .0441827561474835 -.001187410209772728 .0174596694411
357 .0448591035458034 -999999999996618e-20 .0174999971428569 .045 41 1 657 L?-.0
05 .0167705098312484 .04001 41 1 658 L?-999999999996618e-20 .0174999971428569 .0
45 204 24 659 4 1.28104462535885 .00999 6.28318530717958 .0452705098312484 1.296
982258088156 .00837695087434905 .329168558700912 .0453480647434691 1.34227528711
8772 .00694651444535115 .655955780624426 .0455450437453264 1.413204334326772 .00
581724385251652 .990360408613132 .0457831410540059 1.50289214271864 .00514089645
419662 1.332596207510962 .0459596694411357 1.57022489819237 .005 1.5707963267949
05 .0459999971428569 40 6 459 0 1 6 .000296962716797397 .346846377023527 ??99999
9999996291e-20 .0174999971428569 .045 .00162492766261294 .01742439697927235 .044
7314519635942 .00305704374629694 .0172309165029962 .0439616609682705 .0041842526
9089616 .0169924109360246 .0427441752819719 .0048597538147028 .01681168619920325
 .0411847288779866 .005 .0167705098312484 .04001 41 1 460 L?999999999996291e-20
 .0174999971428569 .045 41 1 461 L?.005 .0167705098312484 .04001 204 24 462 4 1.
57136775539742 .005 1.57079632679489 .0459999971428569 1.6637832812581 .00526854
803640581 1.900362731162715 .0459243969792723 1.746385431183515 .006038339031729
48 2.227652224555655 .0457309165029962 1.812235345932805 .0072558247180281 2.561
70385421891 .0454924109360246 1.852195663790695 .00881527112201342 2.90394545133
89 .0453116861992033 1.860548028230945 .00999 3.1415926535898 .0452705098312484
 40 6 428 0 1 6 .000296962716797398 .346846377023528 ??99999999999718e-19 -.0174
999971428569 .005 .00162492766261295 -.01742439697927235 .0052685480364058 .0030
5704374629695 -.0172309165029962 .00603833903172948 .004184252690896165 -.016992
4109360246 .00725582471802809 .00485975381470281 -.01681168619920325 .0088152711
2201342 .005 -.0167705098312484 .00999 41 1 429 L?99999999999718e-19 -.017499997
1428569 .005 41 1 430 L?.005 -.0167705098312484 .00999 204 24 431 4 4.7118175517
8217 .045 4.7123889803847 .0110000028571431 4.61940202592149 .0447314519635942 4
.38282257601687 .01107560302072766 4.53679987599607 .0439616609682705 4.05553308
262393 .0112690834970038 4.470949961246785 .0427441752819719 3.721481452960675 .
0115075890639754 4.430989643388895 .0411847288779866 3.379239855840685 .01168831
380079674 4.42263727894864 .04001 3.141592653589795 .01172949016875158 141 336 4
16 1073 1074 325 141 1073 353 1075 336 325 141 1074 419 336 1076 325 141 1076 67
4 1074 1077 325 141 1077 677 1076 1078 325 141 1078 650 1077 1079 325 141 1079 6
45 1078 1080 325 141 1080 454 1079 1081 325 141 1081 458 1080 1082 325 141 1082
 323 1081 1083 325 141 1083 332 1082 1075 325 141 1075 364 1083 1073 325 19 17 3
52 0 1 0 9 5 S0 74 4 CI16 index_map_offset0 0 1 dCCZ20 15 9 0 0 1084 1085 954 10
86 1087 1088 1028 13 2 0 0 0 0 0 0 0 0 0 0 0 81 2 1084 387 1089 1 0 1085 0 0 0 1
090 81 2 1085 588 1091 1 1084 1086 0 0 0 1092 81 1 1086 1603 1093 1 1085 1087 0
 0 1094 81 2 1087 1650 1095 1 1086 1088 0 0 0 1096 81 2 1088 1653 1097 1 1087 13
 0 0 0 0 81 2 13 1841 1098 1 1088 2 0 0 1099 0 80 2 1098 1100 1101 8004 0 0 0 0
 3 5 0 0 0 FFTFFFFFFFFFFF2 3 83 1 1099 1020 79 16 1101 SDL/TYSA_DENSITY80 2 1097
 1102 1103 9000 0 0 0 0 3 5 0 0 0 FFTFFFFFFFFFFF9 1 79 16 1103 BODY_RECIPE_20018
0 2 1095 1104 1105 9000 0 0 0 0 3 5 0 0 0 FFTFFFFFFFFFFF9 1 82 1 1096 1 79 24 11
05 BODY_IN_LIGHTWEIGHT_PERM80 1 1093 1106 1107 9000 1 1 1 1 1 1 1 1 0 FFTFFFFFFF
FFFF1 82 1 1094 1696104 79 10 1107 BODY_MATCH80 2 1091 1108 1109 9000 0 0 0 0 3
 5 0 0 0 FFTFFFFFFFFFFF9 1 82 1 1092 106 79 30 1109 LAST_BODY_MODIFYING_FEATURE_
ID80 2 1089 1110 1111 9000 0 0 0 0 3 5 0 0 0 FFTFFFFFFFFFFF9 1 82 1 1090 107 79
 19 1111 ENT_TIME_STAMP_200180 2 12 1112 1113 9000 0 0 0 0 3 5 0 0 0 FFTFFFFFFFF
FFF9 1 82 1 14 103 79 12 1113 ATOM_ID_20011 0 
