**ABCDEFGHIJKLMNOPQRSTUVWXYZabcdefghijklmnopqrstuvwxyz**************************
**PARASOLID !"#$%&'()*+,-./:;<=>?@[\]^_`{|}~0123456789**************************
**PART1;
MC=AMD64;
MC_MODEL=Intel64 Family 6 Model 142 Stepping 10, GenuineIntel;
MC_ID=unknown;
OS=Windows_NT;
OS_RELEASE=unknown;
FRU=Parasolid Version 31.0, build 282,  2-25-2019;
APPL=SOLIDWORKS 2019-2019115;
SITE=;
USER=unknown;
FORMAT=text;
GUISE=transmit;
KEY=NEMA23 50mm Spacer;
FILE=NEMA23 50mm Spacer.x_t;
DATE=Fri Feb 14 15:22:50 2020;
**PART2;
SCH=SCH_3100282_31001;
USFLD_SIZE=0;
**PART3;
**END_OF_HEADER*****************************************************************
T51 : TRANSMIT FILE created by modeller version 310028223 SCH_3100282_31001_1300
6215 0 12 34 CCCCCCI4 mesh1006 0 I8 polyline1008 0 CCCCCCCDI5 owner1040 0 CCCCCC
I13 boundary_mesh1006 0 I17 boundary_polyline1008 0 CCCA16 index_map_offset0 0 1
 dA9 index_map82 0 A17 node_id_index_map82 0 A20 schema_embedding_map82 0 A5 chi
ld12 0 A14 lowest_node_id0 0 1 dA16 mesh_offset_data206 0 Z1 1705 2 3 0 0 0 0 0
 0 1e3 1e-8 0 4 0 1 0 1 1 5 6 7 8 0 0 9 10 11 0 0 0 0 0 0 0 81 255 2 2 1658 12 1
 13 0 0 0 0 14 70 11 CI9 list_type0 0 1 uI10 notransmit0 0 1 lCCCDCCDI12 finger_
index0 0 1 dI12 finger_block1012 0 CZ3 0 4 T1 0 0 9 20 1 15 15 13 255 5 351 0 1
 0 16 0 0 17 0 51 255 6 334 0 18 19 0 0 -.026 -.021 .05 0 0 -1 .003 -1 0 0 30 25
5 7 350 0 10 20 0 0 +.026 -.018 .05 0 0 -1 29 255 8 1126 0 11 21 0 -.01854049621
773915 .0075 .00999 19 8 CCCCCCCA5 owner12 0 Z9 117 0 1 17 0 22 V0 16 255 10 286
 0 ?23 0 24 7 0 0 1 18 255 11 1124 0 25 0 26 8 ?1 17 255 25 0 27 28 29 11 30 31
 0 32 -18 26 1088 0 33 11 34 21 ?1 17 33 0 35 36 37 26 38 39 0 40 +18 34 684 0 4
1 26 42 43 ?1 29 21 1090 0 26 43 8 -.029 .0075 .04001 29 43 686 0 34 44 21 .0075
 -.01854049621773915 .04001 29 44 658 0 42 45 43 .0075 .01854049621773915 .00999
 18 42 656 0 46 34 47 44 ?1 29 45 622 0 47 48 44 .0075 .029 .04001 18 47 620 0 4
9 42 50 45 ?1 29 48 255 0 51 52 45 .029 -.021 0 18 51 222 0 53 54 55 48 ?1 29 52
 256 0 55 56 48 .029 -.026 0 18 55 223 0 57 51 58 52 ?1 29 56 257 0 58 59 52 .02
6 -.029 0 18 58 224 0 60 55 61 56 ?1 29 59 258 0 61 62 56 -.026 -.029 0 18 61 22
5 0 63 58 64 59 ?1 29 62 259 0 64 65 59 -.029 -.026 0 18 64 226 0 66 61 67 62 ?1
 29 65 260 0 67 68 62 -.029 .026 0 18 67 227 0 69 64 70 65 ?1 29 68 261 0 70 71
 65 -.026 .029 0 18 70 228 0 72 67 73 68 ?1 29 71 262 0 73 74 68 .026 .029 0 18
 73 229 0 75 70 76 71 ?1 29 74 263 0 76 77 71 .029 .026 0 18 76 230 0 78 73 79 7
4 ?1 29 77 264 0 79 80 74 .029 .021 0 18 79 231 0 81 76 82 77 ?1 29 80 265 0 82
 83 77 .026 .018 0 18 82 232 0 84 79 85 80 ?1 29 83 266 0 85 86 80 .009380831519
64688 .018 0 18 85 233 0 87 82 88 83 ?1 29 86 267 0 88 89 83 .00815724479969293
 .0182608695652174 0 18 88 234 0 90 85 91 86 ?1 29 89 268 0 91 92 86 .0081572447
9969293 -.0182608695652174 0 18 91 235 0 93 88 94 89 ?1 29 92 269 0 94 95 89 .00
938083151964687 -.018 0 18 94 236 0 96 91 97 92 ?1 29 95 270 0 97 98 92 .026 -.0
18 0 18 97 237 0 99 94 100 95 ?1 29 98 116 0 50 101 95 .029 -.021 .05 18 50 114
 0 102 47 103 98 ?1 29 101 113 0 103 104 98 .029 -.026 .05 18 103 111 0 105 50 1
06 101 ?1 29 104 110 0 106 107 101 .026 -.029 .05 18 106 108 0 108 103 109 104 ?
1 29 107 107 0 109 110 104 -.026 -.029 .05 18 109 105 0 111 106 112 107 ?1 29 11
0 104 0 112 113 107 -.029 -.026 .05 18 112 102 0 114 109 115 110 ?1 29 113 101 0
 115 116 110 -.029 .026 .05 18 115 99 0 117 112 118 113 ?1 29 116 98 0 118 119 1
13 -.026 .029 .05 18 118 96 0 120 115 121 116 ?1 29 119 95 0 121 122 116 .026 .0
29 .05 18 121 93 0 123 118 124 119 ?1 29 122 92 0 124 125 119 .029 .026 .05 18 1
24 90 0 126 121 127 122 ?1 29 125 89 0 127 128 122 .029 .021 .05 18 127 87 0 129
 124 130 125 ?1 29 128 86 0 130 131 125 .026 .018 .05 18 130 84 0 132 127 133 12
8 ?1 29 131 83 0 133 134 128 .00938083151964688 .018 .05 18 133 81 0 135 130 136
 131 ?1 29 134 80 0 136 137 131 .00815724479969293 .0182608695652174 .05 18 136
 78 0 138 133 139 134 ?1 29 137 77 0 139 140 134 .00815724479969293 -.0182608695
652174 .05 18 139 75 0 141 136 142 137 ?1 29 140 74 0 142 143 137 .0093808315196
4687 -.018 .05 18 142 72 0 144 139 54 140 ?1 29 143 71 0 54 145 140 .026 -.018 .
05 18 54 69 0 146 142 51 143 ?1 29 145 982 0 100 147 143 .00251 .019841872391485
65 .045 18 100 823 0 148 97 149 145 ?1 29 147 983 0 149 150 145 .00251 -.0198418
7239148565 .045 18 149 798 0 151 100 152 147 ?1 29 150 984 0 152 153 147 -.00251
 .01984187239148565 .045 18 152 824 0 154 149 155 150 ?1 29 153 985 0 155 156 15
0 -.00251 -.01984187239148565 .045 18 155 802 0 157 152 158 153 ?1 29 156 986 0
 158 159 153 -.0075 .01854049621773915 .04001 18 158 825 0 160 155 161 156 ?1 29
 159 987 0 161 162 156 -.0075 -.01854049621773915 .04001 18 161 805 0 163 158 16
4 159 ?1 29 162 988 0 164 165 159 -.0075 .01854049621773915 .00999 18 164 826 0
 166 161 167 162 ?1 29 165 989 0 167 168 162 -.0075 -.01854049621773915 .00999 1
8 167 809 0 169 164 170 165 ?1 29 168 990 0 170 171 165 -.00251 .019841872391485
65 .005 18 170 827 0 172 167 173 168 ?1 29 171 991 0 173 174 168 -.00251 -.01984
187239148565 .005 18 173 811 0 175 170 176 171 ?1 29 174 992 0 176 177 171 .0025
1 .01984187239148565 .005 18 176 828 0 178 173 179 174 ?1 29 177 993 0 179 180 1
74 .00251 -.01984187239148565 .005 18 179 814 0 181 176 182 177 ?1 29 180 995 0
 182 183 177 .0075 -.01854049621773915 .00999 18 182 817 0 184 179 185 180 ?1 29
 183 996 0 185 186 180 .0075 .01854049621773915 .04001 18 185 800 0 187 182 188
 183 ?1 29 186 998 0 189 190 183 .00251 .029 .045 18 189 804 0 191 192 193 186 ?
1 29 190 999 0 193 194 186 -.00251 .029 .045 18 193 807 0 195 189 196 190 ?1 29
 194 1000 0 196 197 190 -.0075 .029 .04001 18 196 808 0 198 193 199 194 ?1 29 19
7 1001 0 199 200 194 -.0075 .029 .00999 18 199 813 0 201 196 202 197 ?1 29 200 1
002 0 202 203 197 -.00251 .029 .005 18 202 816 0 204 199 205 200 ?1 29 203 1003
 0 205 206 200 .00251 .029 .005 18 205 819 0 207 202 208 203 ?1 29 206 1004 0 20
8 209 203 .0075 .029 .00999 18 208 821 0 210 205 211 206 ?1 29 209 1006 0 188 21
2 206 .00251 -.021 .045 18 188 799 0 213 185 214 209 ?1 29 212 1007 0 214 215 20
9 -.00251 -.021 .045 18 214 803 0 216 188 217 212 ?1 29 215 1008 0 217 218 212 -
.0075 -.021 .04001 18 217 806 0 219 214 220 215 ?1 29 218 1009 0 220 221 215 -.0
075 -.021 .00999 18 220 810 0 222 217 223 218 ?1 29 221 1010 0 223 224 218 -.002
51 -.021 .005 18 223 812 0 225 220 226 221 ?1 29 224 1011 0 226 227 221 .00251 -
.021 .005 18 226 815 0 228 223 229 224 ?1 29 227 1012 0 229 230 224 .0075 -.021
 .00999 18 229 818 0 231 226 192 227 ?1 29 230 1013 0 192 232 227 .0075 -.021 .0
4001 18 192 820 0 233 229 189 230 ?1 29 232 1360 0 211 234 230 -.019841872391485
65 .00251 .045 18 211 1231 0 235 208 236 232 ?1 29 234 1361 0 236 237 232 -.0198
4187239148565 -.00251 .045 18 236 1233 0 238 211 239 234 ?1 29 237 1362 0 239 24
0 234 -.01854049621773915 -.0075 .04001 18 239 1235 0 241 236 242 237 ?1 29 240
 1363 0 242 243 237 -.01854049621773915 -.0075 .00999 18 242 1237 0 244 239 245
 240 ?1 29 243 1364 0 245 246 240 -.01984187239148565 -.00251 .005 18 245 1239 0
 247 242 248 243 ?1 29 246 1365 0 248 249 243 -.01984187239148565 .00251 .005 18
 248 1241 0 250 245 251 246 ?1 29 249 1367 0 251 252 246 -.01854049621773915 .00
75 .04001 18 251 1222 0 28 248 253 249 ?1 29 252 1368 0 253 254 249 -.029 .00251
 .045 18 253 1224 0 37 251 255 252 ?1 29 254 1369 0 255 256 252 -.029 -.00251 .0
45 18 255 1225 0 257 253 258 254 ?1 29 256 1370 0 258 259 254 -.029 -.0075 .0400
1 18 258 1226 0 260 255 261 256 ?1 29 259 1371 0 261 262 256 -.029 -.0075 .00999
 18 261 1227 0 263 258 264 259 ?1 29 262 1372 0 264 265 259 -.029 -.00251 .005 1
8 264 1228 0 266 261 267 262 ?1 29 265 1373 0 267 268 262 -.029 .00251 .005 18 2
67 1229 0 269 264 270 265 ?1 29 268 1374 0 270 0 265 -.029 .0075 .00999 18 270 1
230 0 30 267 0 268 ?1 17 30 0 271 272 32 270 25 31 0 29 +15 255 271 1273 0 30 27
3 0 17 272 0 271 274 30 267 275 276 0 277 +17 32 0 271 30 274 11 278 279 0 280 -
16 31 1165 0 ?30 281 282 283 0 0 1 17 29 0 27 25 40 270 284 285 0 275 +15 27 127
7 0 40 286 0 17 40 0 27 29 28 26 36 282 0 284 +17 284 0 287 38 275 26 29 285 0 0
 -16 285 1201 0 ?29 276 39 288 0 0 1 17 275 0 287 284 277 270 272 276 0 0 -15 28
7 1086 0 284 289 290 17 277 0 287 275 291 267 292 293 0 0 -16 276 1204 0 ?272 29
3 285 294 0 0 1 16 293 1207 0 ?292 295 276 296 0 0 1 31 255 294 1349 0 276 288 2
96 0 +-.029 .00251 .00999 -1 0 0 0 0 -1 .00499 30 288 1350 0 285 297 294 0 +-.02
9 .0075 .00999 0 0 -1 30 296 1348 0 293 294 298 0 +-.029 -.00251 .005 0 -1 -1727
812227068535e-31 31 298 1347 0 295 296 299 0 +-.029 -.00251 .00999 -1 0 0 0 0 -1
 .00499 16 295 1210 0 ?300 301 293 298 0 0 1 30 299 1346 0 301 298 302 0 +-.029
 -.0075 .00999 0 0 1 16 301 1213 0 ?303 304 295 299 0 0 1 31 302 1345 0 304 299
 305 0 +-.029 -.00251 .04001 -1 0 0 0 0 1 .00499 16 304 1216 0 ?306 307 301 302
 0 0 1 30 305 1344 0 307 302 308 0 +-.029 -.00251 .045 0 1 0 16 307 1219 0 ?309
 282 304 305 0 0 1 30 308 1343 0 310 305 311 0 +.021 .00251 .045 -1 0 0 16 310 1
153 0 ?37 312 313 308 0 0 1 30 311 1342 0 313 308 314 0 +.021 -.00251 .045 -1 0
 0 16 313 1155 0 ?257 310 315 311 0 0 1 30 314 1341 0 315 311 316 0 +.021 -.0075
 .04001 -1 0 0 16 315 1157 0 ?260 313 317 314 0 0 1 30 316 1340 0 317 314 318 0
 +.021 -.0075 .00999 -1 0 0 16 317 1159 0 ?263 315 319 316 0 0 1 30 318 1339 0 3
19 316 320 0 +.021 -.00251 .005 -1 0 0 16 319 1161 0 ?266 317 281 318 0 0 1 30 3
20 1338 0 281 318 283 0 +.021 .00251 .005 -1 0 0 16 281 1163 0 ?269 319 31 320 0
 0 1 30 283 1337 0 31 320 321 0 +.021 .0075 .00999 -1 0 0 30 321 1336 0 282 283
 322 0 +.021 .0075 .04001 -1 0 0 16 282 1151 0 ?40 31 307 321 0 0 1 30 322 1335
 0 312 321 323 0 +-.01854049621773915 .0075 .05 0 0 -1 16 312 1164 0 ?280 279 31
0 322 0 0 1 38 12 CCCCCCCCCCCA17 intersection_data204 0 Z323 1334 0 279 322 324
 0 +325 326 327 328 329 330 16 279 1162 0 ?278 331 312 323 0 0 1 31 324 1333 0 3
31 323 332 0 -0 0 .005 0 1727812227068535e-31 -1 0 1 1727812227068535e-31 .02 51
 325 331 0 333 334 335 336 +0 0 .05 0 0 -1 .02 -1 0 0 51 326 1320 0 273 337 338
 339 +.021 .00251 .00999 -1 0 0 .00499 0 0 1 40 255 6 327 0 1 6 .000298441985168
5375 .343361906662821 ??-.01854049621773915 .0075 .00999 -.01864198349965015 .00
724406316915942 .00841242403973429 -.01890888075325545 .00651569095792354 .00701
434209802108 -.0192721106394738 .0053465644576569 .00588463739999039 -.019637559
8416573 .00379028276851844 .00516703659223556 -.01984187239148565 .00251 .005 41
 3 CI8 term_use0 0 1 cCZ1 328 L?-.01854049621773915 .0075 .00999 41 1 329 L?-.01
984187239148565 .00251 .005 204 2 17 INTERSECTION_DATA17 Intersection data7 uv_t
ype0 0 1 u6 values0 1 1 fT24 330 4 .384396774495639 .04001 1.570796326794895 .03
95404962177392 .3706304635415245 .0415875759602657 1.892462260899695 .0396419834
9965015 .3318414290755905 .04298565790197895 2.2097105952216 .03990888075325545
 .2706192730866335 .0441153626000096 2.536972280790265 .04027211063947385 .19066
7294011863 .04483296340776445 2.88212124238179 .04063755984165735 .1258317998195
906 .045 3.141592653589795 .04084187239148565 14 255 273 1270 340 ?286 341 271 5
 326 -0 0 286 341 22 50 255 337 1321 0 341 342 326 0 +.021 -.00251 .005 0 172781
2227068535e-31 -1 0 1 1727812227068535e-31 50 338 1319 0 286 326 343 0 +.021 .00
75 .00999 0 1 0 0 0 1 141 255 339 323 339 339 326 14 286 1274 344 ?0 273 27 5 33
8 -0 0 0 273 22 51 343 1318 0 345 338 346 347 +.021 .00251 .04001 -1 0 0 .00499
 0 0 1 14 345 1246 348 ?349 350 35 5 343 -0 0 349 350 22 50 346 943 0 350 343 35
1 0 +.00251 -.021 .04001 -187537673078574e-30 1 0 -1 -187537673078574e-30 0 141
 347 352 347 347 343 38 352 1328 0 353 354 355 0 +325 343 356 357 358 359 16 353
 1150 0 ?360 361 362 352 0 0 1 31 354 1329 0 362 363 352 0 -0 0 .045 0 0 1 1 0 0
 .02 31 355 981 0 364 352 365 0 +.00251 -.021 .04001 -187537673078574e-30 1 0 -1
 -187537673078574e-30 0 .00499 40 6 356 0 1 6 .000315786016534728 .3600128800345
73 ??-.01984187239148565 .00251 .045 -.01956166787514215 .004164270637534415 .04
471781145096015 -.01919517810213585 .00561650582010606 .0439150891909977 -.01882
5749470017 .00675212239907976 .04263764106209845 -.0185832211301169 .00739350339
346492 .04103542411031565 -.01854049621773915 .0075 .04001 41 1 357 L?-.01984187
239148565 .00251 .045 41 1 358 L?-.01854049621773915 .0075 .04001 204 24 359 4 .
1258317998195906 .005 0 .04084187239148565 .209748104732931 .00528218854903986 .
337911223021034 .0405616678751422 .284653895249447 .00608491080900229 .671992165
896197 .04019517810213585 .344372536224299 .00736235893790158 1.01622211464121 .
039825749470017 .3786594010853235 .00896457588968436 1.3638260203492 .0395832211
301169 .384396774495639 .00999 1.570796326794895 .0395404962177392 16 364 712 0
 ?366 367 368 355 0 0 1 30 365 980 0 367 355 369 0 +.0075 -.021 .04001 0 0 -1 16
 367 761 0 ?370 371 364 365 0 0 1 31 369 979 0 371 365 372 0 +.00251 -.021 .0099
9 -187537673078574e-30 1 0 1 187537673078574e-30 0 .00499 16 371 754 0 ?373 374
 367 369 0 0 1 30 372 978 0 374 369 375 0 +-.00251 -.021 .005 -1 0 1727812227068
535e-31 16 374 747 0 ?376 377 371 372 0 0 1 31 375 977 0 377 372 378 0 +-.00251
 -.021 .00999 -187537673078574e-30 1 0 1 187537673078574e-30 0 .00499 16 377 740
 0 ?379 380 374 375 0 0 1 30 378 976 0 380 375 381 0 +-.0075 -.021 .04001 0 0 1
 16 380 735 0 ?382 383 377 378 0 0 1 31 381 975 0 383 378 384 0 +-.00251 -.021 .
04001 -187537673078574e-30 1 0 1 187537673078574e-30 0 .00499 16 383 726 0 ?385
 386 380 381 0 0 1 30 384 974 0 386 381 387 0 +-.00251 -.021 .045 1 0 0 16 386 7
19 0 ?388 389 383 384 0 0 1 31 387 973 0 361 384 390 0 +.00251 .029 .04001 -1875
37673078574e-30 1 0 -1 -187537673078574e-30 0 .00499 16 361 774 0 ?49 391 353 38
7 0 0 1 30 390 972 0 391 387 392 0 +.0075 .029 .04001 0 0 -1 16 391 777 0 ?393 3
94 361 390 0 0 1 31 392 971 0 394 390 395 0 +.00251 .029 .00999 -187537673078574
e-30 1 0 1 187537673078574e-30 0 .00499 16 394 780 0 ?396 397 391 392 0 0 1 30 3
95 970 0 397 392 398 0 +-.00251 .029 .005 -1 0 1727812227068535e-31 16 397 783 0
 ?399 400 394 395 0 0 1 31 398 969 0 400 395 401 0 +-.00251 .029 .00999 -1875376
73078574e-30 1 0 1 187537673078574e-30 0 .00499 16 400 786 0 ?402 403 397 398 0
 0 1 30 401 968 0 403 398 404 0 +-.0075 .029 .04001 0 0 1 16 403 789 0 ?405 406
 400 401 0 0 1 31 404 967 0 406 401 407 0 +-.00251 .029 .04001 -187537673078574e
-30 1 0 1 187537673078574e-30 0 .00499 16 406 792 0 ?408 368 403 404 0 0 1 30 40
7 966 0 368 404 409 0 +-.00251 .029 .045 1 0 0 16 368 795 0 ?410 364 406 407 0 0
 1 30 409 965 0 411 407 412 0 +.00251 -.021 .045 -187537673078574e-30 1 0 16 411
 717 0 ?413 414 415 409 415 415 1 30 412 964 0 416 409 417 0 +-.00251 -.021 .045
 -187537673078574e-30 1 0 16 416 724 0 ?418 415 419 412 419 419 1 30 417 963 0 4
20 412 421 0 +-.0075 -.021 .04001 -187537673078574e-30 1 0 16 420 733 0 ?422 419
 423 417 423 423 1 30 421 962 0 424 417 425 0 +-.0075 -.021 .00999 -187537673078
574e-30 1 0 16 424 738 0 ?426 423 427 421 427 427 1 30 425 961 0 428 421 429 0 +
-.00251 -.021 .005 -187537673078574e-30 1 0 16 428 745 0 ?430 427 431 425 431 43
1 1 30 429 960 0 432 425 433 0 +.00251 -.021 .005 -187537673078574e-30 1 0 16 43
2 752 0 ?434 431 435 429 435 435 1 30 433 959 0 436 429 437 0 +.0075 -.021 .0099
9 -187537673078574e-30 1 0 16 436 759 0 ?438 435 439 433 439 439 1 30 437 958 0
 440 433 441 0 +.0075 -.021 .04001 -187537673078574e-30 1 0 16 440 710 0 ?41 439
 389 437 389 389 1 30 441 957 0 414 437 442 0 +.0075 .01854049621773915 .05 0 0
 -1 16 414 764 0 ?443 444 411 441 0 0 1 30 442 956 0 444 441 445 0 -.0075 -.0185
4049621773915 .05 0 0 -1 16 444 760 0 ?446 447 414 442 0 0 1 38 445 955 0 447 44
2 448 0 +325 449 450 451 452 453 16 447 757 0 ?454 455 444 445 0 0 1 38 448 954
 0 455 445 456 0 +325 449 457 458 459 460 51 449 936 0 461 462 463 464 +.00251 -
.021 .00999 -187537673078574e-30 1 0 .00499 -1 -187537673078574e-30 0 40 6 450 0
 1 6 .0002984419851685365 .343361906662821 ??.0075 .01854049621773915 .00999 .00
724406316915943 .01864198349965015 .00841242403973429 .00651569095792355 .018908
88075325545 .00701434209802108 .0053465644576569 .0192721106394738 .005884637399
99039 .003790282768518445 .0196375598416573 .00516703659223556 .00251 .019841872
39148565 .005 41 1 451 L?.0075 .01854049621773915 .00999 41 1 452 L?.00251 .0198
4187239148565 .005 204 24 453 4 1.955193101290535 .04001 3.141592653589795 .0395
4049621773915 1.94142679033642 .0415875759602657 3.46325858769459 .0396419834996
5015 1.902637755870485 .04298565790197895 3.780506922016495 .03990888075325545 1
.84141559988153 .0441153626000096 4.10776860758516 .0402721106394738 1.761463620
80676 .04483296340776445 4.452917569176685 .0406375598416573 1.69662812661449 .0
45 4.71238898038469 .04084187239148565 14 461 878 465 ?466 467 468 5 449 -469 46
9 466 467 22 50 462 937 0 467 470 449 0 +-.00251 -.021 .005 -1727812227068535e-3
1 -3240298845811415e-47 -1 -1 0 1727812227068535e-31 50 463 935 0 466 449 471 0
 +.0075 -.021 .04001 1 187537673078574e-30 0 -187537673078574e-30 1 0 141 464 44
5 472 472 449 141 472 448 464 464 449 14 466 886 473 ?350 461 474 5 463 -475 475
 350 461 22 51 471 934 0 476 463 477 478 +.00251 -.021 .04001 -187537673078574e-
30 1 0 .00499 -1 -187537673078574e-30 0 14 476 830 479 ?480 481 482 5 471 -481 4
81 480 481 22 51 477 534 0 483 471 484 0 -.02355 .02355 .05 0 0 -1 .00275 -1 0 0
 141 478 485 486 486 471 38 485 945 0 487 488 489 0 +325 471 490 491 492 493 141
 486 489 478 478 471 38 489 944 0 494 485 495 0 +325 471 496 497 498 499 16 494
 711 0 ?500 501 487 489 0 0 1 31 495 538 0 502 489 503 0 +.02355 .02355 .05 0 0
 1 1 0 0 .00275 40 6 496 0 1 6 .000298441985168542 .343361906662821 ??.0075 -.01
854049621773915 .04001 .00724406316915943 -.01864198349965015 .0415875759602657
 .00651569095792355 -.01890888075325545 .0429856579019789 .00534656445765691 -.0
192721106394738 .0441153626000096 .00379028276851845 -.0196375598416573 .0448329
6340776445 .00251 -.01984187239148565 .045 41 1 497 L?.0075 -.01854049621773915
 .04001 41 1 498 L?.00251 -.01984187239148565 .045 204 24 499 4 4.32799220588905
 .00999 3.141592653589795 .002459503782260835 4.341758516843165 .008412424039734
3 2.819926719484995 .00235801650034986 4.3805475513091 .00701434209802108 2.5026
7838516309 .00209111924674457 4.441769707298055 .0058846373999904 2.175416699594
425 .00172788936052618 4.52172168637283 .00516703659223557 1.8302677380029 .0013
62440158342674 4.5865571805651 .005 1.570796326794895 .001158127608514354 16 502
 518 0 ?504 505 501 495 0 0 1 31 503 537 0 501 495 506 0 +.02355 .02355 0 0 0 1
 1 0 0 .00275 16 501 515 0 ?507 502 494 503 0 0 1 31 506 500 0 508 503 509 0 +.0
2355 -.02355 .05 0 0 1 1 0 0 .00275 16 508 480 0 ?510 511 505 506 0 0 1 31 509 4
99 0 505 506 512 0 +.02355 -.02355 0 0 0 1 1 0 0 .00275 16 505 477 0 ?513 508 50
2 509 0 0 1 31 512 462 0 514 509 515 0 +-.02355 -.02355 .05 0 0 1 1 0 0 .00275 1
6 514 442 0 ?516 517 511 512 0 0 1 31 515 461 0 511 512 518 0 +-.02355 -.02355 0
 0 0 1 1 0 0 .00275 16 511 439 0 ?519 514 508 515 0 0 1 31 518 424 0 520 515 521
 0 +-.02355 .02355 .05 0 0 1 1 0 0 .00275 16 520 404 0 ?522 523 517 518 0 0 1 31
 521 423 0 517 518 524 0 +-.02355 .02355 0 0 0 1 1 0 0 .00275 16 517 401 0 ?525
 520 514 521 0 0 1 31 524 7 0 526 521 527 0 +.026 -.021 .05 0 0 1 -1 0 0 .003 16
 526 5 0 ?528 529 530 524 0 0 1 30 527 11 0 529 524 531 0 +.00938083151964687 -.
018 .05 -1 2087617654309915e-31 0 16 529 9 0 ?144 532 526 527 0 0 1 31 531 15 0
 532 527 533 0 +.00938083151964687 -.021 .05 0 0 1 1 0 0 .003 16 532 13 0 ?141 5
34 529 531 0 0 1 31 533 19 0 534 531 535 0 +0 0 .05 0 0 -1 1 0 0 .02 16 534 17 0
 ?138 536 532 533 0 0 1 31 535 23 0 536 533 537 0 +.00938083151964687 .021 .05 0
 0 1 -1 0 0 .003 16 536 21 0 ?135 538 534 535 0 0 1 30 537 27 0 538 535 539 0 +.
00938083151964687 .018 .05 1 0 0 16 538 25 0 ?132 540 536 537 0 0 1 31 539 31 0
 540 537 541 0 +.026 .021 .05 0 0 1 -1 0 0 .003 16 540 29 0 ?129 542 538 539 0 0
 1 30 541 35 0 542 539 543 0 +.029 .021 .05 0 1 0 16 542 33 0 ?126 544 540 541 0
 0 1 31 543 39 0 544 541 545 0 +.026 .026 .05 0 0 1 1 0 0 .003 16 544 37 0 ?123
 546 542 543 0 0 1 30 545 43 0 546 543 547 0 +.026 .029 .05 -1 0 0 16 546 41 0 ?
120 548 544 545 0 0 1 31 547 47 0 548 545 549 0 +-.026 .026 .05 0 0 1 1 0 0 .003
 16 548 45 0 ?117 550 546 547 0 0 1 30 549 51 0 550 547 551 0 +-.029 -.026 .05 0
 -1 0 16 550 49 0 ?114 552 548 549 0 0 1 31 551 55 0 552 549 553 0 +-.026 -.026
 .05 0 0 1 -1 0 0 .003 16 552 53 0 ?111 554 550 551 0 0 1 30 553 59 0 554 551 55
5 0 +.026 -.029 .05 1 1334402673828312e-31 0 16 554 57 0 ?108 556 552 553 0 0 1
 31 555 63 0 556 553 557 0 +.026 -.026 .05 0 0 1 1 0 0 .003 16 556 61 0 ?105 558
 554 555 0 0 1 30 557 67 0 558 555 559 0 +.029 -.026 .05 0 1 0 16 558 65 0 ?102
 560 556 557 0 0 1 31 559 254 0 523 557 561 0 +.026 -.021 0 0 0 1 -1 0 0 .003 16
 523 218 0 ?562 563 520 559 0 0 1 30 561 253 0 563 559 564 0 +.00938083151964687
 -.018 0 -1 2087617654309915e-31 0 16 563 214 0 ?96 565 523 561 0 0 1 31 564 252
 0 565 561 566 0 +.00938083151964687 -.021 0 0 0 1 1 0 0 .003 16 565 210 0 ?93 5
67 563 564 0 0 1 31 566 251 0 567 564 568 0 +0 0 0 0 0 -1 1 0 0 .02 16 567 206 0
 ?90 569 565 566 0 0 1 31 568 250 0 569 566 570 0 +.00938083151964687 .021 0 0 0
 1 -1 0 0 .003 16 569 202 0 ?87 571 567 568 0 0 1 30 570 249 0 571 568 572 0 +.0
0938083151964687 .018 0 1 0 0 16 571 198 0 ?84 573 569 570 0 0 1 31 572 248 0 57
3 570 574 0 +.026 .021 0 0 0 1 -1 0 0 .003 16 573 194 0 ?81 575 571 572 0 0 1 30
 574 247 0 575 572 576 0 +.029 .021 0 0 1 0 16 575 190 0 ?78 577 573 574 0 0 1 3
1 576 246 0 577 574 578 0 +.026 .026 0 0 0 1 1 0 0 .003 16 577 186 0 ?75 579 575
 576 0 0 1 30 578 245 0 579 576 580 0 +.026 .029 0 -1 0 0 16 579 182 0 ?72 581 5
77 578 0 0 1 31 580 244 0 581 578 582 0 +-.026 .026 0 0 0 1 1 0 0 .003 16 581 17
8 0 ?69 583 579 580 0 0 1 30 582 243 0 583 580 584 0 +-.029 -.026 0 0 -1 0 16 58
3 174 0 ?66 585 581 582 0 0 1 31 584 242 0 585 582 586 0 +-.026 -.026 0 0 0 1 -1
 0 0 .003 16 585 170 0 ?63 587 583 584 0 0 1 30 586 241 0 587 584 588 0 +.026 -.
029 0 1 1334402673828312e-31 0 16 587 166 0 ?60 589 585 586 0 0 1 31 588 240 0 5
89 586 590 0 +.026 -.026 0 0 0 1 1 0 0 .003 16 589 162 0 ?57 530 587 588 0 0 1 3
0 590 239 0 530 588 591 0 +.029 -.026 0 0 1 0 16 530 158 0 ?53 526 589 590 0 0 1
 30 591 335 0 560 590 592 0 +.029 -.021 .05 0 0 -1 16 560 271 0 ?593 594 558 591
 0 0 1 30 592 336 0 594 591 595 0 +.029 -.026 .05 0 0 -1 16 594 272 0 ?596 597 5
60 592 0 0 1 30 595 337 0 597 592 598 0 +.026 -.029 .05 0 0 -1 16 597 273 0 ?599
 600 594 595 0 0 1 30 598 338 0 600 595 601 0 +-.026 -.029 .05 0 0 -1 16 600 274
 0 ?602 603 597 598 0 0 1 30 601 339 0 603 598 604 0 +-.029 -.026 .05 0 0 -1 16
 603 275 0 ?605 606 600 601 0 0 1 30 604 340 0 606 601 607 0 +-.029 .026 .05 0 0
 -1 16 606 276 0 ?608 609 603 604 0 0 1 30 607 341 0 609 604 610 0 +-.026 .029 .
05 0 0 -1 16 609 277 0 ?611 612 606 607 0 0 1 30 610 342 0 612 607 613 0 +.026 .
029 .05 0 0 -1 16 612 278 0 ?614 615 609 610 0 0 1 30 613 343 0 615 610 616 0 +.
029 .026 .05 0 0 -1 16 615 279 0 ?617 618 612 613 0 0 1 30 616 344 0 618 613 619
 0 +.029 .021 .05 0 0 -1 16 618 280 0 ?620 621 615 616 0 0 1 30 619 345 0 621 61
6 622 0 +.026 .018 .05 0 0 -1 16 621 281 0 ?623 624 618 619 0 0 1 30 622 346 0 6
24 619 625 0 +.00938083151964688 .018 .05 0 0 -1 16 624 282 0 ?626 627 621 622 0
 0 1 30 625 347 0 627 622 628 0 +.00815724479969293 .0182608695652174 .05 0 0 -1
 16 627 283 0 ?629 630 624 625 0 0 1 30 628 348 0 630 625 20 0 +.008157244799692
93 -.0182608695652174 .05 0 0 -1 16 630 284 0 ?631 24 627 628 0 0 1 30 20 349 0
 24 628 7 0 +.00938083151964687 -.018 .05 0 0 -1 16 24 285 0 ?632 10 630 20 0 0
 1 17 632 0 633 93 634 94 635 24 0 636 +15 633 313 0 93 637 0 17 93 0 633 638 63
2 91 636 565 0 631 +17 634 0 633 632 638 142 141 532 0 0 -17 635 0 639 146 96 14
2 632 24 0 634 -17 636 0 640 99 641 94 93 565 0 0 -15 640 157 0 642 643 644 17 9
9 0 640 642 636 97 96 563 0 23 -17 641 0 640 636 645 91 90 567 0 0 -17 645 0 640
 641 646 88 87 569 0 0 -17 90 0 647 648 631 88 641 567 0 629 +15 647 311 0 90 33
3 0 17 648 0 647 649 90 136 629 627 0 650 -17 631 0 647 90 649 91 638 630 0 641
 +17 629 0 651 87 650 88 648 627 0 645 +15 651 309 0 87 652 0 17 87 0 651 653 62
9 85 645 569 0 626 +17 650 0 651 629 653 136 135 536 0 0 -17 653 0 651 650 87 13
3 626 624 0 654 -17 135 0 655 132 138 133 650 536 0 653 +15 655 4 0 528 16 656 1
7 132 0 655 129 135 130 654 538 0 657 +17 138 0 655 135 141 136 649 534 0 648 +1
7 141 0 655 138 144 139 634 532 0 638 +17 649 0 647 631 648 139 138 534 0 0 -17
 144 0 655 141 528 142 146 529 0 635 +17 638 0 633 634 93 139 631 630 0 649 -17
 528 0 655 144 102 54 658 526 0 659 +17 146 0 639 23 635 54 144 529 0 528 -15 63
9 315 0 96 660 0 17 23 0 639 96 146 97 659 10 0 562 +17 96 0 639 635 23 94 99 56
3 0 632 +17 659 0 661 658 562 54 23 10 0 0 -17 562 0 661 659 593 97 642 523 0 0
 +15 661 317 0 562 18 0 17 593 0 661 562 658 51 662 560 0 642 +17 642 0 640 663
 99 51 562 523 0 0 -17 663 0 640 664 642 55 53 530 0 0 -17 664 0 640 665 663 58
 57 589 0 0 -17 53 0 666 662 596 51 663 530 0 593 +15 666 287 0 53 667 0 17 662
 0 666 668 53 50 593 560 0 658 -17 596 0 666 53 668 55 669 594 0 663 +17 668 0 6
66 596 662 103 102 558 0 0 -17 669 0 670 671 57 103 596 594 0 668 -15 670 289 0
 57 672 0 17 671 0 670 599 669 106 105 556 0 0 -17 57 0 670 669 599 55 664 589 0
 596 +17 599 0 670 57 671 58 673 597 0 664 +17 673 0 674 675 60 106 599 597 0 67
1 -15 674 291 0 60 676 0 17 675 0 674 602 673 109 108 554 0 0 -17 60 0 674 673 6
02 58 665 587 0 599 +17 602 0 674 60 675 61 677 600 0 665 +17 665 0 640 678 664
 61 60 587 0 0 -17 678 0 640 679 665 64 63 585 0 0 -17 679 0 640 680 678 67 66 5
83 0 0 -17 63 0 681 677 605 61 678 585 0 602 +15 681 293 0 63 682 0 17 677 0 681
 683 63 109 602 600 0 675 -17 605 0 681 63 683 64 684 603 0 678 +17 683 0 681 60
5 677 112 111 552 0 0 -17 684 0 290 685 66 112 605 603 0 683 -15 290 295 0 66 28
9 0 17 685 0 290 608 684 115 114 550 0 0 -17 66 0 290 684 608 64 679 583 0 605 +
17 608 0 290 66 685 67 686 606 0 679 +17 686 0 687 688 69 115 608 606 0 685 -15
 687 297 0 69 689 0 17 688 0 687 611 686 118 117 548 0 0 -17 69 0 687 686 611 67
 680 581 0 608 +17 611 0 687 69 688 70 690 609 0 680 +17 680 0 640 691 679 70 69
 581 0 0 -17 691 0 640 692 680 73 72 579 0 0 -17 692 0 640 693 691 76 75 577 0 0
 -17 72 0 694 690 614 70 691 579 0 611 +15 694 299 0 72 695 0 17 690 0 694 696 7
2 118 611 609 0 688 -17 614 0 694 72 696 73 697 612 0 691 +17 696 0 694 614 690
 121 120 546 0 0 -17 697 0 698 699 75 121 614 612 0 696 -15 698 301 0 75 700 0 1
7 699 0 698 617 697 124 123 544 0 0 -17 75 0 698 697 617 73 692 577 0 614 +17 61
7 0 698 75 699 76 701 615 0 692 +17 701 0 702 703 78 124 617 615 0 699 -15 702 3
03 0 78 704 0 17 703 0 702 620 701 127 126 542 0 0 -17 78 0 702 701 620 76 693 5
75 0 617 +17 620 0 702 78 703 79 705 618 0 693 +17 693 0 640 706 692 79 78 575 0
 0 -17 706 0 640 646 693 82 81 573 0 0 -17 646 0 640 645 706 85 84 571 0 0 -17 8
1 0 707 705 623 79 706 573 0 620 +15 707 305 0 81 708 0 17 705 0 707 709 81 127
 620 618 0 703 -17 623 0 707 81 709 82 657 621 0 706 +17 709 0 707 623 705 130 1
29 540 0 0 -17 657 0 710 654 84 130 623 621 0 709 -15 710 307 0 84 711 0 17 654
 0 710 626 657 133 132 538 0 0 -17 84 0 710 657 626 82 646 571 0 623 +17 626 0 7
10 84 654 85 653 624 0 646 +14 711 308 712 ?708 652 710 5 713 -0 0 708 652 22 81
 1 712 1665 714 711 715 0 479 716 717 14 708 306 716 ?704 711 707 5 718 -0 0 704
 711 22 14 652 310 719 ?711 333 651 5 334 -0 0 711 333 22 50 713 329 0 711 718 3
34 0 +.00938083151964687 .018 .05 0 1 0 0 0 1 13 22 118 0 0 0 0 0 0 9 16 14 16 5
12 720 ?643 0 655 5 721 -0 0 643 0 22 81 1 720 1668 714 16 722 0 719 723 724 14
 643 506 723 ?18 16 725 5 726 +0 0 18 16 22 50 721 3 0 16 727 726 0 +.026 -.021
 .05 0 0 -1 -1 0 0 51 727 420 0 728 729 721 0 --.02355 .02355 .05 0 0 -1 .00275
 -1 0 0 50 726 238 0 643 721 730 0 +.026 -.021 0 0 0 -1 -1 0 0 50 730 319 0 667
 726 731 0 +.029 -.026 .05 -1 0 0 0 0 1 14 667 288 732 ?728 672 666 5 730 -0 0 7
28 672 22 51 731 320 0 672 730 733 0 -.026 -.026 .05 0 0 -1 .003 -1 0 0 14 672 2
90 734 ?667 676 670 5 731 -0 0 667 676 22 50 733 321 0 676 731 735 0 +.026 -.029
 .05 -1334402673828312e-31 1 0 -1 -1334402673828312e-31 0 14 676 292 736 ?672 68
2 674 5 733 -0 0 672 682 22 51 735 322 0 682 733 737 0 --.026 -.026 .05 0 0 -1 .
003 -1 0 0 14 682 294 738 ?676 289 681 5 735 -0 0 676 289 22 50 737 323 0 289 73
5 739 0 +-.029 -.026 .05 1 0 0 0 0 -1 14 289 296 740 ?682 689 287 5 737 -0 0 682
 689 22 51 739 324 0 689 737 741 0 --.026 .026 .05 0 0 -1 .003 -1 0 0 14 689 298
 742 ?289 695 687 5 739 -0 0 289 695 22 50 741 325 0 695 739 743 0 +.026 .029 .0
5 0 -1 0 0 0 -1 14 695 300 744 ?689 700 745 5 741 -0 0 689 700 22 51 743 326 0 7
00 741 746 0 -.026 .026 .05 0 0 -1 .003 -1 0 0 14 700 302 747 ?695 704 698 5 743
 -0 0 695 704 22 50 746 327 0 704 743 718 0 +.029 .021 .05 -1 0 0 0 0 1 14 704 3
04 748 ?700 708 702 5 746 -0 0 700 708 22 51 718 328 0 708 746 713 0 -.026 .021
 .05 0 0 -1 .003 -1 0 0 81 1 748 1678 714 704 749 0 747 750 751 80 255 1 714 752
 753 9000 1 1 1 1 1 1 1 1 0 FFFFTFTFFFFFFF1 81 1 749 1524 754 704 0 748 755 756
 757 81 1 747 1677 714 700 756 0 744 748 758 81 1 750 1679 714 728 759 0 748 760
 761 82 255 1 751 1271791735 14 728 407 750 ?762 667 763 5 727 +0 0 762 667 22 8
1 1 759 1533 754 728 0 750 764 765 766 81 1 760 1680 714 762 765 0 750 767 768 8
2 1 761 1281622135 14 762 445 760 ?769 728 770 5 729 +0 0 769 728 22 81 1 765 15
34 754 762 0 760 759 771 772 81 1 767 1681 714 769 771 0 760 773 774 82 1 768 12
85685367 14 769 483 767 ?483 762 775 5 484 +0 0 483 762 22 81 1 771 1535 754 769
 0 767 765 776 777 81 1 773 1682 714 483 776 0 767 778 779 82 1 774 1289748599 1
4 483 521 773 ?475 769 780 5 477 +0 0 475 769 22 81 1 776 1536 754 483 0 773 771
 781 782 81 1 778 1683 714 475 781 0 773 783 784 82 1 779 1293811831 14 475 890
 778 ?469 483 785 5 463 -466 466 469 483 22 81 1 781 1537 754 475 0 778 776 786
 787 81 1 783 1684 714 469 786 0 778 788 789 82 1 784 -1658781567 14 469 882 783
 ?790 475 791 5 449 -461 461 790 475 22 81 1 786 1538 754 469 0 783 781 792 793
 81 1 788 1685 714 790 792 0 783 794 795 82 1 789 -1657077631 14 790 874 788 ?79
6 469 797 5 462 -467 467 796 469 22 81 1 792 1539 754 790 0 788 786 798 799 81 1
 794 1686 714 796 798 0 788 800 801 82 1 795 -1655373695 14 796 866 794 ?802 790
 803 5 470 -804 804 802 790 22 81 1 798 1540 754 796 0 794 792 805 806 81 1 800
 1687 714 802 805 0 794 807 808 82 1 801 -1653735295 14 802 854 800 ?809 796 810
 5 811 -812 812 809 796 22 81 1 805 1541 754 802 0 800 798 813 814 81 1 807 1688
 714 809 813 0 800 815 816 82 1 808 -1651507071 14 809 850 807 ?817 802 818 5 81
9 -820 820 817 802 22 81 1 813 1542 754 809 0 807 805 821 822 81 1 815 1689 714
 817 821 0 807 823 824 82 1 816 -1650327423 14 817 842 815 ?481 809 825 5 351 -4
80 480 481 809 22 81 1 821 1543 754 817 0 815 813 826 827 81 1 823 1690 714 481
 826 0 815 828 829 82 1 824 -1648623487 14 481 834 823 ?476 817 830 5 471 -476 4
76 476 817 22 81 1 826 1544 754 481 0 823 821 831 832 81 1 828 1691 714 480 833
 0 823 834 835 82 1 829 -1647640447 14 480 838 828 ?820 476 836 5 351 -817 817 8
20 476 22 81 1 833 1546 754 480 0 828 831 837 838 81 1 834 1692 714 820 837 0 82
8 839 840 82 1 835 -1648164735 14 820 846 834 ?812 480 841 5 819 -809 809 812 48
0 22 81 1 837 1547 754 820 0 834 833 842 843 81 1 839 1693 714 812 842 0 834 844
 845 82 1 840 -1649803135 14 812 858 839 ?804 820 846 5 811 -802 802 804 820 22
 81 1 842 1548 754 812 0 839 837 847 848 81 1 844 1694 714 804 847 0 839 849 850
 82 1 845 -1652031359 14 804 862 844 ?467 812 851 5 470 -796 796 467 812 22 81 1
 847 1549 754 804 0 844 842 852 853 81 1 849 1695 714 467 852 0 844 854 855 82 1
 850 -1653211007 14 467 870 849 ?461 804 856 5 462 -790 790 461 804 22 81 1 852
 1550 754 467 0 849 847 857 858 81 1 854 1696 714 350 859 0 849 860 861 82 1 855
 -1654914943 14 350 926 854 ?345 466 862 5 346 +0 0 345 466 22 81 1 859 1553 754
 350 0 854 863 864 865 81 1 860 1697 714 349 866 0 854 867 868 82 1 861 -1680605
055 14 349 1250 860 ?869 345 870 5 871 -0 0 869 345 22 81 1 866 1555 754 349 0 8
60 864 872 873 81 1 867 1698 714 869 872 0 860 874 875 82 1 868 -740818809 14 86
9 1254 867 ?876 349 877 5 878 -0 0 876 349 22 81 1 872 1556 754 869 0 867 866 87
9 880 81 1 874 1699 714 876 879 0 867 881 882 82 1 875 -741670777 14 876 1258 87
4 ?883 869 884 5 885 -0 0 883 869 22 81 1 879 1557 754 876 0 874 872 886 887 81
 1 881 1700 714 883 886 0 874 888 889 82 1 882 -742522745 14 883 1262 881 ?341 8
76 890 5 342 -0 0 341 876 22 81 1 886 1558 754 883 0 881 879 891 892 81 1 888 17
01 714 341 891 0 881 893 894 82 1 889 -743374713 14 341 1266 888 ?273 883 895 5
 337 -0 0 273 883 22 81 1 891 1559 754 341 0 888 886 896 897 81 1 893 1702 714 3
33 898 0 888 899 900 82 1 894 -744226681 14 333 312 893 ?652 637 901 5 325 -0 0
 652 637 22 81 1 898 1520 754 333 0 893 902 903 904 81 1 899 1703 714 637 902 0
 893 905 906 82 1 900 1272840327 14 637 314 899 ?333 660 633 5 335 -0 0 333 660
 22 81 1 902 1519 754 637 0 899 907 898 908 81 1 905 1704 714 660 907 0 899 909
 910 82 1 906 1273102455 14 660 316 905 ?637 18 639 5 19 -0 0 637 18 22 81 1 907
 1518 754 660 0 905 911 902 912 81 1 909 1705 714 18 911 0 905 0 913 82 1 910 12
73364599 14 18 318 909 ?660 643 661 5 6 -0 0 660 643 22 81 1 911 1517 754 18 0 9
09 914 907 915 82 1 913 1273626743 80 1 754 0 916 8001 0 0 0 0 3 5 0 0 0 FFFFTFT
FFFFFFF2 81 1 914 1516 754 643 0 723 722 911 917 83 255 3 915 .694117647058824 .
0980392156862745 .0980392156862745 81 1 723 1669 714 643 914 0 720 732 918 81 1
 722 1515 754 16 0 720 0 914 919 83 3 917 .694117647058824 .0980392156862745 .09
80392156862745 83 3 919 .694117647058824 .0980392156862745 .0980392156862745 81
 1 732 1670 714 667 764 0 723 734 920 82 1 918 1299447927 81 1 764 1532 754 667
 0 732 921 759 922 81 1 734 1671 714 672 921 0 732 736 923 82 1 920 1269694583 8
1 1 921 1531 754 672 0 734 924 764 925 81 1 736 1672 714 676 924 0 734 738 926 8
2 1 923 1269956727 81 1 924 1530 754 676 0 736 927 921 928 81 1 738 1673 714 682
 927 0 736 740 929 82 1 926 1270218871 81 1 927 1529 754 682 0 738 930 924 931 8
1 1 740 1674 714 289 930 0 738 742 932 82 1 929 1270481015 81 1 930 1528 754 289
 0 740 933 927 934 81 1 742 1675 714 689 933 0 740 744 935 82 1 932 1270743175 8
1 1 933 1527 754 689 0 742 936 930 937 81 1 744 1676 714 695 936 0 742 747 938 8
2 1 935 1271005303 81 1 936 1526 754 695 0 744 756 933 939 82 1 938 1271267457 8
1 1 756 1525 754 700 0 747 749 936 940 83 3 939 .694117647058824 .09803921568627
45 .0980392156862745 83 3 940 .694117647058824 .0980392156862745 .09803921568627
45 83 3 937 .694117647058824 .0980392156862745 .0980392156862745 83 3 934 .69411
7647058824 .0980392156862745 .0980392156862745 83 3 931 .694117647058824 .098039
2156862745 .0980392156862745 83 3 928 .694117647058824 .0980392156862745 .098039
2156862745 83 3 925 .694117647058824 .0980392156862745 .0980392156862745 83 3 92
2 .694117647058824 .0980392156862745 .0980392156862745 79 255 15 916 SDL/TYSA_CO
LOUR83 3 912 .694117647058824 .0980392156862745 .0980392156862745 50 19 333 0 66
0 335 6 0 +.00938083151964687 -.018 .05 -208761765430992e-30 -1 0 1 -20876176543
0992e-30 0 51 335 332 0 637 325 19 0 -.00938083151964687 -.021 .05 0 0 -1 .003 -
1 0 0 83 3 908 .694117647058824 .0980392156862745 .0980392156862745 81 1 903 152
1 754 652 0 719 898 715 941 83 3 904 .694117647058824 .0980392156862745 .0980392
156862745 81 1 719 1667 714 652 903 0 716 720 942 81 1 715 1522 754 711 0 712 90
3 755 943 83 3 941 .694117647058824 .0980392156862745 .0980392156862745 81 1 755
 1523 754 708 0 716 715 749 944 83 3 943 .694117647058824 .0980392156862745 .098
0392156862745 81 1 716 1666 714 708 755 0 712 719 945 83 3 944 .694117647058824
 .0980392156862745 .0980392156862745 82 1 945 1272053879 82 1 942 1272578167 15
 901 1122 0 946 333 947 17 946 0 901 360 948 211 238 362 0 0 +15 947 682 0 446 3
33 949 17 446 0 947 500 950 34 184 444 0 0 +15 949 654 0 951 333 647 17 951 0 94
9 952 953 100 154 954 0 0 +17 952 0 949 443 951 185 148 487 0 0 +17 953 0 949 95
1 955 152 160 956 0 0 +17 154 0 825 195 957 152 951 954 0 958 -16 954 722 0 ?951
 959 960 488 959 959 1 16 959 718 0 ?961 487 954 488 954 954 1 16 960 725 0 ?962
 954 956 963 0 0 1 31 488 946 0 954 963 485 0 -0 0 .045 0 0 1 1 0 0 .02 38 963 9
47 0 960 964 488 0 +325 819 965 966 967 968 38 964 948 0 956 969 963 0 +325 819
 970 971 972 973 51 819 940 0 820 351 811 974 +-.00251 -.021 .04001 -18753767307
8574e-30 1 0 .00499 -1 -187537673078574e-30 0 40 6 965 0 1 6 .000315786016534729
5 .3600128800345725 ??-.00251 -.01984187239148565 .045 -.004164270637534405 -.01
956166787514215 .04471781145096015 -.00561650582010605 -.01919517810213585 .0439
150891909977 -.00675212239907976 -.018825749470017 .0426376410620984 -.007393503
39346491 -.0185832211301169 .04103542411031565 -.0075 -.01854049621773915 .04001
 41 1 966 L?-.00251 -.01984187239148565 .045 41 1 967 L?-.0075 -.018540496217739
15 .04001 204 24 968 4 4.83822078020428 .005 1.570796326794895 .0011581276085143
54 4.92213708511762 .00528218854903986 1.232885103773862 .001438332124857832 4.9
9704287563414 .0060849108090023 .898804160898699 .001804821897864165 5.056761516
60899 .00736235893790158 .554574212153687 .00217425052998299 5.09104838147001 .0
0896457588968437 .206970306445698 .002416778869883105 5.09678575488033 .00999 13
9055990058261e-29 .00245950378226083 50 351 941 0 480 346 819 0 +-.00251 -.021 .
045 0 0 1 1 0 0 50 811 939 0 802 819 470 0 +-.0075 -.021 .04001 -1 -187537673078
574e-30 0 187537673078574e-30 -1 0 141 974 964 975 975 819 141 975 963 974 974 8
19 51 470 938 0 804 811 462 976 +-.00251 -.021 .00999 -187537673078574e-30 1 0 .
00499 -1 -187537673078574e-30 0 141 976 977 978 978 470 38 977 952 0 979 456 980
 0 +325 470 981 982 983 984 141 978 980 976 976 470 38 980 951 0 985 977 986 0 +
325 470 987 988 989 990 16 985 739 0 ?991 992 979 980 0 0 1 30 986 950 0 992 980
 969 0 +-.0075 -.01854049621773915 .05 0 0 -1 40 6 987 0 1 6 .000298441985168537
 .343361906662821 ??-.0075 -.01854049621773915 .00999 -.00724406316915941 -.0186
4198349965015 .00841242403973429 -.00651569095792353 -.01890888075325545 .007014
34209802108 -.00534656445765689 -.01927211063947385 .00588463739999039 -.0037902
8276851843 -.01963755984165735 .00516703659223556 -.00251 -.01984187239148565 .0
05 41 1 988 L?-.0075 -.01854049621773915 .00999 41 1 989 L?-.00251 -.01984187239
148565 .005 204 24 990 4 5.09678575488033 .04001 0 .00245950378226083 5.08301944
392621 .0415875759602657 5.96151937307479 .002358016500349855 5.04423040946028 .
04298565790197895 5.64427103875288 .00209111924674457 4.98300825347132 .04411536
26000096 5.31700935318422 .00172788936052617 4.90305627439655 .04483296340776445
 4.9718603915927 .001362440158342672 4.83822078020428 .045 4.71238898038469 .001
158127608514352 16 992 734 0 ?993 994 985 986 0 0 1 30 969 949 0 994 986 964 0 -
-.0075 .01854049621773915 .05 0 0 -1 16 994 731 0 ?955 956 992 969 0 0 1 17 955
 0 949 953 995 158 166 994 0 0 +16 956 729 0 ?953 960 994 964 0 0 1 17 995 0 949
 955 996 164 172 979 0 0 +17 166 0 810 201 997 164 955 994 0 998 -15 810 857 0 2
01 802 0 17 201 0 810 405 166 199 998 427 0 402 +17 997 0 810 166 405 158 198 42
3 0 955 -17 998 0 803 172 402 164 201 427 0 995 -15 803 869 0 204 796 0 17 172 0
 803 204 998 170 995 979 0 999 -17 402 0 803 998 204 199 1000 400 0 1001 +16 427
 744 0 ?201 424 428 421 424 424 1 17 204 0 803 402 172 202 999 431 0 399 +17 100
0 0 745 1002 1001 202 402 400 0 0 -17 1001 0 745 1000 1003 199 405 403 0 0 -15 7
45 618 0 1004 695 694 17 1003 0 745 1001 1005 196 408 406 0 0 -17 405 0 810 997
 201 196 1001 403 0 1003 +17 1005 0 745 1003 1006 193 410 368 0 0 -17 408 0 818
 958 198 193 1003 406 0 1005 +15 818 853 0 198 809 0 17 958 0 818 160 408 152 19
5 419 0 953 -17 198 0 818 408 160 196 997 423 0 405 +17 160 0 818 198 958 158 95
3 956 0 997 -16 423 732 0 ?198 420 424 417 420 420 1 17 195 0 825 410 154 193 95
8 419 0 408 +16 419 730 0 ?195 416 420 412 416 416 1 15 825 845 0 195 817 0 17 4
10 0 825 957 195 189 1005 368 0 1006 +17 957 0 825 154 410 100 191 415 0 951 -17
 1006 0 745 1005 1004 189 49 361 0 0 -17 1004 0 745 1006 1007 47 393 391 0 0 -17
 49 0 830 1008 191 47 1006 361 0 1009 +15 830 837 0 191 481 0 17 1008 0 830 148
 49 185 1009 389 0 952 -17 191 0 830 49 148 189 957 415 0 410 +17 1009 0 785 393
 187 47 1008 389 0 1004 +15 785 893 0 1009 475 0 17 393 0 785 46 1009 208 1004 3
91 0 1007 +17 187 0 785 1009 46 185 443 414 0 1008 -16 389 716 0 ?1009 440 386 4
37 440 440 1 17 46 0 785 187 393 42 210 439 0 1010 -17 443 0 949 454 952 42 187
 414 0 0 +17 454 0 949 996 443 176 1010 447 0 0 +17 996 0 949 995 454 170 178 10
11 0 0 +17 1010 0 791 210 1012 42 454 447 0 443 -15 791 885 0 210 469 0 17 210 0
 791 396 1010 208 46 439 0 393 +17 1012 0 791 1010 396 176 207 435 0 454 -17 396
 0 791 1012 210 205 1007 394 0 1002 +17 207 0 797 399 178 205 1012 435 0 396 +16
 435 758 0 ?207 432 436 429 432 432 1 15 797 877 0 207 790 0 17 399 0 797 999 20
7 202 1002 397 0 1000 +17 178 0 797 207 999 176 996 1011 0 1012 -17 999 0 797 17
8 399 170 204 431 0 996 -16 1011 750 0 ?996 1013 455 456 1013 1013 1 16 1013 746
 0 ?1014 979 1011 456 1011 1011 1 16 455 753 0 ?950 1011 447 448 0 0 1 31 456 95
3 0 1011 448 977 0 -0 0 .005 -1727812227068535e-31 -3240298845811415e-47 -1 -1 0
 1727812227068535e-31 .02 17 950 0 947 446 1014 182 181 455 0 0 +17 1014 0 947 9
50 991 179 175 1013 0 0 +17 181 0 468 228 438 179 950 455 0 434 -15 468 881 0 22
8 461 0 17 228 0 468 1015 181 226 434 432 0 1016 -17 438 0 468 181 1015 182 231
 436 0 950 +17 434 0 856 175 1016 179 228 432 0 1014 +15 856 873 0 225 467 0 17
 175 0 856 225 434 173 1014 1013 0 430 -17 1016 0 856 434 225 226 376 374 0 373
 -17 225 0 856 1016 175 223 430 428 0 1017 -17 376 0 862 379 373 223 1016 374 0
 0 +17 373 0 862 376 370 226 1015 371 0 0 +15 862 928 0 366 350 0 17 370 0 862 3
73 366 229 1018 367 0 0 +17 1015 0 468 438 228 229 373 371 0 370 -17 366 0 862 3
70 388 192 1019 364 0 0 +17 1018 0 474 41 231 192 370 367 0 366 -15 474 889 0 23
1 466 0 17 41 0 474 184 1018 34 233 440 0 1020 +17 231 0 474 1018 184 229 438 43
6 0 1015 -17 184 0 474 231 41 182 446 444 0 438 -17 233 0 482 1019 1020 192 41 4
40 0 1018 -17 1020 0 482 233 413 34 500 494 0 446 -15 482 833 0 233 476 0 17 413
 0 482 1020 1019 149 213 411 0 500 +17 500 0 947 961 446 149 1020 494 0 0 +17 96
1 0 947 962 500 155 151 959 0 0 +17 962 0 947 993 961 161 157 960 0 0 +17 151 0
 836 213 418 149 961 959 0 413 -15 836 841 0 213 480 0 17 213 0 836 1021 151 188
 413 411 0 1019 -17 418 0 836 151 1021 155 216 416 0 961 +17 1021 0 836 418 213
 214 388 386 0 0 -17 216 0 841 1022 157 214 418 416 0 385 -15 841 849 0 216 820
 0 17 1022 0 841 422 216 217 385 383 0 382 -17 157 0 841 216 422 155 962 960 0 4
18 -17 385 0 862 388 382 214 1022 383 0 1021 +17 388 0 862 366 385 188 1021 386
 0 0 +17 382 0 862 385 379 217 1023 380 0 0 +17 379 0 862 382 376 220 1017 377 0
 0 +17 1023 0 846 426 219 220 382 380 0 379 -15 846 861 0 219 812 0 17 426 0 846
 163 1023 167 222 424 0 993 +17 219 0 846 1023 163 217 422 420 0 1022 -17 163 0
 846 219 426 161 993 992 0 422 -17 422 0 841 157 1022 161 219 420 0 962 +17 993
 0 947 991 962 167 163 992 0 0 +17 991 0 947 1014 993 173 169 985 0 0 +17 169 0
 851 222 430 167 991 985 0 426 -15 851 865 0 222 804 0 17 222 0 851 1017 169 220
 426 424 0 1023 -17 430 0 851 169 1017 173 225 428 0 991 +17 1017 0 851 430 222
 223 379 377 0 376 -17 1019 0 482 413 233 188 366 364 0 388 -16 979 743 0 ?995 9
85 1013 977 0 0 1 16 431 751 0 ?204 428 432 425 428 428 1 17 1002 0 745 1007 100
0 205 399 397 0 0 -17 1007 0 745 1004 1002 208 396 394 0 0 -16 439 765 0 ?210 43
6 440 433 436 436 1 17 148 0 830 191 1008 100 952 487 0 957 -16 415 723 0 ?191 4
11 416 409 411 411 1 16 487 715 0 ?952 494 959 485 0 0 1 40 6 981 0 1 6 .0003157
86016534729 .3600128800345735 ??-.00251 .01984187239148565 .005 -.00416427063753
441 .01956166787514215 .00528218854903985 -.00561650582010606 .01919517810213585
 .00608491080900228 -.00675212239907976 .018825749470017 .00736235893790157 -.00
739350339346492 .0185832211301169 .00896457588968436 -.0075 .01854049621773915 .
00999 41 1 982 L?-.00251 .01984187239148565 .005 41 1 983 L?-.0075 .018540496217
73915 .00999 204 24 984 4 1.444964526975306 .045 4.71238898038469 .0408418723914
8565 1.361048222061966 .04471781145096015 5.05030020340572 .04056166787514215 1.
28614243154545 .0439150891909977 5.38438114628089 .04019517810213585 1.226423790
570598 .04263764106209845 5.7286110950259 .039825749470017 1.192136925709572 .04
103542411031565 6.07621500073389 .0395832211301169 1.186399552299258 .04001 0 .0
3954049621773915 40 6 970 0 1 6 .0002984419851685355 .343361906662821 ??-.0075 .
01854049621773915 .04001 -.00724406316915942 .01864198349965015 .041587575960265
7 -.00651569095792354 .01890888075325545 .0429856579019789 -.0053465644576569 .0
192721106394738 .0441153626000096 -.00379028276851844 .01963755984165735 .044832
96340776445 -.00251 .01984187239148565 .045 41 1 971 L?-.0075 .01854049621773915
 .04001 41 1 972 L?-.00251 .01984187239148565 .045 204 24 973 4 1.18639955229925
8 .00999 0 .03954049621773915 1.200165863253372 .0084124240397343 .3216659341047
975 .03964198349965015 1.238954897719306 .00701434209802108 .638914268426703 .03
990888075325545 1.300177053708262 .0058846373999904 .966175953995367 .0402721106
394738 1.380129032783034 .00516703659223557 1.31132491558689 .04063755984165735
 1.444964526975306 .005 1.570796326794895 .04084187239148565 17 360 0 901 280 94
6 251 235 353 0 0 +17 948 0 901 946 1024 236 241 1025 0 0 +17 238 0 870 257 1026
 236 946 362 0 1027 -16 362 1152 0 ?946 353 1025 354 0 0 1 16 1025 1154 0 ?948 3
62 1028 363 0 0 1 16 1028 1156 0 ?1024 1025 1029 1030 0 0 1 38 363 1330 0 1025 1
030 354 0 +325 878 1031 1032 1033 1034 30 1030 1331 0 1028 332 363 0 --.01854049
621773915 -.0075 .05 0 0 -1 51 878 1324 0 869 871 885 1035 +.021 -.00251 .04001
 -1 0 0 .00499 0 0 1 40 6 1031 0 1 6 .0002984419851685345 .3433619066628215 ??-.
01854049621773915 -.0075 .04001 -.01864198349965015 -.00724406316915942 .0415875
759602657 -.01890888075325545 -.00651569095792354 .04298565790197895 -.019272110
6394738 -.0053465644576569 .0441153626000096 -.0196375598416573 -.00379028276851
8435 .04483296340776445 -.01984187239148565 -.00251 .045 41 1 1032 L?-.018540496
21773915 -.0075 .04001 41 1 1033 L?-.01984187239148565 -.00251 .045 204 24 1034
 4 5.89878853268395 .00999 4.71238898038469 .0395404962177392 5.91255484363806 .
00841242403973429 5.03405491448949 .03964198349965015 5.951343878104 .0070143420
9802108 5.35130324881139 .03990888075325545 6.01256603409295 .00588463739999039
 5.67856493438006 .04027211063947385 6.09251801316772 .00516703659223557 6.02371
389597158 .04063755984165735 6.15735350736 .005 0 .04084187239148565 50 871 1325
 0 349 0 878 0 +.021 -.00251 .045 0 0 1 1 0 0 50 885 1323 0 876 878 342 0 +.021
 -.0075 .00999 0 -1 0 0 0 -1 141 1035 363 1035 1035 878 51 342 1322 0 883 885 33
7 1036 +.021 -.00251 .00999 -1 0 0 .00499 0 0 1 141 1036 332 1036 1036 342 38 33
2 1332 0 1029 324 1030 0 +325 342 1037 1038 1039 1040 16 1029 1158 0 ?1041 1028
 331 332 0 0 1 40 6 1037 0 1 6 .000315786016534729 .3600128800345735 ??-.0198418
7239148565 -.00251 .005 -.01956166787514215 -.004164270637534415 .00528218854903
985 -.01919517810213585 -.00561650582010606 .00608491080900229 -.018825749470017
 -.00675212239907977 .00736235893790157 -.0185832211301169 -.00739350339346492 .
00896457588968437 -.01854049621773915 -.0075 .00999 41 1 1038 L?-.01984187239148
565 -.00251 .005 41 1 1039 L?-.01854049621773915 -.0075 .00999 204 24 1040 4 6.1
5735350736 .045 3.141592653589795 .04084187239148565 6.07343720244666 .044717811
45096015 3.479503876610825 .0405616678751422 5.99853141193014 .0439150891909977
 3.81358481948599 .04019517810213585 5.93881277095529 .04263764106209845 4.15781
4768231005 .039825749470017 5.90452590609426 .04103542411031565 4.50541867393899
 .0395832211301169 5.89878853268395 .04001 4.71238898038469 .0395404962177392 17
 1041 0 901 1024 1042 242 247 1029 0 0 +16 331 1160 0 ?1042 1029 279 324 0 0 1 1
7 1042 0 901 1041 278 245 250 331 0 0 +17 278 0 901 1042 280 248 32 279 0 0 +17
 250 0 895 269 1043 248 1042 331 0 274 -15 895 1269 0 269 341 0 17 269 0 895 292
 250 267 274 281 0 272 +17 1043 0 895 250 292 245 266 319 0 1042 -17 274 0 271 3
2 272 248 269 281 0 278 -17 292 0 895 1043 269 264 277 293 0 291 +17 266 0 890 3
00 247 264 1043 319 0 292 +15 890 1265 0 266 883 0 17 300 0 890 1044 266 261 291
 295 0 1045 +17 247 0 890 266 1044 245 1041 1029 0 1043 -17 1044 0 890 247 300 2
42 263 317 0 1041 -17 263 0 884 303 244 261 1044 317 0 300 +15 884 1261 0 263 87
6 0 17 303 0 884 1046 263 258 1045 301 0 1047 +17 244 0 884 263 1046 242 1024 10
28 0 1044 -17 1046 0 884 244 303 239 260 315 0 1024 -17 1024 0 901 948 1041 239
 244 1028 0 0 +17 260 0 877 306 241 258 1046 315 0 303 +15 877 1257 0 260 869 0
 17 306 0 877 1027 260 255 1047 304 0 1048 +17 241 0 877 260 1027 239 948 1025 0
 1046 -17 1027 0 877 241 306 236 257 313 0 948 -17 257 0 870 309 238 255 1027 31
3 0 306 +15 870 1253 0 257 349 0 17 309 0 870 1026 257 253 1048 307 0 38 +17 102
6 0 870 238 309 211 37 310 0 946 -17 1048 0 287 1047 38 255 309 307 0 0 -17 38 0
 287 1048 284 253 33 39 0 0 -16 39 1198 0 ?33 285 0 297 0 0 1 31 297 1351 0 39 0
 288 0 +-.029 .00251 .04001 -1 0 0 0 0 -1 .00499 17 1047 0 287 1045 1048 258 306
 304 0 0 -17 1045 0 287 291 1047 261 303 301 0 0 -17 291 0 287 277 1045 264 300
 295 0 0 -17 37 0 35 33 235 253 1026 310 0 309 +15 35 1249 0 37 345 0 17 235 0 3
5 37 36 211 360 353 0 1026 -17 36 0 35 235 33 251 40 282 0 360 -17 280 0 901 278
 360 11 28 312 0 0 +17 28 0 27 40 25 251 280 312 0 36 -81 1 896 1560 754 273 0 3
40 891 1049 1050 83 3 897 .694117647058824 .0980392156862745 .0980392156862745 8
1 1 340 1659 714 273 896 0 0 344 1051 81 1 1049 1561 754 286 0 344 896 0 1052 83
 3 1050 .694117647058824 .0980392156862745 .0980392156862745 81 1 344 1660 714 2
86 1049 0 340 348 1053 83 3 1052 .694117647058824 .0980392156862745 .09803921568
62745 81 1 348 1661 714 345 864 0 344 465 1054 82 1 1053 -745930617 81 1 864 155
4 754 345 0 348 859 866 1055 81 1 465 1662 714 461 857 0 348 473 1056 82 1 1054
 -740294521 81 1 857 1551 754 461 0 465 852 863 1057 81 1 473 1663 714 466 863 0
 465 479 1058 82 1 1056 -1656553343 81 1 863 1552 754 466 0 473 857 859 1059 81
 1 479 1664 714 476 831 0 473 712 1060 82 1 1058 -1658257279 81 1 831 1545 754 4
76 0 479 826 833 1061 82 1 1060 -1647116159 83 3 1061 .694117647058824 .09803921
56862745 .0980392156862745 83 3 1059 .694117647058824 .0980392156862745 .0980392
156862745 83 3 1057 .694117647058824 .0980392156862745 .0980392156862745 83 3 10
55 .694117647058824 .0980392156862745 .0980392156862745 82 1 1051 -745078649 83
 3 892 .694117647058824 .0980392156862745 .0980392156862745 83 3 887 .6941176470
58824 .0980392156862745 .0980392156862745 83 3 880 .694117647058824 .09803921568
62745 .0980392156862745 83 3 873 .694117647058824 .0980392156862745 .09803921568
62745 83 3 865 .694117647058824 .0980392156862745 .0980392156862745 83 3 858 .69
4117647058824 .0980392156862745 .0980392156862745 83 3 853 .694117647058824 .098
0392156862745 .0980392156862745 83 3 848 .694117647058824 .0980392156862745 .098
0392156862745 83 3 843 .694117647058824 .0980392156862745 .0980392156862745 83 3
 838 .694117647058824 .0980392156862745 .0980392156862745 83 3 832 .694117647058
824 .0980392156862745 .0980392156862745 83 3 827 .694117647058824 .0980392156862
745 .0980392156862745 83 3 822 .694117647058824 .0980392156862745 .0980392156862
745 83 3 814 .694117647058824 .0980392156862745 .0980392156862745 83 3 806 .6941
17647058824 .0980392156862745 .0980392156862745 83 3 799 .694117647058824 .09803
92156862745 .0980392156862745 83 3 793 .694117647058824 .0980392156862745 .09803
92156862745 83 3 787 .694117647058824 .0980392156862745 .0980392156862745 83 3 7
82 .694117647058824 .0980392156862745 .0980392156862745 15 780 524 0 504 483 106
2 17 504 0 780 504 504 0 1063 502 0 0 +15 1062 525 0 1064 483 0 17 1064 0 1062 1
064 1064 0 507 501 0 0 -17 507 0 1065 507 507 0 1064 501 0 0 +15 1065 503 0 507
 643 0 17 1063 0 1066 1063 1063 0 504 502 0 0 -15 1066 510 0 1063 16 0 83 3 777
 .694117647058824 .0980392156862745 .0980392156862745 15 775 486 0 510 769 1067
 51 484 496 0 769 477 729 0 -.02355 -.02355 .05 0 0 -1 .00275 -1 0 0 51 729 458
 0 762 484 727 0 --.02355 -.02355 .05 0 0 -1 .00275 -1 0 0 17 510 0 775 510 510
 0 1068 508 0 0 +15 1067 487 0 1069 769 0 17 1069 0 1067 1069 1069 0 513 505 0 0
 -17 513 0 725 513 513 0 1069 505 0 0 +15 725 465 0 513 643 1070 15 1070 389 0 5
25 643 640 17 525 0 1070 525 525 0 1071 517 0 0 +17 1071 0 1072 1071 1071 0 525
 517 0 0 -15 1072 411 0 1071 728 0 17 1068 0 1073 1068 1068 0 510 508 0 0 -15 10
73 472 0 1068 16 1066 83 3 772 .694117647058824 .0980392156862745 .0980392156862
745 15 770 448 0 516 762 1074 17 516 0 770 516 516 0 1075 514 0 0 +15 1074 449 0
 1076 762 0 17 1076 0 1074 1076 1076 0 519 511 0 0 -17 519 0 644 519 519 0 1076
 511 0 0 +15 644 427 0 519 643 1065 17 1075 0 1077 1075 1075 0 516 514 0 0 -15 1
077 434 0 1075 16 1073 83 3 766 .694117647058824 .0980392156862745 .098039215686
2745 15 763 410 0 522 728 1072 17 522 0 763 522 522 0 1078 520 0 0 +17 1078 0 65
6 1078 1078 0 522 520 0 0 -15 656 396 0 1078 16 1077 82 1 758 1271529591 83 3 75
7 .694117647058824 .0980392156862745 .0980392156862745 79 14 753 SWEntUnchanged8
2 1 724 1299972215 51 334 330 0 652 713 325 0 -.00938083151964687 .021 .05 0 0 -
1 .003 -1 0 0 82 1 717 1272316023 17 129 0 655 126 132 127 709 540 0 705 +17 126
 0 655 123 129 124 703 542 0 701 +17 123 0 655 120 126 121 699 544 0 697 +17 120
 0 655 117 123 118 696 546 0 690 +17 117 0 655 114 120 115 688 548 0 686 +17 114
 0 655 111 117 112 685 550 0 684 +17 111 0 655 108 114 109 683 552 0 677 +17 108
 0 655 105 111 106 675 554 0 673 +17 105 0 655 102 108 103 671 556 0 669 +17 102
 0 655 528 105 50 668 558 0 662 +17 658 0 661 593 659 50 528 526 0 0 -40 6 490 0
 1 6 .000315786016534728 .3600128800345725 ??.00251 .01984187239148565 .045 .004
16427063753442 .01956166787514215 .04471781145096015 .00561650582010607 .0191951
7810213585 .0439150891909977 .00675212239907977 .018825749470017 .04263764106209
84 .00739350339346492 .0185832211301169 .04103542411031565 .0075 .01854049621773
915 .04001 41 1 491 L?.00251 .01984187239148565 .045 41 1 492 L?.0075 .018540496
21773915 .04001 204 24 493 4 1.69662812661449 .005 1.570796326794895 .0408418723
9148565 1.78054443152783 .00528218854903986 1.90870754981593 .04056166787514215
 1.855450222044345 .0060849108090023 2.242788492691095 .04019517810213585 1.9151
68863019195 .00736235893790158 2.587018441436105 .039825749470017 1.949455727880
22 .00896457588968437 2.934622347144095 .0395832211301169 1.955193101290535 .009
99 3.141592653589795 .03954049621773915 40 6 457 0 1 6 .00031578601653473 .36001
28800345735 ??.00251 -.01984187239148565 .005 .00416427063753443 -.0195616678751
4215 .00528218854903985 .00561650582010607 -.01919517810213585 .0060849108090022
9 .00675212239907978 -.018825749470017 .00736235893790158 .00739350339346493 -.0
185832211301169 .00896457588968437 .0075 -.01854049621773915 .00999 41 1 458 L?.
00251 -.01984187239148565 .005 41 1 459 L?.0075 -.01854049621773915 .00999 204 2
4 460 4 4.5865571805651 .045 4.71238898038469 .001158127608514354 4.502640875651
76 .04471781145096015 4.374477757363655 .00143833212485784 4.42773508513524 .043
9150891909977 4.04039681448849 .001804821897864175 4.36801644416039 .04263764106
209845 3.69616686574348 .002174250529982995 4.333729579299365 .04103542411031565
 3.34856296003549 .002416778869883115 4.32799220588905 .04001 3.141592653589795
 .00245950378226084 141 336 445 1079 1080 325 141 1079 352 1081 336 325 141 1080
 448 336 1082 325 141 1082 977 1080 1083 325 141 1083 980 1082 1084 325 141 1084
 964 1083 1085 325 141 1085 963 1084 1086 325 141 1086 485 1085 1087 325 141 108
7 489 1086 1088 325 141 1088 323 1087 1089 325 141 1089 332 1088 1081 325 141 10
81 363 1089 1079 325 19 17 352 0 1 0 9 5 S0 74 4 CI16 index_map_offset0 0 1 dCCZ
20 15 9 0 0 1090 1091 909 1092 1093 1094 1049 13 2 0 0 0 0 0 0 0 0 0 0 0 81 2 10
90 387 1095 1 0 1091 0 0 0 1096 81 2 1091 588 1097 1 1090 1092 0 0 0 1098 81 1 1
092 1460 1099 1 1091 1093 0 0 1100 81 2 1093 1510 1101 1 1092 1094 0 0 0 1102 81
 2 1094 1513 1103 1 1093 13 0 0 0 0 81 2 13 1657 1104 1 1094 2 0 0 1105 0 80 2 1
104 1106 1107 8004 0 0 0 0 3 5 0 0 0 FFTFFFFFFFFFFF2 3 83 1 1105 1020 79 16 1107
 SDL/TYSA_DENSITY80 2 1103 1108 1109 9000 0 0 0 0 3 5 0 0 0 FFTFFFFFFFFFFF9 1 79
 16 1109 BODY_RECIPE_200180 2 1101 1110 1111 9000 0 0 0 0 3 5 0 0 0 FFTFFFFFFFFF
FF9 1 82 1 1102 1 79 24 1111 BODY_IN_LIGHTWEIGHT_PERM80 1 1099 1112 1113 9000 1
 1 1 1 1 1 1 1 0 FFTFFFFFFFFFFF1 82 1 1100 674380 79 10 1113 BODY_MATCH80 2 1097
 1114 1115 9000 0 0 0 0 3 5 0 0 0 FFTFFFFFFFFFFF9 1 82 1 1098 106 79 30 1115 LAS
T_BODY_MODIFYING_FEATURE_ID80 2 1095 1116 1117 9000 0 0 0 0 3 5 0 0 0 FFTFFFFFFF
FFFF9 1 82 1 1096 122 79 19 1117 ENT_TIME_STAMP_200180 2 12 1118 1119 9000 0 0 0
 0 3 5 0 0 0 FFTFFFFFFFFFFF9 1 82 1 14 103 79 12 1119 ATOM_ID_20011 0 
