**ABCDEFGHIJKLMNOPQRSTUVWXYZabcdefghijklmnopqrstuvwxyz**************************
**PARASOLID !"#$%&'()*+,-./:;<=>?@[\]^_`{|}~0123456789**************************
**PART1;
MC=AMD64;
MC_MODEL=Intel64 Family 6 Model 142 Stepping 10, GenuineIntel;
MC_ID=unknown;
OS=Windows_NT;
OS_RELEASE=unknown;
FRU=Parasolid Version 31.0, build 282,  2-25-2019;
APPL=SOLIDWORKS 2019-2019115;
SITE=;
USER=unknown;
FORMAT=text;
GUISE=transmit;
KEY=Y Gantry Box Section Belt Clamp;
FILE=Y Gantry Box Section Belt Clamp.x_t;
DATE=Fri Feb 14 17:09:45 2020;
**PART2;
SCH=SCH_3100282_31001;
USFLD_SIZE=0;
**PART3;
**END_OF_HEADER*****************************************************************
T51 : TRANSMIT FILE created by modeller version 310028223 SCH_3100282_31001_1300
6215 0 12 34 CCCCCCI4 mesh1006 0 I8 polyline1008 0 CCCCCCCDI5 owner1040 0 CCCCCC
I13 boundary_mesh1006 0 I17 boundary_polyline1008 0 CCCA16 index_map_offset0 0 1
 dA9 index_map82 0 A17 node_id_index_map82 0 A20 schema_embedding_map82 0 A5 chi
ld12 0 A14 lowest_node_id0 0 1 dA16 mesh_offset_data206 0 Z1 637 2 3 0 0 0 0 0 0
 1e3 1e-8 0 4 0 1 0 1 1 5 6 7 8 0 0 9 10 11 0 0 0 0 0 0 0 81 255 2 2 621 12 1 13
 0 0 0 0 14 70 11 CI9 list_type0 0 1 uI10 notransmit0 0 1 lCCCDCCDI12 finger_ind
ex0 0 1 dI12 finger_block1012 0 CZ3 0 4 T1 0 0 9 20 1 15 15 13 255 5 183 0 1 0 1
6 0 0 17 0 50 255 6 174 0 16 18 0 0 +-.0125 -.0025 .045 -991270557701033e-31 1 0
 -1 -991270557701033e-31 0 30 255 7 182 0 10 19 0 0 +-.0125 -.0025 .045 0 0 -1 2
9 255 8 135 0 20 21 0 -.03 -.0025 0 19 8 CCCCCCCA5 owner12 0 Z9 61 0 1 17 0 22 V
0 16 255 10 150 0 ?23 0 24 7 0 0 1 18 255 11 58 0 25 0 26 27 ?1 17 255 25 0 28 2
9 30 11 31 32 0 33 +18 26 55 0 30 11 34 35 ?1 29 27 60 0 11 35 36 -.03 -.0025 .0
45 29 35 57 0 26 37 27 -.03 .0025 .045 29 36 142 0 38 27 39 -.0125 -.0025 0 18 3
8 125 0 40 41 0 36 ?1 29 39 141 0 41 36 42 -.0125 -.004 0 18 41 124 0 43 44 38 3
9 ?1 29 42 140 0 44 39 45 .0125 -.004 0 18 44 123 0 46 47 41 42 ?1 29 45 139 0 4
7 42 48 .0125 -.0025 0 18 47 122 0 49 50 44 45 ?1 29 48 138 0 50 45 51 .03 -.002
5 0 18 50 121 0 52 53 47 48 ?1 29 51 137 0 53 48 21 .03 .0025 0 18 53 120 0 54 5
5 50 51 ?1 29 21 136 0 55 51 8 -.03 .0025 0 18 55 119 0 56 20 53 21 ?1 17 56 0 5
7 58 59 55 60 61 0 62 +18 20 118 0 63 64 55 8 ?1 17 63 0 65 33 62 20 66 67 0 68
 +18 64 37 0 69 70 20 71 ?1 17 69 0 72 23 73 64 74 75 0 29 -18 70 40 0 74 76 64
 77 ?1 29 71 39 0 64 0 77 -.0125 -.0025 .045 29 77 42 0 70 71 78 -.0125 -.004 .0
45 29 78 45 0 76 77 79 .0125 -.004 .045 18 76 43 0 80 81 70 78 ?1 29 79 48 0 81
 78 82 .0125 -.0025 .045 18 81 46 0 83 84 76 79 ?1 29 82 51 0 84 79 37 .03 -.002
5 .045 18 84 49 0 85 34 81 82 ?1 29 37 54 0 34 82 35 .03 .0025 .045 18 34 52 0 8
6 26 84 37 ?1 17 86 0 28 30 85 34 87 88 0 89 +15 255 28 4 0 29 90 0 17 30 0 28 2
5 86 26 91 92 0 58 +17 85 0 28 86 83 84 93 94 0 95 +17 87 0 96 97 89 84 86 88 0
 0 -16 88 25 0 ?86 92 94 98 0 0 1 17 89 0 96 87 54 34 59 99 0 91 -15 96 155 0 54
 100 0 17 54 0 96 89 97 53 101 102 0 59 +17 59 0 57 56 91 53 89 99 0 60 +16 99 1
45 0 ?59 103 104 105 0 0 1 17 91 0 57 59 58 34 30 92 0 0 -15 57 153 0 56 106 0 1
7 58 0 57 91 56 26 62 104 0 31 -16 92 29 0 ?30 32 88 107 0 0 1 16 32 33 0 ?25 10
8 92 109 0 0 1 30 107 31 0 92 98 109 0 +.03 .0025 .045 -1 -115648231731787e-30 0
 30 98 27 0 88 110 107 0 +.03 .0025 .045 0 1 0 30 109 35 0 32 107 111 0 +-.03 .0
025 .045 0 -1 0 30 111 134 0 112 109 113 0 +-.0125 -.0025 0 1 991270557701033e-3
1 0 16 112 114 0 ?114 115 116 111 0 0 1 30 113 133 0 115 111 117 0 +-.0125 -.002
5 0 0 -1 0 16 115 110 0 ?43 118 112 113 0 0 1 30 117 132 0 118 113 119 0 +-.0125
 -.004 0 1 0 0 16 118 106 0 ?46 120 115 117 0 0 1 30 119 131 0 120 117 121 0 +.0
125 -.004 0 0 1 0 16 120 102 0 ?49 122 118 119 0 0 1 30 121 130 0 122 119 123 0
 +.03 -.0025 0 1 123908819712629e-30 0 16 122 98 0 ?52 102 120 121 0 0 1 30 123
 129 0 102 121 124 0 +.03 .0025 0 0 1 0 16 102 94 0 ?54 61 122 123 0 0 1 30 124
 128 0 61 123 125 0 +.03 .0025 0 -1 -115648231731787e-30 0 16 61 90 0 ?56 67 102
 124 0 0 1 30 125 127 0 67 124 126 0 +-.03 .0025 0 0 -1 0 16 67 86 0 ?63 127 61
 125 0 0 1 30 126 175 0 108 125 128 0 +-.03 -.0025 .045 0 0 -1 16 108 143 0 ?68
 104 32 126 0 0 1 30 128 176 0 104 126 105 0 +-.03 .0025 .045 0 0 -1 16 104 144
 0 ?62 99 108 128 0 0 1 30 105 177 0 99 128 129 0 +.03 .0025 .045 0 0 -1 30 129
 178 0 103 105 130 0 +.03 -.0025 .045 0 0 -1 16 103 146 0 ?97 131 99 129 0 0 1 3
0 130 179 0 131 129 132 0 +.0125 -.0025 .045 0 0 -1 16 131 147 0 ?133 134 103 13
0 0 0 1 30 132 180 0 134 130 19 0 +.0125 -.004 .045 0 0 -1 16 134 148 0 ?135 24
 131 132 0 0 1 30 19 181 0 24 132 7 0 +-.0125 -.004 .045 0 0 -1 16 24 149 0 ?136
 10 134 19 0 0 1 17 136 0 137 46 138 41 73 24 0 139 +15 137 161 0 46 140 0 17 46
 0 137 141 136 44 139 118 0 135 +17 138 0 137 136 141 70 80 142 0 0 -17 73 0 72
 69 43 70 136 24 0 138 -17 139 0 143 40 144 41 46 118 0 0 -15 143 85 0 145 146 0
 17 40 0 143 145 139 38 43 115 0 23 -17 144 0 143 139 147 44 49 120 0 0 -17 147
 0 143 144 101 47 52 122 0 0 -17 49 0 148 149 135 47 144 120 0 133 +15 148 159 0
 49 150 0 17 149 0 148 151 49 81 133 131 0 93 -17 135 0 148 49 151 44 141 134 0
 144 +17 133 0 152 52 93 47 149 131 0 147 +15 152 157 0 52 153 0 17 52 0 152 95
 133 50 147 122 0 97 +17 93 0 152 133 95 81 85 94 0 0 -17 95 0 152 93 52 84 97 1
03 0 87 -16 94 21 0 ?85 88 154 110 0 0 1 16 154 17 0 ?83 94 142 155 0 0 1 30 110
 23 0 94 155 98 0 +.03 -.0025 .045 1 123908819712629e-30 0 30 155 19 0 154 156 1
10 0 +.0125 -.004 .045 0 1 0 30 156 15 0 142 157 155 0 +-.0125 -.004 .045 1 0 0
 16 142 13 0 ?80 154 75 156 0 0 1 30 157 11 0 75 158 156 0 +-.0125 -.0025 .045 0
 -1 0 16 75 9 0 ?74 142 127 157 0 0 1 30 158 7 0 127 159 157 0 +-.0125 -.0025 .0
45 1 991270557701033e-31 0 16 127 5 0 ?29 75 67 158 0 0 1 31 255 159 485 0 116 1
60 158 0 +.02125 -.0025 .0075 -123908819712629e-30 1 0 -1 -123908819712629e-30 0
 .00225 16 116 312 0 ?161 112 162 159 0 0 1 31 160 486 0 162 163 159 0 +.02125 -
.0025 .0225 -123908819712629e-30 1 0 -1 -123908819712629e-30 0 .00225 16 162 336
 0 ?164 116 165 160 0 0 1 31 163 487 0 165 166 160 0 +.02125 -.0025 .0375 -12390
8819712629e-30 1 0 -1 -123908819712629e-30 0 .00225 16 165 360 0 ?167 162 168 16
3 0 0 1 31 166 488 0 168 169 163 0 +-.02125 -.0025 .0375 -991270557701033e-31 1
 0 -1 -991270557701033e-31 0 .00225 16 168 384 0 ?170 165 171 166 0 0 1 31 169 4
89 0 171 172 166 0 +-.02125 -.0025 .0225 -991270557701033e-31 1 0 -1 -9912705577
01033e-31 0 .00225 16 171 408 0 ?173 168 174 169 0 0 1 31 172 490 0 174 175 169
 0 +-.02125 -.0025 .0075 -991270557701033e-31 1 0 -1 -991270557701033e-31 0 .002
25 16 174 432 0 ?176 171 177 172 0 0 1 31 175 491 0 177 178 172 0 +-.02125 .0025
 .0075 -1156482317317872e-31 1 0 -1 -1156482317317872e-31 0 .00225 16 177 436 0
 ?179 174 180 175 0 0 1 31 178 493 0 181 182 175 0 +.02125 .0025 .0075 -11564823
17317872e-31 1 0 -1 -1156482317317872e-31 0 .00225 16 181 316 0 ?183 184 0 178 0
 0 1 31 182 495 0 184 185 178 0 +.02125 .0025 .0225 -1156482317317872e-31 1 0 -1
 -1156482317317872e-31 0 .00225 16 184 340 0 ?186 187 181 182 0 0 1 31 185 497 0
 187 188 182 0 +.02125 .0025 .0375 -1156482317317872e-31 1 0 -1 -115648231731787
2e-31 0 .00225 16 187 364 0 ?189 190 184 185 0 0 1 31 188 499 0 190 191 185 0 +-
.02125 .0025 .0375 -1156482317317872e-31 1 0 -1 -1156482317317872e-31 0 .00225 1
6 190 388 0 ?192 180 187 188 0 0 1 31 191 501 0 180 0 188 0 +-.02125 .0025 .0225
 -1156482317317872e-31 1 0 -1 -1156482317317872e-31 0 .00225 16 180 412 0 ?193 1
77 190 191 0 0 1 17 193 0 194 193 193 0 195 180 0 0 +15 194 418 0 193 196 197 17
 195 0 198 195 195 0 193 180 0 0 -15 198 252 0 195 106 199 14 255 106 154 200 ?2
01 100 202 5 203 -0 0 201 100 22 15 199 246 0 204 106 57 17 204 0 199 204 204 0
 179 177 0 0 -17 179 0 205 179 179 0 204 177 0 0 +15 205 442 0 179 206 207 14 20
6 439 208 ?196 146 205 5 209 -0 0 196 146 22 15 207 443 0 210 206 0 17 210 0 207
 210 210 0 176 174 0 0 -17 176 0 211 176 176 0 210 174 0 0 +15 211 297 0 176 16
 212 14 16 166 213 ?214 0 215 5 6 -0 0 214 0 22 15 212 165 0 114 16 0 17 114 0 2
12 216 68 38 145 112 0 0 +17 216 0 212 217 114 64 23 10 0 0 -17 68 0 212 114 217
 20 33 108 0 145 +17 145 0 143 66 40 20 114 112 0 0 -17 66 0 143 60 145 55 63 67
 0 0 -17 60 0 143 101 66 53 56 61 0 0 -17 101 0 143 147 60 50 54 102 0 0 -17 217
 0 212 68 216 11 29 127 0 0 -17 33 0 65 31 63 11 68 108 0 217 -15 65 151 0 63 20
1 0 17 31 0 65 62 33 26 25 32 0 0 -17 62 0 65 63 31 55 58 104 0 66 +14 201 152 2
18 ?90 106 65 5 219 -0 0 90 106 22 81 1 218 625 220 201 221 0 213 222 223 14 90
 1 222 ?146 201 28 5 224 +0 0 146 201 22 50 219 167 0 201 225 203 0 +-.03 .0025
 .045 1 0 0 0 0 -1 13 22 62 0 0 0 0 0 0 9 16 50 225 126 0 146 224 219 0 +0 0 0 0
 0 1 1 0 0 50 203 168 0 106 219 226 0 +.03 .0025 .045 1156482317317872e-31 -1 0
 1 1156482317317872e-31 0 50 226 169 0 100 203 227 0 +.03 .0025 .045 -1 0 0 0 0
 1 14 100 156 228 ?106 153 96 5 226 -0 0 106 153 22 50 227 170 0 153 226 229 0 +
.03 -.0025 .045 -123908819712629e-30 1 0 -1 -123908819712629e-30 0 14 153 158 23
0 ?100 150 231 5 227 -0 0 100 150 22 50 229 171 0 150 227 232 0 +.0125 -.004 .04
5 -1 0 0 0 0 1 14 150 160 233 ?153 140 148 5 229 -0 0 153 140 22 50 232 172 0 14
0 229 18 0 +-.0125 -.004 .045 0 1 0 0 0 1 14 140 162 234 ?150 214 137 5 232 -0 0
 150 214 22 50 18 173 0 214 232 6 0 +-.0125 -.0025 .045 1 0 0 0 0 -1 14 214 164
 235 ?140 16 72 5 18 -0 0 140 16 22 81 1 235 631 220 214 236 0 234 237 238 15 72
 163 0 43 214 0 17 43 0 72 73 23 41 40 115 0 136 +17 23 0 72 43 69 38 216 10 0 1
14 +80 255 1 220 239 240 9000 1 1 1 1 1 1 1 1 0 FFFFTFTFFFFFFF1 81 1 236 572 241
 214 0 235 242 243 244 81 1 234 630 220 140 243 0 233 235 245 81 1 237 632 220 1
96 246 0 235 247 248 82 255 1 238 821297255 14 196 415 237 ?249 206 194 5 250 -0
 0 249 206 22 81 1 246 582 241 196 0 237 251 252 253 81 1 247 633 220 249 252 0
 237 254 255 82 1 248 -1094516630 14 249 391 247 ?256 196 257 5 258 -0 0 256 196
 22 81 1 252 583 241 249 0 247 246 259 260 81 1 254 634 220 256 259 0 247 261 26
2 82 1 255 -1093926806 14 256 367 254 ?263 249 264 5 265 -0 0 263 249 22 81 1 25
9 584 241 256 0 254 252 266 267 81 1 261 635 220 263 266 0 254 268 269 82 1 262
 -1093336982 14 263 343 261 ?270 256 271 5 272 -0 0 270 256 22 81 1 266 585 241
 263 0 261 259 273 274 81 1 268 636 220 270 273 0 261 275 276 82 1 269 -10927471
58 14 270 319 268 ?0 263 277 5 278 -0 0 0 263 22 81 1 273 586 241 270 0 268 266
 0 279 81 1 275 637 220 146 280 0 268 0 281 82 1 276 -1092157334 14 146 84 275 ?
206 90 143 5 225 -0 0 206 90 22 81 1 280 580 241 146 0 275 282 251 283 82 1 281
 818020455 80 1 241 0 284 8001 0 0 0 0 3 5 0 0 0 FFFFTFTFFFFFFF2 81 1 282 579 24
1 90 0 222 221 280 285 81 1 251 581 241 206 0 208 280 246 286 83 255 3 283 .6941
17647058824 .0980392156862745 .0980392156862745 81 1 208 623 220 206 251 0 200 2
13 287 83 3 286 .694117647058824 .0980392156862745 .0980392156862745 81 1 200 62
2 220 106 288 0 0 208 289 81 1 213 624 220 16 242 0 208 218 290 82 1 287 -109510
6454 81 1 242 571 241 16 0 213 0 236 291 82 1 290 821559402 83 3 291 .6941176470
58824 .0980392156862745 .0980392156862745 81 1 288 577 241 106 0 200 292 221 293
 82 1 289 819986538 81 1 292 576 241 100 0 228 294 288 295 81 1 221 578 241 201
 0 218 288 282 296 83 3 293 .694117647058824 .0980392156862745 .0980392156862745
 83 3 296 .694117647058824 .0980392156862745 .0980392156862745 81 1 228 627 220
 100 292 0 222 230 297 81 1 294 575 241 153 0 230 298 292 299 83 3 295 .69411764
7058824 .0980392156862745 .0980392156862745 81 1 230 628 220 153 294 0 228 233 3
00 81 1 298 574 241 150 0 233 243 294 301 83 3 299 .694117647058824 .09803921568
62745 .0980392156862745 81 1 233 629 220 150 298 0 230 234 302 81 1 243 573 241
 140 0 234 236 298 303 83 3 301 .694117647058824 .0980392156862745 .098039215686
2745 83 3 303 .694117647058824 .0980392156862745 .0980392156862745 82 1 302 8207
72967 82 1 300 820510826 81 1 222 626 220 90 282 0 218 228 304 82 1 297 82024867
9 82 1 304 807665767 83 3 285 .694117647058824 .0980392156862745 .09803921568627
45 79 255 15 284 SDL/TYSA_COLOUR83 3 279 .694117647058824 .0980392156862745 .098
0392156862745 15 277 322 0 183 270 305 51 255 278 470 0 270 272 209 0 +.02125 -.
004 .0075 -1156482317317872e-31 1 0 .00225 -1 -1156482317317872e-31 0 51 272 473
 0 263 265 278 0 +.02125 -.004 .0225 -1156482317317872e-31 1 0 .00225 -1 -115648
2317317872e-31 0 51 209 467 0 206 278 224 0 +-.02125 -.004 .0075 -11564823173178
72e-31 1 0 .00225 -1 -1156482317317872e-31 0 50 224 3 0 90 209 225 0 +0 0 .045 0
 0 1 1 0 0 51 265 476 0 256 258 272 0 +.02125 -.004 .0375 -1156482317317872e-31
 1 0 .00225 -1 -1156482317317872e-31 0 51 258 479 0 249 250 265 0 +-.02125 -.004
 .0375 -1156482317317872e-31 1 0 .00225 -1 -1156482317317872e-31 0 51 250 482 0
 196 0 258 0 +-.02125 -.004 .0225 -1156482317317872e-31 1 0 .00225 -1 -115648231
7317872e-31 0 17 183 0 277 183 183 0 306 181 0 0 +15 305 323 0 307 270 0 17 307
 0 305 307 307 0 161 116 0 0 -17 161 0 231 161 161 0 307 116 0 0 +15 231 292 0 1
61 153 308 15 308 287 0 164 153 309 17 164 0 308 164 164 0 310 162 0 0 +15 309 2
82 0 167 153 152 17 167 0 309 167 167 0 311 165 0 0 +17 311 0 312 311 311 0 167
 165 0 0 -15 312 371 0 311 256 0 17 310 0 313 310 310 0 164 162 0 0 -15 313 347
 0 310 263 0 17 306 0 202 306 306 0 183 181 0 0 -15 202 276 0 306 106 314 15 314
 270 0 315 106 316 17 315 0 314 315 315 0 186 184 0 0 -15 316 264 0 317 106 318
 17 317 0 316 317 317 0 189 187 0 0 -15 318 258 0 319 106 198 17 319 0 318 319 3
19 0 192 190 0 0 -17 192 0 257 192 192 0 319 190 0 0 +15 257 394 0 192 249 320 1
5 320 395 0 321 249 0 17 321 0 320 321 321 0 170 168 0 0 -17 170 0 215 170 170 0
 321 168 0 0 +15 215 307 0 170 16 322 15 322 302 0 173 16 211 17 173 0 322 173 1
73 0 323 171 0 0 +17 323 0 197 323 323 0 173 171 0 0 -15 197 419 0 323 196 0 17
 189 0 264 189 189 0 317 187 0 0 +15 264 370 0 189 256 312 17 186 0 271 186 186
 0 315 184 0 0 +15 271 346 0 186 263 313 83 3 274 .694117647058824 .098039215686
2745 .0980392156862745 83 3 267 .694117647058824 .0980392156862745 .098039215686
2745 83 3 260 .694117647058824 .0980392156862745 .0980392156862745 83 3 253 .694
117647058824 .0980392156862745 .0980392156862745 82 1 245 821035111 83 3 244 .69
4117647058824 .0980392156862745 .0980392156862745 79 14 240 SWEntUnchanged82 1 2
23 819724391 17 29 0 28 74 25 64 217 127 0 216 +17 74 0 28 80 29 70 69 75 0 73 +
17 80 0 28 83 74 76 138 142 0 141 +17 83 0 28 85 80 81 151 154 0 149 +17 141 0 1
37 138 46 76 135 134 0 151 -17 151 0 148 135 149 76 83 154 0 0 -17 97 0 96 54 87
 50 95 103 0 101 +19 17 184 0 1 0 9 5 S0 74 4 CI16 index_map_offset0 0 1 dCCZ20
 15 9 0 0 324 325 275 326 327 328 273 13 2 0 0 0 0 0 0 0 0 0 0 0 81 2 324 224 32
9 1 0 325 0 0 0 330 81 2 325 228 331 1 324 326 0 0 0 332 81 2 326 240 333 1 325
 327 0 0 0 0 81 1 327 536 334 1 326 328 0 0 335 81 2 328 553 336 1 327 13 0 0 0
 337 81 2 13 620 338 1 328 2 0 0 339 0 80 2 338 340 341 8004 0 0 0 0 3 5 0 0 0 F
FTFFFFFFFFFFF2 3 83 1 339 1020 79 16 341 SDL/TYSA_DENSITY80 2 336 342 343 9000 0
 0 0 0 3 5 0 0 0 FFTFFFFFFFFFFF9 1 82 1 337 1 79 24 343 BODY_IN_LIGHTWEIGHT_PERM
80 1 334 344 345 9000 1 1 1 1 1 1 1 1 0 FFTFFFFFFFFFFF1 82 1 335 5058594 79 10 3
45 BODY_MATCH80 2 333 346 347 9000 0 0 0 0 3 5 0 0 0 FFTFFFFFFFFFFF9 1 79 16 347
 BODY_RECIPE_200180 2 331 348 349 9000 0 0 0 0 3 5 0 0 0 FFTFFFFFFFFFFF9 1 82 1
 332 84 79 30 349 LAST_BODY_MODIFYING_FEATURE_ID80 2 329 350 351 9000 0 0 0 0 3
 5 0 0 0 FFTFFFFFFFFFFF9 1 82 1 330 105 79 19 351 ENT_TIME_STAMP_200180 2 12 352
 353 9000 0 0 0 0 3 5 0 0 0 FFTFFFFFFFFFFF9 1 82 1 14 102 79 12 353 ATOM_ID_2001
1 0 
