**ABCDEFGHIJKLMNOPQRSTUVWXYZabcdefghijklmnopqrstuvwxyz**************************
**PARASOLID !"#$%&'()*+,-./:;<=>?@[\]^_`{|}~0123456789**************************
**PART1;
MC=AMD64;
MC_MODEL=Intel64 Family 6 Model 142 Stepping 10, GenuineIntel;
MC_ID=unknown;
OS=Windows_NT;
OS_RELEASE=unknown;
FRU=Parasolid Version 31.0, build 282,  2-25-2019;
APPL=SOLIDWORKS 2019-2019115;
SITE=;
USER=unknown;
FORMAT=text;
GUISE=transmit;
KEY=Y Gantry Motion Link;
FILE=Y Gantry Motion Link.x_t;
DATE=Fri Feb 14 17:33:23 2020;
**PART2;
SCH=SCH_3100282_31001;
USFLD_SIZE=0;
**PART3;
**END_OF_HEADER*****************************************************************
T51 : TRANSMIT FILE created by modeller version 310028223 SCH_3100282_31001_1300
6215 0 12 34 CCCCCCI4 mesh1006 0 I8 polyline1008 0 CCCCCCCDI5 owner1040 0 CCCCCC
I13 boundary_mesh1006 0 I17 boundary_polyline1008 0 CCCA16 index_map_offset0 0 1
 dA9 index_map82 0 A17 node_id_index_map82 0 A20 schema_embedding_map82 0 A5 chi
ld12 0 A14 lowest_node_id0 0 1 dA16 mesh_offset_data206 0 Z1 2779 2 3 0 0 0 0 0
 0 1e3 1e-8 0 4 0 1 0 1 1 5 6 7 8 0 0 9 10 11 0 0 0 0 0 0 0 81 255 2 2 2737 12 1
 13 0 0 0 0 14 70 11 CI9 list_type0 0 1 uI10 notransmit0 0 1 lCCCDCCDI12 finger_
index0 0 1 dI12 finger_block1012 0 CZ3 0 4 T1 0 0 9 20 1 15 15 13 255 5 183 0 1
 0 16 0 0 17 0 52 255 6 1356 0 18 19 0 20 --865283333737451e-32 .00175 .01 0 0 -
1 .018125 .913137882437511 .407650840373889 -1 0 0 38 12 CCCCCCCCCCCA17 intersec
tion_data204 0 Z7 1483 0 10 21 0 0 +6 22 23 24 25 26 29 255 8 1437 0 11 27 0 .02
84545211798342 .00884195667121328 .005 19 8 CCCCCCCA5 owner12 0 Z9 61 0 1 17 0 2
8 V0 16 255 10 1481 0 ?29 0 30 7 0 0 1 18 255 11 1435 0 31 0 32 8 ?1 17 255 31 0
 33 34 35 11 36 37 0 29 +18 32 1043 0 38 11 39 27 ?1 17 38 0 33 40 41 32 42 43 0
 44 +18 39 1040 0 45 32 46 47 ?1 29 27 1045 0 32 47 8 .0209691589006331 -.01875
 .005 29 47 1042 0 39 48 27 -.0209691589006331 -.01875 .005 29 48 1026 0 46 49 4
7 .00628614548034007 .01875 .01 18 46 1025 0 50 39 51 48 ?1 29 49 654 0 51 52 48
 .0275 -.012 .005 18 51 652 0 53 46 54 49 ?1 29 52 637 0 54 55 49 .0225 -.012 0
 18 54 635 0 56 51 57 52 ?1 29 55 507 0 57 58 52 -.0275 -.012 0 18 57 505 0 59 5
4 60 55 ?1 29 58 394 0 60 61 55 .0275 .0155 .005 18 60 392 0 62 57 63 58 ?1 29 6
1 377 0 63 64 58 .0225 .0155 0 18 63 375 0 65 60 66 61 ?1 29 64 247 0 66 67 61 -
.0275 .0155 0 18 66 245 0 68 63 69 64 ?1 29 67 135 0 70 71 64 -.03 .01875 0 18 7
0 118 0 72 73 74 67 ?1 29 71 136 0 74 75 67 .03 .01875 0 18 74 119 0 76 70 77 71
 ?1 29 75 137 0 77 78 71 .033 .01575 0 18 77 120 0 79 74 80 75 ?1 29 78 138 0 80
 81 75 .033 -.01575 0 18 80 121 0 82 77 83 78 ?1 29 81 139 0 83 84 78 .03 -.0187
5 0 18 83 122 0 85 80 86 81 ?1 29 84 140 0 86 87 81 -.03 -.01875 0 18 86 123 0 8
8 83 89 84 ?1 29 87 141 0 89 90 84 -.033 -.01575 0 18 89 124 0 91 86 92 87 ?1 29
 90 142 0 92 93 87 -.033 .01575 0 18 92 125 0 94 89 95 90 ?1 29 93 60 0 69 96 90
 -.03 .01875 .005 18 69 58 0 97 66 98 93 ?1 29 96 57 0 98 99 93 .03 .01875 .005
 18 98 55 0 100 69 101 96 ?1 29 99 54 0 101 102 96 .033 .01575 .005 18 101 52 0
 103 98 104 99 ?1 29 102 51 0 104 105 99 .033 -.01575 .005 18 104 49 0 106 101 1
07 102 ?1 29 105 48 0 107 108 102 .03 -.01875 .005 18 107 46 0 40 104 109 105 ?1
 29 108 45 0 109 110 105 -.03 -.01875 .005 18 109 43 0 111 107 112 108 ?1 29 110
 42 0 112 113 108 -.033 -.01575 .005 18 112 40 0 114 109 73 110 ?1 29 113 39 0 7
3 115 110 -.033 .01575 .005 18 73 37 0 116 112 70 113 ?1 29 115 362 0 117 118 11
3 -.0225 .0155 0 18 117 313 0 119 120 121 115 ?1 29 118 363 0 121 122 115 -.0225
 .012 0 18 121 311 0 123 117 124 118 ?1 29 122 364 0 124 125 118 -.0275 .012 0 1
8 124 318 0 126 121 127 122 ?1 29 125 365 0 95 128 122 -.0275 .0155 .005 18 95 3
17 0 129 92 120 125 ?1 29 128 368 0 120 130 125 -.0275 .012 .005 18 120 312 0 13
1 95 117 128 ?1 29 130 492 0 132 133 128 .0275 .0155 0 18 132 443 0 134 127 135
 130 ?1 29 133 493 0 135 136 130 .0275 .012 0 18 135 441 0 137 132 138 133 ?1 29
 136 494 0 138 139 133 .0225 .012 0 18 138 448 0 140 135 141 136 ?1 29 139 497 0
 127 142 136 .0275 .012 .005 18 127 445 0 143 124 132 139 ?1 29 142 622 0 144 14
5 139 -.0225 -.012 0 18 144 573 0 146 147 148 142 ?1 29 145 623 0 148 149 142 -.
0225 -.0155 0 18 148 571 0 150 144 151 145 ?1 29 149 624 0 151 152 145 -.0275 -.
0155 0 18 151 578 0 153 148 154 149 ?1 29 152 625 0 141 155 149 -.0275 -.012 .00
5 18 141 577 0 156 138 147 152 ?1 29 155 628 0 147 157 152 -.0275 -.0155 .005 18
 147 572 0 158 141 144 155 ?1 29 157 752 0 159 160 155 .0275 -.012 0 18 159 703
 0 161 154 162 157 ?1 29 160 753 0 162 163 157 .0275 -.0155 0 18 162 701 0 164 1
59 165 160 ?1 29 163 754 0 165 166 160 .0225 -.0155 0 18 165 708 0 167 162 168 1
63 ?1 29 166 757 0 154 169 163 .0275 -.0155 .005 18 154 705 0 170 151 159 166 ?1
 29 169 2158 0 168 171 166 .0225 .01875 .00550215298910394 18 168 1695 0 172 165
 173 169 ?1 29 171 2159 0 173 174 169 .0225 .00875 .00757198958218912 18 173 169
7 0 175 168 176 171 ?1 29 174 2160 0 176 177 171 .0275 .00875 .00542324676458686
 18 176 1682 0 178 173 179 174 ?1 29 177 2161 0 179 180 174 .0225 .012 .005 18 1
79 1687 0 181 176 182 177 ?1 29 180 2162 0 182 183 177 .0225 .0155 .005 18 182 1
688 0 184 179 185 180 ?1 29 183 2169 0 185 186 180 .0225 -.00875 .00700695623398
649 18 185 1796 0 187 182 188 183 ?1 29 186 2173 0 188 189 183 .0225 -.0155 .005
 18 188 1794 0 190 185 191 186 ?1 29 189 2174 0 191 192 186 .0225 -.012 .005 18
 191 1795 0 193 188 194 189 ?1 29 192 2176 0 194 195 189 .02738075282018375 -.00
875 .005 18 194 1791 0 196 191 197 192 ?1 29 195 2177 0 197 198 192 .02114929742
560495 -.01856410454347665 .005 18 197 1798 0 199 194 200 195 ?1 29 198 2178 0 2
00 201 195 -.0225 -.00875 .00700695623398649 18 200 1899 0 202 197 203 198 ?1 29
 201 2182 0 203 204 198 -.0225 -.012 .005 18 203 1895 0 205 200 206 201 ?1 29 20
4 2183 0 206 207 201 -.0225 -.0155 .005 18 206 1896 0 208 203 209 204 ?1 29 207
 2185 0 209 210 204 -.02114929742560495 -.01856410454347665 .005 18 209 1890 0 2
11 206 212 207 ?1 29 210 2186 0 212 213 207 -.02738075282018375 -.00875 .005 18
 212 1900 0 214 209 215 210 ?1 29 213 2187 0 215 216 210 -.0275 .00875 .00542324
676458687 18 215 2002 0 217 212 218 213 ?1 29 216 2188 0 218 219 213 -.0225 .008
75 .00757198958218913 18 218 2003 0 220 215 221 216 ?1 29 219 2189 0 221 222 216
 -.0225 .01875 .00550215298910395 18 221 2005 0 223 218 224 219 ?1 29 222 2193 0
 224 225 219 -.0225 .0155 .005 18 224 2000 0 226 221 227 222 ?1 29 225 2194 0 22
7 228 222 -.0225 .012 .005 18 227 2001 0 229 224 230 225 ?1 29 228 2197 0 230 23
1 225 -.0284545211798342 .00884195667121328 .005 18 230 1993 0 232 227 233 228 ?
1 29 231 2199 0 233 234 228 -.0225 .01875 .005 18 233 1996 0 235 230 236 231 ?1
 29 234 2200 0 236 237 231 -.0225 .00875 .005 18 236 1995 0 238 233 239 234 ?1 2
9 237 2201 0 239 240 234 -.0275 .00875 .005 18 239 1994 0 241 236 242 237 ?1 29
 240 2206 0 243 244 237 .0275 .00875 .005 18 243 1683 0 245 246 247 240 ?1 29 24
4 2207 0 247 248 240 .0225 .00875 .005 18 247 1686 0 249 243 250 244 ?1 29 248 2
208 0 250 251 244 .0225 .01875 .005 18 250 1685 0 252 247 253 248 ?1 29 251 2216
 0 246 254 248 .0225 -.00875 .005 18 246 1792 0 255 242 243 251 ?1 29 254 2223 0
 242 256 251 -.0225 -.00875 .005 18 242 1891 0 257 239 246 254 ?1 29 256 2505 0
 253 0 254 -.00628614548034009 .01875 .01 18 253 2460 0 258 250 0 256 ?1 17 258
 0 259 260 260 253 50 261 0 262 +15 255 259 2420 0 258 263 264 17 260 0 259 258
 258 46 265 266 0 0 +17 50 0 267 268 262 46 258 261 0 269 -16 261 2448 0 ?258 37
 0 270 0 0 1 17 262 0 267 50 271 253 272 273 0 265 +15 267 2511 0 72 16 0 17 271
 0 267 262 235 221 274 275 0 272 -17 272 0 276 277 265 221 262 273 0 0 -16 273 1
421 0 ?262 278 279 280 0 0 1 17 265 0 276 272 269 253 260 266 0 0 -15 276 1482 0
 281 18 0 17 269 0 276 265 282 46 268 283 0 260 -16 266 1028 0 ?260 284 285 286
 0 0 1 16 284 673 0 ?287 288 266 289 0 0 1 16 285 904 0 ?290 266 291 292 0 0 1 3
1 255 286 937 0 266 293 294 0 +-865283333737451e-32 .00175 .01 0 0 1 1 0 0 .0181
25 31 293 938 0 291 292 286 0 +-865283333737451e-32 .00175 .005 0 0 1 1 0 0 .011
 30 255 294 749 0 295 286 296 0 +.0225 -.0155 .005 1 0 0 16 295 1071 0 ?170 297
 298 294 0 0 1 31 296 748 0 297 294 299 0 +.0275 -.01375 .005 0 0 1 1 0 0 .00175
 16 297 695 0 ?300 301 295 296 0 0 1 30 299 747 0 301 296 289 0 +.0225 -.012 .00
5 -1 0 0 16 301 698 0 ?193 302 297 299 0 0 1 31 289 746 0 284 299 303 0 +.0225 -
.01375 0 0 0 1 1 0 0 .00175 30 303 745 0 288 289 304 0 +.0225 -.0155 0 1 0 0 16
 288 677 0 ?305 306 284 303 0 0 1 31 304 744 0 306 303 307 0 +.0275 -.01375 0 0
 0 1 1 0 0 .00175 16 306 681 0 ?308 298 288 304 0 0 1 30 307 743 0 298 304 309 0
 +.0225 -.012 0 -1 0 0 16 298 685 0 ?310 295 306 307 0 0 1 30 309 742 0 302 307
 311 0 +.0225 -.012 .005 0 0 -1 16 302 1487 0 ?56 312 301 309 0 0 1 30 311 741 0
 312 309 313 0 +.0275 -.012 .005 0 0 -1 16 312 688 0 ?161 314 302 311 0 0 1 30 3
13 740 0 314 311 315 0 +.0275 -.0155 .005 0 0 -1 16 314 684 0 ?164 316 312 313 0
 0 1 30 315 739 0 316 313 317 0 +.0225 -.0155 .005 0 0 -1 16 316 1494 0 ?167 318
 314 315 0 0 1 31 317 620 0 319 315 320 0 +-.0275 -.01375 .005 0 0 1 1 0 0 .0017
5 16 319 559 0 ?158 321 322 317 0 0 1 30 320 619 0 321 317 323 0 +-.0275 -.0155
 .005 1 0 0 16 321 562 0 ?208 324 319 320 0 0 1 30 323 617 0 324 320 325 0 +-.02
75 -.012 .005 -1 0 0 16 324 1050 0 ?156 326 321 323 0 0 1 31 325 616 0 318 323 3
27 0 +-.0275 -.01375 0 0 0 1 1 0 0 .00175 16 318 543 0 ?328 329 316 325 0 0 1 30
 327 615 0 329 325 330 0 +-.0275 -.0155 0 1 0 0 16 329 547 0 ?331 332 318 327 0
 0 1 31 330 614 0 332 327 333 0 +-.0225 -.01375 0 0 0 1 1 0 0 .00175 16 332 551
 0 ?334 322 329 330 0 0 1 30 333 613 0 322 330 335 0 +-.0275 -.012 0 -1 0 0 16 3
22 555 0 ?336 319 332 333 0 0 1 30 335 612 0 326 333 337 0 +-.0275 -.012 .005 0
 0 -1 16 326 546 0 ?338 339 324 335 0 0 1 30 337 611 0 339 335 340 0 +-.0225 -.0
12 .005 0 0 -1 16 339 1505 0 ?146 341 326 337 0 0 1 30 340 610 0 341 337 342 0 +
-.0225 -.0155 .005 0 0 -1 16 341 1512 0 ?150 343 339 340 0 0 1 30 342 609 0 343
 340 344 0 +-.0275 -.0155 .005 0 0 -1 16 343 550 0 ?345 346 341 342 0 0 1 30 344
 489 0 347 342 348 0 +.0225 .012 .005 1 0 0 16 347 1065 0 ?143 349 350 344 0 0 1
 31 348 488 0 349 344 351 0 +.0275 .01375 .005 0 0 1 1 0 0 .00175 16 349 435 0 ?
352 353 347 348 0 0 1 30 351 487 0 353 348 354 0 +.0225 .0155 .005 -1 0 0 16 353
 438 0 ?184 355 349 351 0 0 1 31 354 486 0 346 351 356 0 +.0225 .01375 0 0 0 1 1
 0 0 .00175 16 346 413 0 ?357 358 343 354 0 0 1 30 356 485 0 358 354 359 0 +.022
5 .012 0 1 0 0 16 358 417 0 ?360 361 346 356 0 0 1 31 359 484 0 361 356 362 0 +.
0275 .01375 0 0 0 1 1 0 0 .00175 16 361 421 0 ?363 350 358 359 0 0 1 30 362 483
 0 350 359 364 0 +.0225 .0155 0 -1 0 0 16 350 425 0 ?365 347 361 362 0 0 1 30 36
4 482 0 355 362 366 0 +.0225 .0155 .005 0 0 -1 16 355 1523 0 ?65 367 353 364 0 0
 1 30 366 481 0 367 364 368 0 +.0275 .0155 .005 0 0 -1 16 367 428 0 ?134 369 355
 366 0 0 1 30 368 480 0 369 366 370 0 +.0275 .012 .005 0 0 -1 16 369 424 0 ?137
 371 367 368 0 0 1 30 370 479 0 371 368 372 0 +.0225 .012 .005 0 0 -1 16 371 153
0 0 ?140 373 369 370 0 0 1 31 372 360 0 374 370 375 0 +-.0275 .01375 .005 0 0 1
 1 0 0 .00175 16 374 299 0 ?131 376 377 372 0 0 1 30 375 359 0 376 372 378 0 +-.
0275 .012 .005 1 3469446951953615e-31 0 16 376 302 0 ?229 379 374 375 0 0 1 30 3
78 357 0 379 375 380 0 +-.0275 .0155 .005 -1 3469446951953615e-31 0 16 379 1056
 0 ?129 381 376 378 0 0 1 31 380 356 0 373 378 382 0 +-.0275 .01375 0 0 0 1 1 0
 0 .00175 16 373 283 0 ?383 384 371 380 0 0 1 30 382 355 0 384 380 385 0 +-.0275
 .012 0 1 3469446951953615e-31 0 16 384 287 0 ?386 387 373 382 0 0 1 31 385 354
 0 387 382 388 0 +-.0225 .01375 0 0 0 1 1 0 0 .00175 16 387 291 0 ?389 377 384 3
85 0 0 1 30 388 353 0 377 385 390 0 +-.0275 .0155 0 -1 3469446951953615e-31 0 16
 377 295 0 ?391 374 387 388 0 0 1 30 390 352 0 381 388 392 0 +-.0275 .0155 .005
 0 0 -1 16 381 286 0 ?393 394 379 390 0 0 1 30 392 351 0 394 390 395 0 +-.0225 .
0155 .005 0 0 -1 16 394 1541 0 ?119 396 381 392 0 0 1 30 395 350 0 396 392 397 0
 +-.0225 .012 .005 0 0 -1 16 396 1548 0 ?123 398 394 395 0 0 1 30 397 349 0 398
 395 399 0 +-.0275 .012 .005 0 0 -1 16 398 290 0 ?400 401 396 397 0 0 1 31 399 2
40 0 402 397 403 0 +-865283333737451e-32 .00175 .005 0 0 1 1 0 0 .007 16 402 220
 0 ?404 405 401 399 0 0 1 31 403 239 0 401 399 406 0 +-865283333737451e-32 .0017
5 0 0 0 1 1 0 0 .007 16 401 217 0 ?407 402 398 403 0 0 1 30 406 7 0 408 403 409
 0 +-.03 .01875 .005 -.707106781186548 -.707106781186548 0 16 408 5 0 ?410 411 4
12 406 0 0 1 30 409 11 0 411 406 413 0 +-.033 .01575 .005 220282346155785e-30 -1
 0 16 411 9 0 ?114 414 408 409 0 0 1 30 413 15 0 414 409 415 0 +-.03 -.01875 .00
5 .707106781186548 -.707106781186548 0 16 414 13 0 ?111 416 411 413 0 0 1 30 415
 19 0 417 413 418 0 +.03 -.01875 .005 1 1734723475976805e-31 0 16 417 17 0 ?45 4
19 416 415 416 416 1 30 418 23 0 419 415 420 0 +.033 -.01575 .005 .7071067811865
48 .707106781186548 0 16 419 21 0 ?106 421 417 418 0 0 1 30 420 27 0 421 418 422
 0 +.033 .01575 .005 0 1 0 16 421 25 0 ?103 423 419 420 0 0 1 30 422 31 0 423 42
0 424 0 +.033 .01575 .005 -.707106781186548 .707106781186548 0 16 423 29 0 ?100
 425 421 422 0 0 1 30 424 35 0 426 422 427 0 +.03 .01875 .005 -1 -11564823173178
7e-30 0 16 426 33 0 ?252 428 425 424 425 425 1 30 427 134 0 405 424 429 0 +-.03
 .01875 0 -.707106781186548 -.707106781186548 0 16 405 114 0 ?430 431 402 427 0
 0 1 30 429 133 0 431 427 432 0 +-.033 .01575 0 220282346155785e-30 -1 0 16 431
 110 0 ?91 433 405 429 0 0 1 30 432 132 0 433 429 434 0 +-.03 -.01875 0 .7071067
81186548 -.707106781186548 0 16 433 106 0 ?88 435 431 432 0 0 1 30 434 131 0 435
 432 436 0 +.03 -.01875 0 1 1734723475976805e-31 0 16 435 102 0 ?85 437 433 434
 0 0 1 30 436 130 0 437 434 438 0 +.033 -.01575 0 .707106781186548 .707106781186
548 0 16 437 98 0 ?82 439 435 436 0 0 1 30 438 129 0 439 436 440 0 +.033 .01575
 0 0 1 0 16 439 94 0 ?79 441 437 438 0 0 1 30 440 128 0 441 438 442 0 +.033 .015
75 0 -.707106781186548 .707106781186548 0 16 441 90 0 ?76 412 439 440 0 0 1 30 4
42 127 0 412 440 443 0 +.03 .01875 0 -1 -115648231731787e-30 0 16 412 86 0 ?72 4
08 441 442 0 0 1 30 443 175 0 428 442 444 0 +-.03 .01875 .005 0 0 -1 16 428 143
 0 ?445 446 426 443 0 0 1 30 444 176 0 446 443 447 0 +.03 .01875 .005 0 0 -1 16
 446 144 0 ?448 449 428 444 0 0 1 30 447 177 0 449 444 450 0 +.033 .01575 .005 0
 0 -1 16 449 145 0 ?451 452 446 447 0 0 1 30 450 178 0 452 447 453 0 +.033 -.015
75 .005 0 0 -1 16 452 146 0 ?454 455 449 450 0 0 1 30 453 179 0 455 450 456 0 +.
03 -.01875 .005 0 0 -1 16 455 147 0 ?457 458 452 453 0 0 1 30 456 180 0 458 453
 459 0 +-.03 -.01875 .005 0 0 -1 16 458 148 0 ?460 461 455 456 0 0 1 30 459 181
 0 461 456 462 0 +-.033 -.01575 .005 0 0 -1 16 461 149 0 ?463 464 458 459 0 0 1
 30 462 182 0 464 459 465 0 +-.033 .01575 .005 0 0 -1 16 464 150 0 ?466 467 461
 462 0 0 1 31 465 1076 0 467 462 468 0 +-865283333737451e-32 .00175 .005 0 0 -1
 -1 0 0 .029325 16 467 1424 0 ?469 470 464 465 0 0 1 31 468 1079 0 470 465 471 0
 +-865283333737451e-32 .00175 .005 0 0 -1 -1 0 0 .029325 16 470 1077 0 ?472 43 4
67 468 0 0 1 31 471 1083 0 43 468 473 0 +-865283333737451e-32 .00175 .005 0 0 -1
 -1 0 0 .029325 16 43 1433 0 ?38 474 470 471 0 0 1 31 473 1085 0 474 471 475 0 +
-865283333737451e-32 .00175 .005 0 0 -1 -1 0 0 .029325 16 474 1436 0 ?34 283 43
 473 0 0 1 38 475 1267 0 283 473 476 0 +477 6 478 479 480 481 16 283 1091 0 ?268
 279 474 475 0 0 1 38 476 1274 0 279 475 280 0 +482 6 483 484 485 486 50 255 477
 167 0 16 487 488 489 +.03 .01875 .005 115648231731787e-30 -1 0 1 11564823173178
7e-30 0 40 255 2 478 0 1 2 .002246878000415015 .195268916167476 ??.0062861454803
4007 .01875 .01 .02389467775468 .01875 .005 41 3 CI8 term_use0 0 1 cCZ1 479 L?.0
0628614548034007 .01875 .01 41 1 480 L?.02389467775468 .01875 .005 204 2 17 INTE
RSECTION_DATA17 Intersection data7 uv_type0 0 1 u6 values0 1 1 fT8 481 4 -.02371
385451965995 .005 1.92497679725986 0 -.00610532224532 1734723475976805e-33 2.523
219735702925 .005 14 255 16 1580 490 ?491 0 267 5 477 -0 0 491 0 28 50 487 126 0
 492 493 477 0 +0 0 0 0 0 -1 -1 0 0 50 488 168 0 494 477 495 0 +.033 .01575 .005
 -.707106781186548 -.707106781186548 0 .707106781186548 -.707106781186548 0 141
 255 489 475 496 496 477 141 496 280 489 489 477 38 280 1281 0 273 476 497 0 +47
7 6 498 499 500 501 38 497 1444 0 278 280 502 0 +6 503 504 505 506 507 40 2 498
 0 1 2 .00224687800041502 .195268916167476 ??-.02389467775468005 .01875 .005 -.0
0628614548034009 .01875 .01 41 1 499 L?-.02389467775468005 .01875 .005 41 1 500
 L?-.00628614548034009 .01875 .01 204 8 501 4 -.05389467775468 0 .61837291788686
6 .005 -.0362861454803401 .005 1.216615856329934 0 16 278 1442 0 ?223 508 273 49
7 0 0 1 38 502 1448 0 508 497 509 0 +6 510 511 512 513 514 51 255 503 2066 0 515
 22 510 516 --.0225 .01375 .01 0 0 -1 .005 -1 0 0 40 11 504 0 1 11 .000351653884
689878 .3783642615639555 ??-.0225002 .00875000000400001 .00757190432655592 -.020
80349794924865 .00904660964922149 .00824955434803627 -.01925644970573395 .009944
82175337784 .00874882310452613 -.018179485203695 .01123342456999402 .00893778304
894997 -.01762578757926235 .01263552555994896 .00884319152851798 -.0175108621473
2145 .01407939867481502 .00853081077539694 -.0178366839403089 .01555374148020915
 .00802269207859365 -.0186697977901522 .01696396189020295 .00733985327907299 -.0
2003071282918255 .018097714441869 .00654913995883061 -.0217827513588077 .0186982
880258437 .00577030988352079 -.0225002 .018749999996 .00550208175191145 41 1 505
 L?-.0225002 .00875000000400001 .00757190432655592 41 1 506 L?-.0225002 .0187499
99996 .00550208175191145 204 44 507 4 .301616525062 .002428095673444085 4.712428
9803847 .002428095673444085 .3373335152676135 .001750445651963725 4.366215890750
415 .001750445651963725 .402346944069483 .001251176895473872 4.006500751945875 .
001251176895473872 .480821374185977 .001062216951050034 3.66902360952222 .001062
216951050032 .553253654671392 .00115680847148202 3.36637571662661 .0011568084714
8202 .613472369630441 .001469189224603064 3.075665170773565 .001469189224603062
 .658620078575503 .00197730792140635 2.772522562706105 .00197730792140635 .68375
869177488 .00266014672092701 2.44345472813167 .00266014672092701 .68450067663909
9 .00345086004116939 2.08731668293028 .00345086004116939 .661219005357052 .00422
9690116479215 1.714742647935335 .004229690116479215 .647042917746245 .0044979182
48088555 1.57075632679488 .004497918248088555 14 515 2020 517 ?518 519 520 5 503
 +0 0 518 519 28 51 22 2070 0 521 522 503 523 -.0275 .01375 .01 0 0 -1 .005 -1 0
 0 50 510 2065 0 519 503 524 525 +-.0275 .00875 .01 0 1 0 0 0 1 141 516 497 516
 516 503 14 519 2016 526 ?515 527 528 5 510 +0 0 515 527 28 51 524 2064 0 527 51
0 529 530 --.0275 .01375 .01 0 0 -1 .005 -1 0 0 141 525 502 525 525 510 14 527 2
012 531 ?519 532 533 5 524 +0 0 519 532 28 51 529 935 0 532 524 534 0 --86528333
3737451e-32 .00175 .01 0 0 -1 .011 -1 0 0 141 530 509 530 530 524 38 509 1451 0
 535 502 536 0 +6 524 537 538 539 540 16 535 1449 0 ?217 541 508 509 0 0 1 38 53
6 1457 0 541 509 542 0 +6 543 544 545 546 547 40 2 537 0 1 2 925649988642041e-19
 .1762887403406455 ??-.02845496153495665 .00884204233242042 .0049998 -.0274998 .
00875000000400001 .00542333329066061 41 1 538 L?-.02845496153495665 .00884204233
242042 .0049998 41 1 539 L?-.0274998 .00875000000400001 .00542333329066061 204 8
 540 4 .244260849589545 .0050002 4.90456194409693 .0050002 .2492538801241935 .00
457666670933939 4.71234898038468 .00457666670933939 16 541 1455 0 ?214 548 535 5
36 0 0 1 38 542 1460 0 548 536 549 0 +6 550 551 552 553 554 50 543 2085 0 555 0
 550 556 +-.0275 -.00875 .01 346944695195361e-30 -1 0 1 346944695195361e-30 0 40
 2 544 0 1 2 .00068790987239068 .0501385341533256 ??-.0154287321881345 -.00875 .
0097599624659208 -.0345712678118655 -.00875 .001961771494056145 41 1 545 L?-.015
4287321881345 -.00875 .0097599624659208 41 1 546 L?-.0345712678118655 -.00875 .0
01961771494056145 204 8 547 4 5.68563370061389 .0002400375340791955 .01207126781
186548 -.000240037534079196 5.98831878748708 .00803822850594386 -.00707126781186
548 -.00803822850594386 14 555 1911 557 ?558 518 559 5 543 +0 0 558 518 28 51 55
0 2084 0 518 543 560 561 --.0225 -.01375 .01 0 0 -1 .005 -1 0 0 141 556 536 556
 556 543 14 518 1907 562 ?555 515 563 5 550 +0 0 555 515 28 51 560 2078 0 564 55
0 565 566 -.0225 -.01375 .01 0 0 -1 .005 -1 0 0 141 561 542 561 561 550 14 564 1
812 567 ?521 558 568 5 560 +0 0 521 558 28 50 565 2077 0 558 560 569 570 +.0275
 -.00875 .01 3469446951953615e-31 -1 0 1 3469446951953615e-31 0 141 566 549 566
 566 560 38 549 1466 0 571 542 572 0 +6 560 573 574 575 576 16 571 1464 0 ?199 5
77 548 549 0 0 1 38 572 1469 0 577 549 578 0 +6 565 579 580 581 582 40 10 573 0
 1 10 .000336744619670198 .3716351710676535 ??.0225002 -.00875000000399998 .0070
0687532395811 .0208497428487291 -.00903018524360548 .00761304735911152 .01933220
33171757 -.00988152947842595 .00801936739637437 .0182585497947328 -.011102340626
8481 .00812348360604758 .01766848214780805 -.0124629742644568 .00796847167407433
 .0175026730605902 -.01391347311904126 .00760578636644858 .017789734048656 -.015
4273177002611 .00705168245347322 .01860653063759275 -.0168870202938451 .00633474
274822845 .01996675772864485 -.0180607636904172 .00553474490097714 .021149786761
6067 -.0185642418105936 .0049998 41 1 574 L?.0225002 -.00875000000399998 .007006
87532395811 41 1 575 L?.0211497867616067 -.0185642418105936 .0049998 204 40 576
 4 3.57821640724815 .002993124676041885 1.5708363267949 .002993124676041885 3.61
878044295412 .002386952640888475 1.234438268820082 .002386952640888475 3.6832362
54955445 .001980632603625625 .884651287815242 .001980632603625625 3.754936673921
025 .00187651639395242 .558048624345346 .00187651639395242 3.819026137912505 .00
2031528325925675 .2603358993086795 .002031528325925675 3.871593420985575 .002394
21363355142 6.25048485581109 .002394213633551415 3.90947851008623 .0029483175465
2678 5.941088067208 .00294831754652678 3.92780947279955 .003665257251771555 5.60
497030325735 .003665257251771555 3.92306917398462 .004465255099022855 5.24368189
504309 .004465255099022855 3.906842464020665 .0050002 4.98582630482233 .0050002
 16 577 1467 0 ?187 583 571 572 0 0 1 38 578 1478 0 583 572 21 0 +6 569 584 585
 586 587 40 2 579 0 1 2 .000687909872390672 .0501385341533255 ??.034571267811865
5 -.00875 .001961771494056135 .01542873218813455 -.00875 .00975996246592079 41 1
 580 L?.0345712678118655 -.00875 .001961771494056135 41 1 581 L?.015428732188134
55 -.00875 .00975996246592079 204 8 582 4 3.4364591732823 .00803822850594386 .00
707126781186547 -.00803822850594386 3.73914426015549 .000240037534079208 -.01207
126781186548 -.000240037534079208 16 583 1476 0 ?178 30 577 578 0 0 1 38 21 1480
 0 30 578 7 0 +6 522 588 589 590 591 50 569 2073 0 592 565 522 593 +.0275 .00875
 .01 -693889390390723e-30 1 0 -1 -693889390390723e-30 0 40 3 584 0 1 3 .00029174
48904783775 .02496917932814865 ??.01542873218813455 .00875 .0105279351090663 .03
17264428839237 .00875 .00358727975496458 .0345712678118655 .00875 .0023447186113
4343 41 1 585 L?.01542873218813455 .00875 .0105279351090663 41 1 586 L?.03457126
78118655 .00875 .00234471861134343 204 12 587 4 2.71566691742938 -.0005279351090
66288 .01207126781186548 .000527935109066288 ????2.94181335025706 .0076552813886
5657 -.00707126781186547 -.00765528138865657 14 592 1713 594 ?0 595 596 5 569 +0
 0 0 595 28 51 522 2072 0 595 569 22 597 -.0225 .01375 .01 0 0 -1 .005 -1 0 0 14
1 593 578 593 593 569 14 595 1709 598 ?592 521 599 5 522 +0 0 592 521 28 141 597
 21 597 597 522 81 1 598 2746 600 595 601 0 594 602 603 14 521 1701 602 ?595 564
 604 5 22 +0 0 595 564 28 15 599 1712 0 175 595 0 13 28 62 0 0 0 0 0 0 9 16 17 1
75 0 599 249 172 173 282 30 0 605 +17 249 0 599 606 175 247 605 607 0 608 +17 17
2 0 599 175 606 168 609 610 0 282 -17 282 0 276 269 611 168 175 30 0 268 -16 30
 1479 0 ?175 10 583 21 0 0 1 17 605 0 596 178 612 173 249 607 0 611 -15 596 1716
 0 178 592 0 17 178 0 596 245 605 176 611 583 0 613 +17 612 0 596 605 245 247 35
 614 0 0 -16 607 1644 0 ?249 610 615 616 0 0 1 17 611 0 276 282 281 173 178 583
 0 0 -17 281 0 276 611 617 176 29 10 0 0 -17 617 0 276 281 618 11 34 474 0 0 -17
 29 0 604 36 613 11 281 10 0 617 +15 604 1704 0 29 521 0 17 36 0 604 613 29 243
 31 37 0 0 -17 613 0 604 29 36 176 245 615 0 281 -17 245 0 596 612 178 243 613 6
15 0 35 +16 615 1633 0 ?245 607 614 619 0 0 1 16 614 1645 0 ?35 615 620 621 0 0
 1 30 619 2125 0 615 621 616 0 +.0275 .00875 .01 0 0 -1 30 621 2126 0 614 622 61
9 0 +.0275 .00875 .005 1 693889390390723e-30 0 30 616 2124 0 607 619 623 0 +.022
5 .00875 .01 0 0 -1 30 623 2123 0 610 616 624 0 +.0225 .01875 .01 0 0 -1 16 610
 1640 0 ?609 625 607 623 0 0 1 31 624 2117 0 626 623 627 0 +-.0275 .01375 .005 0
 0 1 1 0 0 .005 16 626 1944 0 ?628 629 630 624 0 0 1 30 627 2116 0 629 624 631 0
 +-.0275 .00875 .005 1 0 0 16 629 1948 0 ?632 633 626 627 0 0 1 31 631 2115 0 63
3 627 634 0 +-.0225 .01375 .005 0 0 1 1 0 0 .005 16 633 1952 0 ?635 275 629 631
 0 0 1 30 634 2112 0 275 631 636 0 +-.0225 .01875 .01 0 0 -1 16 275 1955 0 ?274
 637 633 634 0 0 1 30 636 2111 0 637 634 638 0 +-.0225 .00875 .01 0 0 -1 16 637
 1951 0 ?238 639 275 636 0 0 1 30 638 2110 0 639 636 640 0 +-.0275 .00875 .01 0
 0 -1 16 639 1947 0 ?241 641 637 638 0 0 1 31 640 2107 0 641 638 642 0 +-.0225 .
01375 .005 0 0 1 1 0 0 .00175 16 641 1960 0 ?643 644 639 640 0 0 1 31 642 2101 0
 644 640 645 0 +-.0225 -.01375 .005 0 0 1 1 0 0 .00175 16 644 1853 0 ?646 647 64
1 642 0 0 1 31 645 2096 0 647 642 648 0 +.0225 -.01375 .005 0 0 1 1 0 0 .00175 1
6 647 1754 0 ?649 650 644 645 0 0 1 31 648 2089 0 650 645 292 0 +.0225 .01375 .0
05 0 0 1 1 0 0 .00175 16 650 1648 0 ?651 291 647 648 0 0 1 31 292 939 0 285 648
 293 0 +-865283333737451e-32 .00175 .01 0 0 1 1 0 0 .011 17 651 0 652 140 653 17
9 654 650 0 655 +16 291 895 0 ?656 285 650 293 0 0 1 17 656 0 657 656 656 0 658
 291 0 0 +15 657 882 0 656 659 0 17 658 0 660 658 658 0 656 291 0 0 -15 660 929
 0 658 532 0 14 532 925 661 ?527 263 662 5 529 +0 0 527 263 28 81 1 661 2748 600
 532 663 0 602 664 665 14 263 912 664 ?532 666 259 5 534 +0 0 532 666 28 15 662
 928 0 290 532 660 17 290 0 662 290 290 0 667 285 0 0 +17 667 0 264 667 667 0 29
0 285 0 0 -15 264 915 0 667 263 0 81 1 664 2749 600 263 668 0 661 669 670 14 666
 717 669 ?263 671 672 5 673 +0 0 263 671 28 50 534 934 0 263 529 674 0 +-8652833
33737451e-32 .00175 .01 0 0 1 1 0 0 50 674 736 0 675 534 673 0 +.0225 -.012 .005
 0 -1 0 0 0 -1 14 675 1491 676 ?18 677 678 5 674 +0 0 18 677 28 51 673 735 0 666
 674 679 0 -.0275 -.01375 .005 0 0 -1 .00175 -1 0 0 50 679 734 0 677 673 680 0 +
.0225 -.0155 .005 0 1 0 0 0 1 14 677 1498 681 ?675 682 683 5 679 +0 0 675 682 28
 51 680 733 0 682 679 684 0 -.0225 -.01375 .005 0 0 -1 .00175 -1 0 0 14 682 1502
 685 ?677 686 687 5 680 +0 0 677 686 28 50 684 606 0 686 680 688 0 +-.0275 -.012
 .005 0 -1 0 0 0 -1 14 686 1509 689 ?682 690 691 5 684 +0 0 682 690 28 51 688 60
5 0 690 684 692 0 --.0225 -.01375 .005 0 0 -1 .00175 -1 0 0 14 690 1516 693 ?686
 694 695 5 688 +0 0 686 694 28 50 692 604 0 694 688 696 0 +-.0275 -.0155 .005 0
 1 0 0 0 1 14 694 1520 697 ?690 698 699 5 692 +0 0 690 698 28 51 696 603 0 671 6
92 700 0 --.0275 -.01375 .005 0 0 -1 .00175 -1 0 0 14 671 579 701 ?666 702 703 5
 696 +0 0 666 702 28 50 700 476 0 698 696 704 0 +.0225 .0155 .005 0 -1 0 0 0 -1
 14 698 1527 705 ?694 706 707 5 700 +0 0 694 706 28 51 704 475 0 702 700 708 0 -
.0275 .01375 .005 0 0 -1 .00175 -1 0 0 14 702 457 709 ?671 710 711 5 704 +0 0 67
1 710 28 50 708 474 0 706 704 712 0 +.0225 .012 .005 0 1 0 0 0 1 14 706 1534 713
 ?698 714 715 5 708 +0 0 698 714 28 51 712 473 0 714 708 716 0 -.0225 .01375 .00
5 0 0 -1 .00175 -1 0 0 14 714 1538 717 ?706 718 652 5 712 +0 0 706 718 28 50 716
 346 0 718 712 719 0 +-.0275 .0155 .005 -3469446951953615e-31 -1 0 1 -3469446951
953615e-31 0 14 718 1545 720 ?714 721 722 5 716 +0 0 714 721 28 51 719 345 0 721
 716 723 0 --.0225 .01375 .005 0 0 -1 .00175 -1 0 0 14 721 1552 724 ?718 491 725
 5 719 +0 0 718 491 28 50 723 344 0 491 719 726 0 +-.0275 .012 .005 -34694469519
53615e-31 1 0 -1 -3469446951953615e-31 0 14 491 1556 727 ?721 16 728 5 723 +0 0
 721 16 28 51 726 343 0 710 723 729 0 --.0275 .01375 .005 0 0 -1 .00175 -1 0 0 1
4 710 319 730 ?702 731 732 5 726 +0 0 702 731 28 51 729 236 0 731 726 493 0 --86
5283333737451e-32 .00175 .005 0 0 -1 .007 -1 0 0 14 731 223 733 ?710 494 734 5 7
29 +0 0 710 494 28 50 493 3 0 735 729 487 0 +0 0 .005 0 0 -1 -1 0 0 14 735 670 7
36 ?492 659 737 5 493 -738 659 492 659 28 81 1 736 2767 600 735 739 0 733 740 74
1 14 492 650 740 ?742 735 743 5 487 +0 0 742 735 28 14 659 884 744 ?735 738 745
 5 493 -735 738 735 738 28 15 737 2332 0 45 735 746 14 738 1080 747 ?659 18 33 5
 493 -659 735 659 18 28 81 1 747 2770 600 738 748 0 744 749 750 14 18 1484 749 ?
738 675 276 5 6 -0 0 738 675 28 15 33 2329 0 41 738 751 17 41 0 33 38 752 197 75
3 754 0 42 +15 751 408 0 190 738 755 17 190 0 751 756 757 188 170 295 0 649 -15
 755 2331 0 654 738 0 17 654 0 755 758 181 182 651 650 0 653 -17 758 0 755 759 6
54 60 184 353 0 0 -17 181 0 755 654 759 179 143 347 0 651 -17 653 0 652 651 760
 182 65 355 0 0 -15 652 452 0 653 714 0 17 760 0 652 653 140 63 357 346 0 365 -1
7 65 0 707 761 184 63 653 355 0 760 +15 707 464 0 184 698 0 17 761 0 707 62 65 1
32 365 350 0 363 -17 184 0 707 65 62 182 758 353 0 654 +17 62 0 707 184 761 60 1
34 367 0 352 -17 134 0 711 762 352 132 62 367 0 761 +17 352 0 711 134 763 60 759
 349 0 758 +15 711 460 0 762 702 0 17 763 0 711 352 762 127 137 369 0 759 -17 75
9 0 755 181 758 127 352 349 0 0 -17 762 0 711 763 134 135 363 361 0 360 -17 137
 0 715 764 143 135 763 369 0 762 +15 715 456 0 655 706 0 17 764 0 715 655 137 13
8 360 358 0 357 -17 143 0 715 137 655 127 181 347 0 763 +17 655 0 715 143 764 17
9 140 371 0 0 -17 140 0 652 760 651 138 655 371 0 764 +17 360 0 765 363 357 135
 764 358 0 0 +17 357 0 765 360 365 138 760 346 0 0 +15 765 373 0 365 492 766 17
 365 0 765 357 363 63 761 350 0 0 +17 363 0 765 365 360 132 762 361 0 0 +15 766
 503 0 336 492 767 17 336 0 766 328 334 57 768 322 0 0 +15 767 633 0 310 492 0 1
7 310 0 767 287 308 54 769 298 0 0 +17 287 0 767 305 310 165 770 284 0 0 +17 308
 0 767 310 305 159 771 306 0 0 +17 769 0 678 53 56 159 310 298 0 308 -15 678 724
 0 193 675 0 17 53 0 678 193 769 51 161 312 0 300 -17 56 0 678 769 193 54 772 30
2 0 770 +17 193 0 678 56 53 191 773 301 0 756 +17 772 0 687 649 770 191 56 302 0
 0 -17 770 0 687 772 167 54 287 284 0 310 -15 687 712 0 772 682 0 17 167 0 687 7
70 649 165 774 316 0 775 +17 649 0 687 167 772 188 756 647 0 774 +17 774 0 683 1
70 775 188 167 316 0 0 -17 775 0 683 774 164 165 305 288 0 287 -15 683 716 0 774
 677 0 17 164 0 683 775 170 162 776 314 0 771 +17 305 0 767 308 287 162 775 288
 0 0 +17 170 0 683 164 774 154 190 295 0 776 +17 776 0 672 300 771 154 164 314 0
 757 -17 771 0 672 776 161 162 308 306 0 305 -15 672 720 0 771 666 0 17 161 0 67
2 771 300 159 53 312 0 769 +17 300 0 672 161 776 51 757 297 0 773 +17 757 0 751
 190 773 154 300 297 0 0 -17 773 0 751 757 756 51 193 301 0 0 -17 756 0 751 773
 190 191 649 647 0 772 -17 328 0 766 331 336 151 59 318 0 0 +17 334 0 766 336 33
1 144 777 332 0 0 +17 768 0 691 778 338 144 336 322 0 334 -15 691 594 0 778 686
 0 17 778 0 691 156 768 203 146 339 0 0 -17 338 0 691 768 156 57 779 326 0 336 +
17 156 0 691 338 778 141 205 324 0 779 +17 779 0 703 158 59 141 338 326 0 780 -1
5 703 582 0 59 671 0 17 158 0 703 345 779 147 780 319 0 781 +17 59 0 703 779 345
 57 328 318 0 338 -17 780 0 782 205 783 141 158 319 0 0 -15 782 1595 0 205 735 0
 17 205 0 782 784 780 203 156 324 0 646 -17 783 0 782 780 784 147 208 321 0 0 -1
7 784 0 782 783 205 206 646 644 0 785 -17 208 0 699 150 781 206 783 321 0 784 +1
5 699 586 0 208 694 0 17 150 0 699 153 208 148 785 341 0 777 +17 781 0 699 208 1
53 147 345 343 0 783 -17 153 0 699 781 150 151 331 329 0 345 -17 345 0 703 59 15
8 151 781 343 0 328 +17 331 0 766 334 328 148 153 329 0 0 +17 785 0 695 646 777
 206 150 341 0 0 -17 777 0 695 785 146 148 334 332 0 331 -15 695 590 0 785 690 0
 17 146 0 695 777 646 144 778 339 0 768 +17 646 0 695 146 785 203 784 644 0 778
 +17 752 0 33 41 34 246 196 625 0 753 +17 753 0 568 786 199 246 41 754 0 0 -16 7
54 1750 0 ?41 787 625 788 0 0 1 17 42 0 276 789 790 197 38 43 0 0 -17 789 0 276
 618 42 185 199 571 0 0 -17 790 0 276 42 791 32 792 279 0 0 -17 791 0 276 790 79
3 39 472 470 0 0 -17 792 0 794 795 44 39 790 279 0 791 +16 279 1119 0 ?792 273 2
83 476 0 0 1 15 794 159 0 85 796 0 17 795 0 794 460 792 109 45 417 0 0 -17 44 0
 794 792 797 32 40 416 0 790 -17 797 0 794 44 85 107 457 455 0 798 -17 40 0 33 1
06 38 107 44 416 0 797 +16 416 1044 0 ?40 417 414 415 417 417 1 17 106 0 33 103
 40 104 798 419 0 799 +17 103 0 33 100 106 101 800 421 0 801 +17 798 0 802 457 7
99 107 106 419 0 0 -17 799 0 802 798 82 104 454 452 0 800 -15 802 157 0 82 803 0
 17 82 0 802 799 457 80 804 437 0 454 +17 454 0 805 79 800 80 799 452 0 806 +17
 800 0 805 454 801 104 103 421 0 0 -15 805 155 0 79 807 0 17 801 0 805 800 79 10
1 451 449 0 808 -17 79 0 805 801 454 77 806 439 0 451 +17 451 0 809 76 808 77 80
1 449 0 810 +17 808 0 809 451 811 101 100 423 0 0 -15 809 153 0 76 494 0 17 811
 0 809 808 76 98 448 446 0 812 -17 100 0 33 252 103 98 808 423 0 811 +17 252 0 3
3 608 100 250 812 426 0 606 +17 608 0 33 35 252 247 606 620 0 612 +17 812 0 267
 448 609 98 252 426 0 0 -17 606 0 599 172 249 250 608 620 0 609 -16 620 1641 0 ?
608 614 37 622 0 0 1 17 609 0 267 812 268 250 172 610 0 0 +17 268 0 267 609 50 1
68 269 283 0 0 +16 37 1634 0 ?31 620 261 813 0 0 1 31 622 2127 0 620 813 621 0 +
.0225 .01375 .005 0 0 1 1 0 0 .005 31 813 2129 0 37 814 622 0 +.0275 .01375 .005
 0 0 1 1 0 0 .005 30 814 2135 0 787 788 813 0 +.0225 -.00875 .01 0 0 -1 16 787 1
749 0 ?255 815 754 814 0 0 1 31 788 2139 0 754 816 814 0 +.0225 -.01375 .005 0 0
 1 1 0 0 .005 30 816 2140 0 625 817 788 0 +.0275 -.00875 .005 -1 -34694469519536
15e-31 0 16 625 1746 0 ?752 754 610 816 0 0 1 30 817 2148 0 630 818 816 0 +-.022
5 -.00875 .01 0 0 -1 16 630 1848 0 ?257 626 819 817 0 0 1 30 818 2150 0 819 820
 817 0 +-.0275 -.00875 .005 -1 -346944695195361e-30 0 16 819 1849 0 ?821 630 815
 818 0 0 1 31 820 2151 0 815 270 818 0 +-.0225 -.01375 .005 0 0 1 1 0 0 .005 16
 815 1845 0 ?822 819 787 820 0 0 1 30 270 2499 0 261 0 820 0 +.00628614548034007
 .01875 .01 -1 0 0 17 822 0 737 821 472 242 211 815 0 823 +17 821 0 737 469 822
 212 823 819 0 824 +17 472 0 737 822 45 209 791 470 0 0 +17 211 0 563 202 257 20
9 822 815 0 793 -17 823 0 559 825 214 242 821 819 0 0 -15 559 1914 0 214 555 0 1
7 825 0 559 214 823 200 257 630 0 826 -17 214 0 559 823 825 212 826 541 0 821 +1
7 826 0 276 793 824 200 214 541 0 0 -17 793 0 276 791 826 209 202 548 0 472 -17
 824 0 276 826 827 212 469 467 0 0 -17 827 0 276 824 828 230 217 535 0 469 -17 4
69 0 737 628 821 230 824 467 0 0 +17 628 0 737 632 469 239 232 626 0 829 +17 632
 0 737 635 628 236 829 629 0 830 +17 232 0 533 217 241 230 628 626 0 827 -17 829
 0 528 831 238 239 632 629 0 0 -15 528 2019 0 220 519 0 17 831 0 528 220 829 215
 241 639 0 828 -17 238 0 528 829 220 236 832 637 0 632 +17 220 0 528 238 831 218
 828 508 0 832 +17 832 0 520 223 830 218 238 637 0 277 -15 520 2023 0 223 515 0
 17 223 0 520 274 832 221 277 278 0 271 +17 830 0 520 832 274 236 635 633 0 0 -1
7 277 0 276 828 272 218 223 278 0 0 -17 828 0 276 827 277 215 220 508 0 0 -16 50
8 1446 0 ?220 535 278 502 0 0 1 17 274 0 520 830 223 233 271 275 0 635 +17 635 0
 737 97 632 233 830 633 0 0 +17 97 0 737 410 635 69 235 425 0 833 +17 410 0 737
 114 97 73 834 408 0 835 +17 235 0 267 271 833 233 97 425 0 274 -16 425 1038 0 ?
97 426 423 424 426 426 1 17 833 0 267 235 72 69 445 428 0 834 -17 72 0 267 833 4
48 70 836 412 0 445 +17 445 0 837 430 834 70 833 428 0 838 +17 834 0 837 445 835
 69 410 408 0 0 -15 837 165 0 430 742 0 17 835 0 837 834 430 73 466 464 0 0 -17
 430 0 837 835 445 92 838 405 0 0 +17 466 0 839 91 116 92 835 464 0 430 +15 839
 163 0 91 840 0 17 91 0 839 841 466 89 94 431 0 463 +17 116 0 839 466 841 73 114
 411 0 410 -17 841 0 839 116 91 112 463 461 0 842 -17 114 0 737 111 410 112 116
 411 0 841 +17 111 0 737 45 114 109 842 414 0 843 +17 45 0 737 472 111 39 795 41
7 0 792 +17 842 0 844 463 843 112 111 414 0 0 -17 843 0 844 842 88 109 460 458 0
 795 -15 844 161 0 88 845 0 17 88 0 844 843 463 86 846 433 0 460 +17 460 0 794 8
5 795 86 843 458 0 847 +17 85 0 794 797 460 83 847 435 0 457 +17 847 0 743 846 8
04 86 85 435 0 0 -15 743 85 0 838 492 848 17 846 0 743 94 847 89 88 433 0 0 -17
 804 0 743 847 806 83 82 437 0 0 -17 806 0 743 804 810 80 79 439 0 0 -17 810 0 7
43 806 836 77 76 441 0 0 -17 836 0 743 810 838 74 72 412 0 0 -17 76 0 809 811 45
1 74 810 441 0 448 +17 448 0 267 72 812 74 811 446 0 836 +17 838 0 743 836 94 70
 430 405 0 0 -17 94 0 743 838 846 92 91 431 0 466 -15 848 205 0 407 492 849 17 4
07 0 848 407 407 0 850 401 0 0 +15 849 243 0 391 492 765 17 391 0 849 383 389 66
 851 377 0 0 +17 383 0 849 386 391 124 68 373 0 0 +17 389 0 849 391 386 117 852
 387 0 0 +17 851 0 722 853 393 117 391 377 0 389 -15 722 334 0 853 718 0 17 853
 0 722 129 851 224 119 394 0 0 -17 393 0 722 851 129 66 854 381 0 391 +17 129 0
 722 393 853 95 226 379 0 854 +17 854 0 732 131 68 95 393 381 0 855 -15 732 322
 0 68 710 0 17 131 0 732 400 854 120 855 374 0 856 +17 68 0 732 854 400 66 383 3
73 0 393 -17 855 0 746 226 857 95 131 374 0 0 -15 746 538 0 226 735 782 17 226 0
 746 858 855 224 129 379 0 643 -17 857 0 746 855 858 120 229 376 0 0 -17 858 0 7
46 857 226 227 643 641 0 859 -17 229 0 728 123 856 227 857 376 0 858 +15 728 326
 0 229 491 0 17 123 0 728 126 229 121 859 396 0 852 +17 856 0 728 229 126 120 40
0 398 0 857 -17 126 0 728 856 123 124 386 384 0 400 -17 400 0 732 68 131 124 856
 398 0 383 +17 386 0 849 389 383 121 126 384 0 0 +17 859 0 725 643 852 227 123 3
96 0 0 -17 852 0 725 859 119 121 389 387 0 386 -15 725 330 0 859 721 0 17 119 0
 725 852 643 117 853 394 0 851 +17 643 0 725 119 859 224 858 641 0 853 +17 850 0
 860 850 850 0 407 401 0 0 -15 860 227 0 850 731 0 17 457 0 802 82 798 83 797 45
5 0 804 +17 463 0 844 88 842 89 841 461 0 846 +14 845 162 861 ?796 840 844 5 862
 -0 0 796 840 28 81 1 861 2772 600 845 863 0 749 864 865 14 796 160 864 ?803 845
 794 5 482 -0 0 803 845 28 14 840 164 866 ?845 742 839 5 867 -0 0 845 742 28 50
 862 172 0 845 482 867 0 +-.03 -.01875 .005 .707106781186548 .707106781186548 0
 -.707106781186548 .707106781186548 0 50 482 171 0 796 868 862 869 +.03 -.01875
 .005 -1734723475976805e-31 1 0 -1 -1734723475976805e-31 0 50 867 173 0 840 862
 19 0 +-.033 .01575 .005 1 220282346155785e-30 0 -220282346155785e-30 1 0 50 19
 174 0 742 867 6 0 +-.03 .01875 .005 .707106781186548 -.707106781186548 0 .70710
6781186548 .707106781186548 0 14 742 166 870 ?840 492 837 5 19 -0 0 840 492 28 8
1 1 870 2775 600 742 871 0 866 872 873 80 255 1 600 874 875 9000 1 1 1 1 1 1 1 1
 0 FFFFTFTFFFFFFF1 81 1 871 2624 876 742 0 870 877 878 879 81 1 866 2774 600 840
 878 0 864 870 880 81 1 872 2776 600 803 881 0 870 882 883 82 255 1 873 -3777493
99 14 803 158 872 ?807 796 802 5 868 -0 0 807 796 28 81 1 881 2628 876 803 0 872
 884 885 886 81 1 882 2777 600 807 885 0 872 887 888 82 1 883 -378797975 14 807
 156 882 ?494 803 805 5 495 -0 0 494 803 28 81 1 885 2629 876 807 0 882 881 889
 890 81 1 887 2778 600 494 889 0 882 891 892 82 1 888 -379060119 14 494 154 887
 ?731 807 809 5 488 -0 0 731 807 28 81 1 889 2630 876 494 0 887 885 893 894 81 1
 891 2779 600 558 895 0 887 0 896 82 1 892 -379322263 14 558 1808 891 ?564 555 8
97 5 565 +0 0 564 555 28 81 1 895 2643 876 558 0 891 898 899 900 82 1 896 497614
978 80 1 876 0 901 8001 0 0 0 0 3 5 0 0 0 FFFFTFTFFFFFFF2 81 1 898 2642 876 555
 0 557 902 895 903 81 1 899 2644 876 564 0 567 895 904 905 83 255 3 900 .6941176
47058824 .0980392156862745 .0980392156862745 81 1 567 2744 600 564 899 0 562 594
 906 81 1 904 2645 876 521 0 602 899 601 907 83 3 905 .694117647058824 .09803921
56862745 .0980392156862745 81 1 602 2747 600 521 904 0 598 661 908 81 1 601 2646
 876 595 0 598 904 909 910 83 3 907 .694117647058824 .0980392156862745 .09803921
56862745 81 1 909 2647 876 592 0 594 601 0 911 83 3 910 .694117647058824 .098039
2156862745 .0980392156862745 81 1 594 2745 600 592 909 0 567 598 912 83 3 911 .6
94117647058824 .0980392156862745 .0980392156862745 82 1 912 502726786 82 1 908 5
04496258 81 1 562 2743 600 518 902 0 557 567 913 82 1 906 497156226 81 1 902 264
1 876 518 0 562 914 898 915 81 1 557 2742 600 555 898 0 531 562 916 82 1 913 492
372098 81 1 531 2741 600 527 917 0 526 557 918 82 1 916 491913346 81 1 917 2638
 876 527 0 531 663 919 920 81 1 526 2740 600 519 919 0 517 531 921 82 1 918 4871
29218 81 1 919 2639 876 519 0 526 917 914 922 81 1 517 2739 600 515 914 0 490 52
6 923 82 1 921 486670466 81 1 914 2640 876 515 0 517 919 902 924 81 1 490 2738 6
00 16 925 0 0 517 926 82 1 923 485884034 81 1 925 2606 876 16 0 490 0 927 928 82
 1 926 514261125 81 1 927 2607 876 491 0 727 925 929 930 83 3 928 .6941176470588
24 .0980392156862745 .0980392156862745 81 1 727 2764 600 491 927 0 724 730 931 8
1 1 929 2608 876 721 0 724 927 932 933 83 3 930 .694117647058824 .09803921568627
45 .0980392156862745 81 1 724 2763 600 721 929 0 720 727 934 81 1 932 2609 876 7
18 0 720 929 935 936 83 3 933 .694117647058824 .0980392156862745 .09803921568627
45 81 1 720 2762 600 718 932 0 717 724 937 81 1 935 2610 876 714 0 717 932 938 9
39 83 3 936 .694117647058824 .0980392156862745 .0980392156862745 81 1 717 2761 6
00 714 935 0 713 720 940 81 1 938 2611 876 706 0 713 935 941 942 83 3 939 .69411
7647058824 .0980392156862745 .0980392156862745 81 1 713 2760 600 706 938 0 709 7
17 943 81 1 941 2612 876 698 0 705 938 944 945 83 3 942 .694117647058824 .098039
2156862745 .0980392156862745 81 1 705 2758 600 698 941 0 701 709 946 81 1 944 26
13 876 694 0 697 941 947 948 83 3 945 .694117647058824 .0980392156862745 .098039
2156862745 81 1 697 2756 600 694 944 0 693 701 949 81 1 947 2614 876 690 0 693 9
44 950 951 83 3 948 .694117647058824 .0980392156862745 .0980392156862745 81 1 69
3 2755 600 690 947 0 689 697 952 81 1 950 2615 876 686 0 689 947 953 954 83 3 95
1 .694117647058824 .0980392156862745 .0980392156862745 81 1 689 2754 600 686 950
 0 685 693 955 81 1 953 2616 876 682 0 685 950 956 957 83 3 954 .694117647058824
 .0980392156862745 .0980392156862745 81 1 685 2753 600 682 953 0 681 689 958 81
 1 956 2617 876 677 0 681 953 959 960 83 3 957 .694117647058824 .098039215686274
5 .0980392156862745 81 1 681 2752 600 677 956 0 676 685 961 81 1 959 2618 876 67
5 0 676 956 962 963 83 3 960 .694117647058824 .0980392156862745 .098039215686274
5 81 1 676 2751 600 675 959 0 669 681 964 81 1 962 2619 876 18 0 749 959 748 965
 83 3 963 .694117647058824 .0980392156862745 .0980392156862745 81 1 749 2771 600
 18 962 0 747 861 966 81 1 748 2620 876 738 0 747 962 967 968 83 3 965 .69411764
7058824 .0980392156862745 .0980392156862745 81 1 967 2621 876 659 0 744 748 739
 969 83 3 968 .694117647058824 .0980392156862745 .0980392156862745 81 1 744 2769
 600 659 967 0 740 747 970 81 1 739 2622 876 735 0 736 967 877 971 83 3 969 .694
117647058824 .0980392156862745 .0980392156862745 81 1 877 2623 876 492 0 740 739
 871 972 83 3 971 .694117647058824 .0980392156862745 .0980392156862745 81 1 740
 2768 600 492 877 0 736 744 973 83 3 972 .694117647058824 .0980392156862745 .098
0392156862745 82 1 973 -358678395 82 1 970 -1424949140 82 1 966 480313477 81 1 6
69 2750 600 666 974 0 664 676 975 82 1 964 505282690 81 1 974 2635 876 666 0 669
 976 668 977 82 1 975 -398327703 81 1 976 2634 876 671 0 701 978 974 979 81 1 66
8 2636 876 263 0 664 974 663 980 83 3 977 .694117647058824 .0980392156862745 .09
80392156862745 81 1 663 2637 876 532 0 661 668 917 981 83 3 980 .694117647058824
 .0980392156862745 .0980392156862745 83 3 981 .694117647058824 .0980392156862745
 .0980392156862745 81 1 701 2757 600 671 976 0 697 705 982 81 1 978 2633 876 702
 0 709 983 976 984 83 3 979 .694117647058824 .0980392156862745 .0980392156862745
 81 1 709 2759 600 702 978 0 705 713 985 81 1 983 2632 876 710 0 730 893 978 986
 83 3 984 .694117647058824 .0980392156862745 .0980392156862745 81 1 730 2765 600
 710 983 0 727 733 987 81 1 893 2631 876 731 0 733 889 983 988 83 3 986 .6941176
47058824 .0980392156862745 .0980392156862745 81 1 733 2766 600 731 893 0 730 736
 989 83 3 988 .694117647058824 .0980392156862745 .0980392156862745 82 1 989 -443
809687 82 1 987 -432799639 82 1 985 -421658519 82 1 982 -409468823 82 1 961 5060
03586 82 1 958 506396802 82 1 955 507117698 82 1 952 507838594 82 1 949 50823181
0 82 1 946 508952706 82 1 943 509673602 82 1 940 510066818 82 1 937 510787714 82
 1 934 511508610 82 1 931 511901826 83 3 924 .694117647058824 .0980392156862745
 .0980392156862745 83 3 922 .694117647058824 .0980392156862745 .0980392156862745
 83 3 920 .694117647058824 .0980392156862745 .0980392156862745 83 3 915 .6941176
47058824 .0980392156862745 .0980392156862745 83 3 903 .694117647058824 .09803921
56862745 .0980392156862745 79 255 15 901 SDL/TYSA_COLOUR15 897 1811 0 187 558 0
 17 187 0 897 255 196 185 618 577 0 786 +17 255 0 897 196 187 246 786 787 0 752
 +17 196 0 897 187 255 194 752 625 0 618 -17 618 0 276 617 789 194 187 577 0 34
 -17 786 0 568 199 753 185 255 787 0 789 -15 568 1815 0 199 564 0 17 199 0 568 7
53 786 197 789 571 0 41 +17 34 0 33 752 31 194 617 474 0 0 +83 3 894 .6941176470
58824 .0980392156862745 .0980392156862745 83 3 890 .694117647058824 .09803921568
62745 .0980392156862745 50 495 169 0 807 488 868 0 +.033 .01575 .005 -1 0 0 0 0
 1 50 868 170 0 803 495 482 0 +.033 -.01575 .005 -.707106781186548 .707106781186
548 0 -.707106781186548 -.707106781186548 0 81 1 884 2627 876 796 0 864 863 881
 990 83 3 886 .694117647058824 .0980392156862745 .0980392156862745 81 1 864 2773
 600 796 884 0 861 866 991 81 1 863 2626 876 845 0 861 878 884 992 83 3 990 .694
117647058824 .0980392156862745 .0980392156862745 81 1 878 2625 876 840 0 866 871
 863 993 83 3 992 .694117647058824 .0980392156862745 .0980392156862745 83 3 993
 .694117647058824 .0980392156862745 .0980392156862745 82 1 991 -378535806 82 1 8
80 -378011543 83 3 879 .694117647058824 .0980392156862745 .0980392156862745 79 1
4 875 SWEntUnchanged141 869 476 869 869 482 82 1 865 -378273687 17 241 0 533 232
 217 239 831 639 0 628 +15 533 2015 0 217 527 0 17 217 0 533 241 232 215 827 535
 0 831 +17 202 0 563 257 211 200 793 548 0 825 +16 548 1458 0 ?202 571 541 542 0
 0 1 15 563 1910 0 202 518 0 17 257 0 563 211 202 242 825 630 0 822 +17 35 0 33
 31 608 243 612 614 0 36 +82 1 750 -838926206 15 745 212 0 994 659 657 17 994 0
 745 994 994 0 404 402 0 0 -17 404 0 734 404 404 0 994 402 0 0 +15 734 226 0 404
 731 860 82 1 741 -356843390 82 1 670 -1427177339 82 1 665 -1433534356 82 1 603
 503513218 40 11 588 0 1 11 .0003701920620298505 .386293082245811 ??.0225002 .01
8749999996 .00550208175191144 .0207376817016383 .01842912750577065 .006210773268
57943 .01922584342670935 .01752887532654595 .00698803996107276 .0180845445490806
 .0160960079200519 .0077862802436 .01753155498316085 .01431085124110262 .0084634
4548575779 .01765288935348755 .01252300432744624 .00885916209870845 .01829345156
38088 .0110472328524312 .00893060223664247 .01926005722045445 .00994174964251683
 .00874787806421156 .0204985609869008 .00916805261086027 .00835959507261457 .022
00208652041005 .00877485355322654 .0077806570306301 .0225002 .00875000000399967
 .00757190432655596 41 1 589 L?.0225002 .018749999996 .00550208175191144 41 1 59
0 L?.0225002 .00875000000399967 .00757190432655596 204 44 591 4 2.49454973584355
 .00449791824808856 1.57083632679491 .004497918248088565 ??1.210593918142622 .00
3789226731420575 ??.856836923072789 .00301196003892724 ??.488386445530283 .00221
3719756400005 2.51989762991033 .00153655451424221 .112406814201478 .001536554514
242205 ??6.03525391192877 .00114083790129155 ??5.71209051767005 .001069397763357
532 ??5.41732953737662 .001252121935788444 ??5.12421986638075 .00164040492738543
 ??4.81213700399009 .002219342969369895 2.839976128527805 .002428095673444045 4.
71234898038469 .00242809567344404 141 570 572 570 570 565 40 10 551 0 1 10 .0003
71510909340408 .380758634963334 ??-.0211497867616067 -.0185642418105936 .0049998
 -.01951935559140235 -.01776444378581835 .00576961408320059 -.0182911254924421 -
.01644914345295485 .00657250062769238 -.01759567004271935 -.01472342060288418 .0
0733100383447632 -.01757689280174045 -.01287649240733392 .00788321384502092 -.01
815810555853065 -.01127049346459066 .00811656069855182 -.0191117016809907 -.0100
731216363063 .00805885291177435 -.0203130180722235 -.00925365592424477 .00777815
647052168 -.02174343710485495 -.00880757017392358 .00730087342613003 -.0225002 -
.00875000000399999 .00700687532395812 41 1 552 L?-.0211497867616067 -.0185642418
105936 .0049998 41 1 553 L?-.0225002 -.00875000000399999 .00700687532395812 204
 40 554 4 5.51793549674871 .0050002 4.438951655947055 .0050002 5.49791297845969
 .004230385916799415 4.073718039295685 .004230385916799415 5.5003078663563 .0034
27499372307615 3.7118262399455 .003427499372307615 5.5307156363329 .002668996165
52368 3.33752805208948 .002668996165523675 5.58914979631287 .00211678615497908 2
.96599003695919 .00211678615497908 5.66109966532384 .00188343930144818 2.6227202
1003191 .00188343930144818 5.72917790752939 .00194114708822565 2.31537177136293
 .00194114708822565 5.78673320328607 .00222184352947832 2.023497697541445 .00222
1843529478325 5.83116273125945 .00269912657386997 1.72269233318453 .002699126573
86997 5.84656155352123 .00299312467604188 1.57075632679489 .00299312467604188 14
1 523 7 523 523 22 40 2 511 0 1 2 .0003714286863949655 .0263175474729504 ??-.034
5712678118655 .00875 .00234471861134344 -.0154287321881345 .00875 .0105279351090
663 41 1 512 L?-.0345712678118655 .00875 .00234471861134344 41 1 513 L?-.0154287
321881345 .00875 .0105279351090663 204 8 514 4 .1997793033327325 .00765528138865
656 -.00765528138865656 -.00707126781186548 .425925736160414 -.0005279351090663
 .0005279351090663 .0120712678118655 40 3 483 0 1 3 .00404049690050581 .31378099
2700314 ??.0209691589006331 -.01875 .005 .000219626737358623 -.01875 .0089392069
4120509 -.0209691589006331 -.01875 .005 41 1 484 L?.0209691589006331 -.01875 .00
5 41 1 485 L?-.0209691589006331 -.01875 .005 204 12 486 4 .00903084109936691 0 3
.915677858197965 .005 ??4.70167589086828 .001060793058794904 .0509691589006331 1
734723475976805e-33 5.50910010257141 .005 19 17 184 0 1 0 9 5 S0 40 2 23 0 1 2 9
2564998864199e-18 .176288740340641 ??.0274998 .00875000000400001 .00542333329066
06 .02845496153495665 .00884204233242042 .0049998 41 1 24 L?.0274998 .0087500000
0400001 .0054233332906606 41 1 25 L?.02845496153495665 .00884204233242042 .00499
98 204 8 26 4 2.8923387734656 .0045766667093394 4.71242898038471 .00457666670933
94 2.89733180400025 .0050002 4.52021601667246 .0050002 141 20 475 995 996 6 141
 995 7 997 20 6 141 996 476 20 998 6 141 998 280 996 999 6 141 999 497 998 1000
 6 141 1000 502 999 1001 6 141 1001 509 1000 1002 6 141 1002 536 1001 1003 6 141
 1003 542 1002 1004 6 141 1004 549 1003 1005 6 141 1005 572 1004 1006 6 141 1006
 578 1005 997 6 141 997 21 1006 995 6 74 4 CI16 index_map_offset0 0 1 dCCZ20 15
 9 0 0 891 1007 1008 1009 1010 1011 909 13 2 0 0 0 0 0 0 0 0 0 0 0 81 2 1007 948
 1012 1 0 1008 0 0 0 1013 81 2 1008 954 1014 1 1007 1009 0 0 0 1015 81 2 1009 23
93 1016 1 1008 1010 0 0 0 0 81 1 1010 2519 1017 1 1009 1011 0 0 1018 81 2 1011 2
562 1019 1 1010 13 0 0 0 1020 81 2 13 2736 1021 1 1011 2 0 0 1022 0 80 2 1021 10
23 1024 8004 0 0 0 0 3 5 0 0 0 FFTFFFFFFFFFFF2 3 83 1 1022 1020 79 16 1024 SDL/T
YSA_DENSITY80 2 1019 1025 1026 9000 0 0 0 0 3 5 0 0 0 FFTFFFFFFFFFFF9 1 82 1 102
0 1 79 24 1026 BODY_IN_LIGHTWEIGHT_PERM80 1 1017 1027 1028 9000 1 1 1 1 1 1 1 1
 0 FFTFFFFFFFFFFF1 82 1 1018 5761190 79 10 1028 BODY_MATCH80 2 1016 1029 1030 90
00 0 0 0 0 3 5 0 0 0 FFTFFFFFFFFFFF9 1 79 16 1030 BODY_RECIPE_200180 2 1014 1031
 1032 9000 0 0 0 0 3 5 0 0 0 FFTFFFFFFFFFFF9 1 82 1 1015 200 79 30 1032 LAST_BOD
Y_MODIFYING_FEATURE_ID80 2 1012 1033 1034 9000 0 0 0 0 3 5 0 0 0 FFTFFFFFFFFFFF9
 1 82 1 1013 111 79 19 1034 ENT_TIME_STAMP_200180 2 12 1035 1036 9000 0 0 0 0 3
 5 0 0 0 FFTFFFFFFFFFFF9 1 82 1 14 104 79 12 1036 ATOM_ID_20011 0 
