**ABCDEFGHIJKLMNOPQRSTUVWXYZabcdefghijklmnopqrstuvwxyz**************************
**PARASOLID !"#$%&'()*+,-./:;<=>?@[\]^_`{|}~0123456789**************************
**PART1;
MC=AMD64;
MC_MODEL=Intel64 Family 6 Model 142 Stepping 10, GenuineIntel;
MC_ID=unknown;
OS=Windows_NT;
OS_RELEASE=unknown;
FRU=Parasolid Version 31.0, build 282,  2-25-2019;
APPL=SOLIDWORKS 2019-2019115;
SITE=;
USER=unknown;
FORMAT=text;
GUISE=transmit;
KEY=Y Gantry Bearing Space;
FILE=Y Gantry Bearing Space.x_t;
DATE=Fri Feb 14 16:48:07 2020;
**PART2;
SCH=SCH_3100282_31001;
USFLD_SIZE=0;
**PART3;
**END_OF_HEADER*****************************************************************
T51 : TRANSMIT FILE created by modeller version 310028223 SCH_3100282_31001_1300
6215 0 12 34 CCCCCCI4 mesh1006 0 I8 polyline1008 0 CCCCCCCDI5 owner1040 0 CCCCCC
I13 boundary_mesh1006 0 I17 boundary_polyline1008 0 CCCA16 index_map_offset0 0 1
 dA9 index_map82 0 A17 node_id_index_map82 0 A20 schema_embedding_map82 0 A5 chi
ld12 0 A14 lowest_node_id0 0 1 dA16 mesh_offset_data206 0 Z1 1461 2 3 0 0 0 0 0
 0 1e3 1e-8 0 4 0 1 0 1 1 5 6 7 8 0 0 9 10 11 0 0 0 0 0 0 0 81 255 2 2 1449 12 1
 13 0 0 0 0 14 70 11 CI9 list_type0 0 1 uI10 notransmit0 0 1 lCCCDCCDI12 finger_
index0 0 1 dI12 finger_block1012 0 CZ3 0 4 T1 0 0 9 20 1 15 15 13 255 5 225 0 1
 0 16 0 0 17 0 54 255 6 739 0 18 19 0 0 +-.026 -.0265 .003 0 0 1 .006 .001 1 0 0
 31 255 7 697 0 10 20 0 0 --.026 -.0265 .003 0 0 1 1 0 0 .007 29 255 8 798 0 11
 21 0 .009 -.0195 .003 19 8 CCCCCCCA5 owner12 0 Z9 75 0 1 17 0 22 V0 16 255 10 6
95 0 ?23 0 24 7 0 0 1 18 255 11 796 0 25 0 26 8 ?1 17 255 25 0 27 28 29 11 30 31
 0 32 -18 26 54 0 30 11 33 21 ?1 17 30 0 34 32 32 26 25 31 0 29 +18 33 51 0 35 2
6 36 37 ?1 29 21 56 0 26 37 8 .009 -.0335 .003 29 37 53 0 33 38 21 -.026 -.0335
 .003 29 38 1255 0 39 40 37 -.026 -.0390781073352926 -.0132 18 39 1192 0 41 42 4
3 38 ?1 29 40 1256 0 42 44 38 .009 -.0390781073352926 -.0132 18 42 1191 0 45 46
 39 40 ?1 29 44 1257 0 46 47 40 .009 -.0139218926647074 -.0132 18 46 1190 0 48 3
6 42 44 ?1 29 47 1258 0 36 49 44 -.026 -.0139218926647074 -.0132 18 36 1189 0 50
 33 46 47 ?1 29 49 1259 0 43 0 47 -.026 -.0195 .003 18 43 1188 0 28 39 0 49 ?1 1
7 28 0 27 35 25 43 51 52 0 53 +15 255 27 810 0 25 16 0 17 35 0 27 29 28 33 53 54
 0 55 -17 51 0 56 48 57 11 28 52 0 0 -16 52 9 0 ?28 58 59 60 0 0 1 17 53 0 61 55
 55 43 35 54 0 57 +15 61 730 0 53 18 62 17 55 0 61 53 53 33 23 10 0 63 -16 54 53
3 0 ?53 64 58 65 0 0 1 17 57 0 56 51 66 43 50 67 0 23 +15 56 1216 0 51 68 0 17 6
6 0 56 57 48 36 69 70 0 0 +17 50 0 71 72 23 36 57 67 0 73 -16 67 1170 0 ?57 74 7
5 76 0 0 1 17 23 0 71 50 63 43 55 10 0 0 +15 71 1212 0 23 77 0 17 63 0 71 23 72
 33 41 78 0 79 +17 72 0 71 63 50 39 73 80 0 0 +17 41 0 81 82 79 39 63 78 0 83 -1
6 78 1166 0 ?63 84 70 85 0 0 1 17 79 0 81 41 86 33 29 58 0 0 -15 81 1224 0 79 87
 0 17 86 0 81 79 82 26 45 84 0 88 +17 29 0 27 25 35 26 79 58 0 86 +16 58 17 0 ?2
9 54 52 89 0 0 1 30 255 89 19 0 58 60 90 0 +.009 -.0335 .003 1 1982541115402065e
-31 0 30 60 11 0 52 65 89 0 +-.026 -.0195 .003 -1 0 0 31 90 680 0 64 89 20 0 +.0
09 -.0265 .004 0 0 1 1 0 0 .006 16 64 677 0 ?91 24 54 90 0 0 1 31 20 692 0 24 90
 7 0 +-.026 -.0265 .004 0 0 1 1 0 0 .006 16 24 689 0 ?92 10 64 20 0 0 1 17 92 0
 93 92 92 0 94 24 0 0 +15 93 690 0 92 95 96 17 94 0 62 94 94 0 92 24 0 0 -15 62
 731 0 94 18 0 14 255 18 729 97 ?98 99 61 5 6 +0 0 98 99 22 81 1 97 1450 100 18
 101 0 0 102 103 14 98 1225 102 ?87 18 104 5 105 -0 0 87 18 22 14 99 710 106 ?18
 107 34 5 19 +0 0 18 107 22 13 22 76 0 0 0 0 0 0 9 16 14 16 598 108 ?109 0 27 5
 110 +0 0 109 0 22 81 1 108 1453 100 16 111 0 106 112 113 14 109 399 112 ?114 16
 115 5 116 +0 0 114 16 22 50 255 110 3 0 16 116 19 0 +-.02 -.0145 .003 0 0 1 1 0
 0 51 255 116 412 0 109 117 110 0 -.009 -.0265 .003 0 0 -1 .00425 -1 0 0 54 19 7
20 0 99 110 6 0 +.009 -.0265 .003 0 0 1 .006 .001 1 0 0 51 117 450 0 114 118 116
 0 --.026 -.0265 .003 0 0 -1 .00425 -1 0 0 14 114 437 119 ?95 109 120 5 117 +0 0
 95 109 22 50 118 577 0 95 121 117 0 +-.026 -.0265 .004 0 0 1 1 0 0 14 95 555 12
2 ?107 114 93 5 118 +0 0 107 114 22 50 121 640 0 107 123 118 0 +.009 -.0265 .004
 0 0 1 1 0 0 14 107 618 124 ?99 95 125 5 121 +0 0 99 95 22 50 123 1233 0 68 126
 121 0 +-.026 -.0195 .003 0 .945518575599317 .3255681544571575 0 -.3255681544571
575 .945518575599317 14 68 1213 127 ?77 128 56 5 123 +0 0 77 128 22 52 255 126 1
234 0 128 129 123 0 +.009 -.0265 .003 0 0 -1 .007 .3255681544571575 .94551857559
9317 1 0 0 14 128 1217 130 ?68 87 131 5 126 +0 0 68 87 22 50 129 1235 0 87 132 1
26 0 +-.026 -.0335 .003 0 -.945518575599317 .3255681544571575 0 -.32556815445715
75 -.945518575599317 14 87 1221 133 ?128 98 81 5 129 +0 0 128 98 22 52 132 1236
 0 77 105 129 0 +-.026 -.0265 .003 0 0 -1 .007 .3255681544571575 .94551857559931
7 1 0 0 14 77 1209 134 ?0 68 71 5 132 +0 0 0 68 22 50 105 1238 0 98 0 132 0 +-.0
26 -.0265 -.0132 0 0 1 1 0 0 81 1 134 1461 100 77 135 0 133 0 136 80 255 1 100 1
37 138 9000 1 1 1 1 1 1 1 1 0 FFFFTFTFFFFFFF1 81 1 135 1418 139 77 0 134 140 0 1
41 81 1 133 1460 100 87 142 0 130 134 143 82 255 1 136 711000192 81 1 142 1415 1
39 87 0 133 144 145 146 81 1 130 1459 100 128 145 0 127 133 147 82 1 143 7108691
20 81 1 145 1416 139 128 0 130 142 140 148 81 1 127 1458 100 68 140 0 124 130 14
9 82 1 147 710738048 81 1 140 1417 139 68 0 127 145 135 150 81 1 124 1457 100 10
7 151 0 122 127 152 82 1 149 710606976 81 1 151 1411 139 107 0 124 153 154 155 8
1 1 122 1456 100 95 153 0 119 124 156 82 1 152 -523042700 81 1 153 1410 139 95 0
 122 157 151 158 81 1 119 1455 100 114 157 0 112 122 159 82 1 156 -524418956 81
 1 157 1409 139 114 0 119 160 153 161 81 1 112 1454 100 109 160 0 108 119 162 82
 1 159 1988231299 81 1 160 1408 139 109 0 112 111 157 163 82 1 162 1988100227 80
 1 139 0 164 8001 0 0 0 0 3 5 0 0 0 FFFFTFTFFFFFFF2 81 1 111 1407 139 16 0 108 0
 160 165 83 255 3 163 .694117647058824 .0980392156862745 .0980392156862745 83 3
 165 .694117647058824 .0980392156862745 .0980392156862745 79 255 15 164 SDL/TYSA
_COLOUR83 3 161 .694117647058824 .0980392156862745 .0980392156862745 83 3 158 .6
94117647058824 .0980392156862745 .0980392156862745 81 1 154 1412 139 99 0 106 15
1 101 166 83 3 155 .694117647058824 .0980392156862745 .0980392156862745 81 1 106
 1452 100 99 154 0 102 108 167 81 1 101 1413 139 18 0 97 154 144 168 83 3 166 .6
94117647058824 .0980392156862745 .0980392156862745 81 1 144 1414 139 98 0 102 10
1 142 169 83 3 168 .694117647058824 .0980392156862745 .0980392156862745 81 1 102
 1451 100 98 144 0 97 106 170 83 3 169 .694117647058824 .0980392156862745 .09803
92156862745 82 1 170 704053379 82 1 167 1983709312 83 3 150 .694117647058824 .09
80392156862745 .0980392156862745 83 3 148 .694117647058824 .0980392156862745 .09
80392156862745 83 3 146 .694117647058824 .0980392156862745 .0980392156862745 83
 3 141 .694117647058824 .0980392156862745 .0980392156862745 79 14 138 SWEntUncha
nged15 131 1220 0 88 128 0 17 88 0 131 45 171 26 32 172 0 0 -17 45 0 131 173 88
 42 86 84 0 174 -17 171 0 131 88 173 11 48 75 0 51 +17 32 0 34 30 30 11 88 172 0
 171 +16 172 607 0 ?32 59 31 175 31 31 1 16 59 550 0 ?176 52 172 177 0 0 1 16 31
 797 0 ?30 172 74 175 172 172 1 31 175 642 0 172 178 177 0 +.009 -.0265 .003 0 0
 1 1 0 0 .007 31 178 645 0 74 179 175 0 +.009 -.0265 .004 0 0 1 1 0 0 .00425 31
 177 582 0 59 175 65 0 +-.026 -.0265 .004 0 0 1 1 0 0 .00425 31 65 579 0 54 177
 60 0 +-.026 -.0265 .003 0 0 1 1 0 0 .007 16 74 613 0 ?180 31 67 178 0 0 1 30 17
9 1243 0 75 181 178 0 -.009 -.0195 .003 -806815315096105e-31 .3255681544571575 -
.945518575599317 16 75 1174 0 ?171 67 84 179 0 0 1 30 181 1244 0 84 85 179 0 -.0
09 -.0335 .003 0 -.3255681544571575 -.945518575599317 16 84 1178 0 ?86 75 78 181
 0 0 1 30 85 1245 0 78 76 181 0 --.026 -.0335 .003 0 -.3255681544571575 -.945518
575599317 30 76 1246 0 67 182 85 0 --.026 -.0195 .003 0 .3255681544571575 -.9455
18575599317 30 182 1247 0 183 184 76 0 +-.026 -.0390781073352926 -.0132 1 0 0 16
 183 1175 0 ?82 185 80 182 0 0 1 31 184 1248 0 185 186 182 0 +.009 -.0265 -.0132
 0 0 1 1 0 0 .0125781073352926 16 185 1171 0 ?173 70 183 184 0 0 1 30 186 1249 0
 70 187 184 0 +-.026 -.0139218926647074 -.0132 -1 0 0 16 70 1167 0 ?66 78 185 18
6 0 0 1 31 187 1250 0 80 188 186 0 +-.026 -.0265 -.0132 0 0 1 1 0 0 .01257810733
52926 16 80 1163 0 ?72 183 189 187 0 0 1 31 188 1369 0 190 191 187 0 +.009 -.026
5 -.0132 0 0 1 1 0 0 .00425 16 190 1341 0 ?192 189 0 188 0 0 1 31 191 1371 0 189
 0 188 0 +-.026 -.0265 -.0132 0 0 1 1 0 0 .00425 16 189 1323 0 ?193 80 190 191 0
 0 1 17 193 0 104 193 193 0 194 189 0 0 +15 104 1317 0 193 98 195 17 194 0 196 1
94 194 0 193 189 0 0 -15 196 1332 0 194 114 0 15 195 1311 0 192 98 197 17 192 0
 195 192 192 0 198 190 0 0 +15 197 1227 0 73 98 0 17 73 0 197 69 83 36 72 80 0 6
6 -17 69 0 197 174 73 46 66 70 0 0 -17 83 0 197 73 174 39 82 183 0 72 -17 174 0
 197 83 69 42 173 185 0 82 -17 82 0 81 86 41 42 83 183 0 0 +17 173 0 131 171 45
 46 174 185 0 69 +17 198 0 199 198 198 0 192 190 0 0 -15 199 1350 0 198 109 0 17
 180 0 115 180 180 0 200 74 0 0 +15 115 634 0 180 109 199 17 200 0 201 200 200 0
 180 74 0 0 -15 201 621 0 200 107 0 17 176 0 120 176 176 0 202 59 0 0 +15 120 57
1 0 176 114 196 17 202 0 96 202 202 0 176 59 0 0 -15 96 558 0 202 95 0 15 34 711
 0 30 99 203 15 203 712 0 204 99 0 17 204 0 203 204 204 0 91 64 0 0 -17 91 0 125
 91 91 0 204 64 0 0 +15 125 678 0 91 107 201 17 48 0 56 66 51 46 171 75 0 173 -8
2 1 113 1983905920 82 1 103 1983578240 19 17 226 0 1 0 9 5 S0 74 4 CI16 index_ma
p_offset0 0 1 dCCZ20 15 9 0 0 134 205 206 207 208 209 135 13 2 0 0 0 0 0 0 0 0 0
 0 0 81 2 205 1285 210 1 0 206 0 0 0 211 81 2 206 1294 212 1 205 207 0 0 0 213 8
1 2 207 1308 214 1 206 208 0 0 0 0 81 1 208 1385 215 1 207 209 0 0 216 81 2 209
 1393 217 1 208 13 0 0 0 218 81 2 13 1448 219 1 209 2 0 0 220 0 80 2 219 221 222
 8004 0 0 0 0 3 5 0 0 0 FFTFFFFFFFFFFF2 3 83 1 220 1020 79 16 222 SDL/TYSA_DENSI
TY80 2 217 223 224 9000 0 0 0 0 3 5 0 0 0 FFTFFFFFFFFFFF9 1 82 1 218 1 79 24 224
 BODY_IN_LIGHTWEIGHT_PERM80 1 215 225 226 9000 1 1 1 1 1 1 1 1 0 FFTFFFFFFFFFFF1
 82 1 216 4552190 79 10 226 BODY_MATCH80 2 214 227 228 9000 0 0 0 0 3 5 0 0 0 FF
TFFFFFFFFFFF9 1 79 16 228 BODY_RECIPE_200180 2 212 229 230 9000 0 0 0 0 3 5 0 0
 0 FFTFFFFFFFFFFF9 1 82 1 213 152 79 30 230 LAST_BODY_MODIFYING_FEATURE_ID80 2 2
10 231 232 9000 0 0 0 0 3 5 0 0 0 FFTFFFFFFFFFFF9 1 82 1 211 126 79 19 232 ENT_T
IME_STAMP_200180 2 12 233 234 9000 0 0 0 0 3 5 0 0 0 FFTFFFFFFFFFFF9 1 82 1 14 1
05 79 12 234 ATOM_ID_20011 0 
