**ABCDEFGHIJKLMNOPQRSTUVWXYZabcdefghijklmnopqrstuvwxyz**************************
**PARASOLID !"#$%&'()*+,-./:;<=>?@[\]^_`{|}~0123456789**************************
**PART1;
MC=AMD64;
MC_MODEL=Intel64 Family 6 Model 142 Stepping 10, GenuineIntel;
MC_ID=unknown;
OS=Windows_NT;
OS_RELEASE=unknown;
FRU=Parasolid Version 31.0, build 282,  2-25-2019;
APPL=SOLIDWORKS 2019-2019115;
SITE=;
USER=unknown;
FORMAT=text;
GUISE=transmit;
KEY=Y Gantry Bearing Cap (Cable mount);
FILE=Y Gantry Bearing Cap (Cable mount).x_t;
DATE=Fri Feb 14 16:37:20 2020;
**PART2;
SCH=SCH_3100282_31001;
USFLD_SIZE=0;
**PART3;
**END_OF_HEADER*****************************************************************
T51 : TRANSMIT FILE created by modeller version 310028223 SCH_3100282_31001_1300
6215 0 12 34 CCCCCCI4 mesh1006 0 I8 polyline1008 0 CCCCCCCDI5 owner1040 0 CCCCCC
I13 boundary_mesh1006 0 I17 boundary_polyline1008 0 CCCA16 index_map_offset0 0 1
 dA9 index_map82 0 A17 node_id_index_map82 0 A20 schema_embedding_map82 0 A5 chi
ld12 0 A14 lowest_node_id0 0 1 dA16 mesh_offset_data206 0 Z1 898 2 3 0 0 0 0 0 0
 1e3 1e-8 0 4 0 1 0 1 1 5 6 7 8 0 0 9 10 11 0 0 0 0 0 0 0 81 255 2 2 876 12 1 13
 0 0 0 0 14 70 11 CI9 list_type0 0 1 uI10 notransmit0 0 1 lCCCDCCDI12 finger_ind
ex0 0 1 dI12 finger_block1012 0 CZ3 0 4 T1 0 0 9 20 1 15 15 13 255 5 225 0 1 0 1
6 0 0 17 0 54 255 6 739 0 18 19 0 0 +-.026 -.0265 .003 0 0 1 .006 .001 1 0 0 31
 255 7 697 0 10 20 0 0 --.026 -.0265 .003 0 0 1 1 0 0 .007 29 255 8 275 0 11 21
 0 -.01 .0235 .003 19 8 CCCCCCCA5 owner12 0 Z9 75 0 1 17 0 22 V0 16 255 10 695 0
 ?23 0 24 7 0 0 1 18 255 11 273 0 25 0 26 8 ?1 17 255 25 0 27 28 29 11 30 31 0 3
2 -18 26 250 0 33 11 34 21 ?1 17 33 0 35 36 37 26 38 39 0 40 -18 34 72 0 41 26 4
2 43 ?1 29 21 252 0 26 44 8 .01 .0235 0 29 44 165 0 45 46 21 -.015 -.0145 0 18 4
5 144 0 47 48 49 44 ?1 29 46 166 0 49 50 44 -.015 .0285 0 18 49 145 0 51 45 52 4
6 ?1 29 50 167 0 52 53 46 -.01 .0335 0 18 52 146 0 54 49 55 50 ?1 29 53 168 0 55
 56 50 .01 .0335 0 18 55 147 0 57 52 58 53 ?1 29 56 169 0 58 59 53 .015 .0285 0
 18 58 148 0 60 55 61 56 ?1 29 59 170 0 61 62 56 .015 -.022894448724536 0 18 61
 149 0 63 58 64 59 ?1 29 62 171 0 64 65 59 .009 -.0335 0 18 64 150 0 66 61 67 62
 ?1 29 65 172 0 67 68 62 -.026 -.0335 0 18 67 151 0 69 64 70 65 ?1 29 68 173 0 7
0 71 65 -.026 -.0195 0 18 70 152 0 72 67 73 68 ?1 29 71 174 0 73 43 68 -.02 -.01
95 0 18 73 153 0 74 70 75 71 ?1 29 43 74 0 34 76 71 -.015 -.0145 .003 29 76 71 0
 42 77 43 -.015 .0285 .003 18 42 69 0 78 34 79 76 ?1 29 77 68 0 79 80 76 -.01 .0
335 .003 18 79 66 0 81 42 82 77 ?1 29 80 65 0 82 83 77 .01 .0335 .003 18 82 63 0
 84 79 85 80 ?1 29 83 62 0 85 86 80 .015 .0285 .003 18 85 60 0 87 82 88 83 ?1 29
 86 56 0 88 89 83 .009 -.0335 .003 18 88 54 0 90 85 91 86 ?1 29 89 53 0 91 92 86
 -.026 -.0335 .003 18 91 51 0 93 88 48 89 ?1 29 92 47 0 48 94 89 -.02 -.0195 .00
3 18 48 45 0 95 91 45 92 ?1 29 94 370 0 96 97 92 -.01 .0235 0 18 96 321 0 30 98
 99 94 ?1 29 97 371 0 99 100 94 -.01 .0285 0 18 99 319 0 101 96 102 97 ?1 29 100
 372 0 102 103 97 .01 .0285 0 18 102 326 0 104 99 105 100 ?1 29 103 373 0 75 106
 100 .01 .0235 .003 18 75 325 0 28 73 107 103 ?1 29 106 375 0 107 108 103 -.01 .
0285 .003 18 107 323 0 109 75 98 106 ?1 29 108 376 0 98 110 106 .01 .0285 .003 1
8 98 320 0 111 107 96 108 ?1 29 110 584 0 105 112 108 -.026 -.0195 .003 18 105 5
54 0 113 102 114 110 ?1 29 112 647 0 114 0 110 .015 -.022894448724536 .003 18 11
4 617 0 115 105 0 112 ?1 17 115 0 116 117 117 114 90 118 0 119 -15 255 116 711 0
 115 120 121 17 117 0 116 115 115 88 122 123 0 0 +17 90 0 124 125 126 88 115 118
 0 127 +16 118 683 0 ?90 24 128 129 0 0 1 17 119 0 130 131 132 114 87 133 0 126
 -15 130 193 0 60 134 0 17 131 0 130 60 119 61 126 135 0 136 +17 132 0 130 119 6
0 85 137 138 0 139 -17 87 0 140 84 122 85 119 133 0 132 +16 133 25 0 ?87 141 142
 143 0 0 1 17 126 0 124 90 63 114 131 135 0 122 -15 124 195 0 126 144 0 17 63 0
 124 126 125 61 145 146 0 131 +16 135 180 0 ?131 147 138 148 0 0 1 17 122 0 140
 87 127 114 117 123 0 0 -15 140 534 0 127 16 0 17 127 0 140 122 93 88 149 142 0
 150 +16 123 607 0 ?117 151 152 153 0 0 1 16 151 550 0 ?154 155 123 156 0 0 1 16
 152 613 0 ?157 123 0 158 0 0 1 31 153 642 0 123 158 156 0 +.009 -.0265 .003 0 0
 1 1 0 0 .007 31 158 645 0 152 0 153 0 +.009 -.0265 .004 0 0 1 1 0 0 .00425 31 1
56 582 0 151 153 159 0 +-.026 -.0265 .004 0 0 1 1 0 0 .00425 31 159 579 0 160 15
6 161 0 +-.026 -.0265 .003 0 0 1 1 0 0 .007 16 160 533 0 ?113 128 162 159 0 0 1
 31 161 453 0 155 159 163 0 +-.026 -.0265 0 0 0 1 1 0 0 .00425 16 155 431 0 ?164
 165 151 161 0 0 1 31 163 415 0 165 161 166 0 +.009 -.0265 0 0 0 1 1 0 0 .00425
 16 165 393 0 ?167 39 155 163 0 0 1 30 255 166 368 0 168 163 169 0 +.01 .0285 .0
03 -3469446951953615e-31 1 0 16 168 307 0 ?111 170 171 166 0 0 1 30 169 367 0 17
0 166 172 0 +-.01 .0285 .003 -1 1734723475976805e-31 0 16 170 310 0 ?109 173 168
 169 0 0 1 30 172 366 0 173 169 174 0 +-.01 .0285 .003 0 -1 0 16 173 313 0 ?32 1
75 170 172 0 0 1 30 174 365 0 175 172 176 0 +-.01 .0235 .003 1 0 0 16 175 316 0
 ?28 177 173 174 0 0 1 30 176 364 0 39 174 178 0 +.01 .0285 0 -3469446951953615e
-31 1 0 16 39 291 0 ?38 179 165 176 0 0 1 30 178 363 0 179 176 180 0 +-.01 .0285
 0 -1 1734723475976805e-31 0 16 179 295 0 ?181 182 39 178 0 0 1 30 180 362 0 182
 178 183 0 +-.01 .0285 0 0 -1 0 16 182 299 0 ?184 171 179 180 0 0 1 30 183 361 0
 171 180 185 0 +-.01 .0235 0 1 0 0 16 171 303 0 ?186 168 182 183 0 0 1 30 185 36
0 0 177 183 187 0 +.01 .0235 .003 0 0 -1 16 177 294 0 ?40 31 175 185 0 0 1 30 18
7 359 0 31 185 188 0 +-.01 .0235 .003 0 0 -1 16 31 306 0 ?30 189 177 187 0 0 1 3
0 188 358 0 189 187 190 0 +-.01 .0285 .003 0 0 -1 16 189 302 0 ?101 191 31 188 0
 0 1 30 190 357 0 191 188 192 0 +.01 .0285 .003 0 0 -1 16 191 298 0 ?37 193 189
 190 0 0 1 31 192 7 0 194 190 195 0 +-.02 -.0145 .003 0 0 -1 1 0 0 .005 16 194 5
 0 ?196 197 198 192 0 0 1 30 195 11 0 197 192 199 0 +-.026 -.0195 .003 -1 0 0 16
 197 9 0 ?200 142 194 195 0 0 1 30 199 19 0 142 195 143 0 +.009 -.0335 .003 1 19
82541115402065e-31 0 16 142 17 0 ?127 133 197 199 0 0 1 30 143 27 0 133 199 201
 0 +.015 -.022894448724536 .003 0 1 0 31 201 31 0 141 143 202 0 +.01 .0285 .003
 0 0 1 1 0 0 .005 16 141 29 0 ?84 203 133 201 0 0 1 30 202 35 0 203 201 204 0 +.
01 .0335 .003 -1 0 0 16 203 33 0 ?81 205 141 202 0 0 1 31 204 39 0 205 202 206 0
 +-.01 .0285 .003 0 0 1 1 0 0 .005 16 205 37 0 ?78 207 203 204 0 0 1 30 206 43 0
 207 204 208 0 +-.015 -.0145 .003 0 -1 0 16 207 41 0 ?41 209 205 206 0 0 1 31 20
8 164 0 193 206 210 0 +-.02 -.0145 0 0 0 -1 1 0 0 .005 16 193 140 0 ?211 212 191
 208 0 0 1 30 210 163 0 212 208 213 0 +-.026 -.0195 0 -1 0 0 16 212 136 0 ?72 21
4 193 210 0 0 1 31 213 162 0 214 210 215 0 +-.026 -.0265 0 0 0 1 1 0 0 .007 16 2
14 132 0 ?69 216 212 213 0 0 1 30 215 161 0 216 213 217 0 +.009 -.0335 0 1 19825
41115402065e-31 0 16 216 128 0 ?66 146 214 215 0 0 1 31 217 160 0 146 215 218 0
 +.009 -.0265 0 0 0 1 1 0 0 .007 16 146 124 0 ?63 219 216 217 0 0 1 30 218 159 0
 219 217 220 0 +.015 -.022894448724536 0 0 1 0 16 219 120 0 ?60 221 146 218 0 0
 1 31 220 158 0 221 218 222 0 +.01 .0285 0 0 0 1 1 0 0 .005 16 221 116 0 ?57 223
 219 220 0 0 1 30 222 157 0 223 220 224 0 +.01 .0335 0 -1 0 0 16 223 112 0 ?54 2
25 221 222 0 0 1 31 224 156 0 225 222 226 0 +-.01 .0285 0 0 0 1 1 0 0 .005 16 22
5 108 0 ?51 198 223 224 0 0 1 30 226 155 0 198 224 227 0 +-.015 -.0145 0 0 -1 0
 16 198 104 0 ?47 194 225 226 0 0 1 30 227 215 0 209 226 228 0 +-.015 -.0145 .00
3 0 0 -1 16 209 175 0 ?229 230 207 227 0 0 1 30 228 216 0 230 227 231 0 +-.015 .
0285 .003 0 0 -1 16 230 176 0 ?232 233 209 228 0 0 1 30 231 217 0 233 228 234 0
 +-.01 .0335 .003 0 0 -1 16 233 177 0 ?235 236 230 231 0 0 1 30 234 218 0 236 23
1 237 0 +.01 .0335 .003 0 0 -1 16 236 178 0 ?238 138 233 234 0 0 1 30 237 219 0
 138 234 148 0 +.015 .0285 .003 0 0 -1 16 138 179 0 ?137 135 236 237 0 0 1 30 14
8 220 0 135 237 239 0 +.015 -.022894448724536 .003 0 0 -1 30 239 221 0 147 148 2
40 0 +.009 -.0335 .003 0 0 -1 16 147 181 0 ?125 241 135 239 0 0 1 30 240 222 0 2
41 239 242 0 +-.026 -.0335 .003 0 0 -1 16 241 182 0 ?243 244 147 240 0 0 1 30 24
2 223 0 244 240 245 0 +-.026 -.0195 .003 0 0 -1 16 244 183 0 ?246 162 241 242 0
 0 1 30 245 224 0 162 242 247 0 +-.02 -.0195 .003 0 0 -1 16 162 184 0 ?248 160 2
44 245 0 0 1 31 247 680 0 128 245 129 0 +.009 -.0265 .004 0 0 1 1 0 0 .006 16 12
8 677 0 ?249 118 160 247 0 0 1 31 129 685 0 118 247 20 0 -.009 -.0265 .003 0 0 1
 1 0 0 .007 31 20 692 0 24 129 7 0 +-.026 -.0265 .004 0 0 1 1 0 0 .006 16 24 689
 0 ?250 10 118 20 0 0 1 17 250 0 251 250 250 0 252 24 0 0 +15 251 690 0 250 253
 254 17 252 0 255 252 252 0 250 24 0 0 -15 255 731 0 252 18 0 14 255 18 729 256
 ?0 120 257 5 6 +0 0 0 120 22 81 1 256 877 258 18 259 0 0 260 261 14 120 710 260
 ?18 262 116 5 19 +0 0 18 262 22 15 257 730 0 113 18 255 13 22 76 0 0 0 0 0 0 9
 16 14 16 598 263 ?264 0 265 5 266 +0 0 264 0 22 81 1 263 879 258 16 267 0 260 2
68 269 14 264 422 268 ?270 16 271 5 272 -0 0 270 16 22 15 265 271 0 273 16 140 5
0 255 266 3 0 16 274 272 0 +-.02 -.0145 .003 0 0 1 1 0 0 50 274 351 0 275 276 26
6 0 +.01 .0285 .003 -1 -3469446951953615e-31 0 3469446951953615e-31 -1 0 50 272
 154 0 264 266 277 0 +-.02 -.0145 0 0 0 1 1 0 0 50 277 205 0 278 272 279 0 +-.01
5 -.0145 .003 1 0 0 0 0 -1 14 278 186 280 ?275 281 282 5 277 -0 0 275 281 22 51
 255 279 206 0 281 277 283 0 --.01 .0285 .003 0 0 -1 .005 -1 0 0 14 281 188 284
 ?278 285 286 5 279 -0 0 278 285 22 50 283 207 0 285 279 287 0 +.01 .0335 .003 0
 -1 0 0 0 -1 14 285 190 288 ?281 289 290 5 283 -0 0 281 289 22 51 287 208 0 289
 283 291 0 -.01 .0285 .003 0 0 -1 .005 -1 0 0 14 289 192 292 ?285 134 293 5 287
 -0 0 285 134 22 50 291 209 0 134 287 294 0 +.015 -.022894448724536 .003 -1 0 0
 0 0 1 14 134 194 295 ?289 144 130 5 291 -0 0 289 144 22 51 294 210 0 144 291 29
6 0 -.009 -.0265 .003 0 0 -1 .007 -1 0 0 14 144 196 297 ?134 298 124 5 294 -0 0
 134 298 22 50 296 211 0 298 294 299 0 +.009 -.0335 .003 -1982541115402065e-31 1
 0 -1 -1982541115402065e-31 0 14 298 198 300 ?144 301 302 5 296 -0 0 144 301 22
 51 299 212 0 301 296 303 0 --.026 -.0265 .003 0 0 -1 .007 -1 0 0 14 301 200 304
 ?298 305 306 5 299 -0 0 298 305 22 50 303 213 0 305 299 307 0 +-.026 -.0195 .00
3 0 -1 0 0 0 -1 14 305 202 308 ?301 270 309 5 303 -0 0 301 270 22 51 307 214 0 2
70 303 19 0 +-.02 -.0145 .003 0 0 -1 .005 -1 0 0 14 270 204 310 ?305 264 311 5 3
07 -0 0 305 264 22 54 19 720 0 120 307 6 0 +.009 -.0265 .003 0 0 1 .006 .001 1 0
 0 81 1 310 890 258 270 312 0 308 313 314 15 311 203 0 211 270 0 17 211 0 311 31
5 229 73 316 193 0 0 +17 315 0 311 317 211 48 248 162 0 0 -17 229 0 311 211 317
 45 318 209 0 316 +17 316 0 271 319 74 45 211 193 0 0 -15 271 103 0 316 264 320
 17 319 0 271 321 316 49 47 198 0 0 -17 74 0 271 316 322 73 72 212 0 248 -17 322
 0 271 74 323 70 69 214 0 0 -17 72 0 309 324 248 70 74 212 0 246 +17 248 0 309 7
2 95 73 315 162 0 211 +15 309 201 0 72 305 0 17 95 0 309 248 324 48 200 197 0 19
6 -17 324 0 309 95 72 105 246 244 0 200 -17 200 0 140 93 196 105 95 197 0 0 +17
 196 0 140 200 41 48 317 194 0 315 +17 41 0 140 196 78 34 325 207 0 318 +17 317
 0 311 229 315 34 196 194 0 0 -17 78 0 140 41 81 42 326 205 0 327 +17 325 0 282
 232 318 42 41 207 0 0 -17 318 0 282 325 47 34 229 209 0 317 -15 282 185 0 47 27
8 0 17 47 0 282 318 232 45 319 198 0 229 +17 232 0 282 47 325 49 327 230 0 319 +
17 327 0 286 326 51 42 232 230 0 325 -15 286 187 0 51 281 0 17 326 0 286 235 327
 79 78 205 0 0 -17 51 0 286 327 235 49 321 225 0 232 +17 235 0 286 51 326 52 328
 233 0 321 +17 321 0 271 329 319 52 51 225 0 0 -17 329 0 271 330 321 55 54 223 0
 0 -17 330 0 271 136 329 58 57 221 0 0 -17 54 0 290 328 238 52 329 223 0 235 +15
 290 189 0 54 285 0 17 328 0 290 331 54 79 235 233 0 326 -17 238 0 290 54 331 55
 332 236 0 329 +17 331 0 290 238 328 82 81 203 0 0 -17 332 0 293 139 57 82 238 2
36 0 331 -15 293 191 0 57 289 0 17 139 0 293 137 332 85 84 141 0 0 -17 57 0 293
 332 137 55 330 221 0 238 +17 137 0 293 57 139 58 132 138 0 330 +17 84 0 140 81
 87 82 139 141 0 332 +17 81 0 140 78 84 79 331 203 0 328 +17 136 0 271 145 330 6
1 60 219 0 0 -17 145 0 271 323 136 64 63 146 0 0 -17 60 0 130 132 131 58 136 219
 0 137 +17 323 0 271 322 145 67 66 216 0 0 -17 66 0 302 150 243 64 323 216 0 125
 +15 302 197 0 66 298 0 17 150 0 302 149 66 88 125 147 0 117 -17 243 0 302 66 14
9 67 333 241 0 323 +17 125 0 124 63 90 64 150 147 0 145 +17 149 0 302 243 150 91
 127 142 0 334 -17 333 0 306 23 69 91 243 241 0 149 -15 306 199 0 333 301 0 17 2
3 0 306 246 333 105 334 10 0 324 +17 69 0 306 333 246 67 322 214 0 243 +17 246 0
 306 69 23 70 324 244 0 322 +17 334 0 257 113 113 91 23 10 0 0 -17 113 0 257 334
 334 105 93 160 0 23 +17 93 0 140 127 200 91 113 160 0 333 -15 320 266 0 38 264
 335 17 38 0 320 181 186 102 33 39 0 0 +15 335 382 0 167 264 336 17 167 0 335 16
7 167 0 337 165 0 0 +15 336 420 0 164 264 0 17 164 0 336 164 164 0 338 155 0 0 +
17 338 0 339 338 338 0 164 155 0 0 -15 339 441 0 338 340 341 14 340 437 313 ?253
 342 339 5 343 +0 0 253 342 22 15 341 571 0 154 340 0 17 154 0 341 154 154 0 344
 151 0 0 +17 344 0 254 344 344 0 154 151 0 0 -15 254 558 0 344 253 0 14 253 555
 345 ?262 340 251 5 346 +0 0 262 340 22 81 1 345 892 258 253 347 0 313 348 349 1
4 262 618 348 ?120 253 350 5 351 +0 0 120 253 22 50 346 577 0 253 351 343 0 +-.0
26 -.0265 .004 0 0 1 1 0 0 50 351 640 0 262 0 346 0 +.009 -.0265 .004 0 0 1 1 0
 0 51 343 450 0 340 346 352 0 --.026 -.0265 .003 0 0 -1 .00425 -1 0 0 51 352 412
 0 342 343 353 0 -.009 -.0265 .003 0 0 -1 .00425 -1 0 0 14 342 399 354 ?340 355
 356 5 352 +0 0 340 355 22 50 353 354 0 355 352 357 0 +-.01 .0235 .003 0 1 0 0 0
 1 14 355 339 358 ?342 359 27 5 353 +0 0 342 359 22 50 357 353 0 359 353 276 0 +
-.01 .0285 .003 1 0 0 0 0 -1 14 359 335 360 ?355 361 362 5 357 +0 0 355 361 22 5
0 276 352 0 361 357 274 0 +-.01 .0285 .003 -1734723475976805e-31 -1 0 1 -1734723
475976805e-31 0 14 361 331 363 ?359 275 364 5 276 +0 0 359 275 22 81 1 363 897 2
58 361 365 0 360 366 367 14 275 327 366 ?361 278 35 5 274 +0 0 361 278 22 15 364
 334 0 104 361 0 17 104 0 364 368 101 102 181 179 0 37 -17 368 0 364 109 104 98
 37 191 0 273 -17 101 0 364 104 109 99 369 189 0 370 +17 181 0 320 184 38 99 104
 179 0 0 +17 37 0 35 33 111 102 368 191 0 38 +15 35 330 0 33 275 0 17 111 0 35 3
7 36 98 371 168 0 368 +17 36 0 35 111 33 75 40 177 0 371 -17 371 0 265 372 273 7
5 111 168 0 0 -17 372 0 265 373 371 11 28 175 0 0 -17 273 0 265 371 373 98 109 1
70 0 0 -17 373 0 265 273 372 107 32 173 0 0 -17 109 0 364 101 368 107 273 170 0
 369 +17 369 0 362 32 370 107 101 189 0 373 -15 362 338 0 370 359 0 17 32 0 362
 30 369 11 373 173 0 372 +17 370 0 362 369 30 99 184 182 0 181 -17 30 0 362 370
 32 96 25 31 0 29 +17 184 0 320 186 181 96 370 182 0 0 +17 186 0 320 38 184 26 2
9 171 0 0 +17 29 0 27 25 40 96 186 171 0 184 -15 27 342 0 29 355 0 17 40 0 27 29
 28 26 36 177 0 186 +17 28 0 27 40 25 75 372 175 0 36 +81 1 366 898 258 275 374
 0 363 0 375 80 255 1 258 376 377 9000 1 1 1 1 1 1 1 1 0 FFFFTFTFFFFFFF1 81 1 37
4 816 378 275 0 366 379 365 380 82 255 1 375 288161895 80 1 378 0 381 8001 0 0 0
 0 3 5 0 0 0 FFFFTFTFFFFFFF2 81 1 379 815 378 278 0 280 382 374 383 81 1 365 817
 378 361 0 363 374 384 385 83 255 3 380 .694117647058824 .0980392156862745 .0980
392156862745 81 1 384 818 378 359 0 360 365 386 387 83 3 385 .694117647058824 .0
980392156862745 .0980392156862745 81 1 360 896 258 359 384 0 358 363 388 81 1 38
6 819 378 355 0 358 384 389 390 83 3 387 .694117647058824 .0980392156862745 .098
0392156862745 81 1 358 895 258 355 386 0 354 360 391 81 1 389 820 378 342 0 354
 386 392 393 83 3 390 .694117647058824 .0980392156862745 .0980392156862745 81 1
 354 894 258 342 389 0 348 358 394 81 1 392 821 378 340 0 313 389 347 395 83 3 3
93 .694117647058824 .0980392156862745 .0980392156862745 81 1 313 891 258 340 392
 0 310 345 396 81 1 347 822 378 253 0 345 392 397 398 83 3 395 .694117647058824
 .0980392156862745 .0980392156862745 81 1 397 823 378 262 0 348 347 399 400 83 3
 398 .694117647058824 .0980392156862745 .0980392156862745 81 1 348 893 258 262 3
97 0 345 354 401 81 1 399 824 378 120 0 260 397 259 402 83 3 400 .69411764705882
4 .0980392156862745 .0980392156862745 81 1 260 878 258 120 399 0 256 263 403 81
 1 259 825 378 18 0 256 399 0 404 83 3 402 .694117647058824 .0980392156862745 .0
980392156862745 83 3 404 .694117647058824 .0980392156862745 .0980392156862745 82
 1 403 -111869836 82 1 401 -523042700 82 1 396 297009264 82 1 394 292946032 82 1
 391 287375463 82 1 388 287637607 81 1 280 881 258 278 379 0 268 284 405 81 1 38
2 814 378 281 0 284 406 379 407 83 3 383 .694117647058824 .0980392156862745 .098
0392156862745 81 1 284 882 258 281 382 0 280 288 408 81 1 406 813 378 285 0 288
 409 382 410 83 3 407 .694117647058824 .0980392156862745 .0980392156862745 81 1
 288 883 258 285 406 0 284 292 411 81 1 409 812 378 289 0 292 412 406 413 83 3 4
10 .694117647058824 .0980392156862745 .0980392156862745 81 1 292 884 258 289 409
 0 288 295 414 81 1 412 811 378 134 0 295 415 409 416 83 3 413 .694117647058824
 .0980392156862745 .0980392156862745 81 1 295 885 258 134 412 0 292 297 417 81 1
 415 810 378 144 0 297 418 412 419 83 3 416 .694117647058824 .0980392156862745 .
0980392156862745 81 1 297 886 258 144 415 0 295 300 420 81 1 418 809 378 298 0 3
00 421 415 422 83 3 419 .694117647058824 .0980392156862745 .0980392156862745 81
 1 300 887 258 298 418 0 297 304 423 81 1 421 808 378 301 0 304 424 418 425 83 3
 422 .694117647058824 .0980392156862745 .0980392156862745 81 1 304 888 258 301 4
21 0 300 308 426 81 1 424 807 378 305 0 308 312 421 427 83 3 425 .69411764705882
4 .0980392156862745 .0980392156862745 81 1 308 889 258 305 424 0 304 310 428 81
 1 312 806 378 270 0 310 429 424 430 83 3 427 .694117647058824 .0980392156862745
 .0980392156862745 81 1 429 805 378 264 0 268 267 312 431 83 3 430 .694117647058
824 .0980392156862745 .0980392156862745 81 1 268 880 258 264 429 0 263 280 432 8
1 1 267 804 378 16 0 263 0 429 433 83 3 431 .694117647058824 .0980392156862745 .
0980392156862745 83 3 433 .694117647058824 .0980392156862745 .0980392156862745 8
2 1 432 304349287 82 1 428 274595956 82 1 426 274333812 82 1 423 274071668 82 1
 420 273809524 82 1 417 273547380 82 1 414 273285223 82 1 411 273023079 82 1 408
 272760935 82 1 405 272498791 79 255 15 381 SDL/TYSA_COLOUR79 14 377 SWEntUnchan
ged82 1 367 287899751 15 356 403 0 337 342 434 17 337 0 356 337 337 0 167 165 0
 0 -15 434 634 0 157 342 0 17 157 0 434 157 157 0 435 152 0 0 +17 435 0 436 435
 435 0 157 152 0 0 -15 436 621 0 435 262 0 15 350 678 0 249 262 436 17 249 0 350
 249 249 0 437 128 0 0 +17 437 0 121 437 437 0 249 128 0 0 -15 121 712 0 437 120
 0 82 1 349 -524418956 82 1 314 274858087 82 1 269 -518913932 82 1 261 -11016590
0 19 17 226 0 1 0 9 5 S0 74 4 CI16 index_map_offset0 0 1 dCCZ20 15 9 0 0 366 438
 439 440 441 442 259 13 2 0 0 0 0 0 0 0 0 0 0 0 81 2 438 656 443 1 0 439 0 0 0 4
44 81 2 439 664 445 1 438 440 0 0 0 446 81 2 440 674 447 1 439 441 0 0 0 0 81 1
 441 757 448 1 440 442 0 0 449 81 2 442 780 450 1 441 13 0 0 0 451 81 2 13 875 4
52 1 442 2 0 0 453 0 80 2 452 454 455 8004 0 0 0 0 3 5 0 0 0 FFTFFFFFFFFFFF2 3 8
3 1 453 1020 79 16 455 SDL/TYSA_DENSITY80 2 450 456 457 9000 0 0 0 0 3 5 0 0 0 F
FTFFFFFFFFFFF9 1 82 1 451 1 79 24 457 BODY_IN_LIGHTWEIGHT_PERM80 1 448 458 459 9
000 1 1 1 1 1 1 1 1 0 FFTFFFFFFFFFFF1 82 1 449 1511258 79 10 459 BODY_MATCH80 2
 447 460 461 9000 0 0 0 0 3 5 0 0 0 FFTFFFFFFFFFFF9 1 79 16 461 BODY_RECIPE_2001
80 2 445 462 463 9000 0 0 0 0 3 5 0 0 0 FFTFFFFFFFFFFF9 1 82 1 446 99 79 30 463
 LAST_BODY_MODIFYING_FEATURE_ID80 2 443 464 465 9000 0 0 0 0 3 5 0 0 0 FFTFFFFFF
FFFFF9 1 82 1 444 114 79 19 465 ENT_TIME_STAMP_200180 2 12 466 467 9000 0 0 0 0
 3 5 0 0 0 FFTFFFFFFFFFFF9 1 82 1 14 102 79 12 467 ATOM_ID_20011 0 
