**ABCDEFGHIJKLMNOPQRSTUVWXYZabcdefghijklmnopqrstuvwxyz**************************
**PARASOLID !"#$%&'()*+,-./:;<=>?@[\]^_`{|}~0123456789**************************
**PART1;
MC=AMD64;
MC_MODEL=Intel64 Family 6 Model 142 Stepping 10, GenuineIntel;
MC_ID=unknown;
OS=Windows_NT;
OS_RELEASE=unknown;
FRU=Parasolid Version 31.0, build 282,  2-25-2019;
APPL=SOLIDWORKS 2019-2019115;
SITE=;
USER=unknown;
FORMAT=text;
GUISE=transmit;
KEY=Y Gantry Box Mount Foot;
FILE=Y Gantry Box Mount Foot.x_t;
DATE=Fri Feb 14 17:03:03 2020;
**PART2;
SCH=SCH_3100282_31001;
USFLD_SIZE=0;
**PART3;
**END_OF_HEADER*****************************************************************
T51 : TRANSMIT FILE created by modeller version 310028223 SCH_3100282_31001_1300
6215 0 12 34 CCCCCCI4 mesh1006 0 I8 polyline1008 0 CCCCCCCDI5 owner1040 0 CCCCCC
I13 boundary_mesh1006 0 I17 boundary_polyline1008 0 CCCA16 index_map_offset0 0 1
 dA9 index_map82 0 A17 node_id_index_map82 0 A20 schema_embedding_map82 0 A5 chi
ld12 0 A14 lowest_node_id0 0 1 dA16 mesh_offset_data206 0 Z1 1405 2 3 0 0 0 0 0
 0 1e3 1e-8 0 4 0 1 0 1 1 5 6 7 8 0 0 9 10 11 0 0 0 0 0 0 0 81 255 2 2 1371 12 1
 13 0 0 0 0 14 70 11 CI9 list_type0 0 1 uI10 notransmit0 0 1 lCCCDCCDI12 finger_
index0 0 1 dI12 finger_block1012 0 CZ3 0 4 T1 0 0 9 20 1 15 15 13 255 5 99 0 1 0
 16 0 0 17 0 50 255 6 629 0 18 19 0 0 --.031 .0155 .01 .707106781186549 -.707106
781186547 0 0 0 -1 32 255 7 820 0 20 21 0 0 -.015 .015 .0105 0 -.707106781186547
 -.707106781186549 0 -.707106781186549 .707106781186547 .01131370849898474 .008
 29 255 8 796 0 11 22 0 .017783882181415 .0225 .003 19 8 CCCCCCCA5 owner12 0 Z9
 33 0 1 17 0 23 V0 16 255 10 823 0 ?24 0 20 7 20 20 1 18 255 11 794 0 25 0 26 8
 ?1 17 255 25 0 27 28 28 11 29 30 0 24 +18 26 788 0 31 11 32 22 ?1 17 31 0 33 34
 34 26 35 36 0 37 +18 32 752 0 38 26 39 40 ?1 29 22 790 0 26 40 8 -.012216117818
58502 .0225 .003 29 40 754 0 32 41 22 -.01778388218141505 -.0225 .003 29 41 748
 0 39 42 40 .01221611781858494 -.0225 .003 18 39 746 0 43 32 44 41 ?1 29 42 514
 0 44 45 41 .031 -.0155 .003 18 44 512 0 46 39 47 42 ?1 29 45 510 0 47 48 42 .03
1 .0155 .003 18 47 508 0 49 44 50 45 ?1 29 48 491 0 50 51 45 -.024 .0225 .003 18
 50 489 0 52 47 53 48 ?1 29 51 487 0 53 54 48 .024 .0225 .003 18 53 485 0 55 50
 56 51 ?1 29 54 478 0 56 57 51 -.031 -.0155 .003 18 56 476 0 58 53 59 54 ?1 29 5
7 474 0 59 60 54 -.031 .0155 .003 18 59 472 0 61 56 62 57 ?1 29 60 451 0 62 63 5
7 -.024 .0225 0 18 62 449 0 64 59 65 60 ?1 29 63 448 0 65 66 60 .024 .0225 0 18
 65 446 0 67 62 68 63 ?1 29 66 445 0 68 69 63 -.031 -.0155 0 18 68 443 0 70 65 7
1 66 ?1 29 69 442 0 71 72 66 -.031 .0155 0 18 71 440 0 73 68 74 69 ?1 29 72 439
 0 74 75 69 .031 .0155 0 18 74 437 0 76 71 77 72 ?1 29 75 436 0 77 78 72 .031 -.
0155 0 18 77 434 0 79 74 80 75 ?1 29 78 427 0 80 81 75 -.024 -.0225 .003 18 80 4
25 0 82 77 83 78 ?1 29 81 423 0 83 84 78 .024 -.0225 .003 18 83 421 0 85 80 86 8
1 ?1 29 84 420 0 86 87 81 .024 -.0225 0 18 86 418 0 88 83 89 84 ?1 29 87 417 0 8
9 90 84 -.024 -.0225 0 18 89 415 0 91 86 92 87 ?1 29 90 394 0 92 93 87 -.024 -.0
155 .01 18 92 392 0 94 89 95 90 ?1 29 93 390 0 95 96 90 -.024 .0155 .01 18 95 38
8 0 97 92 98 93 ?1 29 96 382 0 98 99 93 .024 .0155 .01 18 98 380 0 100 95 101 96
 ?1 29 99 379 0 101 102 96 .024 -.0155 .01 18 101 377 0 103 98 104 99 ?1 29 102
 1111 0 104 105 99 .012216117818585 .0225 .003 18 104 892 0 28 101 106 102 ?1 29
 105 1115 0 106 107 102 .00701564028866434 .0155 .01 18 106 888 0 108 104 109 10
5 ?1 29 107 1116 0 109 110 105 .02298435971133565 .0155 .01 18 109 891 0 111 106
 112 107 ?1 29 110 1117 0 112 113 107 -.017783882181415 .0225 .003 18 112 1042 0
 34 109 114 110 ?1 29 113 1121 0 114 115 110 -.02298435971133565 .0155 .01 18 11
4 1038 0 116 112 117 113 ?1 29 115 1122 0 117 118 113 -.00701564028866434 .0155
 .01 18 117 1041 0 119 114 120 115 ?1 29 118 1123 0 120 121 115 .017783882181415
05 -.0225 .003 18 120 942 0 122 117 123 118 ?1 29 121 1127 0 123 124 118 .022984
35971133565 -.0155 .01 18 123 938 0 125 120 126 121 ?1 29 124 1128 0 126 127 121
 .00701564028866435 -.0155 .01 18 126 941 0 128 123 129 124 ?1 29 127 1129 0 129
 130 124 -.01221611781858492 -.0225 .003 18 129 992 0 131 126 132 127 ?1 29 130
 1133 0 132 133 127 -.00701564028866434 -.0155 .01 18 132 988 0 134 129 135 130
 ?1 29 133 1134 0 135 0 130 -.02298435971133565 -.0155 .01 18 135 991 0 136 132
 0 133 ?1 17 136 0 137 138 134 135 139 140 0 141 +15 255 137 1009 0 138 142 0 17
 138 0 137 143 136 32 141 144 0 145 +17 134 0 137 136 143 132 146 147 0 139 +17
 139 0 148 149 150 132 136 140 0 151 -16 140 984 0 ?136 152 153 154 0 0 1 17 141
 0 155 156 145 135 138 144 0 150 -15 155 773 0 141 157 0 17 156 0 155 158 141 92
 150 159 0 0 -17 145 0 155 141 158 32 82 160 0 161 -16 144 772 0 ?138 162 147 16
3 147 147 1 17 150 0 148 139 94 135 156 159 0 0 +15 148 234 0 164 165 0 17 94 0
 148 150 97 92 166 167 0 168 +16 159 396 0 ?150 169 167 170 0 0 1 16 169 801 0 ?
171 172 159 173 0 0 1 16 167 393 0 ?94 159 174 175 0 0 1 30 255 170 397 0 159 17
5 173 0 +0 -.0155 .01 1 0 0 30 175 395 0 167 176 170 0 +-.024 0 .01 0 -1 0 30 17
3 399 0 169 170 177 0 +0 .0155 .01 -1 0 0 30 177 402 0 172 173 178 0 +0 -.0155 .
01 1 0 0 16 172 759 0 ?149 179 169 177 0 0 1 30 178 424 0 179 177 180 0 +.024 -.
0225 .01 0 0 1 16 179 422 0 ?85 160 172 178 0 0 1 30 180 428 0 181 178 182 0 +-.
031 -.0225 .003 -1 0 0 16 181 426 0 ?183 184 185 180 160 185 1 30 182 431 0 184
 180 186 0 +-.024 -.0225 .01 0 0 -1 16 184 429 0 ?91 187 181 182 0 0 1 30 186 45
4 0 187 182 188 0 -.02325 .02325 0 -.707106781186547 .707106781186549 0 16 187 4
52 0 ?76 189 184 186 0 0 1 30 188 459 0 189 186 190 0 -.02325 -.02325 0 .7071067
81186547 .707106781186549 0 16 189 457 0 ?88 191 187 188 0 0 1 30 190 464 0 191
 188 192 0 --.02325 .02325 0 -.707106781186547 -.707106781186549 0 16 191 462 0
 ?64 193 189 190 0 0 1 30 192 469 0 193 190 194 0 --.02325 -.02325 0 .7071067811
86547 -.707106781186549 0 16 193 467 0 ?70 195 191 192 0 0 1 30 194 475 0 195 19
2 196 0 +-.031 .0155 .01 0 0 -1 16 195 473 0 ?73 197 193 194 0 0 1 30 196 479 0
 197 194 198 0 +-.031 -.0225 .003 0 1 0 16 197 477 0 ?61 199 195 196 0 0 1 30 19
8 482 0 199 196 200 0 +-.031 -.0155 .01 0 0 1 16 199 480 0 ?58 201 197 198 0 0 1
 30 200 488 0 201 198 202 0 +.024 .0225 .01 0 0 -1 16 201 486 0 ?67 203 199 200
 0 0 1 30 202 492 0 204 200 205 0 +-.031 .0225 .003 1 0 0 16 204 490 0 ?206 207
 208 202 203 208 1 30 205 495 0 207 202 209 0 +-.024 .0225 .01 0 0 1 16 207 493
 0 ?52 210 204 205 0 0 1 30 209 511 0 210 205 211 0 +.031 .0155 .01 0 0 1 16 210
 509 0 ?49 212 207 209 0 0 1 30 211 515 0 212 209 213 0 +.031 -.0225 .003 0 -1 0
 16 212 513 0 ?46 214 210 211 0 0 1 30 213 518 0 214 211 215 0 +.031 -.0155 .01
 0 0 -1 16 214 516 0 ?79 147 212 213 0 0 1 30 215 652 0 216 213 217 0 +.024 -.01
55 .01 68392558703549e-30 .707106781186547 .707106781186549 16 216 600 0 ?218 21
9 220 215 0 0 1 30 217 651 0 219 215 221 0 +-.024 -.0225 .003 961481343191779e-3
1 -.707106781186547 -.707106781186549 16 219 594 0 ?158 222 216 217 0 0 1 30 221
 650 0 222 217 223 0 -.0275 -.019 .003 -.707106781186547 -.707106781186549 64098
7562127859e-31 16 222 592 0 ?224 225 219 221 0 0 1 30 223 649 0 225 221 226 0 -.
024 -.0155 .01 .707106781186547 223916266495673e-29 -.707106781186549 16 225 591
 0 ?227 228 222 223 0 0 1 30 226 648 0 228 223 229 0 --.0275 -.0155 .0065 .70710
6781186547 -214301453063755e-29 .707106781186549 16 228 590 0 ?230 231 225 226 0
 0 1 30 229 647 0 231 226 232 0 --.024 -.0225 .003 -.707106781186547 .7071067811
86549 277555756156289e-31 16 231 589 0 ?233 234 228 229 0 0 1 30 232 646 0 234 2
29 235 0 +.0275 .0155 .0065 -.707106781186547 683925587035496e-31 .7071067811865
49 16 234 584 0 ?236 237 231 232 0 0 1 30 235 645 0 237 232 238 0 +-.031 .0155 .
003 -.707106781186547 277555756156289e-31 -.707106781186549 16 237 581 0 ?239 24
0 234 235 0 0 1 30 238 644 0 240 235 241 0 -.024 .0225 .003 .707106781186547 -.7
07106781186549 -2251427510131675e-30 16 240 576 0 ?242 243 237 238 0 0 1 30 241
 643 0 243 238 244 0 -.024 .0225 .003 68392558703549e-30 .707106781186549 -.7071
06781186547 16 243 575 0 ?245 246 240 241 0 0 1 30 244 642 0 246 241 247 0 --.02
4 .019 .0065 961481343191779e-31 -.707106781186549 .707106781186547 16 246 574 0
 ?248 249 243 244 0 0 1 30 247 641 0 249 244 163 0 --.031 .0155 .003 .7071067811
86547 .707106781186549 213181760268763e-29 16 249 573 0 ?250 251 246 247 0 0 1 3
2 163 769 0 147 247 252 0 --.015 -.015 .0105 0 .707106781186549 -.70710678118654
7 0 .707106781186547 .707106781186549 .01131370849898478 .008 16 147 767 0 ?134
 144 214 163 144 144 1 32 252 778 0 162 163 21 0 -.015 -.015 .0105 0 .7071067811
86549 -.707106781186547 0 .707106781186547 .707106781186549 .01131370849898478 .
008 16 162 776 0 ?125 253 144 252 253 253 1 32 21 811 0 254 252 7 0 --.015 .015
 .0105 0 -.707106781186547 -.707106781186549 0 -.707106781186549 .70710678118654
7 .01131370849898474 .008 16 254 809 0 ?116 255 253 21 255 255 1 17 116 0 256 11
9 35 114 257 254 0 258 +16 255 814 0 ?37 20 254 21 254 254 1 16 253 781 0 ?259 2
54 162 252 162 162 1 17 259 0 260 261 128 39 262 253 0 263 +15 260 959 0 259 264
 0 17 261 0 260 125 259 120 43 153 0 265 -17 128 0 260 259 125 126 266 267 0 262
 +17 262 0 268 151 263 126 259 253 0 149 -17 263 0 268 262 146 39 269 270 0 271
 -15 268 782 0 262 272 0 17 146 0 268 263 151 129 134 147 0 269 -17 269 0 273 16
1 271 129 263 270 0 0 +16 270 747 0 ?269 185 274 180 185 274 1 17 271 0 273 269
 183 39 122 185 0 0 +15 273 83 0 183 275 0 17 183 0 273 271 85 120 276 181 0 0 +
17 122 0 277 43 43 120 271 185 0 261 -16 185 744 0 ?271 181 270 180 181 270 1 15
 277 963 0 43 278 0 17 43 0 277 122 122 39 261 153 0 259 +16 153 929 0 ?43 140 2
67 279 0 0 1 16 267 934 0 ?128 153 30 280 0 0 1 31 255 279 1108 0 153 154 280 0
 +.015 -.015 .003 0 0 1 1 0 0 .008 31 154 1109 0 140 281 279 0 +-.015 -.015 .01
 0 0 1 1 0 0 .008 31 280 1107 0 267 279 282 0 +.015 -.015 .01 0 0 1 1 0 0 .008 3
1 282 1106 0 30 280 283 0 +.015 .015 .003 0 0 1 1 0 0 .008 16 30 879 0 ?25 267 2
84 282 0 0 1 31 283 1105 0 284 282 285 0 +.015 .015 .01 0 0 1 1 0 0 .008 16 284
 884 0 ?111 30 0 283 0 0 1 31 285 1104 0 36 283 286 0 +-.015 .015 .003 0 0 1 1 0
 0 .008 16 36 1029 0 ?31 287 288 285 0 0 1 31 286 1103 0 288 285 289 0 +-.015 .0
15 .01 0 0 1 1 0 0 .008 16 288 1034 0 ?119 36 152 286 0 0 1 31 289 1099 0 287 28
6 290 0 +-.015 -.015 .003 0 0 1 1 0 0 .002 16 287 982 0 ?291 292 36 289 0 0 1 31
 290 1095 0 292 289 293 0 +.015 -.015 .003 0 0 1 1 0 0 .002 16 292 932 0 ?294 29
5 287 290 0 0 1 31 293 1091 0 295 290 296 0 +-.015 .015 .003 0 0 1 1 0 0 .002 16
 295 1032 0 ?297 220 292 293 0 0 1 31 296 1087 0 220 293 298 0 +.015 .015 .003 0
 0 1 1 0 0 .002 16 220 882 0 ?299 216 295 296 0 0 1 31 298 261 0 251 296 300 0 +
.015 -.015 0 0 0 1 1 0 0 .002 16 251 239 0 ?301 302 249 298 0 0 1 31 300 223 0 3
02 298 303 0 +.015 .015 0 0 0 1 1 0 0 .002 16 302 201 0 ?304 305 251 300 0 0 1 3
1 303 185 0 305 300 306 0 +-.015 .015 0 0 0 1 1 0 0 .002 16 305 163 0 ?307 308 3
02 303 0 0 1 31 306 147 0 308 303 309 0 +-.015 -.015 0 0 0 1 1 0 0 .002 16 308 1
25 0 ?310 311 305 306 0 0 1 30 309 74 0 311 306 312 0 +.031 -.0225 0 0 1 0 16 31
1 435 0 ?313 314 308 309 0 0 1 30 312 73 0 314 309 315 0 +-.031 .0225 0 -1 0 0 1
6 314 447 0 ?316 317 311 312 0 0 1 30 315 72 0 317 312 318 0 +-.031 -.0225 0 0 -
1 0 16 317 441 0 ?319 320 314 315 0 0 1 30 318 71 0 320 315 321 0 +-.031 -.0225
 0 1 0 0 16 320 416 0 ?322 323 317 318 0 0 1 30 321 383 0 323 318 324 0 +.024 0
 .01 0 1 0 16 323 381 0 ?100 325 320 321 0 0 1 30 324 385 0 325 321 326 0 +0 .01
55 .01 -1 0 0 16 325 384 0 ?164 327 323 324 0 0 1 30 326 387 0 327 324 176 0 +0
 -.0155 .01 1 0 0 16 327 756 0 ?103 174 325 326 0 0 1 30 176 391 0 174 326 175 0
 +0 .0155 .01 -1 0 0 16 174 798 0 ?97 167 327 176 0 0 1 17 97 0 148 94 258 95 32
8 174 0 329 +17 258 0 148 97 171 114 119 288 0 328 -17 328 0 330 257 329 114 97
 174 0 0 -17 329 0 330 328 331 95 248 246 0 332 -15 330 810 0 257 333 0 17 331 0
 330 329 257 50 206 204 0 334 -17 248 0 335 250 332 50 329 246 0 0 +17 332 0 335
 248 250 95 239 237 0 166 -15 335 542 0 248 336 0 17 250 0 335 332 248 59 334 24
9 0 239 +17 239 0 337 338 166 59 332 237 0 0 +17 166 0 337 239 168 95 94 167 0 0
 -15 337 548 0 239 339 0 17 168 0 337 166 338 92 230 228 0 340 -17 338 0 337 168
 239 56 61 197 0 341 -17 230 0 342 233 340 56 168 228 0 0 +17 340 0 342 230 233
 92 158 219 0 156 -15 342 554 0 230 343 0 17 233 0 342 340 230 80 341 231 0 344
 +17 158 0 155 145 156 80 340 219 0 233 +17 341 0 345 346 344 56 233 231 0 230 -
17 344 0 345 341 347 80 91 184 0 0 -15 345 546 0 347 348 0 17 347 0 345 344 346
 89 70 193 0 0 -17 91 0 273 322 82 89 344 184 0 349 +17 322 0 273 85 91 86 349 3
20 0 350 +17 82 0 273 91 161 80 145 160 0 158 +17 349 0 351 70 88 89 322 320 0 3
47 -15 351 49 0 349 352 353 17 70 0 351 354 349 68 347 193 0 319 +17 88 0 351 34
9 355 86 356 189 0 322 +17 355 0 351 88 76 77 313 311 0 356 -17 356 0 357 358 35
0 77 88 189 0 0 -15 357 552 0 356 359 0 17 358 0 357 360 356 44 79 214 0 361 -17
 350 0 357 356 360 86 85 179 0 0 -17 360 0 357 350 358 83 224 222 0 276 -17 85 0
 273 183 322 83 350 179 0 360 +17 224 0 362 227 363 44 360 222 0 0 +17 276 0 364
 218 265 83 183 181 0 363 -15 364 777 0 265 365 0 17 218 0 364 366 276 101 363 2
16 0 0 +17 265 0 364 276 366 120 125 162 0 183 -17 363 0 362 224 227 83 218 216
 0 0 -15 362 556 0 224 367 0 17 227 0 362 363 224 101 361 225 0 218 +17 361 0 36
8 369 370 44 227 225 0 224 -15 368 550 0 236 371 0 17 369 0 368 236 361 47 46 21
2 0 0 -17 370 0 368 361 236 101 100 323 0 227 -17 236 0 368 370 369 98 372 234 0
 0 +17 100 0 148 164 103 98 370 323 0 373 +17 164 0 148 374 100 109 373 325 0 0
 +17 103 0 148 100 266 101 366 327 0 370 +17 373 0 375 376 377 98 164 325 0 245
 -15 375 824 0 377 378 0 17 376 0 375 379 373 53 245 243 0 242 -17 377 0 375 373
 379 109 24 10 0 164 -17 245 0 380 372 242 98 376 243 0 236 +15 380 544 0 242 38
1 0 17 372 0 380 242 245 47 236 234 0 369 -17 242 0 380 245 372 53 382 240 0 0 +
17 382 0 383 384 385 47 242 240 0 372 -15 383 540 0 386 387 0 17 384 0 383 386 3
82 74 49 210 0 0 -17 385 0 383 382 386 53 67 201 0 376 -17 386 0 383 385 384 65
 76 187 0 0 -17 67 0 388 316 55 65 385 201 0 389 +15 388 87 0 316 390 0 17 316 0
 388 52 67 62 389 314 0 391 +17 55 0 388 67 392 53 379 203 0 385 +17 389 0 351 7
6 64 65 316 314 0 386 -17 76 0 351 355 389 74 386 187 0 313 +17 64 0 351 389 354
 62 393 191 0 316 +17 354 0 351 64 70 71 319 317 0 393 -17 393 0 394 395 391 71
 64 191 0 0 -15 394 536 0 393 18 0 17 395 0 394 334 393 59 73 195 0 250 -17 391
 0 394 393 334 62 52 207 0 0 -17 334 0 394 391 395 50 250 249 0 248 -17 52 0 388
 206 316 50 391 207 0 331 +17 206 0 388 396 52 112 331 204 0 0 +17 396 0 388 397
 206 26 34 208 0 0 +17 397 0 388 392 396 104 398 399 0 0 +17 34 0 33 31 31 112 3
96 208 0 35 -16 208 786 0 ?396 204 399 202 204 399 1 16 399 789 0 ?397 208 400 2
02 208 400 1 16 400 792 0 ?392 399 203 202 399 203 1 17 392 0 388 55 397 11 28 4
00 0 0 +16 203 795 0 ?55 400 201 202 400 204 1 17 28 0 27 25 25 104 392 400 0 29
 -15 27 913 0 25 401 0 17 29 0 402 108 24 104 25 30 0 403 -15 402 909 0 24 404 0
 17 108 0 402 111 29 106 403 20 0 374 +17 24 0 402 29 111 11 377 10 0 379 +17 40
3 0 405 398 406 104 108 20 0 397 -15 405 819 0 403 407 0 17 398 0 405 408 403 26
 397 399 0 396 -17 406 0 405 403 408 106 171 169 0 0 -16 20 818 0 ?108 10 255 7
 10 10 1 17 408 0 405 406 398 117 37 255 0 171 -17 171 0 148 258 374 117 406 169
 0 0 +17 374 0 148 171 164 106 111 284 0 406 -17 111 0 402 24 108 109 374 284 0
 377 +17 37 0 256 35 119 26 408 255 0 398 +15 256 1059 0 37 409 0 17 35 0 256 11
6 37 112 31 36 0 257 -17 119 0 256 37 116 117 258 288 0 408 +17 257 0 330 331 32
8 112 116 254 0 206 -14 255 409 1056 410 ?411 278 256 5 412 -0 0 411 278 23 81 1
 410 1372 413 409 414 0 0 415 416 14 411 1060 415 ?404 409 417 5 418 +0 0 404 40
9 23 14 278 960 419 ?409 264 420 5 421 +0 0 409 264 23 51 255 412 1075 0 409 418
 422 0 +-.015 .015 .003 0 0 1 .008 1 0 0 13 23 34 0 0 0 0 0 0 9 16 14 16 845 423
 ?424 0 425 5 426 +0 0 424 0 23 81 1 423 1375 413 16 427 0 419 428 429 14 424 84
0 428 ?430 16 431 5 432 +0 0 430 16 23 15 425 135 0 433 16 434 51 426 144 0 16 4
32 435 0 --.015 -.015 .01 0 0 -1 .002 -1 0 0 51 432 182 0 424 436 426 0 --.015 .
015 .01 0 0 -1 .002 -1 0 0 50 435 3 0 165 426 437 0 +0 0 .01 0 0 -1 -1 0 0 14 16
5 236 438 ?352 157 148 5 435 -0 0 352 157 23 50 437 70 0 352 435 439 0 +0 0 0 0
 0 -1 -1 0 0 14 352 230 440 ?441 165 442 5 437 +0 0 441 165 23 50 439 91 0 275 4
37 443 0 +-.031 -.0225 .01 0 1 0 0 0 1 14 275 84 444 ?18 445 273 5 439 -0 0 18 4
45 23 50 443 92 0 445 439 446 0 +-.031 -.0225 .01 1 0 0 0 0 -1 14 445 86 447 ?27
5 390 448 5 443 -0 0 275 390 23 50 446 93 0 390 443 449 0 +-.031 .0225 .01 0 -1
 0 0 0 -1 14 390 88 450 ?445 441 388 5 446 -0 0 445 441 23 50 449 94 0 441 446 4
51 0 +.031 -.0225 .01 -1 0 0 0 0 1 14 441 90 452 ?390 352 453 5 449 -0 0 390 352
 23 50 451 640 0 365 449 454 0 -0 -.0155 .01 0 .707106781186549 -.70710678118654
7 1 0 0 14 365 557 455 ?142 367 364 5 451 +272 157 142 367 23 50 454 639 0 367 4
51 456 0 +.024 -.0155 .01 .577350269189628 -.577350269189626 .577350269189624 .7
07106781186546 .707106781186549 0 14 367 555 457 ?365 343 362 5 454 +0 0 365 343
 23 50 456 638 0 343 454 458 0 +-.024 -.0225 .003 -.577350269189627 -.5773502691
89626 .577350269189624 .707106781186547 -.707106781186549 0 14 343 553 459 ?367
 359 342 5 456 +0 0 367 359 23 50 458 637 0 359 456 460 0 -.031 -.0155 .01 -.707
106781186549 .707106781186547 0 0 0 -1 14 359 551 461 ?343 371 357 5 458 +0 0 34
3 371 23 50 460 636 0 371 458 462 0 -.024 0 .01 -.707106781186549 0 -.7071067811
86547 0 1 0 14 371 549 463 ?359 339 368 5 460 +0 0 359 339 23 50 462 635 0 339 4
60 464 0 --.024 0 .01 .707106781186549 0 -.707106781186547 0 -1 0 14 339 547 465
 ?371 348 337 5 462 +0 0 371 348 23 50 464 634 0 348 462 466 0 --.024 -.0225 .01
 .707106781186549 .707106781186547 0 0 0 -1 14 348 545 467 ?339 381 345 5 464 +0
 0 339 381 23 50 466 633 0 381 464 468 0 +.024 .0225 .003 .577350269189628 .5773
50269189624 .577350269189626 .707106781186546 0 -.707106781186549 14 381 543 469
 ?348 336 380 5 466 +0 0 348 336 23 50 468 632 0 336 466 470 0 +-.031 .0155 .003
 -.577350269189627 .577350269189624 .577350269189626 .707106781186547 0 .7071067
81186549 14 336 541 471 ?381 387 335 5 468 +0 0 381 387 23 50 470 631 0 387 468
 19 0 -.024 .0225 .01 -.707106781186549 -.707106781186547 0 0 0 -1 14 387 539 47
2 ?336 333 383 5 470 +0 0 336 333 23 50 19 630 0 333 470 6 0 -0 .0155 .01 0 -.70
7106781186547 -.707106781186549 -1 0 0 14 333 537 473 ?387 18 330 5 19 +378 407
 387 18 23 81 1 473 1393 413 333 474 0 472 475 476 14 18 535 475 ?333 275 394 5
 6 +0 0 333 275 23 14 378 821 477 ?407 478 375 5 19 +407 333 407 478 23 14 407 8
12 479 ?272 378 405 5 19 +333 378 272 378 23 81 1 479 1396 413 407 480 0 477 481
 482 14 272 779 481 ?157 407 268 5 451 +157 365 157 407 23 81 1 481 1397 413 272
 483 0 479 484 485 14 157 770 484 ?165 272 155 5 451 +365 272 165 272 23 81 1 48
4 1398 413 157 486 0 481 487 488 80 255 1 413 489 490 9000 1 1 1 1 1 1 1 1 0 FFF
FTFTFFFFFFF1 81 1 486 1274 491 157 0 484 483 492 493 81 1 487 1399 413 430 494 0
 484 495 496 82 255 1 488 -507182996 14 430 835 487 ?478 424 497 5 436 +0 0 478
 424 23 81 1 494 1269 491 430 0 487 498 499 500 81 1 495 1400 413 478 499 0 487
 501 502 82 1 496 -484704148 14 478 830 495 ?378 430 503 5 422 +0 0 378 430 23 8
1 1 499 1270 491 478 0 495 494 504 505 81 1 501 1401 413 142 506 0 495 507 508 8
2 1 502 -485162900 14 142 1006 501 ?509 365 137 5 510 -0 0 509 365 23 81 1 506 1
293 491 142 0 501 511 512 513 81 1 507 1402 413 509 512 0 501 514 515 82 1 508 -
521142164 14 509 1010 507 ?264 142 516 5 517 +0 0 264 142 23 81 1 512 1294 491 5
09 0 507 506 518 519 81 1 514 1403 413 264 518 0 507 520 521 82 1 515 -523108244
 14 264 956 514 ?278 509 260 5 522 -0 0 278 509 23 81 1 518 1295 491 264 0 514 5
12 523 524 81 1 520 1404 413 404 525 0 514 526 527 82 1 521 -517210004 14 404 90
6 520 ?401 411 402 5 528 -0 0 401 411 23 81 1 525 1299 491 404 0 520 529 530 531
 81 1 526 1405 413 401 530 0 520 0 532 82 1 527 -513277844 14 401 910 526 ?0 404
 533 5 534 +0 0 0 404 23 81 1 530 1300 491 401 0 526 525 0 535 82 1 532 -5152439
24 80 1 491 0 536 8001 0 0 0 0 3 5 0 0 0 FFFFTFTFFFFFFF2 83 255 3 535 .694117647
058824 .0980392156862745 .0980392156862745 79 255 15 536 SDL/TYSA_COLOUR15 533 9
12 0 537 401 27 50 534 1080 0 401 522 528 0 +.015 .015 .003 0 0 1 1 0 0 51 522 1
081 0 264 421 534 0 +.015 -.015 .003 0 0 1 .008 1 0 0 51 528 1078 0 404 534 418
 0 +.015 .015 .003 0 0 1 .008 1 0 0 50 418 1077 0 411 528 412 0 +-.015 .015 .003
 0 0 1 1 0 0 50 421 1083 0 278 510 522 0 +.015 -.015 .003 0 0 1 1 0 0 51 510 108
4 0 142 517 421 0 +-.015 -.015 .003 0 0 1 .008 1 0 0 50 517 1086 0 509 0 510 0 +
-.015 -.015 .003 0 0 1 1 0 0 17 537 0 533 537 537 0 299 220 0 0 -17 299 0 538 29
9 299 0 537 220 0 0 +15 538 833 0 299 430 0 81 1 529 1298 491 411 0 415 414 525
 539 83 3 531 .694117647058824 .0980392156862745 .0980392156862745 81 1 415 1373
 413 411 529 0 410 419 540 81 1 414 1297 491 409 0 410 523 529 541 83 3 539 .694
117647058824 .0980392156862745 .0980392156862745 81 1 523 1296 491 278 0 419 518
 414 542 83 3 541 .694117647058824 .0980392156862745 .0980392156862745 81 1 419
 1374 413 278 523 0 415 423 543 83 3 542 .694117647058824 .0980392156862745 .098
0392156862745 82 1 543 -519176084 82 1 540 -527105940 83 3 524 .694117647058824
 .0980392156862745 .0980392156862745 83 3 519 .694117647058824 .0980392156862745
 .0980392156862745 15 516 1012 0 544 509 545 17 544 0 516 544 544 0 291 287 0 0
 -15 545 1013 0 38 509 0 17 38 0 545 131 131 32 143 152 0 138 +17 131 0 545 38 3
8 129 161 274 0 143 -17 143 0 137 134 138 129 38 152 0 146 -16 152 979 0 ?38 288
 140 281 0 0 1 31 281 1110 0 152 0 154 0 +-.015 -.015 .003 0 0 1 1 0 0 .008 17 1
61 0 273 82 269 32 131 274 0 0 +16 274 750 0 ?161 270 160 180 270 160 1 16 160 7
53 0 ?82 274 179 180 274 181 1 17 291 0 434 291 291 0 544 287 0 0 +15 434 843 0
 291 16 0 81 1 511 1292 491 365 0 455 546 506 547 83 3 513 .694117647058824 .098
0392156862745 .0980392156862745 81 1 455 1383 413 365 511 0 452 457 548 81 1 546
 1291 491 367 0 457 549 511 550 83 3 547 .694117647058824 .0980392156862745 .098
0392156862745 81 1 457 1384 413 367 546 0 455 459 551 81 1 549 1290 491 343 0 45
9 552 546 553 83 3 550 .694117647058824 .0980392156862745 .0980392156862745 81 1
 459 1385 413 343 549 0 457 461 554 81 1 552 1289 491 359 0 461 555 549 556 83 3
 553 .694117647058824 .0980392156862745 .0980392156862745 81 1 461 1386 413 359
 552 0 459 463 557 81 1 555 1288 491 371 0 463 558 552 559 83 3 556 .69411764705
8824 .0980392156862745 .0980392156862745 81 1 463 1387 413 371 555 0 461 465 560
 81 1 558 1287 491 339 0 465 561 555 562 83 3 559 .694117647058824 .098039215686
2745 .0980392156862745 81 1 465 1388 413 339 558 0 463 467 563 81 1 561 1286 491
 348 0 467 564 558 565 83 3 562 .694117647058824 .0980392156862745 .098039215686
2745 81 1 467 1389 413 348 561 0 465 469 566 81 1 564 1285 491 381 0 469 567 561
 568 83 3 565 .694117647058824 .0980392156862745 .0980392156862745 81 1 469 1390
 413 381 564 0 467 471 569 81 1 567 1284 491 336 0 471 570 564 571 83 3 568 .694
117647058824 .0980392156862745 .0980392156862745 81 1 471 1391 413 336 567 0 469
 472 572 81 1 570 1283 491 387 0 472 474 567 573 83 3 571 .694117647058824 .0980
392156862745 .0980392156862745 81 1 472 1392 413 387 570 0 471 473 574 81 1 474
 1282 491 333 0 473 575 570 576 83 3 573 .694117647058824 .0980392156862745 .098
0392156862745 81 1 575 1281 491 18 0 475 577 474 578 83 3 576 .694117647058824 .
0980392156862745 .0980392156862745 81 1 475 1394 413 18 575 0 473 477 579 81 1 5
77 1280 491 275 0 444 580 575 581 83 3 578 .694117647058824 .0980392156862745 .0
980392156862745 81 1 444 1379 413 275 577 0 440 447 582 81 1 580 1279 491 445 0
 447 583 577 584 83 3 581 .694117647058824 .0980392156862745 .0980392156862745 8
1 1 447 1380 413 445 580 0 444 450 585 81 1 583 1278 491 390 0 450 586 580 587 8
3 3 584 .694117647058824 .0980392156862745 .0980392156862745 81 1 450 1381 413 3
90 583 0 447 452 588 81 1 586 1277 491 441 0 452 589 583 590 83 3 587 .694117647
058824 .0980392156862745 .0980392156862745 81 1 452 1382 413 441 586 0 450 455 5
91 81 1 589 1276 491 352 0 440 492 586 592 83 3 590 .694117647058824 .0980392156
862745 .0980392156862745 81 1 440 1378 413 352 589 0 438 444 593 81 1 492 1275 4
91 165 0 438 486 589 594 83 3 592 .694117647058824 .0980392156862745 .0980392156
862745 81 1 438 1377 413 165 492 0 428 440 595 83 3 594 .694117647058824 .098039
2156862745 .0980392156862745 81 1 428 1376 413 424 498 0 423 438 596 82 1 595 -1
164378004 81 1 498 1268 491 424 0 428 427 494 597 82 1 596 -484245396 81 1 427 1
267 491 16 0 423 0 498 598 83 3 597 .694117647058824 .0980392156862745 .09803921
56862745 83 3 598 .694117647058824 .0980392156862745 .0980392156862745 82 1 593
 -1164902295 82 1 591 -1187577751 82 1 588 -1187839892 82 1 585 -1188102039 82 1
 582 -1188364180 81 1 477 1395 413 378 504 0 475 479 599 82 1 579 844955753 81 1
 504 1271 491 378 0 477 499 480 600 82 1 599 -494010260 81 1 480 1272 491 407 0
 479 504 483 601 83 3 600 .694117647058824 .0980392156862745 .0980392156862745 8
1 1 483 1273 491 272 0 481 480 486 602 83 3 601 .694117647058824 .09803921568627
45 .0980392156862745 83 3 602 .694117647058824 .0980392156862745 .09803921568627
45 82 1 574 843448425 82 1 572 842596457 82 1 569 841810025 82 1 566 840761449 8
2 1 563 839647337 82 1 560 838533225 82 1 557 837419113 82 1 554 836567145 82 1
 551 835715177 82 1 548 832831596 83 3 505 .694117647058824 .0980392156862745 .0
980392156862745 15 503 249 0 603 478 604 51 422 258 0 478 412 436 0 -.015 -.015
 .01 0 0 -1 .002 -1 0 0 51 436 220 0 430 422 432 0 -.015 .015 .01 0 0 -1 .002 -1
 0 0 17 603 0 503 603 603 0 301 251 0 0 -15 604 828 0 294 478 0 17 294 0 604 294
 294 0 605 292 0 0 +17 605 0 420 605 605 0 294 292 0 0 -15 420 962 0 605 278 277
 17 301 0 606 301 301 0 603 251 0 0 +15 606 227 0 301 352 0 83 3 500 .6941176470
58824 .0980392156862745 .0980392156862745 15 497 211 0 607 430 538 17 607 0 497
 607 607 0 304 302 0 0 -17 304 0 442 304 304 0 607 302 0 0 +15 442 189 0 304 352
 608 15 608 113 0 310 352 351 17 310 0 608 310 310 0 433 308 0 0 +17 433 0 425 4
33 433 0 310 308 0 0 -83 3 493 .694117647058824 .0980392156862745 .0980392156862
745 79 14 490 SWEntUnchanged82 1 485 -506331028 82 1 482 -494862228 82 1 476 844
562540 15 453 89 0 46 441 0 17 46 0 453 79 49 44 369 212 0 358 +17 79 0 453 313
 46 77 358 214 0 355 +17 49 0 453 46 313 47 384 210 0 382 +17 313 0 453 49 79 74
 355 311 0 384 +15 448 85 0 319 445 0 17 319 0 448 58 73 68 354 317 0 346 +17 58
 0 448 61 319 56 346 199 0 338 +17 73 0 448 319 61 71 395 195 0 354 +17 346 0 34
5 347 341 68 58 199 0 0 -17 61 0 448 73 58 59 338 197 0 395 +15 431 173 0 609 42
4 610 17 609 0 431 609 609 0 307 305 0 0 -15 610 838 0 297 424 0 17 297 0 610 29
7 297 0 611 295 0 0 +17 611 0 417 611 611 0 297 295 0 0 -15 417 1062 0 611 411 3
3 15 33 1063 0 31 411 0 17 307 0 353 307 307 0 609 305 0 0 +15 353 151 0 307 352
 606 82 1 429 -483786644 82 1 416 -525139860 17 379 0 375 377 376 11 55 203 0 39
2 -17 266 0 148 103 149 123 128 267 0 366 -17 366 0 364 265 218 123 103 327 0 0
 -17 149 0 148 266 139 126 151 172 0 0 +17 151 0 268 146 262 132 149 172 0 0 -17
 125 0 260 128 261 123 265 162 0 266 +19 17 100 0 1 0 9 5 S0 74 4 CI16 index_map
_offset0 0 1 dCCZ20 15 9 0 0 612 613 526 614 615 616 530 13 2 0 0 0 0 0 0 0 0 0
 0 0 81 2 612 111 617 1 0 613 0 0 0 618 81 2 613 288 619 1 612 614 0 0 0 620 81
 2 614 730 621 1 613 615 0 0 0 0 81 1 615 1196 622 1 614 616 0 0 623 81 2 616 12
31 624 1 615 13 0 0 0 625 81 2 13 1370 626 1 616 2 0 0 627 0 80 2 626 628 629 80
04 0 0 0 0 3 5 0 0 0 FFTFFFFFFFFFFF2 3 83 1 627 1020 79 16 629 SDL/TYSA_DENSITY8
0 2 624 630 631 9000 0 0 0 0 3 5 0 0 0 FFTFFFFFFFFFFF9 1 82 1 625 1 79 24 631 BO
DY_IN_LIGHTWEIGHT_PERM80 1 622 632 633 9000 1 1 1 1 1 1 1 1 0 FFTFFFFFFFFFFF1 82
 1 623 4896965 79 10 633 BODY_MATCH80 2 621 634 635 9000 0 0 0 0 3 5 0 0 0 FFTFF
FFFFFFFFF9 1 79 16 635 BODY_RECIPE_200180 2 619 636 637 9000 0 0 0 0 3 5 0 0 0 F
FTFFFFFFFFFFF9 1 82 1 620 81 79 30 637 LAST_BODY_MODIFYING_FEATURE_ID80 2 617 63
8 639 9000 0 0 0 0 3 5 0 0 0 FFTFFFFFFFFFFF9 1 82 1 618 107 79 19 639 ENT_TIME_S
TAMP_200180 2 12 640 641 9000 0 0 0 0 3 5 0 0 0 FFTFFFFFFFFFFF9 1 82 1 14 102 79
 12 641 ATOM_ID_20011 0 
