**ABCDEFGHIJKLMNOPQRSTUVWXYZabcdefghijklmnopqrstuvwxyz**************************
**PARASOLID !"#$%&'()*+,-./:;<=>?@[\]^_`{|}~0123456789**************************
**PART1;
MC=AMD64;
MC_MODEL=Intel64 Family 6 Model 142 Stepping 10, GenuineIntel;
MC_ID=unknown;
OS=Windows_NT;
OS_RELEASE=unknown;
FRU=Parasolid Version 31.0, build 282,  2-25-2019;
APPL=SOLIDWORKS 2019-2019115;
SITE=;
USER=unknown;
FORMAT=text;
GUISE=transmit;
KEY=Y Gantry Bearing Cap;
FILE=Y Gantry Bearing Cap.x_t;
DATE=Fri Feb 14 16:42:39 2020;
**PART2;
SCH=SCH_3100282_31001;
USFLD_SIZE=0;
**PART3;
**END_OF_HEADER*****************************************************************
T51 : TRANSMIT FILE created by modeller version 310028223 SCH_3100282_31001_1300
6215 0 12 34 CCCCCCI4 mesh1006 0 I8 polyline1008 0 CCCCCCCDI5 owner1040 0 CCCCCC
I13 boundary_mesh1006 0 I17 boundary_polyline1008 0 CCCA16 index_map_offset0 0 1
 dA9 index_map82 0 A17 node_id_index_map82 0 A20 schema_embedding_map82 0 A5 chi
ld12 0 A14 lowest_node_id0 0 1 dA16 mesh_offset_data206 0 Z1 1208 2 3 0 0 0 0 0
 0 1e3 1e-8 0 4 0 1 0 1 1 5 6 7 8 0 0 9 10 11 0 0 0 0 0 0 0 81 255 2 2 1196 12 1
 13 0 0 0 0 14 70 11 CI9 list_type0 0 1 uI10 notransmit0 0 1 lCCCDCCDI12 finger_
index0 0 1 dI12 finger_block1012 0 CZ3 0 4 T1 0 0 9 20 1 15 15 13 255 5 225 0 1
 0 16 0 0 17 0 54 255 6 739 0 18 19 0 0 +-.026 -.0265 .003 0 0 1 .006 .001 1 0 0
 31 255 7 697 0 10 20 0 0 --.026 -.0265 .003 0 0 1 1 0 0 .007 29 255 8 798 0 11
 21 0 .009 -.0195 .003 19 8 CCCCCCCA5 owner12 0 Z9 75 0 1 17 0 22 V0 16 255 10 6
95 0 ?23 0 24 7 0 0 1 18 255 11 796 0 25 0 26 8 ?1 17 255 25 0 27 28 29 11 30 31
 0 32 -18 26 54 0 33 11 34 35 ?1 17 33 0 36 37 32 26 38 39 0 40 -18 34 51 0 41 2
6 42 43 ?1 29 35 56 0 26 43 44 .009 -.0335 .003 29 43 53 0 34 45 35 -.026 -.0335
 .003 29 44 173 0 46 35 47 -.026 -.0195 0 18 46 152 0 48 49 50 44 ?1 29 47 172 0
 49 44 21 -.026 -.0335 0 18 49 151 0 51 42 46 47 ?1 29 21 171 0 42 47 8 .009 -.0
335 0 18 42 150 0 52 34 49 21 ?1 17 52 0 53 54 55 42 56 57 0 37 +15 255 53 197 0
 52 58 0 17 54 0 53 59 52 26 37 60 0 0 -17 55 0 53 52 59 49 61 62 0 56 +17 56 0
 63 64 65 49 52 57 0 0 -16 57 128 0 ?52 66 67 68 0 0 1 17 37 0 36 69 33 42 54 60
 0 65 +15 36 195 0 69 70 0 17 69 0 36 32 37 71 65 66 0 28 +16 60 181 0 ?37 62 72
 73 0 0 1 17 65 0 63 56 74 42 69 66 0 0 -15 63 103 0 74 75 76 17 74 0 63 65 64 7
1 48 77 0 69 -16 66 124 0 ?69 31 57 78 0 0 1 16 31 9 0 ?30 72 66 79 0 0 1 31 78
 160 0 66 68 73 0 +.009 -.0265 0 0 0 1 1 0 0 .007 30 255 68 161 0 57 80 78 0 +.0
09 -.0335 0 1 1982541115402065e-31 0 30 73 221 0 60 78 81 0 +.009 -.0335 .003 0
 0 -1 30 81 222 0 62 73 82 0 +-.026 -.0335 .003 0 0 -1 16 62 182 0 ?55 83 60 81
 0 0 1 30 82 223 0 83 81 84 0 +-.026 -.0195 .003 0 0 -1 16 83 183 0 ?85 86 62 82
 0 0 1 31 84 680 0 87 82 20 0 +.009 -.0265 .004 0 0 1 1 0 0 .006 16 87 677 0 ?88
 24 86 84 0 0 1 31 20 692 0 24 84 7 0 +-.026 -.0265 .004 0 0 1 1 0 0 .006 16 24
 689 0 ?89 10 87 20 0 0 1 17 89 0 90 89 89 0 91 24 0 0 +15 90 690 0 89 92 93 17
 91 0 94 91 91 0 89 24 0 0 -15 94 731 0 91 18 0 14 255 18 729 95 ?0 96 97 5 6 +0
 0 0 96 22 81 1 95 1197 98 18 99 0 0 100 101 14 96 710 100 ?18 102 103 5 19 +0 0
 18 102 22 15 97 730 0 104 18 94 13 22 76 0 0 0 0 0 0 9 16 14 16 598 105 ?75 0 1
06 5 107 +0 0 75 0 22 81 1 105 1199 98 16 108 0 100 109 110 14 75 422 109 ?111 1
6 63 5 112 -0 0 111 16 22 15 106 810 0 113 16 0 50 255 107 3 0 16 114 112 0 +-.0
2 -.0145 .003 0 0 1 1 0 0 51 255 114 412 0 115 116 107 0 -.009 -.0265 .003 0 0 -
1 .00425 -1 0 0 50 112 154 0 75 107 117 0 +-.02 -.0145 0 0 0 1 1 0 0 51 117 210
 0 70 112 118 0 -.009 -.0265 .003 0 0 -1 .007 -1 0 0 14 70 196 119 ?115 58 36 5
 117 -0 0 115 58 22 50 118 211 0 58 117 120 0 +.009 -.0335 .003 -198254111540206
5e-31 1 0 -1 -1982541115402065e-31 0 14 58 198 121 ?70 122 53 5 118 -0 0 70 122
 22 51 120 212 0 122 118 123 0 --.026 -.0265 .003 0 0 -1 .007 -1 0 0 14 122 200
 124 ?58 111 125 5 120 -0 0 58 111 22 50 123 213 0 111 120 19 0 +-.026 -.0195 .0
03 0 -1 0 0 0 -1 14 111 202 126 ?122 75 27 5 123 -0 0 122 75 22 54 19 720 0 96 1
23 6 0 +.009 -.0265 .003 0 0 1 .006 .001 1 0 0 81 1 126 1204 98 111 127 0 124 12
8 129 15 27 201 0 48 111 0 17 48 0 27 29 28 46 74 77 0 85 +17 29 0 27 25 48 50 8
5 83 0 30 -17 28 0 27 48 25 71 32 130 0 0 -16 77 136 0 ?48 67 131 132 0 0 1 17 8
5 0 125 51 23 46 29 83 0 64 +15 125 199 0 61 122 0 17 51 0 125 61 85 49 64 67 0
 55 +17 23 0 125 85 61 50 133 10 0 29 +17 64 0 63 74 56 46 51 67 0 0 -16 67 132
 0 ?51 57 77 80 0 0 1 31 80 162 0 67 132 68 0 +-.026 -.0265 0 0 0 1 1 0 0 .007 3
0 132 163 0 77 134 80 0 +-.026 -.0195 0 -1 0 0 30 134 19 0 72 79 132 0 +.009 -.0
335 .003 1 1982541115402065e-31 0 16 72 17 0 ?135 60 31 134 0 0 1 30 79 11 0 31
 136 134 0 +-.026 -.0195 .003 -1 0 0 31 136 415 0 131 137 79 0 +.009 -.0265 0 0
 0 1 1 0 0 .00425 16 131 393 0 ?138 77 139 136 0 0 1 31 137 453 0 139 140 136 0
 +-.026 -.0265 0 0 0 1 1 0 0 .00425 16 139 431 0 ?141 131 142 137 0 0 1 31 140 5
79 0 86 143 137 0 +-.026 -.0265 .003 0 0 1 1 0 0 .007 16 86 533 0 ?104 87 83 140
 0 0 1 31 143 582 0 142 144 140 0 +-.026 -.0265 .004 0 0 1 1 0 0 .00425 16 142 5
50 0 ?145 139 39 143 0 0 1 31 144 642 0 39 146 143 0 +.009 -.0265 .003 0 0 1 1 0
 0 .007 16 39 607 0 ?38 142 147 144 147 147 1 31 146 645 0 148 149 144 0 +.009 -
.0265 .004 0 0 1 1 0 0 .00425 16 148 613 0 ?150 147 130 146 0 0 1 30 149 1003 0
 130 0 146 0 +.009 -.0195 0 0 0 1 16 130 878 0 ?32 148 0 149 0 0 1 17 32 0 36 33
 69 11 28 130 0 113 +17 113 0 106 30 135 11 40 147 0 38 -17 30 0 106 41 113 50 2
5 31 0 0 +17 135 0 106 113 41 26 59 72 0 54 +17 40 0 103 38 38 26 113 147 0 135
 +16 147 797 0 ?40 39 148 144 39 39 1 17 38 0 103 40 40 11 33 39 0 0 +15 103 711
 0 40 96 151 15 151 712 0 152 96 0 17 152 0 151 152 152 0 88 87 0 0 -17 88 0 153
 88 88 0 152 87 0 0 +15 153 678 0 88 102 154 14 102 618 128 ?96 92 153 5 155 +0
 0 96 92 22 15 154 621 0 156 102 0 17 156 0 154 156 156 0 150 148 0 0 -17 150 0
 157 150 150 0 156 148 0 0 +15 157 634 0 150 115 0 14 115 399 158 ?159 70 160 5
 114 +0 0 159 70 22 81 1 158 1206 98 115 161 0 128 162 163 14 159 437 162 ?92 11
5 164 5 116 +0 0 92 115 22 15 160 403 0 165 115 157 17 165 0 160 165 165 0 138 1
31 0 0 -17 138 0 76 138 138 0 165 131 0 0 +15 76 382 0 138 75 166 15 166 420 0 1
41 75 0 17 141 0 166 141 141 0 167 139 0 0 +17 167 0 164 167 167 0 141 139 0 0 -
15 164 441 0 167 159 168 15 168 571 0 145 159 0 17 145 0 168 145 145 0 169 142 0
 0 +17 169 0 93 169 169 0 145 142 0 0 -15 93 558 0 169 92 0 14 92 555 170 ?102 1
59 90 5 171 +0 0 102 159 22 81 1 170 1208 98 92 172 0 162 0 173 50 171 577 0 92
 155 116 0 +-.026 -.0265 .004 0 0 1 1 0 0 50 155 640 0 102 0 171 0 +.009 -.0265
 .004 0 0 1 1 0 0 51 116 450 0 159 171 114 0 --.026 -.0265 .003 0 0 -1 .00425 -1
 0 0 80 255 1 98 174 175 9000 1 1 1 1 1 1 1 1 0 FFFFTFTFFFFFFF1 81 1 172 1160 17
6 92 0 170 177 178 179 81 1 162 1207 98 159 177 0 158 170 180 82 255 1 173 -5244
18956 81 1 177 1159 176 159 0 162 161 172 181 82 1 180 297009264 80 1 176 0 182
 8001 0 0 0 0 3 5 0 0 0 FFFFTFTFFFFFFF2 81 1 161 1158 176 115 0 158 183 177 184
 83 255 3 181 .694117647058824 .0980392156862745 .0980392156862745 81 1 183 1157
 176 70 0 119 185 161 186 83 3 184 .694117647058824 .0980392156862745 .098039215
6862745 81 1 119 1201 98 70 183 0 109 121 187 81 1 185 1156 176 58 0 121 188 183
 189 83 3 186 .694117647058824 .0980392156862745 .0980392156862745 81 1 121 1202
 98 58 185 0 119 124 190 81 1 188 1155 176 122 0 124 127 185 191 83 3 189 .69411
7647058824 .0980392156862745 .0980392156862745 81 1 124 1203 98 122 188 0 121 12
6 192 81 1 127 1154 176 111 0 126 193 188 194 83 3 191 .694117647058824 .0980392
156862745 .0980392156862745 81 1 193 1153 176 75 0 109 108 127 195 83 3 194 .694
117647058824 .0980392156862745 .0980392156862745 81 1 109 1200 98 75 193 0 105 1
19 196 81 1 108 1152 176 16 0 105 0 193 197 83 3 195 .694117647058824 .098039215
6862745 .0980392156862745 83 3 197 .694117647058824 .0980392156862745 .098039215
6862745 82 1 196 -198573961 82 1 192 274333812 82 1 190 274071668 82 1 187 -1975
25385 79 255 15 182 SDL/TYSA_COLOUR81 1 178 1161 176 102 0 128 172 198 199 83 3
 179 .694117647058824 .0980392156862745 .0980392156862745 81 1 128 1205 98 102 1
78 0 126 158 200 81 1 198 1162 176 96 0 100 178 99 201 83 3 199 .694117647058824
 .0980392156862745 .0980392156862745 81 1 100 1198 98 96 198 0 95 105 202 81 1 9
9 1163 176 18 0 95 198 0 203 83 3 201 .694117647058824 .0980392156862745 .098039
2156862745 83 3 203 .694117647058824 .0980392156862745 .0980392156862745 82 1 20
2 -198901641 82 1 200 -523042700 79 14 175 SWEntUnchanged82 1 163 292946032 17 4
1 0 106 135 30 34 104 86 0 61 -17 59 0 53 55 54 34 135 72 0 133 -17 133 0 97 104
 104 34 23 10 0 0 -17 104 0 97 133 133 50 41 86 0 23 +18 50 554 0 104 46 71 45 ?
1 18 71 909 0 74 50 0 204 ?1 29 45 584 0 50 204 43 -.026 -.0195 .003 29 204 1043
 0 71 0 45 .009 -.0195 0 17 61 0 125 23 51 34 55 62 0 59 -82 1 129 -197132169 82
 1 110 -198705033 82 1 101 -110165900 19 17 226 0 1 0 9 5 S0 74 4 CI16 index_map
_offset0 0 1 dCCZ20 15 9 0 0 170 205 206 207 208 209 99 13 2 0 0 0 0 0 0 0 0 0 0
 0 81 2 205 656 210 1 0 206 0 0 0 211 81 2 206 664 212 1 205 207 0 0 0 213 81 2
 207 780 214 1 206 208 0 0 0 215 81 2 208 781 216 1 207 209 0 0 0 0 81 1 209 113
6 217 1 208 13 0 0 218 81 2 13 1195 219 1 209 2 0 0 220 0 80 2 219 221 222 8004
 0 0 0 0 3 5 0 0 0 FFTFFFFFFFFFFF2 3 83 1 220 1020 79 16 222 SDL/TYSA_DENSITY80
 1 217 223 224 9000 1 1 1 1 1 1 1 1 0 FFTFFFFFFFFFFF1 82 1 218 4191075 79 10 224
 BODY_MATCH80 2 216 225 226 9000 0 0 0 0 3 5 0 0 0 FFTFFFFFFFFFFF9 1 79 16 226 B
ODY_RECIPE_200180 2 214 227 228 9000 0 0 0 0 3 5 0 0 0 FFTFFFFFFFFFFF9 1 82 1 21
5 1 79 24 228 BODY_IN_LIGHTWEIGHT_PERM80 2 212 229 230 9000 0 0 0 0 3 5 0 0 0 FF
TFFFFFFFFFFF9 1 82 1 213 125 79 30 230 LAST_BODY_MODIFYING_FEATURE_ID80 2 210 23
1 232 9000 0 0 0 0 3 5 0 0 0 FFTFFFFFFFFFFF9 1 82 1 211 116 79 19 232 ENT_TIME_S
TAMP_200180 2 12 233 234 9000 0 0 0 0 3 5 0 0 0 FFTFFFFFFFFFFF9 1 82 1 14 103 79
 12 234 ATOM_ID_20011 0 
